
<svg
xmlns="http://www.w3.org/2000/svg"
width="951"
height="169"
viewBox="0 0 951 169">

<rect
width="100%"
height="100%"
fill="#000000"/>

<circle
cx="648.6794619367889"
cy="124.64340222895744"
r="1.0602301183892255"
fill="white"
opacity="0.836053170855299"/>

<circle
cx="748.0772908651475"
cy="130.25256285697333"
r="0.515279226199731"
fill="white"
opacity="0.46409365088043714"/>

<circle
cx="399.1890330290622"
cy="40.6600083792106"
r="0.8488460696099498"
fill="white"
opacity="0.5897561250532114"/>

<circle
cx="595.5965061675972"
cy="165.50303641941287"
r="1.2999839091880505"
fill="white"
opacity="0.5801630231293491"/>

<circle
cx="732.1280481982349"
cy="115.73972834595058"
r="0.7573442950921712"
fill="white"
opacity="0.23221072927431996"/>

<circle
cx="85.63291424875854"
cy="55.59463888338076"
r="0.45031544187596867"
fill="white"
opacity="0.4590491460343589"/>

<circle
cx="908.9453964917567"
cy="90.79231947956781"
r="1.3764293391403404"
fill="white"
opacity="0.4253921543931011"/>

<circle
cx="539.8966791337732"
cy="30.13103087179781"
r="1.3883297196449047"
fill="white"
opacity="0.41121174282819645"/>

<circle
cx="118.52011144195114"
cy="51.69560683319104"
r="0.8989318403981617"
fill="white"
opacity="0.6708455740206413"/>

<circle
cx="436.50542977396447"
cy="23.425750729419953"
r="0.30785059950870114"
fill="white"
opacity="0.6439511057051446"/>

<circle
cx="231.74054565209866"
cy="129.29453591818887"
r="0.8806176073689409"
fill="white"
opacity="0.894722405724933"/>

<circle
cx="499.3168296405746"
cy="104.12596445731222"
r="0.8377862927330995"
fill="white"
opacity="0.9122387955097901"/>

<circle
cx="305.6146975409918"
cy="139.6154393244493"
r="1.6040864286449559"
fill="white"
opacity="0.572444753329585"/>

<circle
cx="637.2012713653718"
cy="54.053749116639054"
r="0.4704093746729861"
fill="white"
opacity="0.5846379298058271"/>

<circle
cx="910.3622787299605"
cy="113.24290952660424"
r="0.4747734377932343"
fill="white"
opacity="0.7178239944788307"/>

<circle
cx="119.5701353639072"
cy="59.17175929340565"
r="0.4969822812370707"
fill="white"
opacity="0.5654588818535706"/>

<circle
cx="915.4833724412179"
cy="117.13792879445045"
r="1.5960069408077953"
fill="white"
opacity="0.6321687539974221"/>

<circle
cx="853.9666564002603"
cy="125.73089224655807"
r="0.3649367714089086"
fill="white"
opacity="0.44123858786323267"/>

<circle
cx="576.8632427161009"
cy="150.11123109467823"
r="1.211106580016912"
fill="white"
opacity="0.6992603123879559"/>

<circle
cx="456.71993755461096"
cy="166.22546451829163"
r="0.5425289508545377"
fill="white"
opacity="0.4465261039706576"/>

<circle
cx="183.73208983244854"
cy="110.54433753319611"
r="0.728896355259159"
fill="white"
opacity="0.3758372088728331"/>

<circle
cx="113.65819835052385"
cy="147.90440920197642"
r="0.3431337420335458"
fill="white"
opacity="0.9521612200297362"/>

<circle
cx="925.2364418648679"
cy="14.961200414465551"
r="0.384662390667087"
fill="white"
opacity="0.5965810268333918"/>

<circle
cx="870.6050067159568"
cy="47.89043681342957"
r="0.2946356116066911"
fill="white"
opacity="0.7473465887996404"/>

<circle
cx="932.8727082076276"
cy="149.8882814580498"
r="0.6746357116911132"
fill="white"
opacity="0.8211422401687629"/>

<circle
cx="20.792669258092964"
cy="102.96623009628325"
r="1.6968211136872922"
fill="white"
opacity="0.7461511411841206"/>

<circle
cx="879.1894831054921"
cy="27.422078756122918"
r="1.2834766312919916"
fill="white"
opacity="0.9526429540375287"/>

<circle
cx="212.8543165437644"
cy="107.1099168156114"
r="1.6667278014574312"
fill="white"
opacity="0.4824996002192512"/>

<circle
cx="737.8975031498637"
cy="153.84234389913513"
r="0.2569211510840919"
fill="white"
opacity="0.8624646377772058"/>

<circle
cx="105.91734843848059"
cy="49.485559125060014"
r="0.47463110768488276"
fill="white"
opacity="0.2735029651527214"/>

<circle
cx="245.60215138787157"
cy="162.36510788227903"
r="1.5053900737914787"
fill="white"
opacity="0.5346106768252226"/>

<circle
cx="697.4231485729318"
cy="48.98284841393408"
r="1.29628396475813"
fill="white"
opacity="0.43860957527224614"/>

<circle
cx="332.72068204007974"
cy="122.70468116821345"
r="1.492518658222968"
fill="white"
opacity="0.2549778420008645"/>

<circle
cx="878.0440568847783"
cy="42.312428392888535"
r="1.2408832639538856"
fill="white"
opacity="0.4982771571004543"/>

<circle
cx="525.1977562210794"
cy="72.43405193442537"
r="1.4599757703612897"
fill="white"
opacity="0.9345287627497831"/>

<circle
cx="871.3411387211919"
cy="56.592469287613376"
r="1.2121278303290068"
fill="white"
opacity="0.5350853511118943"/>

<circle
cx="203.4244200312491"
cy="129.63898138976572"
r="1.6555651024789173"
fill="white"
opacity="0.675581516379943"/>

<circle
cx="157.1543164285808"
cy="19.084891584528098"
r="0.408287849901595"
fill="white"
opacity="0.7199411962260114"/>

<circle
cx="443.6385881751518"
cy="152.7395266132985"
r="0.26375353421869"
fill="white"
opacity="0.20634049762751572"/>

<circle
cx="537.3650037769986"
cy="48.17653526627734"
r="1.5882640372263013"
fill="white"
opacity="0.45914439818786834"/>

<circle
cx="71.14804115253426"
cy="58.084645588798374"
r="0.7103090543768171"
fill="white"
opacity="0.21561947020860758"/>

<circle
cx="517.454544517261"
cy="111.1400719118928"
r="0.8696782680389679"
fill="white"
opacity="0.5397851670790406"/>

<circle
cx="750.7647105364185"
cy="86.39827441419241"
r="0.632709515881666"
fill="white"
opacity="0.5210920026624115"/>

<circle
cx="24.065897909121208"
cy="107.79159630488071"
r="0.9004933637191266"
fill="white"
opacity="0.25812118290348174"/>

<circle
cx="763.7956662383901"
cy="57.865361357678715"
r="0.9313425365776762"
fill="white"
opacity="0.6807932565646757"/>

<circle
cx="500.1263020339953"
cy="111.47227671428472"
r="1.1984838692964823"
fill="white"
opacity="0.7181241659442568"/>

<circle
cx="161.16151983961993"
cy="71.26933281568472"
r="1.3820379857691998"
fill="white"
opacity="0.49342880236895437"/>

<circle
cx="626.5157716979458"
cy="16.70248744888185"
r="0.8874912563341999"
fill="white"
opacity="0.5291681309415269"/>

<circle
cx="180.1162356166228"
cy="94.19917016533452"
r="1.4316203878712017"
fill="white"
opacity="0.348764367066258"/>

<circle
cx="424.5072352484911"
cy="50.93826439348262"
r="0.7206014642327223"
fill="white"
opacity="0.5674577118457294"/>

<circle
cx="698.97408129611"
cy="168.52465072783627"
r="0.3194776308576068"
fill="white"
opacity="0.8111837538773956"/>

<circle
cx="749.2999146500055"
cy="105.36075184853406"
r="0.7487440309092142"
fill="white"
opacity="0.6113032585518265"/>

<circle
cx="5.492666765011048"
cy="9.563855507726926"
r="0.2687226686187382"
fill="white"
opacity="0.4701737715667566"/>

<circle
cx="913.737362012811"
cy="20.012008588159183"
r="0.8951444649913876"
fill="white"
opacity="0.3114374441501621"/>

<circle
cx="496.5383653690897"
cy="92.00380110092732"
r="0.7345298055122857"
fill="white"
opacity="0.4261216730805124"/>

<circle
cx="791.5436395627572"
cy="135.08909262104126"
r="0.7961707504839981"
fill="white"
opacity="0.31651835901380887"/>

<circle
cx="303.4932644543557"
cy="61.58775836515917"
r="1.5924730802204106"
fill="white"
opacity="0.6576301703661875"/>

<circle
cx="414.40903445861886"
cy="103.44926014291605"
r="0.41434173151976955"
fill="white"
opacity="0.5666446497476892"/>

<circle
cx="170.5669107790283"
cy="107.46126059672554"
r="0.5053267117762006"
fill="white"
opacity="0.9820671485988284"/>

<circle
cx="285.6990680100098"
cy="27.373872582552043"
r="0.5980132013881247"
fill="white"
opacity="0.4037469072857361"/>

<circle
cx="445.2767006965396"
cy="64.2232899504471"
r="0.6918504842039894"
fill="white"
opacity="0.33609295830405783"/>

<circle
cx="30.094614805632563"
cy="16.827602611708425"
r="1.3779401621950025"
fill="white"
opacity="0.3337146739431104"/>

<circle
cx="397.95791226468697"
cy="85.22157757350917"
r="1.4041720429249722"
fill="white"
opacity="0.26557668164737724"/>

<circle
cx="501.35373591479794"
cy="129.02612314111244"
r="0.504924507778566"
fill="white"
opacity="0.5698247436907704"/>

<circle
cx="157.23128524374255"
cy="17.963643984299793"
r="0.8930095454242044"
fill="white"
opacity="0.8542383894951764"/>

<circle
cx="756.4092587362242"
cy="120.76531274983198"
r="1.0596393948729015"
fill="white"
opacity="0.452414269973567"/>

<circle
cx="586.9487544827684"
cy="84.31988527501031"
r="0.817854988748363"
fill="white"
opacity="0.9923211020455873"/>

<circle
cx="120.00762669138211"
cy="8.394243272679358"
r="0.42449374943651846"
fill="white"
opacity="0.8667669295260294"/>

<circle
cx="580.5255567305579"
cy="88.82260132242176"
r="0.492465776535227"
fill="white"
opacity="0.24425179709137979"/>

<circle
cx="575.0428756566785"
cy="61.52743258841799"
r="1.1529903643039856"
fill="white"
opacity="0.5308038317777435"/>

<circle
cx="564.8454982040363"
cy="114.9739708153592"
r="1.2713015503322664"
fill="white"
opacity="0.7491876331186547"/>

<circle
cx="114.87549244567298"
cy="101.68014271405379"
r="1.24586557385996"
fill="white"
opacity="0.7378551976371519"/>

<circle
cx="921.2680893934468"
cy="5.988998502801929"
r="1.6570006175898417"
fill="white"
opacity="0.2749847316269069"/>

<circle
cx="143.511210352822"
cy="106.57096400152821"
r="1.6153311482621215"
fill="white"
opacity="0.7281510330272707"/>

<circle
cx="252.0018478144654"
cy="165.53980179072911"
r="1.178585025824976"
fill="white"
opacity="0.2895735030656642"/>

<circle
cx="190.07222665424058"
cy="103.84580755687921"
r="0.6768103950302837"
fill="white"
opacity="0.8522745238909388"/>

<circle
cx="536.0648395242126"
cy="10.933118954087035"
r="0.6611160408974173"
fill="white"
opacity="0.8790390519294375"/>

<circle
cx="57.80007963143895"
cy="110.65003738728063"
r="1.3219560667473853"
fill="white"
opacity="0.44916623508920694"/>

<circle
cx="173.01967166751817"
cy="126.42791736100305"
r="0.41779907417981316"
fill="white"
opacity="0.3618502294213206"/>

<circle
cx="663.7063144791738"
cy="121.04779586938345"
r="1.5102951979380348"
fill="white"
opacity="0.6959735834817955"/>

<circle
cx="601.6671427289104"
cy="73.66478370702742"
r="1.0976549520120096"
fill="white"
opacity="0.7223367994661543"/>

<circle
cx="724.9362024791525"
cy="46.84091723883554"
r="1.4061043288746071"
fill="white"
opacity="0.7450897355771828"/>

<circle
cx="11.138565820962858"
cy="166.88975466003612"
r="1.4500533764703518"
fill="white"
opacity="0.9721118802342386"/>

<circle
cx="940.6222757144022"
cy="77.90966879749851"
r="0.7836164788334954"
fill="white"
opacity="0.3237988658298354"/>

<circle
cx="586.0593243828258"
cy="153.86440145888906"
r="1.3737491017021377"
fill="white"
opacity="0.36350546667992706"/>

<circle
cx="861.3662561780868"
cy="164.907852517617"
r="1.2763189189395703"
fill="white"
opacity="0.5446917653797319"/>

<circle
cx="699.0700847214067"
cy="21.55603054345876"
r="1.0336035740568439"
fill="white"
opacity="0.25682380080216893"/>

<circle
cx="734.7416714412692"
cy="11.790517432850034"
r="0.22752837212003701"
fill="white"
opacity="0.2071143236597589"/>

<circle
cx="217.90880682908303"
cy="144.31686669470233"
r="1.2725237144498565"
fill="white"
opacity="0.3644796703788371"/>

<circle
cx="116.8872743534748"
cy="79.8196421799975"
r="1.3725980673263023"
fill="white"
opacity="0.9708744311134252"/>

<circle
cx="121.00508534400774"
cy="114.40963286087178"
r="1.0897836986192497"
fill="white"
opacity="0.2073625776197778"/>

<circle
cx="737.0464410417176"
cy="83.69546942948595"
r="1.4942249283465583"
fill="white"
opacity="0.6840102407321007"/>

<circle
cx="466.849932029084"
cy="74.30576744049225"
r="0.7876270076905605"
fill="white"
opacity="0.9277338967089264"/>

<circle
cx="707.8131180042221"
cy="148.78482448444026"
r="1.0744070754549608"
fill="white"
opacity="0.9462865451646267"/>

<circle
cx="107.7078407749385"
cy="23.972766700391563"
r="0.8796932756074016"
fill="white"
opacity="0.7972395834715307"/>

<circle
cx="28.79931259635267"
cy="51.33168051395178"
r="1.2313215213891797"
fill="white"
opacity="0.7425024331946386"/>

<circle
cx="595.8110084166221"
cy="114.97708528681513"
r="1.0436689090706839"
fill="white"
opacity="0.23238326741001425"/>

<circle
cx="892.508381714043"
cy="103.15040929056279"
r="0.6568966268436041"
fill="white"
opacity="0.7590212238385932"/>

<circle
cx="870.528204340904"
cy="143.91842440208873"
r="1.1959813833759838"
fill="white"
opacity="0.26327680638822337"/>

<circle
cx="945.3716471881869"
cy="150.25533467539816"
r="1.189820010756871"
fill="white"
opacity="0.4469227807439602"/>

<circle
cx="173.08144801305482"
cy="82.59232233000803"
r="1.501241079547787"
fill="white"
opacity="0.7391722736887603"/>

<circle
cx="472.55527135805715"
cy="127.6469783159216"
r="1.308205618778753"
fill="white"
opacity="0.9668263946132194"/>

<circle
cx="277.4509200938229"
cy="134.97871332176396"
r="1.23872446130787"
fill="white"
opacity="0.22666210745298265"/>

<circle
cx="619.2004594273388"
cy="56.83665619840342"
r="0.4551540475630836"
fill="white"
opacity="0.28139804885615993"/>

<circle
cx="340.47270956667944"
cy="135.5616908134058"
r="0.7101730986018999"
fill="white"
opacity="0.6039502244604"/>

<circle
cx="907.591508071801"
cy="139.82397975451082"
r="0.4590273700128756"
fill="white"
opacity="0.9361441688269139"/>

<circle
cx="41.06153920516109"
cy="58.84967656178479"
r="1.6426215841314724"
fill="white"
opacity="0.3676484684309726"/>

<circle
cx="169.61999809136356"
cy="3.4096948200715973"
r="1.1780055683242643"
fill="white"
opacity="0.44578227303810075"/>

<circle
cx="619.4110049347108"
cy="59.14756014201251"
r="1.3843560708353428"
fill="white"
opacity="0.9133979290493588"/>

<circle
cx="99.13900900624346"
cy="93.6868544757741"
r="0.2633672980486415"
fill="white"
opacity="0.6537896238445025"/>

<circle
cx="891.921924493394"
cy="29.37963870581723"
r="0.8848426445884074"
fill="white"
opacity="0.21600440647312863"/>

<circle
cx="222.87807392072455"
cy="139.52865969419784"
r="1.0622705607334622"
fill="white"
opacity="0.648099690335554"/>

<circle
cx="407.85681086779886"
cy="109.23014168502412"
r="0.637722296942925"
fill="white"
opacity="0.40615689092418994"/>

<circle
cx="597.8613698450715"
cy="123.74185189322132"
r="0.7324181774826954"
fill="white"
opacity="0.42794357887122275"/>

<circle
cx="321.9480159956884"
cy="158.35657090927913"
r="1.199671473055306"
fill="white"
opacity="0.6235054742450234"/>

<circle
cx="813.7844283573495"
cy="72.11449918540973"
r="1.601218238079702"
fill="white"
opacity="0.29970441981959567"/>

<circle
cx="94.69324830963257"
cy="129.78832960978758"
r="1.266121472101119"
fill="white"
opacity="0.9811755689099804"/>

<circle
cx="737.7618175491306"
cy="92.685181997481"
r="1.1049865868047875"
fill="white"
opacity="0.826221930400779"/>

<circle
cx="710.7046526026849"
cy="134.39463550138402"
r="1.0945900064989071"
fill="white"
opacity="0.807750565284381"/>

<circle
cx="919.8867865460409"
cy="98.99409683588605"
r="1.4682467210809398"
fill="white"
opacity="0.5887435145267581"/>

<rect
x="25"
y="25"
width="12"
height="12"
rx="2"
fill="#0e4429"/>

<rect
x="25"
y="42"
width="12"
height="12"
rx="2"
fill="#0e4429"/>

<rect
x="25"
y="59"
width="12"
height="12"
rx="2"
fill="#0e4429"/>

<rect
x="25"
y="76"
width="12"
height="12"
rx="2"
fill="#0e4429"/>

<rect
x="25"
y="93"
width="12"
height="12"
rx="2"
fill="#0e4429"/>

<rect
x="25"
y="110"
width="12"
height="12"
rx="2"
fill="#0e4429"/>

<rect
x="25"
y="127"
width="12"
height="12"
rx="2"
fill="#0e4429"/>

<rect
x="42"
y="25"
width="12"
height="12"
rx="2"
fill="#0e4429"/>

<rect
x="42"
y="42"
width="12"
height="12"
rx="2"
fill="#0e4429"/>

<rect
x="42"
y="59"
width="12"
height="12"
rx="2"
fill="#0e4429"/>

<rect
x="42"
y="76"
width="12"
height="12"
rx="2"
fill="#0e4429"/>

<rect
x="42"
y="93"
width="12"
height="12"
rx="2"
fill="#0e4429"/>

<rect
x="42"
y="110"
width="12"
height="12"
rx="2"
fill="#0e4429"/>

<rect
x="42"
y="127"
width="12"
height="12"
rx="2"
fill="#0e4429"/>

<rect
x="59"
y="25"
width="12"
height="12"
rx="2"
fill="#0e4429"/>

<rect
x="59"
y="42"
width="12"
height="12"
rx="2"
fill="#0e4429"/>

<rect
x="59"
y="59"
width="12"
height="12"
rx="2"
fill="#0e4429"/>

<rect
x="59"
y="76"
width="12"
height="12"
rx="2"
fill="#0e4429"/>

<rect
x="59"
y="93"
width="12"
height="12"
rx="2"
fill="#0e4429"/>

<rect
x="59"
y="110"
width="12"
height="12"
rx="2"
fill="#0e4429"/>

<rect
x="59"
y="127"
width="12"
height="12"
rx="2"
fill="#0e4429"/>

<rect
x="76"
y="25"
width="12"
height="12"
rx="2"
fill="#0e4429"/>

<rect
x="76"
y="42"
width="12"
height="12"
rx="2"
fill="#0e4429"/>

<rect
x="76"
y="59"
width="12"
height="12"
rx="2"
fill="#0e4429"/>

<rect
x="76"
y="76"
width="12"
height="12"
rx="2"
fill="#0e4429"/>

<rect
x="76"
y="93"
width="12"
height="12"
rx="2"
fill="#0e4429"/>

<rect
x="76"
y="110"
width="12"
height="12"
rx="2"
fill="#0e4429"/>

<rect
x="76"
y="127"
width="12"
height="12"
rx="2"
fill="#0e4429"/>

<rect
x="93"
y="25"
width="12"
height="12"
rx="2"
fill="#0e4429"/>

<rect
x="93"
y="42"
width="12"
height="12"
rx="2"
fill="#0e4429"/>

<rect
x="93"
y="59"
width="12"
height="12"
rx="2"
fill="#0e4429"/>

<rect
x="93"
y="76"
width="12"
height="12"
rx="2"
fill="#0e4429"/>

<rect
x="93"
y="93"
width="12"
height="12"
rx="2"
fill="#0e4429"/>

<rect
x="93"
y="110"
width="12"
height="12"
rx="2"
fill="#0e4429"/>

<rect
x="93"
y="127"
width="12"
height="12"
rx="2"
fill="#0e4429"/>

<rect
x="110"
y="25"
width="12"
height="12"
rx="2"
fill="#0e4429"/>

<rect
x="110"
y="42"
width="12"
height="12"
rx="2"
fill="#0e4429"/>

<rect
x="110"
y="59"
width="12"
height="12"
rx="2"
fill="#0e4429"/>

<rect
x="110"
y="76"
width="12"
height="12"
rx="2"
fill="#0e4429"/>

<rect
x="110"
y="93"
width="12"
height="12"
rx="2"
fill="#0e4429"/>

<rect
x="110"
y="110"
width="12"
height="12"
rx="2"
fill="#0e4429"/>

<rect
x="110"
y="127"
width="12"
height="12"
rx="2"
fill="#0e4429"/>

<rect
x="127"
y="25"
width="12"
height="12"
rx="2"
fill="#0e4429"/>

<rect
x="127"
y="42"
width="12"
height="12"
rx="2"
fill="#0e4429"/>

<rect
x="127"
y="59"
width="12"
height="12"
rx="2"
fill="#0e4429"/>

<rect
x="127"
y="76"
width="12"
height="12"
rx="2"
fill="#0e4429"/>

<rect
x="127"
y="93"
width="12"
height="12"
rx="2"
fill="#0e4429"/>

<rect
x="127"
y="110"
width="12"
height="12"
rx="2"
fill="#0e4429"/>

<rect
x="127"
y="127"
width="12"
height="12"
rx="2"
fill="#0e4429"/>

<rect
x="144"
y="25"
width="12"
height="12"
rx="2"
fill="#0e4429"/>

<rect
x="144"
y="42"
width="12"
height="12"
rx="2"
fill="#0e4429"/>

<rect
x="144"
y="59"
width="12"
height="12"
rx="2"
fill="#0e4429"/>

<rect
x="144"
y="76"
width="12"
height="12"
rx="2"
fill="#0e4429"/>

<rect
x="144"
y="93"
width="12"
height="12"
rx="2"
fill="#0e4429"/>

<rect
x="144"
y="110"
width="12"
height="12"
rx="2"
fill="#0e4429"/>

<rect
x="144"
y="127"
width="12"
height="12"
rx="2"
fill="#0e4429"/>

<rect
x="161"
y="25"
width="12"
height="12"
rx="2"
fill="#0e4429"/>

<rect
x="161"
y="42"
width="12"
height="12"
rx="2"
fill="#0e4429"/>

<rect
x="161"
y="59"
width="12"
height="12"
rx="2"
fill="#0e4429"/>

<rect
x="161"
y="76"
width="12"
height="12"
rx="2"
fill="#0e4429"/>

<rect
x="161"
y="93"
width="12"
height="12"
rx="2"
fill="#0e4429"/>

<rect
x="161"
y="110"
width="12"
height="12"
rx="2"
fill="#0e4429"/>

<rect
x="161"
y="127"
width="12"
height="12"
rx="2"
fill="#0e4429"/>

<rect
x="178"
y="25"
width="12"
height="12"
rx="2"
fill="#0e4429"/>

<rect
x="178"
y="42"
width="12"
height="12"
rx="2"
fill="#0e4429"/>

<rect
x="178"
y="59"
width="12"
height="12"
rx="2"
fill="#0e4429"/>

<rect
x="178"
y="76"
width="12"
height="12"
rx="2"
fill="#0e4429"/>

<rect
x="178"
y="93"
width="12"
height="12"
rx="2"
fill="#0e4429"/>

<rect
x="178"
y="110"
width="12"
height="12"
rx="2"
fill="#0e4429"/>

<rect
x="178"
y="127"
width="12"
height="12"
rx="2"
fill="#0e4429"/>

<rect
x="195"
y="25"
width="12"
height="12"
rx="2"
fill="#0e4429"/>

<rect
x="195"
y="42"
width="12"
height="12"
rx="2"
fill="#0e4429"/>

<rect
x="195"
y="59"
width="12"
height="12"
rx="2"
fill="#0e4429"/>

<rect
x="195"
y="76"
width="12"
height="12"
rx="2"
fill="#0e4429"/>

<rect
x="195"
y="93"
width="12"
height="12"
rx="2"
fill="#0e4429"/>

<rect
x="195"
y="110"
width="12"
height="12"
rx="2"
fill="#0e4429"/>

<rect
x="195"
y="127"
width="12"
height="12"
rx="2"
fill="#0e4429"/>

<rect
x="212"
y="25"
width="12"
height="12"
rx="2"
fill="#0e4429"/>

<rect
x="212"
y="42"
width="12"
height="12"
rx="2"
fill="#0e4429"/>

<rect
x="212"
y="59"
width="12"
height="12"
rx="2"
fill="#0e4429"/>

<rect
x="212"
y="76"
width="12"
height="12"
rx="2"
fill="#0e4429"/>

<rect
x="212"
y="93"
width="12"
height="12"
rx="2"
fill="#0e4429"/>

<rect
x="212"
y="110"
width="12"
height="12"
rx="2"
fill="#0e4429"/>

<rect
x="212"
y="127"
width="12"
height="12"
rx="2"
fill="#0e4429"/>

<rect
x="229"
y="25"
width="12"
height="12"
rx="2"
fill="#0e4429"/>

<rect
x="229"
y="42"
width="12"
height="12"
rx="2"
fill="#0e4429"/>

<rect
x="229"
y="59"
width="12"
height="12"
rx="2"
fill="#0e4429"/>

<rect
x="229"
y="76"
width="12"
height="12"
rx="2"
fill="#0e4429"/>

<rect
x="229"
y="93"
width="12"
height="12"
rx="2"
fill="#0e4429"/>

<rect
x="229"
y="110"
width="12"
height="12"
rx="2"
fill="#0e4429"/>

<rect
x="229"
y="127"
width="12"
height="12"
rx="2"
fill="#0e4429"/>

<rect
x="246"
y="25"
width="12"
height="12"
rx="2"
fill="#0e4429"/>

<rect
x="246"
y="42"
width="12"
height="12"
rx="2"
fill="#0e4429"/>

<rect
x="246"
y="59"
width="12"
height="12"
rx="2"
fill="#0e4429"/>

<rect
x="246"
y="76"
width="12"
height="12"
rx="2"
fill="#0e4429"/>

<rect
x="246"
y="93"
width="12"
height="12"
rx="2"
fill="#0e4429"/>

<rect
x="246"
y="110"
width="12"
height="12"
rx="2"
fill="#0e4429"/>

<rect
x="246"
y="127"
width="12"
height="12"
rx="2"
fill="#0e4429"/>

<rect
x="263"
y="25"
width="12"
height="12"
rx="2"
fill="#0e4429"/>

<rect
x="263"
y="42"
width="12"
height="12"
rx="2"
fill="#0e4429"/>

<rect
x="263"
y="59"
width="12"
height="12"
rx="2"
fill="#0e4429"/>

<rect
x="263"
y="76"
width="12"
height="12"
rx="2"
fill="#0e4429"/>

<rect
x="263"
y="93"
width="12"
height="12"
rx="2"
fill="#0e4429"/>

<rect
x="263"
y="110"
width="12"
height="12"
rx="2"
fill="#0e4429"/>

<rect
x="263"
y="127"
width="12"
height="12"
rx="2"
fill="#0e4429"/>

<rect
x="280"
y="25"
width="12"
height="12"
rx="2"
fill="#0e4429"/>

<rect
x="280"
y="42"
width="12"
height="12"
rx="2"
fill="#0e4429"/>

<rect
x="280"
y="59"
width="12"
height="12"
rx="2"
fill="#0e4429"/>

<rect
x="280"
y="76"
width="12"
height="12"
rx="2"
fill="#0e4429"/>

<rect
x="280"
y="93"
width="12"
height="12"
rx="2"
fill="#0e4429"/>

<rect
x="280"
y="110"
width="12"
height="12"
rx="2"
fill="#0e4429"/>

<rect
x="280"
y="127"
width="12"
height="12"
rx="2"
fill="#0e4429"/>

<rect
x="297"
y="25"
width="12"
height="12"
rx="2"
fill="#0e4429"/>

<rect
x="297"
y="42"
width="12"
height="12"
rx="2"
fill="#0e4429"/>

<rect
x="297"
y="59"
width="12"
height="12"
rx="2"
fill="#0e4429"/>

<rect
x="297"
y="76"
width="12"
height="12"
rx="2"
fill="#0e4429"/>

<rect
x="297"
y="93"
width="12"
height="12"
rx="2"
fill="#0e4429"/>

<rect
x="297"
y="110"
width="12"
height="12"
rx="2"
fill="#0e4429"/>

<rect
x="297"
y="127"
width="12"
height="12"
rx="2"
fill="#0e4429"/>

<rect
x="314"
y="25"
width="12"
height="12"
rx="2"
fill="#0e4429"/>

<rect
x="314"
y="42"
width="12"
height="12"
rx="2"
fill="#0e4429"/>

<rect
x="314"
y="59"
width="12"
height="12"
rx="2"
fill="#0e4429"/>

<rect
x="314"
y="76"
width="12"
height="12"
rx="2"
fill="#0e4429"/>

<rect
x="314"
y="93"
width="12"
height="12"
rx="2"
fill="#0e4429"/>

<rect
x="314"
y="110"
width="12"
height="12"
rx="2"
fill="#0e4429"/>

<rect
x="314"
y="127"
width="12"
height="12"
rx="2"
fill="#0e4429"/>

<rect
x="331"
y="25"
width="12"
height="12"
rx="2"
fill="#0e4429"/>

<rect
x="331"
y="42"
width="12"
height="12"
rx="2"
fill="#0e4429"/>

<rect
x="331"
y="59"
width="12"
height="12"
rx="2"
fill="#0e4429"/>

<rect
x="331"
y="76"
width="12"
height="12"
rx="2"
fill="#0e4429"/>

<rect
x="331"
y="93"
width="12"
height="12"
rx="2"
fill="#0e4429"/>

<rect
x="331"
y="110"
width="12"
height="12"
rx="2"
fill="#0e4429"/>

<rect
x="331"
y="127"
width="12"
height="12"
rx="2"
fill="#0e4429"/>

<rect
x="348"
y="25"
width="12"
height="12"
rx="2"
fill="#0e4429"/>

<rect
x="348"
y="42"
width="12"
height="12"
rx="2"
fill="#0e4429"/>

<rect
x="348"
y="59"
width="12"
height="12"
rx="2"
fill="#0e4429"/>

<rect
x="348"
y="76"
width="12"
height="12"
rx="2"
fill="#0e4429"/>

<rect
x="348"
y="93"
width="12"
height="12"
rx="2"
fill="#0e4429"/>

<rect
x="348"
y="110"
width="12"
height="12"
rx="2"
fill="#0e4429"/>

<rect
x="348"
y="127"
width="12"
height="12"
rx="2"
fill="#0e4429"/>

<rect
x="365"
y="25"
width="12"
height="12"
rx="2"
fill="#0e4429"/>

<rect
x="365"
y="42"
width="12"
height="12"
rx="2"
fill="#0e4429"/>

<rect
x="365"
y="59"
width="12"
height="12"
rx="2"
fill="#0e4429"/>

<rect
x="365"
y="76"
width="12"
height="12"
rx="2"
fill="#0e4429"/>

<rect
x="365"
y="93"
width="12"
height="12"
rx="2"
fill="#0e4429"/>

<rect
x="365"
y="110"
width="12"
height="12"
rx="2"
fill="#0e4429"/>

<rect
x="365"
y="127"
width="12"
height="12"
rx="2"
fill="#0e4429"/>

<rect
x="382"
y="25"
width="12"
height="12"
rx="2"
fill="#0e4429"/>

<rect
x="382"
y="42"
width="12"
height="12"
rx="2"
fill="#0e4429"/>

<rect
x="382"
y="59"
width="12"
height="12"
rx="2"
fill="#0e4429"/>

<rect
x="382"
y="76"
width="12"
height="12"
rx="2"
fill="#0e4429"/>

<rect
x="382"
y="93"
width="12"
height="12"
rx="2"
fill="#0e4429"/>

<rect
x="382"
y="110"
width="12"
height="12"
rx="2"
fill="#0e4429"/>

<rect
x="382"
y="127"
width="12"
height="12"
rx="2"
fill="#0e4429"/>

<rect
x="399"
y="25"
width="12"
height="12"
rx="2"
fill="#0e4429"/>

<rect
x="399"
y="42"
width="12"
height="12"
rx="2"
fill="#0e4429"/>

<rect
x="399"
y="59"
width="12"
height="12"
rx="2"
fill="#0e4429"/>

<rect
x="399"
y="76"
width="12"
height="12"
rx="2"
fill="#0e4429"/>

<rect
x="399"
y="93"
width="12"
height="12"
rx="2"
fill="#0e4429"/>

<rect
x="399"
y="110"
width="12"
height="12"
rx="2"
fill="#0e4429"/>

<rect
x="399"
y="127"
width="12"
height="12"
rx="2"
fill="#0e4429"/>

<rect
x="416"
y="25"
width="12"
height="12"
rx="2"
fill="#0e4429"/>

<rect
x="416"
y="42"
width="12"
height="12"
rx="2"
fill="#0e4429"/>

<rect
x="416"
y="59"
width="12"
height="12"
rx="2"
fill="#0e4429"/>

<rect
x="416"
y="76"
width="12"
height="12"
rx="2"
fill="#0e4429"/>

<rect
x="416"
y="93"
width="12"
height="12"
rx="2"
fill="#0e4429"/>

<rect
x="416"
y="110"
width="12"
height="12"
rx="2"
fill="#0e4429"/>

<rect
x="416"
y="127"
width="12"
height="12"
rx="2"
fill="#0e4429"/>

<rect
x="433"
y="25"
width="12"
height="12"
rx="2"
fill="#0e4429"/>

<rect
x="433"
y="42"
width="12"
height="12"
rx="2"
fill="#0e4429"/>

<rect
x="433"
y="59"
width="12"
height="12"
rx="2"
fill="#0e4429"/>

<rect
x="433"
y="76"
width="12"
height="12"
rx="2"
fill="#0e4429"/>

<rect
x="433"
y="93"
width="12"
height="12"
rx="2"
fill="#0e4429"/>

<rect
x="433"
y="110"
width="12"
height="12"
rx="2"
fill="#0e4429"/>

<rect
x="433"
y="127"
width="12"
height="12"
rx="2"
fill="#0e4429"/>

<rect
x="450"
y="25"
width="12"
height="12"
rx="2"
fill="#0e4429"/>

<rect
x="450"
y="42"
width="12"
height="12"
rx="2"
fill="#0e4429"/>

<rect
x="450"
y="59"
width="12"
height="12"
rx="2"
fill="#0e4429"/>

<rect
x="450"
y="76"
width="12"
height="12"
rx="2"
fill="#0e4429"/>

<rect
x="450"
y="93"
width="12"
height="12"
rx="2"
fill="#0e4429"/>

<rect
x="450"
y="110"
width="12"
height="12"
rx="2"
fill="#0e4429"/>

<rect
x="450"
y="127"
width="12"
height="12"
rx="2"
fill="#0e4429"/>

<rect
x="467"
y="25"
width="12"
height="12"
rx="2"
fill="#0e4429"/>

<rect
x="467"
y="42"
width="12"
height="12"
rx="2"
fill="#0e4429"/>

<rect
x="467"
y="59"
width="12"
height="12"
rx="2"
fill="#0e4429"/>

<rect
x="467"
y="76"
width="12"
height="12"
rx="2"
fill="#0e4429"/>

<rect
x="467"
y="93"
width="12"
height="12"
rx="2"
fill="#0e4429"/>

<rect
x="467"
y="110"
width="12"
height="12"
rx="2"
fill="#0e4429"/>

<rect
x="467"
y="127"
width="12"
height="12"
rx="2"
fill="#0e4429"/>

<rect
x="484"
y="25"
width="12"
height="12"
rx="2"
fill="#0e4429"/>

<rect
x="484"
y="42"
width="12"
height="12"
rx="2"
fill="#0e4429"/>

<rect
x="484"
y="59"
width="12"
height="12"
rx="2"
fill="#0e4429"/>

<rect
x="484"
y="76"
width="12"
height="12"
rx="2"
fill="#0e4429"/>

<rect
x="484"
y="93"
width="12"
height="12"
rx="2"
fill="#0e4429"/>

<rect
x="484"
y="110"
width="12"
height="12"
rx="2"
fill="#0e4429"/>

<rect
x="484"
y="127"
width="12"
height="12"
rx="2"
fill="#0e4429"/>

<rect
x="501"
y="25"
width="12"
height="12"
rx="2"
fill="#0e4429"/>

<rect
x="501"
y="42"
width="12"
height="12"
rx="2"
fill="#0e4429"/>

<rect
x="501"
y="59"
width="12"
height="12"
rx="2"
fill="#0e4429"/>

<rect
x="501"
y="76"
width="12"
height="12"
rx="2"
fill="#0e4429"/>

<rect
x="501"
y="93"
width="12"
height="12"
rx="2"
fill="#0e4429"/>

<rect
x="501"
y="110"
width="12"
height="12"
rx="2"
fill="#0e4429"/>

<rect
x="501"
y="127"
width="12"
height="12"
rx="2"
fill="#0e4429"/>

<rect
x="518"
y="25"
width="12"
height="12"
rx="2"
fill="#0e4429"/>

<rect
x="518"
y="42"
width="12"
height="12"
rx="2"
fill="#0e4429"/>

<rect
x="518"
y="59"
width="12"
height="12"
rx="2"
fill="#0e4429"/>

<rect
x="518"
y="76"
width="12"
height="12"
rx="2"
fill="#0e4429"/>

<rect
x="518"
y="93"
width="12"
height="12"
rx="2"
fill="#0e4429"/>

<rect
x="518"
y="110"
width="12"
height="12"
rx="2"
fill="#0e4429"/>

<rect
x="518"
y="127"
width="12"
height="12"
rx="2"
fill="#0e4429"/>

<rect
x="535"
y="25"
width="12"
height="12"
rx="2"
fill="#0e4429"/>

<rect
x="535"
y="42"
width="12"
height="12"
rx="2"
fill="#0e4429"/>

<rect
x="535"
y="59"
width="12"
height="12"
rx="2"
fill="#0e4429"/>

<rect
x="535"
y="76"
width="12"
height="12"
rx="2"
fill="#0e4429"/>

<rect
x="535"
y="93"
width="12"
height="12"
rx="2"
fill="#0e4429"/>

<rect
x="535"
y="110"
width="12"
height="12"
rx="2"
fill="#0e4429"/>

<rect
x="535"
y="127"
width="12"
height="12"
rx="2"
fill="#0e4429"/>

<rect
x="552"
y="25"
width="12"
height="12"
rx="2"
fill="#0e4429"/>

<rect
x="552"
y="42"
width="12"
height="12"
rx="2"
fill="#0e4429"/>

<rect
x="552"
y="59"
width="12"
height="12"
rx="2"
fill="#0e4429"/>

<rect
x="552"
y="76"
width="12"
height="12"
rx="2"
fill="#0e4429"/>

<rect
x="552"
y="93"
width="12"
height="12"
rx="2"
fill="#0e4429"/>

<rect
x="552"
y="110"
width="12"
height="12"
rx="2"
fill="#0e4429"/>

<rect
x="552"
y="127"
width="12"
height="12"
rx="2"
fill="#0e4429"/>

<rect
x="569"
y="25"
width="12"
height="12"
rx="2"
fill="#0e4429"/>

<rect
x="569"
y="42"
width="12"
height="12"
rx="2"
fill="#0e4429"/>

<rect
x="569"
y="59"
width="12"
height="12"
rx="2"
fill="#0e4429"/>

<rect
x="569"
y="76"
width="12"
height="12"
rx="2"
fill="#0e4429"/>

<rect
x="569"
y="93"
width="12"
height="12"
rx="2"
fill="#0e4429"/>

<rect
x="569"
y="110"
width="12"
height="12"
rx="2"
fill="#0e4429"/>

<rect
x="569"
y="127"
width="12"
height="12"
rx="2"
fill="#0e4429"/>

<rect
x="586"
y="25"
width="12"
height="12"
rx="2"
fill="#0e4429"/>

<rect
x="586"
y="42"
width="12"
height="12"
rx="2"
fill="#0e4429"/>

<rect
x="586"
y="59"
width="12"
height="12"
rx="2"
fill="#0e4429"/>

<rect
x="586"
y="76"
width="12"
height="12"
rx="2"
fill="#0e4429"/>

<rect
x="586"
y="93"
width="12"
height="12"
rx="2"
fill="#0e4429"/>

<rect
x="586"
y="110"
width="12"
height="12"
rx="2"
fill="#0e4429"/>

<rect
x="586"
y="127"
width="12"
height="12"
rx="2"
fill="#0e4429"/>

<rect
x="603"
y="25"
width="12"
height="12"
rx="2"
fill="#0e4429"/>

<rect
x="603"
y="42"
width="12"
height="12"
rx="2"
fill="#0e4429"/>

<rect
x="603"
y="59"
width="12"
height="12"
rx="2"
fill="#0e4429"/>

<rect
x="603"
y="76"
width="12"
height="12"
rx="2"
fill="#0e4429"/>

<rect
x="603"
y="93"
width="12"
height="12"
rx="2"
fill="#0e4429"/>

<rect
x="603"
y="110"
width="12"
height="12"
rx="2"
fill="#0e4429"/>

<rect
x="603"
y="127"
width="12"
height="12"
rx="2"
fill="#0e4429"/>

<rect
x="620"
y="25"
width="12"
height="12"
rx="2"
fill="#0e4429"/>

<rect
x="620"
y="42"
width="12"
height="12"
rx="2"
fill="#0e4429"/>

<rect
x="620"
y="59"
width="12"
height="12"
rx="2"
fill="#0e4429"/>

<rect
x="620"
y="76"
width="12"
height="12"
rx="2"
fill="#0e4429"/>

<rect
x="620"
y="93"
width="12"
height="12"
rx="2"
fill="#0e4429"/>

<rect
x="620"
y="110"
width="12"
height="12"
rx="2"
fill="#0e4429"/>

<rect
x="620"
y="127"
width="12"
height="12"
rx="2"
fill="#0e4429"/>

<rect
x="637"
y="25"
width="12"
height="12"
rx="2"
fill="#0e4429"/>

<rect
x="637"
y="42"
width="12"
height="12"
rx="2"
fill="#0e4429"/>

<rect
x="637"
y="59"
width="12"
height="12"
rx="2"
fill="#0e4429"/>

<rect
x="637"
y="76"
width="12"
height="12"
rx="2"
fill="#0e4429"/>

<rect
x="637"
y="93"
width="12"
height="12"
rx="2"
fill="#0e4429"/>

<rect
x="637"
y="110"
width="12"
height="12"
rx="2"
fill="#0e4429"/>

<rect
x="637"
y="127"
width="12"
height="12"
rx="2"
fill="#0e4429"/>

<rect
x="654"
y="25"
width="12"
height="12"
rx="2"
fill="#0e4429"/>

<rect
x="654"
y="42"
width="12"
height="12"
rx="2"
fill="#0e4429"/>

<rect
x="654"
y="59"
width="12"
height="12"
rx="2"
fill="#0e4429"/>

<rect
x="654"
y="76"
width="12"
height="12"
rx="2"
fill="#0e4429"/>

<rect
x="654"
y="93"
width="12"
height="12"
rx="2"
fill="#0e4429"/>

<rect
x="654"
y="110"
width="12"
height="12"
rx="2"
fill="#0e4429"/>

<rect
x="654"
y="127"
width="12"
height="12"
rx="2"
fill="#0e4429"/>

<rect
x="671"
y="25"
width="12"
height="12"
rx="2"
fill="#0e4429"/>

<rect
x="671"
y="42"
width="12"
height="12"
rx="2"
fill="#0e4429"/>

<rect
x="671"
y="59"
width="12"
height="12"
rx="2"
fill="#0e4429"/>

<rect
x="671"
y="76"
width="12"
height="12"
rx="2"
fill="#0e4429"/>

<rect
x="671"
y="93"
width="12"
height="12"
rx="2"
fill="#0e4429"/>

<rect
x="671"
y="110"
width="12"
height="12"
rx="2"
fill="#0e4429"/>

<rect
x="671"
y="127"
width="12"
height="12"
rx="2"
fill="#0e4429"/>

<rect
x="688"
y="25"
width="12"
height="12"
rx="2"
fill="#0e4429"/>

<rect
x="688"
y="42"
width="12"
height="12"
rx="2"
fill="#0e4429"/>

<rect
x="688"
y="59"
width="12"
height="12"
rx="2"
fill="#0e4429"/>

<rect
x="688"
y="76"
width="12"
height="12"
rx="2"
fill="#0e4429"/>

<rect
x="688"
y="93"
width="12"
height="12"
rx="2"
fill="#0e4429"/>

<rect
x="688"
y="110"
width="12"
height="12"
rx="2"
fill="#0e4429"/>

<rect
x="688"
y="127"
width="12"
height="12"
rx="2"
fill="#0e4429"/>

<rect
x="705"
y="25"
width="12"
height="12"
rx="2"
fill="#0e4429"/>

<rect
x="705"
y="42"
width="12"
height="12"
rx="2"
fill="#0e4429"/>

<rect
x="705"
y="59"
width="12"
height="12"
rx="2"
fill="#0e4429"/>

<rect
x="705"
y="76"
width="12"
height="12"
rx="2"
fill="#0e4429"/>

<rect
x="705"
y="93"
width="12"
height="12"
rx="2"
fill="#0e4429"/>

<rect
x="705"
y="110"
width="12"
height="12"
rx="2"
fill="#0e4429"/>

<rect
x="705"
y="127"
width="12"
height="12"
rx="2"
fill="#0e4429"/>

<rect
x="722"
y="25"
width="12"
height="12"
rx="2"
fill="#0e4429"/>

<rect
x="722"
y="42"
width="12"
height="12"
rx="2"
fill="#0e4429"/>

<rect
x="722"
y="59"
width="12"
height="12"
rx="2"
fill="#0e4429"/>

<rect
x="722"
y="76"
width="12"
height="12"
rx="2"
fill="#0e4429"/>

<rect
x="722"
y="93"
width="12"
height="12"
rx="2"
fill="#0e4429"/>

<rect
x="722"
y="110"
width="12"
height="12"
rx="2"
fill="#0e4429"/>

<rect
x="722"
y="127"
width="12"
height="12"
rx="2"
fill="#0e4429"/>

<rect
x="739"
y="25"
width="12"
height="12"
rx="2"
fill="#0e4429"/>

<rect
x="739"
y="42"
width="12"
height="12"
rx="2"
fill="#0e4429"/>

<rect
x="739"
y="59"
width="12"
height="12"
rx="2"
fill="#0e4429"/>

<rect
x="739"
y="76"
width="12"
height="12"
rx="2"
fill="#0e4429"/>

<rect
x="739"
y="93"
width="12"
height="12"
rx="2"
fill="#0e4429"/>

<rect
x="739"
y="110"
width="12"
height="12"
rx="2"
fill="#0e4429"/>

<rect
x="739"
y="127"
width="12"
height="12"
rx="2"
fill="#0e4429"/>

<rect
x="756"
y="25"
width="12"
height="12"
rx="2"
fill="#0e4429"/>

<rect
x="756"
y="42"
width="12"
height="12"
rx="2"
fill="#0e4429"/>

<rect
x="756"
y="59"
width="12"
height="12"
rx="2"
fill="#0e4429"/>

<rect
x="756"
y="76"
width="12"
height="12"
rx="2"
fill="#0e4429"/>

<rect
x="756"
y="93"
width="12"
height="12"
rx="2"
fill="#0e4429"/>

<rect
x="756"
y="110"
width="12"
height="12"
rx="2"
fill="#0e4429"/>

<rect
x="756"
y="127"
width="12"
height="12"
rx="2"
fill="#0e4429"/>

<rect
x="773"
y="25"
width="12"
height="12"
rx="2"
fill="#0e4429"/>

<rect
x="773"
y="42"
width="12"
height="12"
rx="2"
fill="#0e4429"/>

<rect
x="773"
y="59"
width="12"
height="12"
rx="2"
fill="#0e4429"/>

<rect
x="773"
y="76"
width="12"
height="12"
rx="2"
fill="#0e4429"/>

<rect
x="773"
y="93"
width="12"
height="12"
rx="2"
fill="#0e4429"/>

<rect
x="773"
y="110"
width="12"
height="12"
rx="2"
fill="#0e4429"/>

<rect
x="773"
y="127"
width="12"
height="12"
rx="2"
fill="#0e4429"/>

<rect
x="790"
y="25"
width="12"
height="12"
rx="2"
fill="#0e4429"/>

<rect
x="790"
y="42"
width="12"
height="12"
rx="2"
fill="#0e4429"/>

<rect
x="790"
y="59"
width="12"
height="12"
rx="2"
fill="#0e4429"/>

<rect
x="790"
y="76"
width="12"
height="12"
rx="2"
fill="#0e4429"/>

<rect
x="790"
y="93"
width="12"
height="12"
rx="2"
fill="#0e4429"/>

<rect
x="790"
y="110"
width="12"
height="12"
rx="2"
fill="#0e4429"/>

<rect
x="790"
y="127"
width="12"
height="12"
rx="2"
fill="#0e4429"/>

<rect
x="807"
y="25"
width="12"
height="12"
rx="2"
fill="#0e4429"/>

<rect
x="807"
y="42"
width="12"
height="12"
rx="2"
fill="#0e4429"/>

<rect
x="807"
y="59"
width="12"
height="12"
rx="2"
fill="#0e4429"/>

<rect
x="807"
y="76"
width="12"
height="12"
rx="2"
fill="#0e4429"/>

<rect
x="807"
y="93"
width="12"
height="12"
rx="2"
fill="#0e4429"/>

<rect
x="807"
y="110"
width="12"
height="12"
rx="2"
fill="#0e4429"/>

<rect
x="807"
y="127"
width="12"
height="12"
rx="2"
fill="#0e4429"/>

<rect
x="824"
y="25"
width="12"
height="12"
rx="2"
fill="#0e4429"/>

<rect
x="824"
y="42"
width="12"
height="12"
rx="2"
fill="#0e4429"/>

<rect
x="824"
y="59"
width="12"
height="12"
rx="2"
fill="#0e4429"/>

<rect
x="824"
y="76"
width="12"
height="12"
rx="2"
fill="#0e4429"/>

<rect
x="824"
y="93"
width="12"
height="12"
rx="2"
fill="#0e4429"/>

<rect
x="824"
y="110"
width="12"
height="12"
rx="2"
fill="#0e4429"/>

<rect
x="824"
y="127"
width="12"
height="12"
rx="2"
fill="#0e4429"/>

<rect
x="841"
y="25"
width="12"
height="12"
rx="2"
fill="#0e4429"/>

<rect
x="841"
y="42"
width="12"
height="12"
rx="2"
fill="#0e4429"/>

<rect
x="841"
y="59"
width="12"
height="12"
rx="2"
fill="#0e4429"/>

<rect
x="841"
y="76"
width="12"
height="12"
rx="2"
fill="#0e4429"/>

<rect
x="841"
y="93"
width="12"
height="12"
rx="2"
fill="#0e4429"/>

<rect
x="841"
y="110"
width="12"
height="12"
rx="2"
fill="#0e4429"/>

<rect
x="841"
y="127"
width="12"
height="12"
rx="2"
fill="#0e4429"/>

<rect
x="858"
y="25"
width="12"
height="12"
rx="2"
fill="#0e4429"/>

<rect
x="858"
y="42"
width="12"
height="12"
rx="2"
fill="#0e4429"/>

<rect
x="858"
y="59"
width="12"
height="12"
rx="2"
fill="#0e4429"/>

<rect
x="858"
y="76"
width="12"
height="12"
rx="2"
fill="#0e4429"/>

<rect
x="858"
y="93"
width="12"
height="12"
rx="2"
fill="#0e4429"/>

<rect
x="858"
y="110"
width="12"
height="12"
rx="2"
fill="#0e4429"/>

<rect
x="858"
y="127"
width="12"
height="12"
rx="2"
fill="#0e4429"/>

<rect
x="875"
y="25"
width="12"
height="12"
rx="2"
fill="#0e4429"/>

<rect
x="875"
y="42"
width="12"
height="12"
rx="2"
fill="#0e4429"/>

<rect
x="875"
y="59"
width="12"
height="12"
rx="2"
fill="#0e4429"/>

<rect
x="875"
y="76"
width="12"
height="12"
rx="2"
fill="#0e4429"/>

<rect
x="875"
y="93"
width="12"
height="12"
rx="2"
fill="#0e4429"/>

<rect
x="875"
y="110"
width="12"
height="12"
rx="2"
fill="#0e4429"/>

<rect
x="875"
y="127"
width="12"
height="12"
rx="2"
fill="#0e4429"/>

<rect
x="892"
y="25"
width="12"
height="12"
rx="2"
fill="#0e4429"/>

<rect
x="892"
y="42"
width="12"
height="12"
rx="2"
fill="#0e4429"/>

<rect
x="892"
y="59"
width="12"
height="12"
rx="2"
fill="#0e4429"/>

<rect
x="892"
y="76"
width="12"
height="12"
rx="2"
fill="#0e4429"/>

<rect
x="892"
y="93"
width="12"
height="12"
rx="2"
fill="#0e4429"/>

<rect
x="892"
y="110"
width="12"
height="12"
rx="2"
fill="#0e4429"/>

<rect
x="892"
y="127"
width="12"
height="12"
rx="2"
fill="#0e4429"/>

<rect
x="909"
y="25"
width="12"
height="12"
rx="2"
fill="#0e4429"/>

<rect
x="909"
y="42"
width="12"
height="12"
rx="2"
fill="#0e4429"/>

<rect
x="909"
y="59"
width="12"
height="12"
rx="2"
fill="#0e4429"/>

<rect
x="909"
y="76"
width="12"
height="12"
rx="2"
fill="#0e4429"/>

<rect
x="909"
y="93"
width="12"
height="12"
rx="2"
fill="#0e4429"/>

<rect
x="909"
y="110"
width="12"
height="12"
rx="2"
fill="#0e4429"/>

<rect
x="909"
y="127"
width="12"
height="12"
rx="2"
fill="#0e4429"/>

<g transform="translate(120 80)">

<polygon
points="
0,-10
14,0
0,10
-5,4
-5,-4"
fill="#dddddd"/>

<circle
cx="-3"
cy="0"
r="2"
fill="#00ccff"/>

</g>

</svg>