
<svg
xmlns="http://www.w3.org/2000/svg"
width="951"
height="169"
viewBox="0 0 951 169">

<rect
width="100%"
height="100%"
fill="#000000"/>

<rect
x="25"
y="25"
width="12"
height="12"
rx="2"
fill="#0e4429"/>

<rect
x="25"
y="42"
width="12"
height="12"
rx="2"
fill="#0e4429"/>

<rect
x="25"
y="59"
width="12"
height="12"
rx="2"
fill="#0e4429"/>

<rect
x="25"
y="76"
width="12"
height="12"
rx="2"
fill="#0e4429"/>

<rect
x="25"
y="93"
width="12"
height="12"
rx="2"
fill="#0e4429"/>

<rect
x="25"
y="110"
width="12"
height="12"
rx="2"
fill="#0e4429"/>

<rect
x="25"
y="127"
width="12"
height="12"
rx="2"
fill="#0e4429"/>

<rect
x="42"
y="25"
width="12"
height="12"
rx="2"
fill="#0e4429"/>

<rect
x="42"
y="42"
width="12"
height="12"
rx="2"
fill="#0e4429"/>

<rect
x="42"
y="59"
width="12"
height="12"
rx="2"
fill="#0e4429"/>

<rect
x="42"
y="76"
width="12"
height="12"
rx="2"
fill="#0e4429"/>

<rect
x="42"
y="93"
width="12"
height="12"
rx="2"
fill="#0e4429"/>

<rect
x="42"
y="110"
width="12"
height="12"
rx="2"
fill="#0e4429"/>

<rect
x="42"
y="127"
width="12"
height="12"
rx="2"
fill="#0e4429"/>

<rect
x="59"
y="25"
width="12"
height="12"
rx="2"
fill="#0e4429"/>

<rect
x="59"
y="42"
width="12"
height="12"
rx="2"
fill="#0e4429"/>

<rect
x="59"
y="59"
width="12"
height="12"
rx="2"
fill="#0e4429"/>

<rect
x="59"
y="76"
width="12"
height="12"
rx="2"
fill="#0e4429"/>

<rect
x="59"
y="93"
width="12"
height="12"
rx="2"
fill="#0e4429"/>

<rect
x="59"
y="110"
width="12"
height="12"
rx="2"
fill="#0e4429"/>

<rect
x="59"
y="127"
width="12"
height="12"
rx="2"
fill="#0e4429"/>

<rect
x="76"
y="25"
width="12"
height="12"
rx="2"
fill="#0e4429"/>

<rect
x="76"
y="42"
width="12"
height="12"
rx="2"
fill="#0e4429"/>

<rect
x="76"
y="59"
width="12"
height="12"
rx="2"
fill="#0e4429"/>

<rect
x="76"
y="76"
width="12"
height="12"
rx="2"
fill="#0e4429"/>

<rect
x="76"
y="93"
width="12"
height="12"
rx="2"
fill="#0e4429"/>

<rect
x="76"
y="110"
width="12"
height="12"
rx="2"
fill="#0e4429"/>

<rect
x="76"
y="127"
width="12"
height="12"
rx="2"
fill="#0e4429"/>

<rect
x="93"
y="25"
width="12"
height="12"
rx="2"
fill="#0e4429"/>

<rect
x="93"
y="42"
width="12"
height="12"
rx="2"
fill="#0e4429"/>

<rect
x="93"
y="59"
width="12"
height="12"
rx="2"
fill="#0e4429"/>

<rect
x="93"
y="76"
width="12"
height="12"
rx="2"
fill="#0e4429"/>

<rect
x="93"
y="93"
width="12"
height="12"
rx="2"
fill="#0e4429"/>

<rect
x="93"
y="110"
width="12"
height="12"
rx="2"
fill="#0e4429"/>

<rect
x="93"
y="127"
width="12"
height="12"
rx="2"
fill="#0e4429"/>

<rect
x="110"
y="25"
width="12"
height="12"
rx="2"
fill="#0e4429"/>

<rect
x="110"
y="42"
width="12"
height="12"
rx="2"
fill="#0e4429"/>

<rect
x="110"
y="59"
width="12"
height="12"
rx="2"
fill="#0e4429"/>

<rect
x="110"
y="76"
width="12"
height="12"
rx="2"
fill="#0e4429"/>

<rect
x="110"
y="93"
width="12"
height="12"
rx="2"
fill="#0e4429"/>

<rect
x="110"
y="110"
width="12"
height="12"
rx="2"
fill="#0e4429"/>

<rect
x="110"
y="127"
width="12"
height="12"
rx="2"
fill="#0e4429"/>

<rect
x="127"
y="25"
width="12"
height="12"
rx="2"
fill="#0e4429"/>

<rect
x="127"
y="42"
width="12"
height="12"
rx="2"
fill="#0e4429"/>

<rect
x="127"
y="59"
width="12"
height="12"
rx="2"
fill="#0e4429"/>

<rect
x="127"
y="76"
width="12"
height="12"
rx="2"
fill="#0e4429"/>

<rect
x="127"
y="93"
width="12"
height="12"
rx="2"
fill="#0e4429"/>

<rect
x="127"
y="110"
width="12"
height="12"
rx="2"
fill="#0e4429"/>

<rect
x="127"
y="127"
width="12"
height="12"
rx="2"
fill="#0e4429"/>

<rect
x="144"
y="25"
width="12"
height="12"
rx="2"
fill="#0e4429"/>

<rect
x="144"
y="42"
width="12"
height="12"
rx="2"
fill="#0e4429"/>

<rect
x="144"
y="59"
width="12"
height="12"
rx="2"
fill="#0e4429"/>

<rect
x="144"
y="76"
width="12"
height="12"
rx="2"
fill="#0e4429"/>

<rect
x="144"
y="93"
width="12"
height="12"
rx="2"
fill="#0e4429"/>

<rect
x="144"
y="110"
width="12"
height="12"
rx="2"
fill="#0e4429"/>

<rect
x="144"
y="127"
width="12"
height="12"
rx="2"
fill="#0e4429"/>

<rect
x="161"
y="25"
width="12"
height="12"
rx="2"
fill="#0e4429"/>

<rect
x="161"
y="42"
width="12"
height="12"
rx="2"
fill="#0e4429"/>

<rect
x="161"
y="59"
width="12"
height="12"
rx="2"
fill="#0e4429"/>

<rect
x="161"
y="76"
width="12"
height="12"
rx="2"
fill="#0e4429"/>

<rect
x="161"
y="93"
width="12"
height="12"
rx="2"
fill="#0e4429"/>

<rect
x="161"
y="110"
width="12"
height="12"
rx="2"
fill="#0e4429"/>

<rect
x="161"
y="127"
width="12"
height="12"
rx="2"
fill="#0e4429"/>

<rect
x="178"
y="25"
width="12"
height="12"
rx="2"
fill="#0e4429"/>

<rect
x="178"
y="42"
width="12"
height="12"
rx="2"
fill="#0e4429"/>

<rect
x="178"
y="59"
width="12"
height="12"
rx="2"
fill="#0e4429"/>

<rect
x="178"
y="76"
width="12"
height="12"
rx="2"
fill="#0e4429"/>

<rect
x="178"
y="93"
width="12"
height="12"
rx="2"
fill="#0e4429"/>

<rect
x="178"
y="110"
width="12"
height="12"
rx="2"
fill="#0e4429"/>

<rect
x="178"
y="127"
width="12"
height="12"
rx="2"
fill="#0e4429"/>

<rect
x="195"
y="25"
width="12"
height="12"
rx="2"
fill="#0e4429"/>

<rect
x="195"
y="42"
width="12"
height="12"
rx="2"
fill="#0e4429"/>

<rect
x="195"
y="59"
width="12"
height="12"
rx="2"
fill="#0e4429"/>

<rect
x="195"
y="76"
width="12"
height="12"
rx="2"
fill="#0e4429"/>

<rect
x="195"
y="93"
width="12"
height="12"
rx="2"
fill="#0e4429"/>

<rect
x="195"
y="110"
width="12"
height="12"
rx="2"
fill="#0e4429"/>

<rect
x="195"
y="127"
width="12"
height="12"
rx="2"
fill="#0e4429"/>

<rect
x="212"
y="25"
width="12"
height="12"
rx="2"
fill="#0e4429"/>

<rect
x="212"
y="42"
width="12"
height="12"
rx="2"
fill="#0e4429"/>

<rect
x="212"
y="59"
width="12"
height="12"
rx="2"
fill="#0e4429"/>

<rect
x="212"
y="76"
width="12"
height="12"
rx="2"
fill="#0e4429"/>

<rect
x="212"
y="93"
width="12"
height="12"
rx="2"
fill="#0e4429"/>

<rect
x="212"
y="110"
width="12"
height="12"
rx="2"
fill="#0e4429"/>

<rect
x="212"
y="127"
width="12"
height="12"
rx="2"
fill="#0e4429"/>

<rect
x="229"
y="25"
width="12"
height="12"
rx="2"
fill="#0e4429"/>

<rect
x="229"
y="42"
width="12"
height="12"
rx="2"
fill="#0e4429"/>

<rect
x="229"
y="59"
width="12"
height="12"
rx="2"
fill="#0e4429"/>

<rect
x="229"
y="76"
width="12"
height="12"
rx="2"
fill="#0e4429"/>

<rect
x="229"
y="93"
width="12"
height="12"
rx="2"
fill="#0e4429"/>

<rect
x="229"
y="110"
width="12"
height="12"
rx="2"
fill="#0e4429"/>

<rect
x="229"
y="127"
width="12"
height="12"
rx="2"
fill="#0e4429"/>

<rect
x="246"
y="25"
width="12"
height="12"
rx="2"
fill="#0e4429"/>

<rect
x="246"
y="42"
width="12"
height="12"
rx="2"
fill="#0e4429"/>

<rect
x="246"
y="59"
width="12"
height="12"
rx="2"
fill="#0e4429"/>

<rect
x="246"
y="76"
width="12"
height="12"
rx="2"
fill="#0e4429"/>

<rect
x="246"
y="93"
width="12"
height="12"
rx="2"
fill="#0e4429"/>

<rect
x="246"
y="110"
width="12"
height="12"
rx="2"
fill="#0e4429"/>

<rect
x="246"
y="127"
width="12"
height="12"
rx="2"
fill="#0e4429"/>

<rect
x="263"
y="25"
width="12"
height="12"
rx="2"
fill="#0e4429"/>

<rect
x="263"
y="42"
width="12"
height="12"
rx="2"
fill="#0e4429"/>

<rect
x="263"
y="59"
width="12"
height="12"
rx="2"
fill="#0e4429"/>

<rect
x="263"
y="76"
width="12"
height="12"
rx="2"
fill="#0e4429"/>

<rect
x="263"
y="93"
width="12"
height="12"
rx="2"
fill="#0e4429"/>

<rect
x="263"
y="110"
width="12"
height="12"
rx="2"
fill="#0e4429"/>

<rect
x="263"
y="127"
width="12"
height="12"
rx="2"
fill="#0e4429"/>

<rect
x="280"
y="25"
width="12"
height="12"
rx="2"
fill="#0e4429"/>

<rect
x="280"
y="42"
width="12"
height="12"
rx="2"
fill="#0e4429"/>

<rect
x="280"
y="59"
width="12"
height="12"
rx="2"
fill="#0e4429"/>

<rect
x="280"
y="76"
width="12"
height="12"
rx="2"
fill="#0e4429"/>

<rect
x="280"
y="93"
width="12"
height="12"
rx="2"
fill="#0e4429"/>

<rect
x="280"
y="110"
width="12"
height="12"
rx="2"
fill="#0e4429"/>

<rect
x="280"
y="127"
width="12"
height="12"
rx="2"
fill="#0e4429"/>

<rect
x="297"
y="25"
width="12"
height="12"
rx="2"
fill="#0e4429"/>

<rect
x="297"
y="42"
width="12"
height="12"
rx="2"
fill="#0e4429"/>

<rect
x="297"
y="59"
width="12"
height="12"
rx="2"
fill="#0e4429"/>

<rect
x="297"
y="76"
width="12"
height="12"
rx="2"
fill="#0e4429"/>

<rect
x="297"
y="93"
width="12"
height="12"
rx="2"
fill="#0e4429"/>

<rect
x="297"
y="110"
width="12"
height="12"
rx="2"
fill="#0e4429"/>

<rect
x="297"
y="127"
width="12"
height="12"
rx="2"
fill="#0e4429"/>

<rect
x="314"
y="25"
width="12"
height="12"
rx="2"
fill="#0e4429"/>

<rect
x="314"
y="42"
width="12"
height="12"
rx="2"
fill="#0e4429"/>

<rect
x="314"
y="59"
width="12"
height="12"
rx="2"
fill="#0e4429"/>

<rect
x="314"
y="76"
width="12"
height="12"
rx="2"
fill="#0e4429"/>

<rect
x="314"
y="93"
width="12"
height="12"
rx="2"
fill="#0e4429"/>

<rect
x="314"
y="110"
width="12"
height="12"
rx="2"
fill="#0e4429"/>

<rect
x="314"
y="127"
width="12"
height="12"
rx="2"
fill="#0e4429"/>

<rect
x="331"
y="25"
width="12"
height="12"
rx="2"
fill="#0e4429"/>

<rect
x="331"
y="42"
width="12"
height="12"
rx="2"
fill="#0e4429"/>

<rect
x="331"
y="59"
width="12"
height="12"
rx="2"
fill="#0e4429"/>

<rect
x="331"
y="76"
width="12"
height="12"
rx="2"
fill="#0e4429"/>

<rect
x="331"
y="93"
width="12"
height="12"
rx="2"
fill="#0e4429"/>

<rect
x="331"
y="110"
width="12"
height="12"
rx="2"
fill="#0e4429"/>

<rect
x="331"
y="127"
width="12"
height="12"
rx="2"
fill="#0e4429"/>

<rect
x="348"
y="25"
width="12"
height="12"
rx="2"
fill="#0e4429"/>

<rect
x="348"
y="42"
width="12"
height="12"
rx="2"
fill="#0e4429"/>

<rect
x="348"
y="59"
width="12"
height="12"
rx="2"
fill="#0e4429"/>

<rect
x="348"
y="76"
width="12"
height="12"
rx="2"
fill="#0e4429"/>

<rect
x="348"
y="93"
width="12"
height="12"
rx="2"
fill="#0e4429"/>

<rect
x="348"
y="110"
width="12"
height="12"
rx="2"
fill="#0e4429"/>

<rect
x="348"
y="127"
width="12"
height="12"
rx="2"
fill="#0e4429"/>

<rect
x="365"
y="25"
width="12"
height="12"
rx="2"
fill="#0e4429"/>

<rect
x="365"
y="42"
width="12"
height="12"
rx="2"
fill="#0e4429"/>

<rect
x="365"
y="59"
width="12"
height="12"
rx="2"
fill="#0e4429"/>

<rect
x="365"
y="76"
width="12"
height="12"
rx="2"
fill="#0e4429"/>

<rect
x="365"
y="93"
width="12"
height="12"
rx="2"
fill="#0e4429"/>

<rect
x="365"
y="110"
width="12"
height="12"
rx="2"
fill="#0e4429"/>

<rect
x="365"
y="127"
width="12"
height="12"
rx="2"
fill="#0e4429"/>

<rect
x="382"
y="25"
width="12"
height="12"
rx="2"
fill="#0e4429"/>

<rect
x="382"
y="42"
width="12"
height="12"
rx="2"
fill="#0e4429"/>

<rect
x="382"
y="59"
width="12"
height="12"
rx="2"
fill="#0e4429"/>

<rect
x="382"
y="76"
width="12"
height="12"
rx="2"
fill="#0e4429"/>

<rect
x="382"
y="93"
width="12"
height="12"
rx="2"
fill="#0e4429"/>

<rect
x="382"
y="110"
width="12"
height="12"
rx="2"
fill="#0e4429"/>

<rect
x="382"
y="127"
width="12"
height="12"
rx="2"
fill="#0e4429"/>

<rect
x="399"
y="25"
width="12"
height="12"
rx="2"
fill="#0e4429"/>

<rect
x="399"
y="42"
width="12"
height="12"
rx="2"
fill="#0e4429"/>

<rect
x="399"
y="59"
width="12"
height="12"
rx="2"
fill="#0e4429"/>

<rect
x="399"
y="76"
width="12"
height="12"
rx="2"
fill="#0e4429"/>

<rect
x="399"
y="93"
width="12"
height="12"
rx="2"
fill="#0e4429"/>

<rect
x="399"
y="110"
width="12"
height="12"
rx="2"
fill="#0e4429"/>

<rect
x="399"
y="127"
width="12"
height="12"
rx="2"
fill="#0e4429"/>

<rect
x="416"
y="25"
width="12"
height="12"
rx="2"
fill="#0e4429"/>

<rect
x="416"
y="42"
width="12"
height="12"
rx="2"
fill="#0e4429"/>

<rect
x="416"
y="59"
width="12"
height="12"
rx="2"
fill="#0e4429"/>

<rect
x="416"
y="76"
width="12"
height="12"
rx="2"
fill="#0e4429"/>

<rect
x="416"
y="93"
width="12"
height="12"
rx="2"
fill="#0e4429"/>

<rect
x="416"
y="110"
width="12"
height="12"
rx="2"
fill="#0e4429"/>

<rect
x="416"
y="127"
width="12"
height="12"
rx="2"
fill="#0e4429"/>

<rect
x="433"
y="25"
width="12"
height="12"
rx="2"
fill="#0e4429"/>

<rect
x="433"
y="42"
width="12"
height="12"
rx="2"
fill="#0e4429"/>

<rect
x="433"
y="59"
width="12"
height="12"
rx="2"
fill="#0e4429"/>

<rect
x="433"
y="76"
width="12"
height="12"
rx="2"
fill="#0e4429"/>

<rect
x="433"
y="93"
width="12"
height="12"
rx="2"
fill="#0e4429"/>

<rect
x="433"
y="110"
width="12"
height="12"
rx="2"
fill="#0e4429"/>

<rect
x="433"
y="127"
width="12"
height="12"
rx="2"
fill="#0e4429"/>

<rect
x="450"
y="25"
width="12"
height="12"
rx="2"
fill="#0e4429"/>

<rect
x="450"
y="42"
width="12"
height="12"
rx="2"
fill="#0e4429"/>

<rect
x="450"
y="59"
width="12"
height="12"
rx="2"
fill="#0e4429"/>

<rect
x="450"
y="76"
width="12"
height="12"
rx="2"
fill="#0e4429"/>

<rect
x="450"
y="93"
width="12"
height="12"
rx="2"
fill="#0e4429"/>

<rect
x="450"
y="110"
width="12"
height="12"
rx="2"
fill="#0e4429"/>

<rect
x="450"
y="127"
width="12"
height="12"
rx="2"
fill="#0e4429"/>

<rect
x="467"
y="25"
width="12"
height="12"
rx="2"
fill="#0e4429"/>

<rect
x="467"
y="42"
width="12"
height="12"
rx="2"
fill="#0e4429"/>

<rect
x="467"
y="59"
width="12"
height="12"
rx="2"
fill="#0e4429"/>

<rect
x="467"
y="76"
width="12"
height="12"
rx="2"
fill="#0e4429"/>

<rect
x="467"
y="93"
width="12"
height="12"
rx="2"
fill="#0e4429"/>

<rect
x="467"
y="110"
width="12"
height="12"
rx="2"
fill="#0e4429"/>

<rect
x="467"
y="127"
width="12"
height="12"
rx="2"
fill="#0e4429"/>

<rect
x="484"
y="25"
width="12"
height="12"
rx="2"
fill="#0e4429"/>

<rect
x="484"
y="42"
width="12"
height="12"
rx="2"
fill="#0e4429"/>

<rect
x="484"
y="59"
width="12"
height="12"
rx="2"
fill="#0e4429"/>

<rect
x="484"
y="76"
width="12"
height="12"
rx="2"
fill="#0e4429"/>

<rect
x="484"
y="93"
width="12"
height="12"
rx="2"
fill="#0e4429"/>

<rect
x="484"
y="110"
width="12"
height="12"
rx="2"
fill="#0e4429"/>

<rect
x="484"
y="127"
width="12"
height="12"
rx="2"
fill="#0e4429"/>

<rect
x="501"
y="25"
width="12"
height="12"
rx="2"
fill="#0e4429"/>

<rect
x="501"
y="42"
width="12"
height="12"
rx="2"
fill="#0e4429"/>

<rect
x="501"
y="59"
width="12"
height="12"
rx="2"
fill="#0e4429"/>

<rect
x="501"
y="76"
width="12"
height="12"
rx="2"
fill="#0e4429"/>

<rect
x="501"
y="93"
width="12"
height="12"
rx="2"
fill="#0e4429"/>

<rect
x="501"
y="110"
width="12"
height="12"
rx="2"
fill="#0e4429"/>

<rect
x="501"
y="127"
width="12"
height="12"
rx="2"
fill="#0e4429"/>

<rect
x="518"
y="25"
width="12"
height="12"
rx="2"
fill="#0e4429"/>

<rect
x="518"
y="42"
width="12"
height="12"
rx="2"
fill="#0e4429"/>

<rect
x="518"
y="59"
width="12"
height="12"
rx="2"
fill="#0e4429"/>

<rect
x="518"
y="76"
width="12"
height="12"
rx="2"
fill="#0e4429"/>

<rect
x="518"
y="93"
width="12"
height="12"
rx="2"
fill="#0e4429"/>

<rect
x="518"
y="110"
width="12"
height="12"
rx="2"
fill="#0e4429"/>

<rect
x="518"
y="127"
width="12"
height="12"
rx="2"
fill="#0e4429"/>

<rect
x="535"
y="25"
width="12"
height="12"
rx="2"
fill="#0e4429"/>

<rect
x="535"
y="42"
width="12"
height="12"
rx="2"
fill="#0e4429"/>

<rect
x="535"
y="59"
width="12"
height="12"
rx="2"
fill="#0e4429"/>

<rect
x="535"
y="76"
width="12"
height="12"
rx="2"
fill="#0e4429"/>

<rect
x="535"
y="93"
width="12"
height="12"
rx="2"
fill="#0e4429"/>

<rect
x="535"
y="110"
width="12"
height="12"
rx="2"
fill="#0e4429"/>

<rect
x="535"
y="127"
width="12"
height="12"
rx="2"
fill="#0e4429"/>

<rect
x="552"
y="25"
width="12"
height="12"
rx="2"
fill="#0e4429"/>

<rect
x="552"
y="42"
width="12"
height="12"
rx="2"
fill="#0e4429"/>

<rect
x="552"
y="59"
width="12"
height="12"
rx="2"
fill="#0e4429"/>

<rect
x="552"
y="76"
width="12"
height="12"
rx="2"
fill="#0e4429"/>

<rect
x="552"
y="93"
width="12"
height="12"
rx="2"
fill="#0e4429"/>

<rect
x="552"
y="110"
width="12"
height="12"
rx="2"
fill="#0e4429"/>

<rect
x="552"
y="127"
width="12"
height="12"
rx="2"
fill="#0e4429"/>

<rect
x="569"
y="25"
width="12"
height="12"
rx="2"
fill="#0e4429"/>

<rect
x="569"
y="42"
width="12"
height="12"
rx="2"
fill="#0e4429"/>

<rect
x="569"
y="59"
width="12"
height="12"
rx="2"
fill="#0e4429"/>

<rect
x="569"
y="76"
width="12"
height="12"
rx="2"
fill="#0e4429"/>

<rect
x="569"
y="93"
width="12"
height="12"
rx="2"
fill="#0e4429"/>

<rect
x="569"
y="110"
width="12"
height="12"
rx="2"
fill="#0e4429"/>

<rect
x="569"
y="127"
width="12"
height="12"
rx="2"
fill="#0e4429"/>

<rect
x="586"
y="25"
width="12"
height="12"
rx="2"
fill="#0e4429"/>

<rect
x="586"
y="42"
width="12"
height="12"
rx="2"
fill="#0e4429"/>

<rect
x="586"
y="59"
width="12"
height="12"
rx="2"
fill="#0e4429"/>

<rect
x="586"
y="76"
width="12"
height="12"
rx="2"
fill="#0e4429"/>

<rect
x="586"
y="93"
width="12"
height="12"
rx="2"
fill="#0e4429"/>

<rect
x="586"
y="110"
width="12"
height="12"
rx="2"
fill="#0e4429"/>

<rect
x="586"
y="127"
width="12"
height="12"
rx="2"
fill="#0e4429"/>

<rect
x="603"
y="25"
width="12"
height="12"
rx="2"
fill="#0e4429"/>

<rect
x="603"
y="42"
width="12"
height="12"
rx="2"
fill="#0e4429"/>

<rect
x="603"
y="59"
width="12"
height="12"
rx="2"
fill="#0e4429"/>

<rect
x="603"
y="76"
width="12"
height="12"
rx="2"
fill="#0e4429"/>

<rect
x="603"
y="93"
width="12"
height="12"
rx="2"
fill="#0e4429"/>

<rect
x="603"
y="110"
width="12"
height="12"
rx="2"
fill="#0e4429"/>

<rect
x="603"
y="127"
width="12"
height="12"
rx="2"
fill="#0e4429"/>

<rect
x="620"
y="25"
width="12"
height="12"
rx="2"
fill="#0e4429"/>

<rect
x="620"
y="42"
width="12"
height="12"
rx="2"
fill="#0e4429"/>

<rect
x="620"
y="59"
width="12"
height="12"
rx="2"
fill="#0e4429"/>

<rect
x="620"
y="76"
width="12"
height="12"
rx="2"
fill="#0e4429"/>

<rect
x="620"
y="93"
width="12"
height="12"
rx="2"
fill="#0e4429"/>

<rect
x="620"
y="110"
width="12"
height="12"
rx="2"
fill="#0e4429"/>

<rect
x="620"
y="127"
width="12"
height="12"
rx="2"
fill="#0e4429"/>

<rect
x="637"
y="25"
width="12"
height="12"
rx="2"
fill="#0e4429"/>

<rect
x="637"
y="42"
width="12"
height="12"
rx="2"
fill="#0e4429"/>

<rect
x="637"
y="59"
width="12"
height="12"
rx="2"
fill="#0e4429"/>

<rect
x="637"
y="76"
width="12"
height="12"
rx="2"
fill="#0e4429"/>

<rect
x="637"
y="93"
width="12"
height="12"
rx="2"
fill="#0e4429"/>

<rect
x="637"
y="110"
width="12"
height="12"
rx="2"
fill="#0e4429"/>

<rect
x="637"
y="127"
width="12"
height="12"
rx="2"
fill="#0e4429"/>

<rect
x="654"
y="25"
width="12"
height="12"
rx="2"
fill="#0e4429"/>

<rect
x="654"
y="42"
width="12"
height="12"
rx="2"
fill="#0e4429"/>

<rect
x="654"
y="59"
width="12"
height="12"
rx="2"
fill="#0e4429"/>

<rect
x="654"
y="76"
width="12"
height="12"
rx="2"
fill="#0e4429"/>

<rect
x="654"
y="93"
width="12"
height="12"
rx="2"
fill="#0e4429"/>

<rect
x="654"
y="110"
width="12"
height="12"
rx="2"
fill="#0e4429"/>

<rect
x="654"
y="127"
width="12"
height="12"
rx="2"
fill="#0e4429"/>

<rect
x="671"
y="25"
width="12"
height="12"
rx="2"
fill="#0e4429"/>

<rect
x="671"
y="42"
width="12"
height="12"
rx="2"
fill="#0e4429"/>

<rect
x="671"
y="59"
width="12"
height="12"
rx="2"
fill="#0e4429"/>

<rect
x="671"
y="76"
width="12"
height="12"
rx="2"
fill="#0e4429"/>

<rect
x="671"
y="93"
width="12"
height="12"
rx="2"
fill="#0e4429"/>

<rect
x="671"
y="110"
width="12"
height="12"
rx="2"
fill="#0e4429"/>

<rect
x="671"
y="127"
width="12"
height="12"
rx="2"
fill="#0e4429"/>

<rect
x="688"
y="25"
width="12"
height="12"
rx="2"
fill="#0e4429"/>

<rect
x="688"
y="42"
width="12"
height="12"
rx="2"
fill="#0e4429"/>

<rect
x="688"
y="59"
width="12"
height="12"
rx="2"
fill="#0e4429"/>

<rect
x="688"
y="76"
width="12"
height="12"
rx="2"
fill="#0e4429"/>

<rect
x="688"
y="93"
width="12"
height="12"
rx="2"
fill="#0e4429"/>

<rect
x="688"
y="110"
width="12"
height="12"
rx="2"
fill="#0e4429"/>

<rect
x="688"
y="127"
width="12"
height="12"
rx="2"
fill="#0e4429"/>

<rect
x="705"
y="25"
width="12"
height="12"
rx="2"
fill="#0e4429"/>

<rect
x="705"
y="42"
width="12"
height="12"
rx="2"
fill="#0e4429"/>

<rect
x="705"
y="59"
width="12"
height="12"
rx="2"
fill="#0e4429"/>

<rect
x="705"
y="76"
width="12"
height="12"
rx="2"
fill="#0e4429"/>

<rect
x="705"
y="93"
width="12"
height="12"
rx="2"
fill="#0e4429"/>

<rect
x="705"
y="110"
width="12"
height="12"
rx="2"
fill="#0e4429"/>

<rect
x="705"
y="127"
width="12"
height="12"
rx="2"
fill="#0e4429"/>

<rect
x="722"
y="25"
width="12"
height="12"
rx="2"
fill="#0e4429"/>

<rect
x="722"
y="42"
width="12"
height="12"
rx="2"
fill="#0e4429"/>

<rect
x="722"
y="59"
width="12"
height="12"
rx="2"
fill="#0e4429"/>

<rect
x="722"
y="76"
width="12"
height="12"
rx="2"
fill="#0e4429"/>

<rect
x="722"
y="93"
width="12"
height="12"
rx="2"
fill="#0e4429"/>

<rect
x="722"
y="110"
width="12"
height="12"
rx="2"
fill="#0e4429"/>

<rect
x="722"
y="127"
width="12"
height="12"
rx="2"
fill="#0e4429"/>

<rect
x="739"
y="25"
width="12"
height="12"
rx="2"
fill="#0e4429"/>

<rect
x="739"
y="42"
width="12"
height="12"
rx="2"
fill="#0e4429"/>

<rect
x="739"
y="59"
width="12"
height="12"
rx="2"
fill="#0e4429"/>

<rect
x="739"
y="76"
width="12"
height="12"
rx="2"
fill="#0e4429"/>

<rect
x="739"
y="93"
width="12"
height="12"
rx="2"
fill="#0e4429"/>

<rect
x="739"
y="110"
width="12"
height="12"
rx="2"
fill="#0e4429"/>

<rect
x="739"
y="127"
width="12"
height="12"
rx="2"
fill="#0e4429"/>

<rect
x="756"
y="25"
width="12"
height="12"
rx="2"
fill="#0e4429"/>

<rect
x="756"
y="42"
width="12"
height="12"
rx="2"
fill="#0e4429"/>

<rect
x="756"
y="59"
width="12"
height="12"
rx="2"
fill="#0e4429"/>

<rect
x="756"
y="76"
width="12"
height="12"
rx="2"
fill="#0e4429"/>

<rect
x="756"
y="93"
width="12"
height="12"
rx="2"
fill="#0e4429"/>

<rect
x="756"
y="110"
width="12"
height="12"
rx="2"
fill="#0e4429"/>

<rect
x="756"
y="127"
width="12"
height="12"
rx="2"
fill="#0e4429"/>

<rect
x="773"
y="25"
width="12"
height="12"
rx="2"
fill="#0e4429"/>

<rect
x="773"
y="42"
width="12"
height="12"
rx="2"
fill="#0e4429"/>

<rect
x="773"
y="59"
width="12"
height="12"
rx="2"
fill="#0e4429"/>

<rect
x="773"
y="76"
width="12"
height="12"
rx="2"
fill="#0e4429"/>

<rect
x="773"
y="93"
width="12"
height="12"
rx="2"
fill="#0e4429"/>

<rect
x="773"
y="110"
width="12"
height="12"
rx="2"
fill="#0e4429"/>

<rect
x="773"
y="127"
width="12"
height="12"
rx="2"
fill="#0e4429"/>

<rect
x="790"
y="25"
width="12"
height="12"
rx="2"
fill="#0e4429"/>

<rect
x="790"
y="42"
width="12"
height="12"
rx="2"
fill="#0e4429"/>

<rect
x="790"
y="59"
width="12"
height="12"
rx="2"
fill="#0e4429"/>

<rect
x="790"
y="76"
width="12"
height="12"
rx="2"
fill="#0e4429"/>

<rect
x="790"
y="93"
width="12"
height="12"
rx="2"
fill="#0e4429"/>

<rect
x="790"
y="110"
width="12"
height="12"
rx="2"
fill="#0e4429"/>

<rect
x="790"
y="127"
width="12"
height="12"
rx="2"
fill="#0e4429"/>

<rect
x="807"
y="25"
width="12"
height="12"
rx="2"
fill="#0e4429"/>

<rect
x="807"
y="42"
width="12"
height="12"
rx="2"
fill="#0e4429"/>

<rect
x="807"
y="59"
width="12"
height="12"
rx="2"
fill="#0e4429"/>

<rect
x="807"
y="76"
width="12"
height="12"
rx="2"
fill="#0e4429"/>

<rect
x="807"
y="93"
width="12"
height="12"
rx="2"
fill="#0e4429"/>

<rect
x="807"
y="110"
width="12"
height="12"
rx="2"
fill="#0e4429"/>

<rect
x="807"
y="127"
width="12"
height="12"
rx="2"
fill="#0e4429"/>

<rect
x="824"
y="25"
width="12"
height="12"
rx="2"
fill="#0e4429"/>

<rect
x="824"
y="42"
width="12"
height="12"
rx="2"
fill="#0e4429"/>

<rect
x="824"
y="59"
width="12"
height="12"
rx="2"
fill="#0e4429"/>

<rect
x="824"
y="76"
width="12"
height="12"
rx="2"
fill="#0e4429"/>

<rect
x="824"
y="93"
width="12"
height="12"
rx="2"
fill="#0e4429"/>

<rect
x="824"
y="110"
width="12"
height="12"
rx="2"
fill="#0e4429"/>

<rect
x="824"
y="127"
width="12"
height="12"
rx="2"
fill="#0e4429"/>

<rect
x="841"
y="25"
width="12"
height="12"
rx="2"
fill="#0e4429"/>

<rect
x="841"
y="42"
width="12"
height="12"
rx="2"
fill="#0e4429"/>

<rect
x="841"
y="59"
width="12"
height="12"
rx="2"
fill="#0e4429"/>

<rect
x="841"
y="76"
width="12"
height="12"
rx="2"
fill="#0e4429"/>

<rect
x="841"
y="93"
width="12"
height="12"
rx="2"
fill="#0e4429"/>

<rect
x="841"
y="110"
width="12"
height="12"
rx="2"
fill="#0e4429"/>

<rect
x="841"
y="127"
width="12"
height="12"
rx="2"
fill="#0e4429"/>

<rect
x="858"
y="25"
width="12"
height="12"
rx="2"
fill="#0e4429"/>

<rect
x="858"
y="42"
width="12"
height="12"
rx="2"
fill="#0e4429"/>

<rect
x="858"
y="59"
width="12"
height="12"
rx="2"
fill="#0e4429"/>

<rect
x="858"
y="76"
width="12"
height="12"
rx="2"
fill="#0e4429"/>

<rect
x="858"
y="93"
width="12"
height="12"
rx="2"
fill="#0e4429"/>

<rect
x="858"
y="110"
width="12"
height="12"
rx="2"
fill="#0e4429"/>

<rect
x="858"
y="127"
width="12"
height="12"
rx="2"
fill="#0e4429"/>

<rect
x="875"
y="25"
width="12"
height="12"
rx="2"
fill="#0e4429"/>

<rect
x="875"
y="42"
width="12"
height="12"
rx="2"
fill="#0e4429"/>

<rect
x="875"
y="59"
width="12"
height="12"
rx="2"
fill="#0e4429"/>

<rect
x="875"
y="76"
width="12"
height="12"
rx="2"
fill="#0e4429"/>

<rect
x="875"
y="93"
width="12"
height="12"
rx="2"
fill="#0e4429"/>

<rect
x="875"
y="110"
width="12"
height="12"
rx="2"
fill="#0e4429"/>

<rect
x="875"
y="127"
width="12"
height="12"
rx="2"
fill="#0e4429"/>

<rect
x="892"
y="25"
width="12"
height="12"
rx="2"
fill="#0e4429"/>

<rect
x="892"
y="42"
width="12"
height="12"
rx="2"
fill="#0e4429"/>

<rect
x="892"
y="59"
width="12"
height="12"
rx="2"
fill="#0e4429"/>

<rect
x="892"
y="76"
width="12"
height="12"
rx="2"
fill="#0e4429"/>

<rect
x="892"
y="93"
width="12"
height="12"
rx="2"
fill="#0e4429"/>

<rect
x="892"
y="110"
width="12"
height="12"
rx="2"
fill="#0e4429"/>

<rect
x="892"
y="127"
width="12"
height="12"
rx="2"
fill="#0e4429"/>

<rect
x="909"
y="25"
width="12"
height="12"
rx="2"
fill="#0e4429"/>

<rect
x="909"
y="42"
width="12"
height="12"
rx="2"
fill="#0e4429"/>

<rect
x="909"
y="59"
width="12"
height="12"
rx="2"
fill="#0e4429"/>

<rect
x="909"
y="76"
width="12"
height="12"
rx="2"
fill="#0e4429"/>

<rect
x="909"
y="93"
width="12"
height="12"
rx="2"
fill="#0e4429"/>

<rect
x="909"
y="110"
width="12"
height="12"
rx="2"
fill="#0e4429"/>

<rect
x="909"
y="127"
width="12"
height="12"
rx="2"
fill="#0e4429"/>

<circle
cx="669.6727046235939"
cy="111.83473604154439"
r="0.4511272225285374"
fill="white"
opacity="0.7555725285712802"/>

<circle
cx="197.99202093626275"
cy="159.53564755378054"
r="0.25283536986636196"
fill="white"
opacity="0.7346405341174289"/>

<circle
cx="499.94681247098026"
cy="6.572453864747873"
r="0.6543677737853164"
fill="white"
opacity="0.7397618207243579"/>

<circle
cx="754.1725914257914"
cy="46.1387960524427"
r="0.460649139020787"
fill="white"
opacity="0.8908052163447715"/>

<circle
cx="850.615902791987"
cy="148.664069784013"
r="1.328024596705282"
fill="white"
opacity="0.4665222603773613"/>

<circle
cx="184.50756904236005"
cy="137.38598805500177"
r="1.0330722038689166"
fill="white"
opacity="0.4936842932536168"/>

<circle
cx="413.16013522714155"
cy="155.71501724368937"
r="0.8992593916390335"
fill="white"
opacity="0.34291903415720204"/>

<circle
cx="437.9999156903113"
cy="20.526980763285746"
r="0.48205132870676154"
fill="white"
opacity="0.8272057442223535"/>

<circle
cx="668.8250691425905"
cy="82.01446179576034"
r="0.3136750322628667"
fill="white"
opacity="0.38378213256067223"/>

<circle
cx="86.00532655693362"
cy="102.69408016365719"
r="1.573528909937459"
fill="white"
opacity="0.857394279435608"/>

<circle
cx="292.7147302637618"
cy="145.5515444112552"
r="1.0817304406241146"
fill="white"
opacity="0.40465574692476436"/>

<circle
cx="625.3911901907674"
cy="26.259540269201445"
r="1.0051231552119588"
fill="white"
opacity="0.35402733083898197"/>

<circle
cx="911.0951663842902"
cy="47.11670848118807"
r="1.6402949715643278"
fill="white"
opacity="0.30312991871098716"/>

<circle
cx="243.72002681874636"
cy="52.43506153384261"
r="1.5820333889467997"
fill="white"
opacity="0.2201493869574204"/>

<circle
cx="461.99362375327377"
cy="31.553130471939525"
r="0.892093279353557"
fill="white"
opacity="0.20870946463650528"/>

<circle
cx="9.773964175610145"
cy="56.099447349366436"
r="0.4940003977585344"
fill="white"
opacity="0.7001634384896565"/>

<circle
cx="694.0500977394565"
cy="146.879180030981"
r="1.3883415605873213"
fill="white"
opacity="0.8997008127477661"/>

<circle
cx="913.9500665603788"
cy="78.79328626823013"
r="1.0342666136344598"
fill="white"
opacity="0.2578875466205419"/>

<circle
cx="805.3734617524103"
cy="123.16600996193111"
r="1.4869186508365482"
fill="white"
opacity="0.5120349894883545"/>

<circle
cx="376.6083679642653"
cy="74.30616772624853"
r="0.8271343521586052"
fill="white"
opacity="0.22019444629444218"/>

<circle
cx="615.6712741734611"
cy="82.38128426496401"
r="1.235349383316774"
fill="white"
opacity="0.7842659438233544"/>

<circle
cx="222.98395092067878"
cy="39.95012522829553"
r="1.3247914578689606"
fill="white"
opacity="0.7756718856363245"/>

<circle
cx="898.5840582070294"
cy="153.75297801711358"
r="0.5525579831469907"
fill="white"
opacity="0.6275036200901687"/>

<circle
cx="722.0667979771816"
cy="158.37387063860837"
r="1.2086760830238032"
fill="white"
opacity="0.4720191079323266"/>

<circle
cx="671.4791296658337"
cy="16.395619126971184"
r="1.4595550680178415"
fill="white"
opacity="0.49053493248096064"/>

<circle
cx="333.3083500255127"
cy="59.7024652760599"
r="0.8939846502965356"
fill="white"
opacity="0.8126690775428844"/>

<circle
cx="380.6509546876644"
cy="88.1178075966977"
r="1.292364373654344"
fill="white"
opacity="0.5485079111779441"/>

<circle
cx="818.5617660318724"
cy="133.61822943244195"
r="0.8960429630398121"
fill="white"
opacity="0.7809041996691033"/>

<circle
cx="225.16330854231958"
cy="27.921210367860624"
r="0.25315192772967104"
fill="white"
opacity="0.7655545799577332"/>

<circle
cx="787.1198663460399"
cy="69.44852725920062"
r="0.7488436050799714"
fill="white"
opacity="0.7229032113395684"/>

<circle
cx="89.76706405233386"
cy="66.62271284564748"
r="1.57170486258749"
fill="white"
opacity="0.7486460810069366"/>

<circle
cx="555.3327286566986"
cy="71.70502711151812"
r="1.0400246734340197"
fill="white"
opacity="0.2956546773654536"/>

<circle
cx="642.1127081596634"
cy="166.06778905897397"
r="0.43792865858255087"
fill="white"
opacity="0.37440537395095785"/>

<circle
cx="217.56857935324223"
cy="101.85725793084146"
r="0.4857177667994012"
fill="white"
opacity="0.9238169957281335"/>

<circle
cx="930.5870854109735"
cy="56.904233649676925"
r="0.35670371851006494"
fill="white"
opacity="0.6545830599899205"/>

<circle
cx="56.218360158793026"
cy="106.26781515765842"
r="0.6301445903469145"
fill="white"
opacity="0.6200001180027794"/>

<circle
cx="870.543176023632"
cy="75.3850391872004"
r="1.346610443367666"
fill="white"
opacity="0.24930760796181062"/>

<circle
cx="817.349637997519"
cy="19.785645263549522"
r="0.8969404903129135"
fill="white"
opacity="0.683603186081237"/>

<circle
cx="753.6465622934847"
cy="112.64284652827887"
r="1.0210783463727982"
fill="white"
opacity="0.23843223258784915"/>

<circle
cx="111.75578435510009"
cy="148.96409166772247"
r="1.6313899958320046"
fill="white"
opacity="0.6417627903414997"/>

<circle
cx="656.715377917888"
cy="22.83945852528455"
r="1.4014174531344699"
fill="white"
opacity="0.6037264282397793"/>

<circle
cx="173.56503045040012"
cy="57.8705880407147"
r="1.1402156202610794"
fill="white"
opacity="0.8759744821356426"/>

<circle
cx="792.8944085525262"
cy="108.30909403431495"
r="0.9723241951441164"
fill="white"
opacity="0.9192607648529074"/>

<circle
cx="2.4460735718862923"
cy="100.50894006228174"
r="1.1388931790564505"
fill="white"
opacity="0.7324679919038983"/>

<circle
cx="553.9683223479933"
cy="138.40267916684905"
r="1.6493694965854038"
fill="white"
opacity="0.6608937939648204"/>

<circle
cx="30.790579415039034"
cy="19.520936475274837"
r="1.3530826956081616"
fill="white"
opacity="0.48341851380362866"/>

<circle
cx="26.02664782395348"
cy="64.25973262848728"
r="0.48008382693512147"
fill="white"
opacity="0.9380433688736896"/>

<circle
cx="284.6135747468773"
cy="106.19981626116338"
r="1.0576528714817532"
fill="white"
opacity="0.8858993448277164"/>

<circle
cx="912.7662613275342"
cy="53.971963131077615"
r="0.8353088822922767"
fill="white"
opacity="0.2607419188184105"/>

<circle
cx="117.49614739160981"
cy="79.93599019029499"
r="0.6220179049466408"
fill="white"
opacity="0.8328061086816765"/>

<circle
cx="534.6205289874971"
cy="65.54795022763777"
r="1.104777132993334"
fill="white"
opacity="0.9980099702202216"/>

<circle
cx="167.16879430543167"
cy="118.32936898326729"
r="1.2565986929650732"
fill="white"
opacity="0.2617123681388826"/>

<circle
cx="188.53722907938845"
cy="167.48454699033624"
r="1.6479971922138408"
fill="white"
opacity="0.7008612315827916"/>

<circle
cx="643.2862755526589"
cy="75.99060636390419"
r="0.6289282423059339"
fill="white"
opacity="0.7218553173683058"/>

<circle
cx="202.57947743954642"
cy="63.98243198928024"
r="1.5228082151373292"
fill="white"
opacity="0.6820654971224716"/>

<circle
cx="169.746562861122"
cy="23.704472276432682"
r="1.6018767260233322"
fill="white"
opacity="0.5685333942157964"/>

<circle
cx="404.8022157087857"
cy="78.58032020269876"
r="0.8720625897361571"
fill="white"
opacity="0.33858062397078237"/>

<circle
cx="373.08186988616535"
cy="26.368625377742998"
r="0.7283585370280976"
fill="white"
opacity="0.4830639985529748"/>

<circle
cx="816.9174555210254"
cy="144.62982984609516"
r="1.346388249955366"
fill="white"
opacity="0.31902000853727447"/>

<circle
cx="165.8584302664667"
cy="36.2979813570518"
r="0.7925467308814111"
fill="white"
opacity="0.9271191341665144"/>

<circle
cx="175.7013661392167"
cy="130.69872896541958"
r="0.45298877172282975"
fill="white"
opacity="0.6437547090789743"/>

<circle
cx="262.3437087392347"
cy="76.43415363711476"
r="0.6173094237441596"
fill="white"
opacity="0.7931275878999537"/>

<circle
cx="931.8037309022842"
cy="2.621612247216123"
r="0.641480642039332"
fill="white"
opacity="0.6958298526856197"/>

<circle
cx="694.9050605665225"
cy="161.6074873499089"
r="0.9493425347836373"
fill="white"
opacity="0.9719137654369245"/>

<circle
cx="458.975654558873"
cy="35.69127799104423"
r="0.8095663571622362"
fill="white"
opacity="0.37178787323675455"/>

<circle
cx="544.5307935838805"
cy="78.59187204173136"
r="0.6503691186693188"
fill="white"
opacity="0.3242382154124197"/>

<circle
cx="372.2229744689633"
cy="164.29795271160555"
r="0.9418587596434809"
fill="white"
opacity="0.890103278556257"/>

<circle
cx="105.65217681600137"
cy="166.9165880601589"
r="1.0449647617172382"
fill="white"
opacity="0.5767654495278343"/>

<circle
cx="709.3258037209828"
cy="29.657409053041643"
r="0.21188693575276302"
fill="white"
opacity="0.9776927792337584"/>

<circle
cx="123.80229872796886"
cy="143.17094360209646"
r="1.6453331933974809"
fill="white"
opacity="0.32923813133875834"/>

<circle
cx="287.0155047149724"
cy="132.03128368959534"
r="0.6484585144952235"
fill="white"
opacity="0.977496765655419"/>

<circle
cx="904.0112486081072"
cy="15.757465324415481"
r="0.23054604797637795"
fill="white"
opacity="0.9823279293957816"/>

<circle
cx="598.1964515129447"
cy="140.0241723751462"
r="0.7912436372470384"
fill="white"
opacity="0.5506578209953821"/>

<circle
cx="806.8202122239354"
cy="120.61847495182266"
r="0.22279760063448922"
fill="white"
opacity="0.963989949657257"/>

<circle
cx="899.6031303634618"
cy="69.23919392543516"
r="1.4277177502244485"
fill="white"
opacity="0.7096935370929998"/>

<circle
cx="454.20937369699203"
cy="76.59653227783296"
r="1.625542948559285"
fill="white"
opacity="0.8581970534549985"/>

<circle
cx="86.45187970441725"
cy="2.2452479837099775"
r="0.5094961873315222"
fill="white"
opacity="0.8271223064882514"/>

<circle
cx="909.0339917749604"
cy="18.747992808229196"
r="1.1786936006281616"
fill="white"
opacity="0.3194610228232618"/>

<circle
cx="759.4736962507357"
cy="151.96596315318982"
r="1.563538818642028"
fill="white"
opacity="0.206319432150036"/>

<circle
cx="445.181602802048"
cy="38.24510912076308"
r="0.34788884042300156"
fill="white"
opacity="0.45633797154958256"/>

<circle
cx="585.1638472851082"
cy="78.14501709757872"
r="0.3956646070422109"
fill="white"
opacity="0.4225320875860627"/>

<circle
cx="714.7772544006132"
cy="143.5015729917343"
r="1.0267302355271413"
fill="white"
opacity="0.7714243779472798"/>

<circle
cx="750.0435894164642"
cy="152.18669789668772"
r="1.3516030290381338"
fill="white"
opacity="0.677720139496595"/>

<circle
cx="505.2531945476577"
cy="60.43855163128747"
r="0.6197363100336888"
fill="white"
opacity="0.8380713284030441"/>

<circle
cx="634.8893492408179"
cy="80.5401123766534"
r="0.6393141154089739"
fill="white"
opacity="0.9568177949042302"/>

<circle
cx="720.4418950460652"
cy="33.54334338879315"
r="0.5922837426600769"
fill="white"
opacity="0.446933388419706"/>

<circle
cx="252.21194124698064"
cy="153.7234084212395"
r="0.20206381133390067"
fill="white"
opacity="0.6320794473435063"/>

<circle
cx="492.8372666371661"
cy="19.96924437483345"
r="1.110257340734341"
fill="white"
opacity="0.4266509823056206"/>

<circle
cx="541.9696351316048"
cy="15.810484452917724"
r="0.9875418070470281"
fill="white"
opacity="0.7720471525876815"/>

<circle
cx="32.85340172131548"
cy="35.053969339839504"
r="0.5454379489695487"
fill="white"
opacity="0.21674576204789525"/>

<circle
cx="778.740551512653"
cy="74.04289863203195"
r="1.2489230881581521"
fill="white"
opacity="0.4905779480246446"/>

<circle
cx="192.36978029892379"
cy="0.5345322998643882"
r="0.2309639952445039"
fill="white"
opacity="0.8193088306730485"/>

<circle
cx="176.1426269914183"
cy="22.506351854698597"
r="1.2909131853788192"
fill="white"
opacity="0.4633937643614065"/>

<circle
cx="33.24323756427567"
cy="107.95577377021918"
r="1.4224756748245793"
fill="white"
opacity="0.9749489325549441"/>

<circle
cx="555.4739718994038"
cy="163.87580309268577"
r="1.3005521722187028"
fill="white"
opacity="0.8568784303445136"/>

<circle
cx="198.8165103462558"
cy="168.5576481140181"
r="1.445751998127146"
fill="white"
opacity="0.3869788229852132"/>

<circle
cx="511.38769408209055"
cy="83.1621492300799"
r="1.3889680466117988"
fill="white"
opacity="0.2677020679133444"/>

<circle
cx="82.0093915345961"
cy="32.36970036821586"
r="0.42607249130294816"
fill="white"
opacity="0.4481377933097466"/>

<circle
cx="811.1770475492798"
cy="37.43833524839635"
r="1.262428416488415"
fill="white"
opacity="0.8644666050639989"/>

<circle
cx="657.7096187348457"
cy="23.404406164190295"
r="0.5520212795714448"
fill="white"
opacity="0.3964061862766366"/>

<circle
cx="786.4284787479043"
cy="68.470027884355"
r="0.39526134431654364"
fill="white"
opacity="0.3254171784135883"/>

<circle
cx="829.7468602218756"
cy="135.47068315552514"
r="1.5458993974061555"
fill="white"
opacity="0.997770008374552"/>

<circle
cx="383.8529965739013"
cy="39.188026520645934"
r="0.4016040373442104"
fill="white"
opacity="0.465367536942777"/>

<circle
cx="461.66570353463965"
cy="106.65573937106818"
r="0.8736299427525185"
fill="white"
opacity="0.5268935903493264"/>

<circle
cx="828.8434229460908"
cy="119.03035455926226"
r="0.7347280838062973"
fill="white"
opacity="0.42051102281107333"/>

<circle
cx="783.5897421678211"
cy="103.68518736738231"
r="0.30762888780702663"
fill="white"
opacity="0.710731522830266"/>

<circle
cx="153.59130718553342"
cy="141.05856384233093"
r="0.38250499187375625"
fill="white"
opacity="0.9522539355583735"/>

<circle
cx="479.1249922289115"
cy="152.50045726906353"
r="0.713056729315007"
fill="white"
opacity="0.9114132237283896"/>

<circle
cx="834.2989829522857"
cy="159.38417684978992"
r="1.6206189314382942"
fill="white"
opacity="0.5900294780089406"/>

<circle
cx="432.41560994140156"
cy="60.58064461660191"
r="1.5212514772515189"
fill="white"
opacity="0.686380303322415"/>

<circle
cx="304.51098075386886"
cy="20.552517406556195"
r="0.41845205191079754"
fill="white"
opacity="0.5981840390749242"/>

<circle
cx="81.13674402415054"
cy="32.51526114056259"
r="0.3030658853724944"
fill="white"
opacity="0.6382687259131894"/>

<circle
cx="764.4242615343281"
cy="12.627697392734438"
r="1.017456722302271"
fill="white"
opacity="0.9153721318709667"/>

<circle
cx="456.1892387167307"
cy="11.040121215862632"
r="1.0243449154071713"
fill="white"
opacity="0.4937890775653127"/>

<circle
cx="737.884769388429"
cy="114.01467780938448"
r="0.49777944328498563"
fill="white"
opacity="0.544995969535512"/>

<circle
cx="127.38003954372512"
cy="164.18289628508606"
r="0.7736833329312562"
fill="white"
opacity="0.8006905888727038"/>

<circle
cx="239.58054022453467"
cy="43.03304418107711"
r="0.45040569989660345"
fill="white"
opacity="0.8783940026623864"/>

<circle
cx="772.8430567206252"
cy="117.50095713749542"
r="1.6744112973581537"
fill="white"
opacity="0.43192567840476"/>

<circle
cx="630.8617190351993"
cy="21.943663075912912"
r="1.0810080504313397"
fill="white"
opacity="0.9269097685734469"/>

<circle
cx="376.2101336944303"
cy="2.063120411131041"
r="1.5307693340929815"
fill="white"
opacity="0.9412590075484226"/>

</svg>