
<svg
xmlns="http://www.w3.org/2000/svg"
width="951"
height="169"
viewBox="0 0 951 169">

<rect
width="100%"
height="100%"
fill="#000000"/>

<circle
cx="697.8517468112416"
cy="145.10336888274202"
r="0.3528507727252133"
fill="white"
opacity="0.4868519403296757"/>

<circle
cx="54.50149097473993"
cy="65.5651161400196"
r="0.4353576313334066"
fill="white"
opacity="0.9951334674068801"/>

<circle
cx="781.5660328474647"
cy="98.71057897938545"
r="0.5712083348627894"
fill="white"
opacity="0.970064293114435"/>

<circle
cx="711.3356063934255"
cy="9.289053545685414"
r="1.5679563422425613"
fill="white"
opacity="0.38836639938277817"/>

<circle
cx="589.5140388598664"
cy="159.45838357371403"
r="0.9377544772957984"
fill="white"
opacity="0.29650645945598364"/>

<circle
cx="703.7362530776"
cy="99.063653874011"
r="0.4426555171281736"
fill="white"
opacity="0.7620849656756934"/>

<circle
cx="595.9596844475743"
cy="59.515303799431166"
r="1.0620284339392334"
fill="white"
opacity="0.24716489545245077"/>

<circle
cx="719.7017029667858"
cy="58.612631592433075"
r="0.7031180023154742"
fill="white"
opacity="0.47606957750849976"/>

<circle
cx="116.39100135563169"
cy="68.97813229045273"
r="0.6279550747931986"
fill="white"
opacity="0.21689845476824277"/>

<circle
cx="441.4560587495298"
cy="15.681438605414746"
r="0.899602202360013"
fill="white"
opacity="0.6294989503332855"/>

<circle
cx="204.41784631218943"
cy="27.093011379793836"
r="0.5926727825542113"
fill="white"
opacity="0.8277571331471094"/>

<circle
cx="725.3425469234109"
cy="71.94638195414477"
r="1.0438469616782158"
fill="white"
opacity="0.6022897229588924"/>

<circle
cx="683.829029152056"
cy="55.24234195232783"
r="0.8263296911741487"
fill="white"
opacity="0.9530322826277995"/>

<circle
cx="574.4624719350721"
cy="129.85188990459392"
r="0.2529876363711578"
fill="white"
opacity="0.5756094655142321"/>

<circle
cx="517.4486643477695"
cy="110.66462111626966"
r="1.6385972349641564"
fill="white"
opacity="0.3416657922591343"/>

<circle
cx="682.8128859739581"
cy="58.27065046402395"
r="1.2475661213921674"
fill="white"
opacity="0.8078045997585492"/>

<circle
cx="26.83438552907866"
cy="90.38645884980176"
r="1.0021594932357052"
fill="white"
opacity="0.9459616596715867"/>

<circle
cx="389.6046746503357"
cy="67.15614908614742"
r="1.5511810161372328"
fill="white"
opacity="0.5162261866306292"/>

<circle
cx="146.2150215844387"
cy="93.50290527154549"
r="0.5749224988385289"
fill="white"
opacity="0.48565453634237343"/>

<circle
cx="749.5170777957377"
cy="68.58491086285493"
r="1.122103977391343"
fill="white"
opacity="0.8868339663168552"/>

<circle
cx="381.4664446967712"
cy="74.33321106332232"
r="1.374526965900228"
fill="white"
opacity="0.5774494886898303"/>

<circle
cx="692.1687653679782"
cy="65.04832979132821"
r="1.5328447758485706"
fill="white"
opacity="0.9946457384985765"/>

<circle
cx="738.5660863896749"
cy="137.23846141993292"
r="0.45282236334400944"
fill="white"
opacity="0.9786382786650278"/>

<circle
cx="814.5799403785993"
cy="19.709521062863175"
r="0.7299221777309537"
fill="white"
opacity="0.5490867764204086"/>

<circle
cx="494.4199561912077"
cy="145.76058231993093"
r="1.398665901986121"
fill="white"
opacity="0.7091450403265085"/>

<circle
cx="138.69267263714585"
cy="108.58253021316192"
r="1.4058754504321271"
fill="white"
opacity="0.9113833941807976"/>

<circle
cx="733.8033889841815"
cy="50.67898769088351"
r="1.5146996636695083"
fill="white"
opacity="0.7060176898842794"/>

<circle
cx="475.6830616983993"
cy="85.46051096996952"
r="1.2089611429433524"
fill="white"
opacity="0.5157183916335613"/>

<circle
cx="665.1877893272932"
cy="44.92391829432079"
r="1.2740552397690459"
fill="white"
opacity="0.7794301309277827"/>

<circle
cx="69.9945709165183"
cy="78.26854372327206"
r="0.6668624708148869"
fill="white"
opacity="0.5570983213946419"/>

<circle
cx="914.7926073734719"
cy="83.23561335576481"
r="0.45528704638219747"
fill="white"
opacity="0.5834391769829047"/>

<circle
cx="600.5237352250501"
cy="134.14813108992922"
r="0.5212430525460661"
fill="white"
opacity="0.3275835831481333"/>

<circle
cx="103.5729155824516"
cy="32.169663663584544"
r="0.4097746789839943"
fill="white"
opacity="0.6523277773659212"/>

<circle
cx="876.8590483274078"
cy="39.44180308580361"
r="0.5788131338604698"
fill="white"
opacity="0.702777181557221"/>

<circle
cx="451.90976734979256"
cy="97.1219483717055"
r="1.6336534352635959"
fill="white"
opacity="0.24415210842147186"/>

<circle
cx="775.8416441978198"
cy="26.313838061890458"
r="0.4657144402806849"
fill="white"
opacity="0.5060018939646276"/>

<circle
cx="329.1811019147523"
cy="58.48626943256193"
r="0.42029825691797834"
fill="white"
opacity="0.9637866532103831"/>

<circle
cx="223.9846184403362"
cy="129.99914711019517"
r="1.2875719645310417"
fill="white"
opacity="0.7113029356734255"/>

<circle
cx="355.39033959102255"
cy="3.2570630642048"
r="0.9759235271914382"
fill="white"
opacity="0.5770408601106842"/>

<circle
cx="949.7890041640775"
cy="2.989026527884352"
r="0.3753027262775221"
fill="white"
opacity="0.3424832541324239"/>

<circle
cx="157.09817807855646"
cy="127.00105963156672"
r="0.23617815768558953"
fill="white"
opacity="0.6925810202688908"/>

<circle
cx="527.160122655665"
cy="127.23842489065991"
r="0.987488483258171"
fill="white"
opacity="0.3654322095805901"/>

<circle
cx="775.7852116819687"
cy="12.996724774421837"
r="0.3502449849175611"
fill="white"
opacity="0.3792881203188996"/>

<circle
cx="370.57020494191323"
cy="67.3985571808084"
r="1.2803159607065506"
fill="white"
opacity="0.9330530363428486"/>

<circle
cx="455.5885098241297"
cy="136.7684547650784"
r="1.4266404140997708"
fill="white"
opacity="0.5130511739648883"/>

<circle
cx="849.6893725294684"
cy="74.56592448917688"
r="1.3244660920672142"
fill="white"
opacity="0.8432942400712822"/>

<circle
cx="852.3260036589143"
cy="166.27237946920724"
r="1.2884394623052173"
fill="white"
opacity="0.8555689408748715"/>

<circle
cx="223.55023749168535"
cy="62.890594592470016"
r="1.1150236243748348"
fill="white"
opacity="0.2781163079939843"/>

<circle
cx="84.73156601225926"
cy="67.82179246836769"
r="0.734059852829626"
fill="white"
opacity="0.20271561044418399"/>

<circle
cx="222.8585843713909"
cy="2.2628447020324374"
r="0.8431585550280407"
fill="white"
opacity="0.9955614627307381"/>

<circle
cx="59.70079870261192"
cy="151.21494670094017"
r="1.4983644291826685"
fill="white"
opacity="0.4870364558930474"/>

<circle
cx="303.21696111714857"
cy="120.3735476920388"
r="0.9596919656056238"
fill="white"
opacity="0.8241465510017834"/>

<circle
cx="350.01508744912815"
cy="152.15156060219465"
r="1.0533121043969966"
fill="white"
opacity="0.7406186920196138"/>

<circle
cx="123.78645577452797"
cy="99.86642417571684"
r="0.3254364797987546"
fill="white"
opacity="0.5147074604786535"/>

<circle
cx="370.14516660136206"
cy="158.75760499658332"
r="0.7437919155706314"
fill="white"
opacity="0.5695428710229267"/>

<circle
cx="481.3896585272198"
cy="65.72321211574612"
r="1.003830936928169"
fill="white"
opacity="0.5906498520213952"/>

<circle
cx="496.67470503807334"
cy="86.36808178424245"
r="1.504968866858845"
fill="white"
opacity="0.34703049191456115"/>

<circle
cx="247.36924369424264"
cy="162.8890138170604"
r="0.4077584727893436"
fill="white"
opacity="0.35932740241890554"/>

<circle
cx="663.9127571857891"
cy="113.91666514526733"
r="0.7164019955006717"
fill="white"
opacity="0.3520851865472599"/>

<circle
cx="689.1608590521107"
cy="18.15920398442106"
r="1.2158573496370761"
fill="white"
opacity="0.7206119597980907"/>

<circle
cx="112.49624372670108"
cy="2.590273810134843"
r="1.4754708109701482"
fill="white"
opacity="0.3989769838489231"/>

<circle
cx="878.3030926845186"
cy="158.33683331952145"
r="1.2799459935912554"
fill="white"
opacity="0.8788520390820733"/>

<circle
cx="691.8769349624868"
cy="112.44947778045696"
r="1.2549014762807413"
fill="white"
opacity="0.6362009606479827"/>

<circle
cx="539.1792423798735"
cy="33.317767611370805"
r="1.469189205798046"
fill="white"
opacity="0.34021003478846074"/>

<circle
cx="235.6829812691153"
cy="78.58092819884972"
r="1.2376408054240688"
fill="white"
opacity="0.425452285345733"/>

<circle
cx="518.5432859515031"
cy="20.91190902136029"
r="1.0458871872161632"
fill="white"
opacity="0.4766668168725218"/>

<circle
cx="485.59001473581264"
cy="84.39930135275443"
r="1.0445740509519517"
fill="white"
opacity="0.8628211244573902"/>

<circle
cx="731.9089619018588"
cy="41.04871596760404"
r="1.50136957382514"
fill="white"
opacity="0.38421152635341704"/>

<circle
cx="485.52620091625613"
cy="123.20985995599754"
r="0.6902411855741728"
fill="white"
opacity="0.47071912275989247"/>

<circle
cx="855.5798133139119"
cy="70.64118840642288"
r="1.5542760161960252"
fill="white"
opacity="0.49126098792310646"/>

<circle
cx="49.4416948708563"
cy="0.9161827010339381"
r="1.1162823969725797"
fill="white"
opacity="0.2051929103830622"/>

<circle
cx="277.80438217096105"
cy="127.19304982241148"
r="0.32218331456521804"
fill="white"
opacity="0.3870170532399231"/>

<circle
cx="459.3987156736511"
cy="81.2795268571749"
r="0.2392784518226026"
fill="white"
opacity="0.6399687712564474"/>

<circle
cx="567.33990642413"
cy="36.81983084333026"
r="1.5821672084372806"
fill="white"
opacity="0.9499488070115063"/>

<circle
cx="288.6084066191688"
cy="133.97008443839593"
r="0.9981875050337636"
fill="white"
opacity="0.7573111476381109"/>

<circle
cx="789.854700520589"
cy="47.1580008524333"
r="0.8161845886495189"
fill="white"
opacity="0.9851692993307049"/>

<circle
cx="779.8620259581922"
cy="5.025374512700996"
r="0.3856574634086077"
fill="white"
opacity="0.8191711299380269"/>

<circle
cx="312.32480276704047"
cy="116.52432988981673"
r="1.468047077326897"
fill="white"
opacity="0.8017247827348182"/>

<circle
cx="255.352695592145"
cy="155.3106914252113"
r="0.3379643775014985"
fill="white"
opacity="0.23438558272330356"/>

<circle
cx="778.4851187002031"
cy="61.48550278732356"
r="1.2824106699502995"
fill="white"
opacity="0.35157802890943324"/>

<circle
cx="386.6715115452094"
cy="150.55762579241136"
r="1.0185706788503908"
fill="white"
opacity="0.9818412384308843"/>

<circle
cx="343.52885839923204"
cy="108.17369755355267"
r="0.4896114840067503"
fill="white"
opacity="0.6934025821549361"/>

<circle
cx="863.4070123357247"
cy="18.966203862126545"
r="0.2628033865258265"
fill="white"
opacity="0.46975319399365767"/>

<circle
cx="870.3951817213134"
cy="161.62113583822924"
r="0.4683904529457476"
fill="white"
opacity="0.9578502817542252"/>

<circle
cx="576.9272361545368"
cy="37.12620033032962"
r="1.665668144634895"
fill="white"
opacity="0.7999921314042799"/>

<circle
cx="656.449889271738"
cy="153.72036658141462"
r="0.619926665564241"
fill="white"
opacity="0.2472799898377792"/>

<circle
cx="615.5528207108986"
cy="43.49514477581661"
r="0.9830933420594761"
fill="white"
opacity="0.36252211938651124"/>

<circle
cx="215.22122446417436"
cy="96.71812108101514"
r="0.7876885907245834"
fill="white"
opacity="0.46332737302470034"/>

<circle
cx="239.8581284709721"
cy="66.69245125614391"
r="1.1386613110408446"
fill="white"
opacity="0.6920598358863794"/>

<circle
cx="896.2738257502392"
cy="83.83178668188368"
r="1.238190348952078"
fill="white"
opacity="0.6746916145857607"/>

<circle
cx="186.50890481138453"
cy="40.35010860830118"
r="1.063197555167784"
fill="white"
opacity="0.8765498601601613"/>

<circle
cx="563.5215336762155"
cy="30.028736252680467"
r="0.6034246192878603"
fill="white"
opacity="0.3331479323073692"/>

<circle
cx="546.017410019316"
cy="108.8865988083736"
r="0.6147505951802235"
fill="white"
opacity="0.7361679351581487"/>

<circle
cx="592.126508999849"
cy="24.75868124119577"
r="0.6723387806239118"
fill="white"
opacity="0.8742160449301888"/>

<circle
cx="915.6123316389092"
cy="27.59055499038004"
r="0.27843795243064556"
fill="white"
opacity="0.5000633495588853"/>

<circle
cx="648.9528391976364"
cy="12.713303629107768"
r="1.3396231350163526"
fill="white"
opacity="0.8611821184524837"/>

<circle
cx="112.42513602291082"
cy="110.49908471785804"
r="1.198155845899927"
fill="white"
opacity="0.568026110897649"/>

<circle
cx="432.60149856619205"
cy="157.9080520226715"
r="1.2283393036266814"
fill="white"
opacity="0.8483594476416376"/>

<circle
cx="668.3061298480168"
cy="139.96720043464333"
r="0.7202427351604508"
fill="white"
opacity="0.7092686825369641"/>

<circle
cx="293.0001050168892"
cy="80.11634298122647"
r="0.7674233450531274"
fill="white"
opacity="0.763019435715296"/>

<circle
cx="512.1360552267677"
cy="27.69173100166051"
r="1.5840172226325229"
fill="white"
opacity="0.4694374635800118"/>

<circle
cx="772.8161063001121"
cy="51.125358245429716"
r="1.1501316393984164"
fill="white"
opacity="0.9138421100503846"/>

<circle
cx="665.8934463610728"
cy="121.95729817737829"
r="1.6728374373829993"
fill="white"
opacity="0.6858042570143439"/>

<circle
cx="473.6547225248343"
cy="13.833362632061787"
r="0.45609110348241383"
fill="white"
opacity="0.9046022289340923"/>

<circle
cx="374.0734380766172"
cy="103.52417881157686"
r="0.9763399156616817"
fill="white"
opacity="0.9158548346680917"/>

<circle
cx="450.600535824707"
cy="102.04901987152755"
r="0.5811749165168054"
fill="white"
opacity="0.31975202478202736"/>

<circle
cx="303.7899651316107"
cy="115.96175679566215"
r="1.2793036117908019"
fill="white"
opacity="0.7124232964164077"/>

<circle
cx="685.4179931372755"
cy="48.06028011606225"
r="1.363459518135927"
fill="white"
opacity="0.7442274214615257"/>

<circle
cx="221.73929601258845"
cy="129.5108448208206"
r="1.3232167334575193"
fill="white"
opacity="0.4894069816925226"/>

<circle
cx="419.96015773675583"
cy="58.22720881221497"
r="1.409928554895248"
fill="white"
opacity="0.3216270151179817"/>

<circle
cx="112.73555002639364"
cy="123.35611249094404"
r="0.32993294560744185"
fill="white"
opacity="0.9806128819424356"/>

<circle
cx="906.0586562203023"
cy="11.522416240437328"
r="0.27592509948017957"
fill="white"
opacity="0.41323426728650703"/>

<circle
cx="486.6504928360272"
cy="41.27232793244682"
r="0.694390293416016"
fill="white"
opacity="0.7558759551576038"/>

<circle
cx="610.0399973528421"
cy="52.470220310884336"
r="1.2517975712201475"
fill="white"
opacity="0.6285856686055622"/>

<circle
cx="873.562583125994"
cy="14.29462444603415"
r="1.0462068021217292"
fill="white"
opacity="0.7060929433434622"/>

<circle
cx="147.3181427037347"
cy="147.2288323636685"
r="0.8140723640861394"
fill="white"
opacity="0.7377024754308557"/>

<circle
cx="590.2629546129003"
cy="130.49490729400466"
r="1.2735410911703666"
fill="white"
opacity="0.28825382540013345"/>

<circle
cx="351.0419597435856"
cy="1.5230303146307769"
r="0.9995283894182299"
fill="white"
opacity="0.9635764592867129"/>

<circle
cx="594.4568358586439"
cy="95.32818562290802"
r="1.6118042741177094"
fill="white"
opacity="0.7143143430370285"/>

<circle
cx="53.73252029208203"
cy="60.48393433326616"
r="1.0587207994879004"
fill="white"
opacity="0.303233805334418"/>

<rect
x="25"
y="25"
width="12"
height="12"
rx="2"
fill="#0e4429"/>

<rect
x="25"
y="42"
width="12"
height="12"
rx="2"
fill="#0e4429"/>

<rect
x="25"
y="59"
width="12"
height="12"
rx="2"
fill="#0e4429"/>

<rect
x="25"
y="76"
width="12"
height="12"
rx="2"
fill="#0e4429"/>

<rect
x="25"
y="93"
width="12"
height="12"
rx="2"
fill="#0e4429"/>

<rect
x="25"
y="110"
width="12"
height="12"
rx="2"
fill="#0e4429"/>

<rect
x="25"
y="127"
width="12"
height="12"
rx="2"
fill="#0e4429"/>

<rect
x="42"
y="25"
width="12"
height="12"
rx="2"
fill="#0e4429"/>

<rect
x="42"
y="42"
width="12"
height="12"
rx="2"
fill="#0e4429"/>

<rect
x="42"
y="59"
width="12"
height="12"
rx="2"
fill="#0e4429"/>

<rect
x="42"
y="76"
width="12"
height="12"
rx="2"
fill="#0e4429"/>

<rect
x="42"
y="93"
width="12"
height="12"
rx="2"
fill="#0e4429"/>

<rect
x="42"
y="110"
width="12"
height="12"
rx="2"
fill="#0e4429"/>

<rect
x="42"
y="127"
width="12"
height="12"
rx="2"
fill="#0e4429"/>

<rect
x="59"
y="25"
width="12"
height="12"
rx="2"
fill="#0e4429"/>

<rect
x="59"
y="42"
width="12"
height="12"
rx="2"
fill="#0e4429"/>

<rect
x="59"
y="59"
width="12"
height="12"
rx="2"
fill="#0e4429"/>

<rect
x="59"
y="76"
width="12"
height="12"
rx="2"
fill="#0e4429"/>

<rect
x="59"
y="93"
width="12"
height="12"
rx="2"
fill="#0e4429"/>

<rect
x="59"
y="110"
width="12"
height="12"
rx="2"
fill="#0e4429"/>

<rect
x="59"
y="127"
width="12"
height="12"
rx="2"
fill="#0e4429"/>

<rect
x="76"
y="25"
width="12"
height="12"
rx="2"
fill="#0e4429"/>

<rect
x="76"
y="42"
width="12"
height="12"
rx="2"
fill="#0e4429"/>

<rect
x="76"
y="59"
width="12"
height="12"
rx="2"
fill="#0e4429"/>

<rect
x="76"
y="76"
width="12"
height="12"
rx="2"
fill="#0e4429"/>

<rect
x="76"
y="93"
width="12"
height="12"
rx="2"
fill="#0e4429"/>

<rect
x="76"
y="110"
width="12"
height="12"
rx="2"
fill="#0e4429"/>

<rect
x="76"
y="127"
width="12"
height="12"
rx="2"
fill="#0e4429"/>

<rect
x="93"
y="25"
width="12"
height="12"
rx="2"
fill="#0e4429"/>

<rect
x="93"
y="42"
width="12"
height="12"
rx="2"
fill="#0e4429"/>

<rect
x="93"
y="59"
width="12"
height="12"
rx="2"
fill="#0e4429"/>

<rect
x="93"
y="76"
width="12"
height="12"
rx="2"
fill="#0e4429"/>

<rect
x="93"
y="93"
width="12"
height="12"
rx="2"
fill="#0e4429"/>

<rect
x="93"
y="110"
width="12"
height="12"
rx="2"
fill="#0e4429"/>

<rect
x="93"
y="127"
width="12"
height="12"
rx="2"
fill="#0e4429"/>

<rect
x="110"
y="25"
width="12"
height="12"
rx="2"
fill="#0e4429"/>

<rect
x="110"
y="42"
width="12"
height="12"
rx="2"
fill="#0e4429"/>

<rect
x="110"
y="59"
width="12"
height="12"
rx="2"
fill="#0e4429"/>

<rect
x="110"
y="76"
width="12"
height="12"
rx="2"
fill="#0e4429"/>

<rect
x="110"
y="93"
width="12"
height="12"
rx="2"
fill="#0e4429"/>

<rect
x="110"
y="110"
width="12"
height="12"
rx="2"
fill="#0e4429"/>

<rect
x="110"
y="127"
width="12"
height="12"
rx="2"
fill="#0e4429"/>

<rect
x="127"
y="25"
width="12"
height="12"
rx="2"
fill="#0e4429"/>

<rect
x="127"
y="42"
width="12"
height="12"
rx="2"
fill="#0e4429"/>

<rect
x="127"
y="59"
width="12"
height="12"
rx="2"
fill="#0e4429"/>

<rect
x="127"
y="76"
width="12"
height="12"
rx="2"
fill="#0e4429"/>

<rect
x="127"
y="93"
width="12"
height="12"
rx="2"
fill="#0e4429"/>

<rect
x="127"
y="110"
width="12"
height="12"
rx="2"
fill="#0e4429"/>

<rect
x="127"
y="127"
width="12"
height="12"
rx="2"
fill="#0e4429"/>

<rect
x="144"
y="25"
width="12"
height="12"
rx="2"
fill="#0e4429"/>

<rect
x="144"
y="42"
width="12"
height="12"
rx="2"
fill="#0e4429"/>

<rect
x="144"
y="59"
width="12"
height="12"
rx="2"
fill="#0e4429"/>

<rect
x="144"
y="76"
width="12"
height="12"
rx="2"
fill="#0e4429"/>

<rect
x="144"
y="93"
width="12"
height="12"
rx="2"
fill="#0e4429"/>

<rect
x="144"
y="110"
width="12"
height="12"
rx="2"
fill="#0e4429"/>

<rect
x="144"
y="127"
width="12"
height="12"
rx="2"
fill="#0e4429"/>

<rect
x="161"
y="25"
width="12"
height="12"
rx="2"
fill="#0e4429"/>

<rect
x="161"
y="42"
width="12"
height="12"
rx="2"
fill="#0e4429"/>

<rect
x="161"
y="59"
width="12"
height="12"
rx="2"
fill="#0e4429"/>

<rect
x="161"
y="76"
width="12"
height="12"
rx="2"
fill="#0e4429"/>

<rect
x="161"
y="93"
width="12"
height="12"
rx="2"
fill="#0e4429"/>

<rect
x="161"
y="110"
width="12"
height="12"
rx="2"
fill="#0e4429"/>

<rect
x="161"
y="127"
width="12"
height="12"
rx="2"
fill="#0e4429"/>

<rect
x="178"
y="25"
width="12"
height="12"
rx="2"
fill="#0e4429"/>

<rect
x="178"
y="42"
width="12"
height="12"
rx="2"
fill="#0e4429"/>

<rect
x="178"
y="59"
width="12"
height="12"
rx="2"
fill="#0e4429"/>

<rect
x="178"
y="76"
width="12"
height="12"
rx="2"
fill="#0e4429"/>

<rect
x="178"
y="93"
width="12"
height="12"
rx="2"
fill="#0e4429"/>

<rect
x="178"
y="110"
width="12"
height="12"
rx="2"
fill="#0e4429"/>

<rect
x="178"
y="127"
width="12"
height="12"
rx="2"
fill="#0e4429"/>

<rect
x="195"
y="25"
width="12"
height="12"
rx="2"
fill="#0e4429"/>

<rect
x="195"
y="42"
width="12"
height="12"
rx="2"
fill="#0e4429"/>

<rect
x="195"
y="59"
width="12"
height="12"
rx="2"
fill="#0e4429"/>

<rect
x="195"
y="76"
width="12"
height="12"
rx="2"
fill="#0e4429"/>

<rect
x="195"
y="93"
width="12"
height="12"
rx="2"
fill="#0e4429"/>

<rect
x="195"
y="110"
width="12"
height="12"
rx="2"
fill="#0e4429"/>

<rect
x="195"
y="127"
width="12"
height="12"
rx="2"
fill="#0e4429"/>

<rect
x="212"
y="25"
width="12"
height="12"
rx="2"
fill="#0e4429"/>

<rect
x="212"
y="42"
width="12"
height="12"
rx="2"
fill="#0e4429"/>

<rect
x="212"
y="59"
width="12"
height="12"
rx="2"
fill="#0e4429"/>

<rect
x="212"
y="76"
width="12"
height="12"
rx="2"
fill="#0e4429"/>

<rect
x="212"
y="93"
width="12"
height="12"
rx="2"
fill="#0e4429"/>

<rect
x="212"
y="110"
width="12"
height="12"
rx="2"
fill="#0e4429"/>

<rect
x="212"
y="127"
width="12"
height="12"
rx="2"
fill="#0e4429"/>

<rect
x="229"
y="25"
width="12"
height="12"
rx="2"
fill="#0e4429"/>

<rect
x="229"
y="42"
width="12"
height="12"
rx="2"
fill="#0e4429"/>

<rect
x="229"
y="59"
width="12"
height="12"
rx="2"
fill="#0e4429"/>

<rect
x="229"
y="76"
width="12"
height="12"
rx="2"
fill="#0e4429"/>

<rect
x="229"
y="93"
width="12"
height="12"
rx="2"
fill="#0e4429"/>

<rect
x="229"
y="110"
width="12"
height="12"
rx="2"
fill="#0e4429"/>

<rect
x="229"
y="127"
width="12"
height="12"
rx="2"
fill="#0e4429"/>

<rect
x="246"
y="25"
width="12"
height="12"
rx="2"
fill="#0e4429"/>

<rect
x="246"
y="42"
width="12"
height="12"
rx="2"
fill="#0e4429"/>

<rect
x="246"
y="59"
width="12"
height="12"
rx="2"
fill="#0e4429"/>

<rect
x="246"
y="76"
width="12"
height="12"
rx="2"
fill="#0e4429"/>

<rect
x="246"
y="93"
width="12"
height="12"
rx="2"
fill="#0e4429"/>

<rect
x="246"
y="110"
width="12"
height="12"
rx="2"
fill="#0e4429"/>

<rect
x="246"
y="127"
width="12"
height="12"
rx="2"
fill="#0e4429"/>

<rect
x="263"
y="25"
width="12"
height="12"
rx="2"
fill="#0e4429"/>

<rect
x="263"
y="42"
width="12"
height="12"
rx="2"
fill="#0e4429"/>

<rect
x="263"
y="59"
width="12"
height="12"
rx="2"
fill="#0e4429"/>

<rect
x="263"
y="76"
width="12"
height="12"
rx="2"
fill="#0e4429"/>

<rect
x="263"
y="93"
width="12"
height="12"
rx="2"
fill="#0e4429"/>

<rect
x="263"
y="110"
width="12"
height="12"
rx="2"
fill="#0e4429"/>

<rect
x="263"
y="127"
width="12"
height="12"
rx="2"
fill="#0e4429"/>

<rect
x="280"
y="25"
width="12"
height="12"
rx="2"
fill="#0e4429"/>

<rect
x="280"
y="42"
width="12"
height="12"
rx="2"
fill="#0e4429"/>

<rect
x="280"
y="59"
width="12"
height="12"
rx="2"
fill="#0e4429"/>

<rect
x="280"
y="76"
width="12"
height="12"
rx="2"
fill="#0e4429"/>

<rect
x="280"
y="93"
width="12"
height="12"
rx="2"
fill="#0e4429"/>

<rect
x="280"
y="110"
width="12"
height="12"
rx="2"
fill="#0e4429"/>

<rect
x="280"
y="127"
width="12"
height="12"
rx="2"
fill="#0e4429"/>

<rect
x="297"
y="25"
width="12"
height="12"
rx="2"
fill="#0e4429"/>

<rect
x="297"
y="42"
width="12"
height="12"
rx="2"
fill="#0e4429"/>

<rect
x="297"
y="59"
width="12"
height="12"
rx="2"
fill="#0e4429"/>

<rect
x="297"
y="76"
width="12"
height="12"
rx="2"
fill="#0e4429"/>

<rect
x="297"
y="93"
width="12"
height="12"
rx="2"
fill="#0e4429"/>

<rect
x="297"
y="110"
width="12"
height="12"
rx="2"
fill="#0e4429"/>

<rect
x="297"
y="127"
width="12"
height="12"
rx="2"
fill="#0e4429"/>

<rect
x="314"
y="25"
width="12"
height="12"
rx="2"
fill="#0e4429"/>

<rect
x="314"
y="42"
width="12"
height="12"
rx="2"
fill="#0e4429"/>

<rect
x="314"
y="59"
width="12"
height="12"
rx="2"
fill="#0e4429"/>

<rect
x="314"
y="76"
width="12"
height="12"
rx="2"
fill="#0e4429"/>

<rect
x="314"
y="93"
width="12"
height="12"
rx="2"
fill="#0e4429"/>

<rect
x="314"
y="110"
width="12"
height="12"
rx="2"
fill="#0e4429"/>

<rect
x="314"
y="127"
width="12"
height="12"
rx="2"
fill="#0e4429"/>

<rect
x="331"
y="25"
width="12"
height="12"
rx="2"
fill="#0e4429"/>

<rect
x="331"
y="42"
width="12"
height="12"
rx="2"
fill="#0e4429"/>

<rect
x="331"
y="59"
width="12"
height="12"
rx="2"
fill="#0e4429"/>

<rect
x="331"
y="76"
width="12"
height="12"
rx="2"
fill="#0e4429"/>

<rect
x="331"
y="93"
width="12"
height="12"
rx="2"
fill="#0e4429"/>

<rect
x="331"
y="110"
width="12"
height="12"
rx="2"
fill="#0e4429"/>

<rect
x="331"
y="127"
width="12"
height="12"
rx="2"
fill="#0e4429"/>

<rect
x="348"
y="25"
width="12"
height="12"
rx="2"
fill="#0e4429"/>

<rect
x="348"
y="42"
width="12"
height="12"
rx="2"
fill="#0e4429"/>

<rect
x="348"
y="59"
width="12"
height="12"
rx="2"
fill="#0e4429"/>

<rect
x="348"
y="76"
width="12"
height="12"
rx="2"
fill="#0e4429"/>

<rect
x="348"
y="93"
width="12"
height="12"
rx="2"
fill="#0e4429"/>

<rect
x="348"
y="110"
width="12"
height="12"
rx="2"
fill="#0e4429"/>

<rect
x="348"
y="127"
width="12"
height="12"
rx="2"
fill="#0e4429"/>

<rect
x="365"
y="25"
width="12"
height="12"
rx="2"
fill="#0e4429"/>

<rect
x="365"
y="42"
width="12"
height="12"
rx="2"
fill="#0e4429"/>

<rect
x="365"
y="59"
width="12"
height="12"
rx="2"
fill="#0e4429"/>

<rect
x="365"
y="76"
width="12"
height="12"
rx="2"
fill="#0e4429"/>

<rect
x="365"
y="93"
width="12"
height="12"
rx="2"
fill="#0e4429"/>

<rect
x="365"
y="110"
width="12"
height="12"
rx="2"
fill="#0e4429"/>

<rect
x="365"
y="127"
width="12"
height="12"
rx="2"
fill="#0e4429"/>

<rect
x="382"
y="25"
width="12"
height="12"
rx="2"
fill="#0e4429"/>

<rect
x="382"
y="42"
width="12"
height="12"
rx="2"
fill="#0e4429"/>

<rect
x="382"
y="59"
width="12"
height="12"
rx="2"
fill="#0e4429"/>

<rect
x="382"
y="76"
width="12"
height="12"
rx="2"
fill="#0e4429"/>

<rect
x="382"
y="93"
width="12"
height="12"
rx="2"
fill="#0e4429"/>

<rect
x="382"
y="110"
width="12"
height="12"
rx="2"
fill="#0e4429"/>

<rect
x="382"
y="127"
width="12"
height="12"
rx="2"
fill="#0e4429"/>

<rect
x="399"
y="25"
width="12"
height="12"
rx="2"
fill="#0e4429"/>

<rect
x="399"
y="42"
width="12"
height="12"
rx="2"
fill="#0e4429"/>

<rect
x="399"
y="59"
width="12"
height="12"
rx="2"
fill="#0e4429"/>

<rect
x="399"
y="76"
width="12"
height="12"
rx="2"
fill="#0e4429"/>

<rect
x="399"
y="93"
width="12"
height="12"
rx="2"
fill="#0e4429"/>

<rect
x="399"
y="110"
width="12"
height="12"
rx="2"
fill="#0e4429"/>

<rect
x="399"
y="127"
width="12"
height="12"
rx="2"
fill="#0e4429"/>

<rect
x="416"
y="25"
width="12"
height="12"
rx="2"
fill="#0e4429"/>

<rect
x="416"
y="42"
width="12"
height="12"
rx="2"
fill="#0e4429"/>

<rect
x="416"
y="59"
width="12"
height="12"
rx="2"
fill="#0e4429"/>

<rect
x="416"
y="76"
width="12"
height="12"
rx="2"
fill="#0e4429"/>

<rect
x="416"
y="93"
width="12"
height="12"
rx="2"
fill="#0e4429"/>

<rect
x="416"
y="110"
width="12"
height="12"
rx="2"
fill="#0e4429"/>

<rect
x="416"
y="127"
width="12"
height="12"
rx="2"
fill="#0e4429"/>

<rect
x="433"
y="25"
width="12"
height="12"
rx="2"
fill="#0e4429"/>

<rect
x="433"
y="42"
width="12"
height="12"
rx="2"
fill="#0e4429"/>

<rect
x="433"
y="59"
width="12"
height="12"
rx="2"
fill="#0e4429"/>

<rect
x="433"
y="76"
width="12"
height="12"
rx="2"
fill="#0e4429"/>

<rect
x="433"
y="93"
width="12"
height="12"
rx="2"
fill="#0e4429"/>

<rect
x="433"
y="110"
width="12"
height="12"
rx="2"
fill="#0e4429"/>

<rect
x="433"
y="127"
width="12"
height="12"
rx="2"
fill="#0e4429"/>

<rect
x="450"
y="25"
width="12"
height="12"
rx="2"
fill="#0e4429"/>

<rect
x="450"
y="42"
width="12"
height="12"
rx="2"
fill="#0e4429"/>

<rect
x="450"
y="59"
width="12"
height="12"
rx="2"
fill="#0e4429"/>

<rect
x="450"
y="76"
width="12"
height="12"
rx="2"
fill="#0e4429"/>

<rect
x="450"
y="93"
width="12"
height="12"
rx="2"
fill="#0e4429"/>

<rect
x="450"
y="110"
width="12"
height="12"
rx="2"
fill="#0e4429"/>

<rect
x="450"
y="127"
width="12"
height="12"
rx="2"
fill="#0e4429"/>

<rect
x="467"
y="25"
width="12"
height="12"
rx="2"
fill="#0e4429"/>

<rect
x="467"
y="42"
width="12"
height="12"
rx="2"
fill="#0e4429"/>

<rect
x="467"
y="59"
width="12"
height="12"
rx="2"
fill="#0e4429"/>

<rect
x="467"
y="76"
width="12"
height="12"
rx="2"
fill="#0e4429"/>

<rect
x="467"
y="93"
width="12"
height="12"
rx="2"
fill="#0e4429"/>

<rect
x="467"
y="110"
width="12"
height="12"
rx="2"
fill="#0e4429"/>

<rect
x="467"
y="127"
width="12"
height="12"
rx="2"
fill="#0e4429"/>

<rect
x="484"
y="25"
width="12"
height="12"
rx="2"
fill="#0e4429"/>

<rect
x="484"
y="42"
width="12"
height="12"
rx="2"
fill="#0e4429"/>

<rect
x="484"
y="59"
width="12"
height="12"
rx="2"
fill="#0e4429"/>

<rect
x="484"
y="76"
width="12"
height="12"
rx="2"
fill="#0e4429"/>

<rect
x="484"
y="93"
width="12"
height="12"
rx="2"
fill="#0e4429"/>

<rect
x="484"
y="110"
width="12"
height="12"
rx="2"
fill="#0e4429"/>

<rect
x="484"
y="127"
width="12"
height="12"
rx="2"
fill="#0e4429"/>

<rect
x="501"
y="25"
width="12"
height="12"
rx="2"
fill="#0e4429"/>

<rect
x="501"
y="42"
width="12"
height="12"
rx="2"
fill="#0e4429"/>

<rect
x="501"
y="59"
width="12"
height="12"
rx="2"
fill="#0e4429"/>

<rect
x="501"
y="76"
width="12"
height="12"
rx="2"
fill="#0e4429"/>

<rect
x="501"
y="93"
width="12"
height="12"
rx="2"
fill="#0e4429"/>

<rect
x="501"
y="110"
width="12"
height="12"
rx="2"
fill="#0e4429"/>

<rect
x="501"
y="127"
width="12"
height="12"
rx="2"
fill="#0e4429"/>

<rect
x="518"
y="25"
width="12"
height="12"
rx="2"
fill="#0e4429"/>

<rect
x="518"
y="42"
width="12"
height="12"
rx="2"
fill="#0e4429"/>

<rect
x="518"
y="59"
width="12"
height="12"
rx="2"
fill="#0e4429"/>

<rect
x="518"
y="76"
width="12"
height="12"
rx="2"
fill="#0e4429"/>

<rect
x="518"
y="93"
width="12"
height="12"
rx="2"
fill="#0e4429"/>

<rect
x="518"
y="110"
width="12"
height="12"
rx="2"
fill="#0e4429"/>

<rect
x="518"
y="127"
width="12"
height="12"
rx="2"
fill="#0e4429"/>

<rect
x="535"
y="25"
width="12"
height="12"
rx="2"
fill="#0e4429"/>

<rect
x="535"
y="42"
width="12"
height="12"
rx="2"
fill="#0e4429"/>

<rect
x="535"
y="59"
width="12"
height="12"
rx="2"
fill="#0e4429"/>

<rect
x="535"
y="76"
width="12"
height="12"
rx="2"
fill="#0e4429"/>

<rect
x="535"
y="93"
width="12"
height="12"
rx="2"
fill="#0e4429"/>

<rect
x="535"
y="110"
width="12"
height="12"
rx="2"
fill="#0e4429"/>

<rect
x="535"
y="127"
width="12"
height="12"
rx="2"
fill="#0e4429"/>

<rect
x="552"
y="25"
width="12"
height="12"
rx="2"
fill="#0e4429"/>

<rect
x="552"
y="42"
width="12"
height="12"
rx="2"
fill="#0e4429"/>

<rect
x="552"
y="59"
width="12"
height="12"
rx="2"
fill="#0e4429"/>

<rect
x="552"
y="76"
width="12"
height="12"
rx="2"
fill="#0e4429"/>

<rect
x="552"
y="93"
width="12"
height="12"
rx="2"
fill="#0e4429"/>

<rect
x="552"
y="110"
width="12"
height="12"
rx="2"
fill="#0e4429"/>

<rect
x="552"
y="127"
width="12"
height="12"
rx="2"
fill="#0e4429"/>

<rect
x="569"
y="25"
width="12"
height="12"
rx="2"
fill="#0e4429"/>

<rect
x="569"
y="42"
width="12"
height="12"
rx="2"
fill="#0e4429"/>

<rect
x="569"
y="59"
width="12"
height="12"
rx="2"
fill="#0e4429"/>

<rect
x="569"
y="76"
width="12"
height="12"
rx="2"
fill="#0e4429"/>

<rect
x="569"
y="93"
width="12"
height="12"
rx="2"
fill="#0e4429"/>

<rect
x="569"
y="110"
width="12"
height="12"
rx="2"
fill="#0e4429"/>

<rect
x="569"
y="127"
width="12"
height="12"
rx="2"
fill="#0e4429"/>

<rect
x="586"
y="25"
width="12"
height="12"
rx="2"
fill="#0e4429"/>

<rect
x="586"
y="42"
width="12"
height="12"
rx="2"
fill="#0e4429"/>

<rect
x="586"
y="59"
width="12"
height="12"
rx="2"
fill="#0e4429"/>

<rect
x="586"
y="76"
width="12"
height="12"
rx="2"
fill="#0e4429"/>

<rect
x="586"
y="93"
width="12"
height="12"
rx="2"
fill="#0e4429"/>

<rect
x="586"
y="110"
width="12"
height="12"
rx="2"
fill="#0e4429"/>

<rect
x="586"
y="127"
width="12"
height="12"
rx="2"
fill="#0e4429"/>

<rect
x="603"
y="25"
width="12"
height="12"
rx="2"
fill="#0e4429"/>

<rect
x="603"
y="42"
width="12"
height="12"
rx="2"
fill="#0e4429"/>

<rect
x="603"
y="59"
width="12"
height="12"
rx="2"
fill="#0e4429"/>

<rect
x="603"
y="76"
width="12"
height="12"
rx="2"
fill="#0e4429"/>

<rect
x="603"
y="93"
width="12"
height="12"
rx="2"
fill="#0e4429"/>

<rect
x="603"
y="110"
width="12"
height="12"
rx="2"
fill="#0e4429"/>

<rect
x="603"
y="127"
width="12"
height="12"
rx="2"
fill="#0e4429"/>

<rect
x="620"
y="25"
width="12"
height="12"
rx="2"
fill="#0e4429"/>

<rect
x="620"
y="42"
width="12"
height="12"
rx="2"
fill="#0e4429"/>

<rect
x="620"
y="59"
width="12"
height="12"
rx="2"
fill="#0e4429"/>

<rect
x="620"
y="76"
width="12"
height="12"
rx="2"
fill="#0e4429"/>

<rect
x="620"
y="93"
width="12"
height="12"
rx="2"
fill="#0e4429"/>

<rect
x="620"
y="110"
width="12"
height="12"
rx="2"
fill="#0e4429"/>

<rect
x="620"
y="127"
width="12"
height="12"
rx="2"
fill="#0e4429"/>

<rect
x="637"
y="25"
width="12"
height="12"
rx="2"
fill="#0e4429"/>

<rect
x="637"
y="42"
width="12"
height="12"
rx="2"
fill="#0e4429"/>

<rect
x="637"
y="59"
width="12"
height="12"
rx="2"
fill="#0e4429"/>

<rect
x="637"
y="76"
width="12"
height="12"
rx="2"
fill="#0e4429"/>

<rect
x="637"
y="93"
width="12"
height="12"
rx="2"
fill="#0e4429"/>

<rect
x="637"
y="110"
width="12"
height="12"
rx="2"
fill="#0e4429"/>

<rect
x="637"
y="127"
width="12"
height="12"
rx="2"
fill="#0e4429"/>

<rect
x="654"
y="25"
width="12"
height="12"
rx="2"
fill="#0e4429"/>

<rect
x="654"
y="42"
width="12"
height="12"
rx="2"
fill="#0e4429"/>

<rect
x="654"
y="59"
width="12"
height="12"
rx="2"
fill="#0e4429"/>

<rect
x="654"
y="76"
width="12"
height="12"
rx="2"
fill="#0e4429"/>

<rect
x="654"
y="93"
width="12"
height="12"
rx="2"
fill="#0e4429"/>

<rect
x="654"
y="110"
width="12"
height="12"
rx="2"
fill="#0e4429"/>

<rect
x="654"
y="127"
width="12"
height="12"
rx="2"
fill="#0e4429"/>

<rect
x="671"
y="25"
width="12"
height="12"
rx="2"
fill="#0e4429"/>

<rect
x="671"
y="42"
width="12"
height="12"
rx="2"
fill="#0e4429"/>

<rect
x="671"
y="59"
width="12"
height="12"
rx="2"
fill="#0e4429"/>

<rect
x="671"
y="76"
width="12"
height="12"
rx="2"
fill="#0e4429"/>

<rect
x="671"
y="93"
width="12"
height="12"
rx="2"
fill="#0e4429"/>

<rect
x="671"
y="110"
width="12"
height="12"
rx="2"
fill="#0e4429"/>

<rect
x="671"
y="127"
width="12"
height="12"
rx="2"
fill="#0e4429"/>

<rect
x="688"
y="25"
width="12"
height="12"
rx="2"
fill="#0e4429"/>

<rect
x="688"
y="42"
width="12"
height="12"
rx="2"
fill="#0e4429"/>

<rect
x="688"
y="59"
width="12"
height="12"
rx="2"
fill="#0e4429"/>

<rect
x="688"
y="76"
width="12"
height="12"
rx="2"
fill="#0e4429"/>

<rect
x="688"
y="93"
width="12"
height="12"
rx="2"
fill="#0e4429"/>

<rect
x="688"
y="110"
width="12"
height="12"
rx="2"
fill="#0e4429"/>

<rect
x="688"
y="127"
width="12"
height="12"
rx="2"
fill="#0e4429"/>

<rect
x="705"
y="25"
width="12"
height="12"
rx="2"
fill="#0e4429"/>

<rect
x="705"
y="42"
width="12"
height="12"
rx="2"
fill="#0e4429"/>

<rect
x="705"
y="59"
width="12"
height="12"
rx="2"
fill="#0e4429"/>

<rect
x="705"
y="76"
width="12"
height="12"
rx="2"
fill="#0e4429"/>

<rect
x="705"
y="93"
width="12"
height="12"
rx="2"
fill="#0e4429"/>

<rect
x="705"
y="110"
width="12"
height="12"
rx="2"
fill="#0e4429"/>

<rect
x="705"
y="127"
width="12"
height="12"
rx="2"
fill="#0e4429"/>

<rect
x="722"
y="25"
width="12"
height="12"
rx="2"
fill="#0e4429"/>

<rect
x="722"
y="42"
width="12"
height="12"
rx="2"
fill="#0e4429"/>

<rect
x="722"
y="59"
width="12"
height="12"
rx="2"
fill="#0e4429"/>

<rect
x="722"
y="76"
width="12"
height="12"
rx="2"
fill="#0e4429"/>

<rect
x="722"
y="93"
width="12"
height="12"
rx="2"
fill="#0e4429"/>

<rect
x="722"
y="110"
width="12"
height="12"
rx="2"
fill="#0e4429"/>

<rect
x="722"
y="127"
width="12"
height="12"
rx="2"
fill="#0e4429"/>

<rect
x="739"
y="25"
width="12"
height="12"
rx="2"
fill="#0e4429"/>

<rect
x="739"
y="42"
width="12"
height="12"
rx="2"
fill="#0e4429"/>

<rect
x="739"
y="59"
width="12"
height="12"
rx="2"
fill="#0e4429"/>

<rect
x="739"
y="76"
width="12"
height="12"
rx="2"
fill="#0e4429"/>

<rect
x="739"
y="93"
width="12"
height="12"
rx="2"
fill="#0e4429"/>

<rect
x="739"
y="110"
width="12"
height="12"
rx="2"
fill="#0e4429"/>

<rect
x="739"
y="127"
width="12"
height="12"
rx="2"
fill="#0e4429"/>

<rect
x="756"
y="25"
width="12"
height="12"
rx="2"
fill="#0e4429"/>

<rect
x="756"
y="42"
width="12"
height="12"
rx="2"
fill="#0e4429"/>

<rect
x="756"
y="59"
width="12"
height="12"
rx="2"
fill="#0e4429"/>

<rect
x="756"
y="76"
width="12"
height="12"
rx="2"
fill="#0e4429"/>

<rect
x="756"
y="93"
width="12"
height="12"
rx="2"
fill="#0e4429"/>

<rect
x="756"
y="110"
width="12"
height="12"
rx="2"
fill="#0e4429"/>

<rect
x="756"
y="127"
width="12"
height="12"
rx="2"
fill="#0e4429"/>

<rect
x="773"
y="25"
width="12"
height="12"
rx="2"
fill="#0e4429"/>

<rect
x="773"
y="42"
width="12"
height="12"
rx="2"
fill="#0e4429"/>

<rect
x="773"
y="59"
width="12"
height="12"
rx="2"
fill="#0e4429"/>

<rect
x="773"
y="76"
width="12"
height="12"
rx="2"
fill="#0e4429"/>

<rect
x="773"
y="93"
width="12"
height="12"
rx="2"
fill="#0e4429"/>

<rect
x="773"
y="110"
width="12"
height="12"
rx="2"
fill="#0e4429"/>

<rect
x="773"
y="127"
width="12"
height="12"
rx="2"
fill="#0e4429"/>

<rect
x="790"
y="25"
width="12"
height="12"
rx="2"
fill="#0e4429"/>

<rect
x="790"
y="42"
width="12"
height="12"
rx="2"
fill="#0e4429"/>

<rect
x="790"
y="59"
width="12"
height="12"
rx="2"
fill="#0e4429"/>

<rect
x="790"
y="76"
width="12"
height="12"
rx="2"
fill="#0e4429"/>

<rect
x="790"
y="93"
width="12"
height="12"
rx="2"
fill="#0e4429"/>

<rect
x="790"
y="110"
width="12"
height="12"
rx="2"
fill="#0e4429"/>

<rect
x="790"
y="127"
width="12"
height="12"
rx="2"
fill="#0e4429"/>

<rect
x="807"
y="25"
width="12"
height="12"
rx="2"
fill="#0e4429"/>

<rect
x="807"
y="42"
width="12"
height="12"
rx="2"
fill="#0e4429"/>

<rect
x="807"
y="59"
width="12"
height="12"
rx="2"
fill="#0e4429"/>

<rect
x="807"
y="76"
width="12"
height="12"
rx="2"
fill="#0e4429"/>

<rect
x="807"
y="93"
width="12"
height="12"
rx="2"
fill="#0e4429"/>

<rect
x="807"
y="110"
width="12"
height="12"
rx="2"
fill="#0e4429"/>

<rect
x="807"
y="127"
width="12"
height="12"
rx="2"
fill="#0e4429"/>

<rect
x="824"
y="25"
width="12"
height="12"
rx="2"
fill="#0e4429"/>

<rect
x="824"
y="42"
width="12"
height="12"
rx="2"
fill="#0e4429"/>

<rect
x="824"
y="59"
width="12"
height="12"
rx="2"
fill="#0e4429"/>

<rect
x="824"
y="76"
width="12"
height="12"
rx="2"
fill="#0e4429"/>

<rect
x="824"
y="93"
width="12"
height="12"
rx="2"
fill="#0e4429"/>

<rect
x="824"
y="110"
width="12"
height="12"
rx="2"
fill="#0e4429"/>

<rect
x="824"
y="127"
width="12"
height="12"
rx="2"
fill="#0e4429"/>

<rect
x="841"
y="25"
width="12"
height="12"
rx="2"
fill="#0e4429"/>

<rect
x="841"
y="42"
width="12"
height="12"
rx="2"
fill="#0e4429"/>

<rect
x="841"
y="59"
width="12"
height="12"
rx="2"
fill="#0e4429"/>

<rect
x="841"
y="76"
width="12"
height="12"
rx="2"
fill="#0e4429"/>

<rect
x="841"
y="93"
width="12"
height="12"
rx="2"
fill="#0e4429"/>

<rect
x="841"
y="110"
width="12"
height="12"
rx="2"
fill="#0e4429"/>

<rect
x="841"
y="127"
width="12"
height="12"
rx="2"
fill="#0e4429"/>

<rect
x="858"
y="25"
width="12"
height="12"
rx="2"
fill="#0e4429"/>

<rect
x="858"
y="42"
width="12"
height="12"
rx="2"
fill="#0e4429"/>

<rect
x="858"
y="59"
width="12"
height="12"
rx="2"
fill="#0e4429"/>

<rect
x="858"
y="76"
width="12"
height="12"
rx="2"
fill="#0e4429"/>

<rect
x="858"
y="93"
width="12"
height="12"
rx="2"
fill="#0e4429"/>

<rect
x="858"
y="110"
width="12"
height="12"
rx="2"
fill="#0e4429"/>

<rect
x="858"
y="127"
width="12"
height="12"
rx="2"
fill="#0e4429"/>

<rect
x="875"
y="25"
width="12"
height="12"
rx="2"
fill="#0e4429"/>

<rect
x="875"
y="42"
width="12"
height="12"
rx="2"
fill="#0e4429"/>

<rect
x="875"
y="59"
width="12"
height="12"
rx="2"
fill="#0e4429"/>

<rect
x="875"
y="76"
width="12"
height="12"
rx="2"
fill="#0e4429"/>

<rect
x="875"
y="93"
width="12"
height="12"
rx="2"
fill="#0e4429"/>

<rect
x="875"
y="110"
width="12"
height="12"
rx="2"
fill="#0e4429"/>

<rect
x="875"
y="127"
width="12"
height="12"
rx="2"
fill="#0e4429"/>

<rect
x="892"
y="25"
width="12"
height="12"
rx="2"
fill="#0e4429"/>

<rect
x="892"
y="42"
width="12"
height="12"
rx="2"
fill="#0e4429"/>

<rect
x="892"
y="59"
width="12"
height="12"
rx="2"
fill="#0e4429"/>

<rect
x="892"
y="76"
width="12"
height="12"
rx="2"
fill="#0e4429"/>

<rect
x="892"
y="93"
width="12"
height="12"
rx="2"
fill="#0e4429"/>

<rect
x="892"
y="110"
width="12"
height="12"
rx="2"
fill="#0e4429"/>

<rect
x="892"
y="127"
width="12"
height="12"
rx="2"
fill="#0e4429"/>

<rect
x="909"
y="25"
width="12"
height="12"
rx="2"
fill="#0e4429"/>

<rect
x="909"
y="42"
width="12"
height="12"
rx="2"
fill="#0e4429"/>

<rect
x="909"
y="59"
width="12"
height="12"
rx="2"
fill="#0e4429"/>

<rect
x="909"
y="76"
width="12"
height="12"
rx="2"
fill="#0e4429"/>

<rect
x="909"
y="93"
width="12"
height="12"
rx="2"
fill="#0e4429"/>

<rect
x="909"
y="110"
width="12"
height="12"
rx="2"
fill="#0e4429"/>

<rect
x="909"
y="127"
width="12"
height="12"
rx="2"
fill="#0e4429"/>

<g transform="translate(120 80)">

<polygon
points="
0,-10
14,0
0,10
-5,4
-5,-4"
fill="#dddddd"/>

<circle
cx="-3"
cy="0"
r="2"
fill="#00ccff"/>

</g>

<g transform="translate(760 80)">

<rect
x="-3"
y="-10"
width="6"
height="20"
fill="#666"/>

<circle
cx="0"
cy="0"
r="6"
fill="#999"/>

<rect
x="-12"
y="-10"
width="4"
height="20"
fill="#444"/>

<rect
x="8"
y="-10"
width="4"
height="20"
fill="#444"/>

</g>

</svg>