
<svg
xmlns="http://www.w3.org/2000/svg"
width="951"
height="169"
viewBox="0 0 951 169">

<rect
width="100%"
height="100%"
fill="#000000"/>

<circle
cx="680.8632467568868"
cy="164.70680581062425"
r="0.7628860915239224"
fill="white"
opacity="0.942631860373988"/>

<circle
cx="837.3498408090119"
cy="90.67307987056734"
r="0.38072267731086457"
fill="white"
opacity="0.3749968172775276"/>

<circle
cx="743.7992705217927"
cy="55.70512930369523"
r="1.1637561832603316"
fill="white"
opacity="0.2702565097738374"/>

<circle
cx="332.7715629503916"
cy="37.95494428545547"
r="0.5652672237276559"
fill="white"
opacity="0.749834886511693"/>

<circle
cx="551.14300968358"
cy="156.49494346216042"
r="0.6621398240928302"
fill="white"
opacity="0.669596215181095"/>

<circle
cx="802.7548569306176"
cy="144.30384602843276"
r="0.8752140124108556"
fill="white"
opacity="0.9467326430133285"/>

<circle
cx="423.538887954077"
cy="135.73317202958907"
r="0.40662211407282584"
fill="white"
opacity="0.3316673058938445"/>

<circle
cx="826.5768639988817"
cy="28.309495058625064"
r="0.327185681257436"
fill="white"
opacity="0.8134988766266482"/>

<circle
cx="667.8801561229882"
cy="45.60759799187784"
r="0.46787165231642697"
fill="white"
opacity="0.2766435087307594"/>

<circle
cx="431.3099626416933"
cy="113.74843445915837"
r="1.6050947220061695"
fill="white"
opacity="0.8685946071299169"/>

<circle
cx="293.3435817777808"
cy="60.17780636120399"
r="1.4917496778528203"
fill="white"
opacity="0.6070634861006254"/>

<circle
cx="770.8395522012897"
cy="120.56796514370058"
r="0.7120539392277498"
fill="white"
opacity="0.27158250479431384"/>

<circle
cx="430.9534150229931"
cy="116.14746515753039"
r="0.36481043944782304"
fill="white"
opacity="0.7005782201883668"/>

<circle
cx="319.0395189543442"
cy="68.93128050189414"
r="0.9816414336627053"
fill="white"
opacity="0.5112196499884019"/>

<circle
cx="457.95183180525487"
cy="92.16900935647645"
r="0.543991480602324"
fill="white"
opacity="0.651982701399461"/>

<circle
cx="743.5349534454107"
cy="126.25393402314752"
r="1.2275864323687757"
fill="white"
opacity="0.4274836870538867"/>

<circle
cx="362.63492296806663"
cy="56.49625059865135"
r="0.6731115210131458"
fill="white"
opacity="0.7510260304407186"/>

<circle
cx="868.4599125488776"
cy="131.52208313243716"
r="0.833269952795461"
fill="white"
opacity="0.7569288347363454"/>

<circle
cx="493.03217990437196"
cy="73.61014864347878"
r="1.675985658033632"
fill="white"
opacity="0.7620426326015195"/>

<circle
cx="812.2647991915336"
cy="20.563570277047592"
r="0.44828724926543245"
fill="white"
opacity="0.9441326005017812"/>

<circle
cx="623.6344268443319"
cy="111.8652348802163"
r="1.6213828416721083"
fill="white"
opacity="0.2841995481740323"/>

<circle
cx="889.7926017400406"
cy="141.19704502952425"
r="0.4446500200147036"
fill="white"
opacity="0.38944222954729624"/>

<circle
cx="691.7109447323708"
cy="100.64111284988329"
r="0.6918363888435362"
fill="white"
opacity="0.361491963335669"/>

<circle
cx="344.86570070609366"
cy="127.2745044220094"
r="0.949992291358817"
fill="white"
opacity="0.8951489810919717"/>

<circle
cx="933.7556285205613"
cy="150.37348786511672"
r="1.0171093304898038"
fill="white"
opacity="0.6788470214349058"/>

<circle
cx="597.0675700690394"
cy="148.1459253861667"
r="1.0007536142663596"
fill="white"
opacity="0.403278557136731"/>

<circle
cx="605.6262577935366"
cy="11.84409023117055"
r="0.5763203528751795"
fill="white"
opacity="0.9936389611096936"/>

<circle
cx="339.52183364452435"
cy="166.910264443795"
r="0.7604112688999558"
fill="white"
opacity="0.5905240891602677"/>

<circle
cx="279.24410725729274"
cy="110.10244140335544"
r="1.5096270317071154"
fill="white"
opacity="0.8346906372634675"/>

<circle
cx="48.19718356012997"
cy="157.5246309511152"
r="1.406988189088504"
fill="white"
opacity="0.37267418657643037"/>

<circle
cx="25.56879812378482"
cy="30.271252727290033"
r="1.4863761675757354"
fill="white"
opacity="0.309953673741901"/>

<circle
cx="797.0639151928247"
cy="3.0310806323562534"
r="0.42070717231525107"
fill="white"
opacity="0.6587700560512528"/>

<circle
cx="943.5747391151735"
cy="130.59594003820288"
r="0.6832213067005726"
fill="white"
opacity="0.6866481825961657"/>

<circle
cx="801.0237402768979"
cy="11.57730016397883"
r="1.3736384730729505"
fill="white"
opacity="0.4135091414999652"/>

<circle
cx="834.1912938731699"
cy="154.07738844285026"
r="1.4509534707651097"
fill="white"
opacity="0.383469297990229"/>

<circle
cx="825.5239415817705"
cy="34.448092905356276"
r="1.0947726692791362"
fill="white"
opacity="0.5046047024004263"/>

<circle
cx="83.85186567451636"
cy="27.51382425280899"
r="0.29978303561498326"
fill="white"
opacity="0.9113106590529867"/>

<circle
cx="687.1905763588798"
cy="159.05949238150643"
r="0.7181672091480236"
fill="white"
opacity="0.8875743346643716"/>

<circle
cx="750.9025064540308"
cy="11.999440153288653"
r="0.6335373467394385"
fill="white"
opacity="0.9415452683751808"/>

<circle
cx="337.15483299109474"
cy="45.25138502415466"
r="1.0386510434154037"
fill="white"
opacity="0.8896528330091604"/>

<circle
cx="51.23219019493134"
cy="32.136922846368066"
r="0.7302293424759523"
fill="white"
opacity="0.5309145939374869"/>

<circle
cx="524.3767852084193"
cy="2.316588842722854"
r="1.007116573036274"
fill="white"
opacity="0.6683860897542488"/>

<circle
cx="826.2485405763402"
cy="53.83748891060467"
r="0.23502831569230037"
fill="white"
opacity="0.6434117174058921"/>

<circle
cx="747.8391830505691"
cy="54.0402819123651"
r="0.2125169046401057"
fill="white"
opacity="0.6016717744847213"/>

<circle
cx="816.3840013920644"
cy="19.353233013237084"
r="0.5098931217851574"
fill="white"
opacity="0.8081423681819639"/>

<circle
cx="507.8408954191042"
cy="81.57362280359895"
r="1.6809420217788198"
fill="white"
opacity="0.8841730467063793"/>

<circle
cx="726.2920738173557"
cy="96.85791520027495"
r="0.5976866734898747"
fill="white"
opacity="0.44971958345031826"/>

<circle
cx="503.26808792575935"
cy="132.75992417538302"
r="1.0288601211415904"
fill="white"
opacity="0.5404540213265008"/>

<circle
cx="717.2971735448491"
cy="12.856209231425957"
r="0.8529519089965085"
fill="white"
opacity="0.2522481369531974"/>

<circle
cx="908.8633173963823"
cy="158.69432753351407"
r="1.0202779101280037"
fill="white"
opacity="0.4037295560066847"/>

<circle
cx="352.6951627381572"
cy="29.704516986852724"
r="1.0435484752802906"
fill="white"
opacity="0.4604225100449744"/>

<circle
cx="857.5080154177163"
cy="28.00330562273114"
r="1.2803788524548771"
fill="white"
opacity="0.32716500562416706"/>

<circle
cx="49.68225041320286"
cy="45.59140395590591"
r="1.0257129970470447"
fill="white"
opacity="0.2547158093745006"/>

<circle
cx="797.1700408828518"
cy="17.561467082894055"
r="1.5290617793358319"
fill="white"
opacity="0.9651946114685523"/>

<circle
cx="739.7169938857173"
cy="73.12951700803157"
r="0.863061531916899"
fill="white"
opacity="0.7644361180975563"/>

<circle
cx="708.5247614524352"
cy="109.28409826476157"
r="1.3167707408262683"
fill="white"
opacity="0.6116065593964124"/>

<circle
cx="908.1396032541774"
cy="6.439112089156364"
r="1.215411075894545"
fill="white"
opacity="0.40790003763617033"/>

<circle
cx="30.730662240800413"
cy="18.309067702217988"
r="1.1493898204495387"
fill="white"
opacity="0.34052415687563153"/>

<circle
cx="442.4279342137246"
cy="53.148683374308945"
r="1.1483473046656014"
fill="white"
opacity="0.2908569262496954"/>

<circle
cx="472.4129617984152"
cy="129.7981588861843"
r="0.26745911031864705"
fill="white"
opacity="0.43216548165039886"/>

<circle
cx="92.55120862634185"
cy="129.53597276501992"
r="1.3741405870067884"
fill="white"
opacity="0.37170383731625756"/>

<circle
cx="546.1060004293053"
cy="159.25919651819055"
r="0.39817792153583526"
fill="white"
opacity="0.2644844786480226"/>

<circle
cx="708.6987887631503"
cy="45.78667377734946"
r="0.6486830917106183"
fill="white"
opacity="0.9180479929058698"/>

<circle
cx="168.70189681562076"
cy="17.17024386894226"
r="0.4401676994673756"
fill="white"
opacity="0.890977853495208"/>

<circle
cx="126.09454319989626"
cy="23.078209570007026"
r="1.554915182263906"
fill="white"
opacity="0.8355187470407652"/>

<circle
cx="835.0829760211009"
cy="140.6999306862293"
r="1.0509126860807958"
fill="white"
opacity="0.7292724539594317"/>

<circle
cx="638.439746591403"
cy="122.50007754406455"
r="0.5680436326051261"
fill="white"
opacity="0.988833377956351"/>

<circle
cx="870.8253506093349"
cy="143.47895751714617"
r="0.8046917429597669"
fill="white"
opacity="0.4626385608442535"/>

<circle
cx="882.5453051534673"
cy="154.4254977841338"
r="0.26542552588370755"
fill="white"
opacity="0.7076048138213273"/>

<circle
cx="856.6356578697211"
cy="103.35375558206269"
r="0.9465560474653902"
fill="white"
opacity="0.537933880005308"/>

<circle
cx="209.3779679618705"
cy="142.49482153780443"
r="0.28548305258909795"
fill="white"
opacity="0.7547832879366563"/>

<circle
cx="407.56010407754235"
cy="63.79784685215919"
r="1.5446299865122552"
fill="white"
opacity="0.6923299880055327"/>

<circle
cx="397.7307842785486"
cy="145.78515993716627"
r="1.1216547905638556"
fill="white"
opacity="0.28076432655538125"/>

<circle
cx="174.68956034291395"
cy="102.6000160780683"
r="0.21152361203509257"
fill="white"
opacity="0.38965116969483343"/>

<circle
cx="190.03022639912302"
cy="152.3988655826377"
r="0.40431154347296366"
fill="white"
opacity="0.8720138620814855"/>

<circle
cx="881.8487976565178"
cy="98.55406100870941"
r="0.43534565791818064"
fill="white"
opacity="0.9901943451717088"/>

<circle
cx="539.0253555528186"
cy="15.9843406518494"
r="1.5720873093810317"
fill="white"
opacity="0.8446027980539463"/>

<circle
cx="337.1859526095508"
cy="76.63616422003841"
r="1.3061690278175797"
fill="white"
opacity="0.3255114439733198"/>

<circle
cx="444.93641862975346"
cy="43.214832210809476"
r="0.31465999097638825"
fill="white"
opacity="0.5308248740543686"/>

<circle
cx="931.0036363053143"
cy="92.22349565884603"
r="0.598875452514317"
fill="white"
opacity="0.929884829442732"/>

<circle
cx="838.5738891917204"
cy="148.32342749717105"
r="1.2036371348036041"
fill="white"
opacity="0.723100941069786"/>

<circle
cx="33.57462586167898"
cy="28.693457707351982"
r="0.21802947471756268"
fill="white"
opacity="0.6392748493529905"/>

<circle
cx="620.354663863145"
cy="93.88622683228554"
r="0.8143079847919124"
fill="white"
opacity="0.8063242096078904"/>

<circle
cx="534.702051085116"
cy="51.11506764184775"
r="1.3866532620254983"
fill="white"
opacity="0.7669289777099022"/>

<circle
cx="169.33050053019156"
cy="63.233628453275074"
r="1.461402245453361"
fill="white"
opacity="0.3300393704590302"/>

<circle
cx="800.8574342067748"
cy="165.10766121039043"
r="0.46663374904808946"
fill="white"
opacity="0.3221629085194545"/>

<circle
cx="196.44857895973243"
cy="130.2249635150888"
r="0.7979065166270285"
fill="white"
opacity="0.8199240107687384"/>

<circle
cx="310.6269350359509"
cy="20.292965881200328"
r="0.8165622724912314"
fill="white"
opacity="0.919870144822412"/>

<circle
cx="305.7451840188886"
cy="168.24357013451996"
r="0.8978027565642817"
fill="white"
opacity="0.46224030038447617"/>

<circle
cx="834.9982863638529"
cy="155.7768162062918"
r="0.4375929604967785"
fill="white"
opacity="0.8310545960837732"/>

<circle
cx="567.9724321917608"
cy="11.50888079550416"
r="0.35863667237354907"
fill="white"
opacity="0.47731402619043717"/>

<circle
cx="569.5459103043775"
cy="90.79860708691625"
r="1.626701287498858"
fill="white"
opacity="0.9260187695331024"/>

<circle
cx="769.360355532835"
cy="79.41153809103699"
r="0.7649094892835404"
fill="white"
opacity="0.745268126716601"/>

<circle
cx="152.7358668143508"
cy="31.83029175172483"
r="1.5740515026741615"
fill="white"
opacity="0.547119017559399"/>

<circle
cx="6.892948439865423"
cy="136.31867207231025"
r="0.5065373273271172"
fill="white"
opacity="0.7464688617511286"/>

<circle
cx="779.0596104197055"
cy="83.93173136608694"
r="1.0081401266193233"
fill="white"
opacity="0.9577428835294712"/>

<circle
cx="544.1083280542089"
cy="81.0847738686777"
r="1.3596223432335874"
fill="white"
opacity="0.8401132061808296"/>

<circle
cx="728.2359846027814"
cy="67.29803062445261"
r="0.5063130232584456"
fill="white"
opacity="0.8354070286774575"/>

<circle
cx="364.9037703075313"
cy="91.53604192929143"
r="0.7502966121794423"
fill="white"
opacity="0.6418426849428451"/>

<circle
cx="16.367717624705403"
cy="98.08512264689824"
r="0.6477545371732933"
fill="white"
opacity="0.26249921731805714"/>

<circle
cx="471.9056809135497"
cy="144.78597155040308"
r="1.5288245098025979"
fill="white"
opacity="0.40234570255718083"/>

<circle
cx="795.5128447515102"
cy="148.1089691387245"
r="0.5941310270971945"
fill="white"
opacity="0.7181525255877066"/>

<circle
cx="845.5998134870084"
cy="116.67075025407964"
r="0.7361165462942982"
fill="white"
opacity="0.31720274026359657"/>

<circle
cx="338.506424154848"
cy="16.225088521339103"
r="0.7678587207108485"
fill="white"
opacity="0.42702419193837376"/>

<circle
cx="674.2868368871877"
cy="75.34165280135166"
r="1.565507814099754"
fill="white"
opacity="0.9982759849546263"/>

<circle
cx="524.9590276958411"
cy="80.283123940553"
r="0.5962730854479252"
fill="white"
opacity="0.562321976497838"/>

<circle
cx="127.3070956674197"
cy="2.9764716927538615"
r="0.3176542398699162"
fill="white"
opacity="0.6305393790180102"/>

<circle
cx="405.2043296554887"
cy="84.64600868594165"
r="0.9257128816173408"
fill="white"
opacity="0.9772453320532011"/>

<circle
cx="913.7830273544182"
cy="72.72904796876676"
r="0.2718280539650451"
fill="white"
opacity="0.6692792848716476"/>

<circle
cx="922.117382791806"
cy="163.61436361230818"
r="1.5436947912477128"
fill="white"
opacity="0.7122908299493871"/>

<circle
cx="774.3482951190094"
cy="32.896690339715796"
r="1.6873759349537034"
fill="white"
opacity="0.3945002504413957"/>

<circle
cx="649.2315727949084"
cy="127.0143468648117"
r="0.30888293121337124"
fill="white"
opacity="0.578085962704861"/>

<circle
cx="608.2057557027522"
cy="106.73932163764358"
r="0.4691239453175871"
fill="white"
opacity="0.39880206129119833"/>

<circle
cx="500.59872834528187"
cy="55.602891650223036"
r="0.7053241584266874"
fill="white"
opacity="0.7603754704208121"/>

<circle
cx="864.6908808630126"
cy="62.89950575629385"
r="0.551465323336557"
fill="white"
opacity="0.8253725695000531"/>

<circle
cx="122.69264857756762"
cy="99.71287634706779"
r="0.49071918658602526"
fill="white"
opacity="0.9600216230876304"/>

<circle
cx="106.01678254259662"
cy="99.56925251060764"
r="0.6087636132713099"
fill="white"
opacity="0.7990273880316872"/>

<circle
cx="25.33730071513026"
cy="59.543238766430896"
r="1.4958076310638375"
fill="white"
opacity="0.6491056474425672"/>

<circle
cx="535.629584724894"
cy="151.30705457715254"
r="1.1913719642269087"
fill="white"
opacity="0.9020587610718691"/>

<circle
cx="599.122616299008"
cy="46.94219083676063"
r="0.23955987883641888"
fill="white"
opacity="0.30308851046551055"/>

<rect
x="25"
y="25"
width="12"
height="12"
rx="2"
fill="#0e4429"/>

<rect
x="25"
y="42"
width="12"
height="12"
rx="2"
fill="#0e4429"/>

<rect
x="25"
y="59"
width="12"
height="12"
rx="2"
fill="#0e4429"/>

<rect
x="25"
y="76"
width="12"
height="12"
rx="2"
fill="#0e4429"/>

<rect
x="25"
y="93"
width="12"
height="12"
rx="2"
fill="#0e4429"/>

<rect
x="25"
y="110"
width="12"
height="12"
rx="2"
fill="#0e4429"/>

<rect
x="25"
y="127"
width="12"
height="12"
rx="2"
fill="#0e4429"/>

<rect
x="42"
y="25"
width="12"
height="12"
rx="2"
fill="#0e4429"/>

<rect
x="42"
y="42"
width="12"
height="12"
rx="2"
fill="#0e4429"/>

<rect
x="42"
y="59"
width="12"
height="12"
rx="2"
fill="#0e4429"/>

<rect
x="42"
y="76"
width="12"
height="12"
rx="2"
fill="#0e4429"/>

<rect
x="42"
y="93"
width="12"
height="12"
rx="2"
fill="#0e4429"/>

<rect
x="42"
y="110"
width="12"
height="12"
rx="2"
fill="#0e4429"/>

<rect
x="42"
y="127"
width="12"
height="12"
rx="2"
fill="#0e4429"/>

<rect
x="59"
y="25"
width="12"
height="12"
rx="2"
fill="#0e4429"/>

<rect
x="59"
y="42"
width="12"
height="12"
rx="2"
fill="#0e4429"/>

<rect
x="59"
y="59"
width="12"
height="12"
rx="2"
fill="#0e4429"/>

<rect
x="59"
y="76"
width="12"
height="12"
rx="2"
fill="#0e4429"/>

<rect
x="59"
y="93"
width="12"
height="12"
rx="2"
fill="#0e4429"/>

<rect
x="59"
y="110"
width="12"
height="12"
rx="2"
fill="#0e4429"/>

<rect
x="59"
y="127"
width="12"
height="12"
rx="2"
fill="#0e4429"/>

<rect
x="76"
y="25"
width="12"
height="12"
rx="2"
fill="#0e4429"/>

<rect
x="76"
y="42"
width="12"
height="12"
rx="2"
fill="#0e4429"/>

<rect
x="76"
y="59"
width="12"
height="12"
rx="2"
fill="#0e4429"/>

<rect
x="76"
y="76"
width="12"
height="12"
rx="2"
fill="#0e4429"/>

<rect
x="76"
y="93"
width="12"
height="12"
rx="2"
fill="#0e4429"/>

<rect
x="76"
y="110"
width="12"
height="12"
rx="2"
fill="#0e4429"/>

<rect
x="76"
y="127"
width="12"
height="12"
rx="2"
fill="#0e4429"/>

<rect
x="93"
y="25"
width="12"
height="12"
rx="2"
fill="#0e4429"/>

<rect
x="93"
y="42"
width="12"
height="12"
rx="2"
fill="#0e4429"/>

<rect
x="93"
y="59"
width="12"
height="12"
rx="2"
fill="#0e4429"/>

<rect
x="93"
y="76"
width="12"
height="12"
rx="2"
fill="#0e4429"/>

<rect
x="93"
y="93"
width="12"
height="12"
rx="2"
fill="#0e4429"/>

<rect
x="93"
y="110"
width="12"
height="12"
rx="2"
fill="#0e4429"/>

<rect
x="93"
y="127"
width="12"
height="12"
rx="2"
fill="#0e4429"/>

<rect
x="110"
y="25"
width="12"
height="12"
rx="2"
fill="#0e4429"/>

<rect
x="110"
y="42"
width="12"
height="12"
rx="2"
fill="#0e4429"/>

<rect
x="110"
y="59"
width="12"
height="12"
rx="2"
fill="#0e4429"/>

<rect
x="110"
y="76"
width="12"
height="12"
rx="2"
fill="#0e4429"/>

<rect
x="110"
y="93"
width="12"
height="12"
rx="2"
fill="#0e4429"/>

<rect
x="110"
y="110"
width="12"
height="12"
rx="2"
fill="#0e4429"/>

<rect
x="110"
y="127"
width="12"
height="12"
rx="2"
fill="#0e4429"/>

<rect
x="127"
y="25"
width="12"
height="12"
rx="2"
fill="#0e4429"/>

<rect
x="127"
y="42"
width="12"
height="12"
rx="2"
fill="#0e4429"/>

<rect
x="127"
y="59"
width="12"
height="12"
rx="2"
fill="#0e4429"/>

<rect
x="127"
y="76"
width="12"
height="12"
rx="2"
fill="#0e4429"/>

<rect
x="127"
y="93"
width="12"
height="12"
rx="2"
fill="#0e4429"/>

<rect
x="127"
y="110"
width="12"
height="12"
rx="2"
fill="#0e4429"/>

<rect
x="127"
y="127"
width="12"
height="12"
rx="2"
fill="#0e4429"/>

<rect
x="144"
y="25"
width="12"
height="12"
rx="2"
fill="#0e4429"/>

<rect
x="144"
y="42"
width="12"
height="12"
rx="2"
fill="#0e4429"/>

<rect
x="144"
y="59"
width="12"
height="12"
rx="2"
fill="#0e4429"/>

<rect
x="144"
y="76"
width="12"
height="12"
rx="2"
fill="#0e4429"/>

<rect
x="144"
y="93"
width="12"
height="12"
rx="2"
fill="#0e4429"/>

<rect
x="144"
y="110"
width="12"
height="12"
rx="2"
fill="#0e4429"/>

<rect
x="144"
y="127"
width="12"
height="12"
rx="2"
fill="#0e4429"/>

<rect
x="161"
y="25"
width="12"
height="12"
rx="2"
fill="#0e4429"/>

<rect
x="161"
y="42"
width="12"
height="12"
rx="2"
fill="#0e4429"/>

<rect
x="161"
y="59"
width="12"
height="12"
rx="2"
fill="#0e4429"/>

<rect
x="161"
y="76"
width="12"
height="12"
rx="2"
fill="#0e4429"/>

<rect
x="161"
y="93"
width="12"
height="12"
rx="2"
fill="#0e4429"/>

<rect
x="161"
y="110"
width="12"
height="12"
rx="2"
fill="#0e4429"/>

<rect
x="161"
y="127"
width="12"
height="12"
rx="2"
fill="#0e4429"/>

<rect
x="178"
y="25"
width="12"
height="12"
rx="2"
fill="#0e4429"/>

<rect
x="178"
y="42"
width="12"
height="12"
rx="2"
fill="#0e4429"/>

<rect
x="178"
y="59"
width="12"
height="12"
rx="2"
fill="#0e4429"/>

<rect
x="178"
y="76"
width="12"
height="12"
rx="2"
fill="#0e4429"/>

<rect
x="178"
y="93"
width="12"
height="12"
rx="2"
fill="#0e4429"/>

<rect
x="178"
y="110"
width="12"
height="12"
rx="2"
fill="#0e4429"/>

<rect
x="178"
y="127"
width="12"
height="12"
rx="2"
fill="#0e4429"/>

<rect
x="195"
y="25"
width="12"
height="12"
rx="2"
fill="#0e4429"/>

<rect
x="195"
y="42"
width="12"
height="12"
rx="2"
fill="#0e4429"/>

<rect
x="195"
y="59"
width="12"
height="12"
rx="2"
fill="#0e4429"/>

<rect
x="195"
y="76"
width="12"
height="12"
rx="2"
fill="#0e4429"/>

<rect
x="195"
y="93"
width="12"
height="12"
rx="2"
fill="#0e4429"/>

<rect
x="195"
y="110"
width="12"
height="12"
rx="2"
fill="#0e4429"/>

<rect
x="195"
y="127"
width="12"
height="12"
rx="2"
fill="#0e4429"/>

<rect
x="212"
y="25"
width="12"
height="12"
rx="2"
fill="#0e4429"/>

<rect
x="212"
y="42"
width="12"
height="12"
rx="2"
fill="#0e4429"/>

<rect
x="212"
y="59"
width="12"
height="12"
rx="2"
fill="#0e4429"/>

<rect
x="212"
y="76"
width="12"
height="12"
rx="2"
fill="#0e4429"/>

<rect
x="212"
y="93"
width="12"
height="12"
rx="2"
fill="#0e4429"/>

<rect
x="212"
y="110"
width="12"
height="12"
rx="2"
fill="#0e4429"/>

<rect
x="212"
y="127"
width="12"
height="12"
rx="2"
fill="#0e4429"/>

<rect
x="229"
y="25"
width="12"
height="12"
rx="2"
fill="#0e4429"/>

<rect
x="229"
y="42"
width="12"
height="12"
rx="2"
fill="#0e4429"/>

<rect
x="229"
y="59"
width="12"
height="12"
rx="2"
fill="#0e4429"/>

<rect
x="229"
y="76"
width="12"
height="12"
rx="2"
fill="#0e4429"/>

<rect
x="229"
y="93"
width="12"
height="12"
rx="2"
fill="#0e4429"/>

<rect
x="229"
y="110"
width="12"
height="12"
rx="2"
fill="#0e4429"/>

<rect
x="229"
y="127"
width="12"
height="12"
rx="2"
fill="#0e4429"/>

<rect
x="246"
y="25"
width="12"
height="12"
rx="2"
fill="#0e4429"/>

<rect
x="246"
y="42"
width="12"
height="12"
rx="2"
fill="#0e4429"/>

<rect
x="246"
y="59"
width="12"
height="12"
rx="2"
fill="#0e4429"/>

<rect
x="246"
y="76"
width="12"
height="12"
rx="2"
fill="#0e4429"/>

<rect
x="246"
y="93"
width="12"
height="12"
rx="2"
fill="#0e4429"/>

<rect
x="246"
y="110"
width="12"
height="12"
rx="2"
fill="#0e4429"/>

<rect
x="246"
y="127"
width="12"
height="12"
rx="2"
fill="#0e4429"/>

<rect
x="263"
y="25"
width="12"
height="12"
rx="2"
fill="#0e4429"/>

<rect
x="263"
y="42"
width="12"
height="12"
rx="2"
fill="#0e4429"/>

<rect
x="263"
y="59"
width="12"
height="12"
rx="2"
fill="#0e4429"/>

<rect
x="263"
y="76"
width="12"
height="12"
rx="2"
fill="#0e4429"/>

<rect
x="263"
y="93"
width="12"
height="12"
rx="2"
fill="#0e4429"/>

<rect
x="263"
y="110"
width="12"
height="12"
rx="2"
fill="#0e4429"/>

<rect
x="263"
y="127"
width="12"
height="12"
rx="2"
fill="#0e4429"/>

<rect
x="280"
y="25"
width="12"
height="12"
rx="2"
fill="#0e4429"/>

<rect
x="280"
y="42"
width="12"
height="12"
rx="2"
fill="#0e4429"/>

<rect
x="280"
y="59"
width="12"
height="12"
rx="2"
fill="#0e4429"/>

<rect
x="280"
y="76"
width="12"
height="12"
rx="2"
fill="#0e4429"/>

<rect
x="280"
y="93"
width="12"
height="12"
rx="2"
fill="#0e4429"/>

<rect
x="280"
y="110"
width="12"
height="12"
rx="2"
fill="#0e4429"/>

<rect
x="280"
y="127"
width="12"
height="12"
rx="2"
fill="#0e4429"/>

<rect
x="297"
y="25"
width="12"
height="12"
rx="2"
fill="#0e4429"/>

<rect
x="297"
y="42"
width="12"
height="12"
rx="2"
fill="#0e4429"/>

<rect
x="297"
y="59"
width="12"
height="12"
rx="2"
fill="#0e4429"/>

<rect
x="297"
y="76"
width="12"
height="12"
rx="2"
fill="#0e4429"/>

<rect
x="297"
y="93"
width="12"
height="12"
rx="2"
fill="#0e4429"/>

<rect
x="297"
y="110"
width="12"
height="12"
rx="2"
fill="#0e4429"/>

<rect
x="297"
y="127"
width="12"
height="12"
rx="2"
fill="#0e4429"/>

<rect
x="314"
y="25"
width="12"
height="12"
rx="2"
fill="#0e4429"/>

<rect
x="314"
y="42"
width="12"
height="12"
rx="2"
fill="#0e4429"/>

<rect
x="314"
y="59"
width="12"
height="12"
rx="2"
fill="#0e4429"/>

<rect
x="314"
y="76"
width="12"
height="12"
rx="2"
fill="#0e4429"/>

<rect
x="314"
y="93"
width="12"
height="12"
rx="2"
fill="#0e4429"/>

<rect
x="314"
y="110"
width="12"
height="12"
rx="2"
fill="#0e4429"/>

<rect
x="314"
y="127"
width="12"
height="12"
rx="2"
fill="#0e4429"/>

<rect
x="331"
y="25"
width="12"
height="12"
rx="2"
fill="#0e4429"/>

<rect
x="331"
y="42"
width="12"
height="12"
rx="2"
fill="#0e4429"/>

<rect
x="331"
y="59"
width="12"
height="12"
rx="2"
fill="#0e4429"/>

<rect
x="331"
y="76"
width="12"
height="12"
rx="2"
fill="#0e4429"/>

<rect
x="331"
y="93"
width="12"
height="12"
rx="2"
fill="#0e4429"/>

<rect
x="331"
y="110"
width="12"
height="12"
rx="2"
fill="#0e4429"/>

<rect
x="331"
y="127"
width="12"
height="12"
rx="2"
fill="#0e4429"/>

<rect
x="348"
y="25"
width="12"
height="12"
rx="2"
fill="#0e4429"/>

<rect
x="348"
y="42"
width="12"
height="12"
rx="2"
fill="#0e4429"/>

<rect
x="348"
y="59"
width="12"
height="12"
rx="2"
fill="#0e4429"/>

<rect
x="348"
y="76"
width="12"
height="12"
rx="2"
fill="#0e4429"/>

<rect
x="348"
y="93"
width="12"
height="12"
rx="2"
fill="#0e4429"/>

<rect
x="348"
y="110"
width="12"
height="12"
rx="2"
fill="#0e4429"/>

<rect
x="348"
y="127"
width="12"
height="12"
rx="2"
fill="#0e4429"/>

<rect
x="365"
y="25"
width="12"
height="12"
rx="2"
fill="#0e4429"/>

<rect
x="365"
y="42"
width="12"
height="12"
rx="2"
fill="#0e4429"/>

<rect
x="365"
y="59"
width="12"
height="12"
rx="2"
fill="#0e4429"/>

<rect
x="365"
y="76"
width="12"
height="12"
rx="2"
fill="#0e4429"/>

<rect
x="365"
y="93"
width="12"
height="12"
rx="2"
fill="#0e4429"/>

<rect
x="365"
y="110"
width="12"
height="12"
rx="2"
fill="#0e4429"/>

<rect
x="365"
y="127"
width="12"
height="12"
rx="2"
fill="#0e4429"/>

<rect
x="382"
y="25"
width="12"
height="12"
rx="2"
fill="#0e4429"/>

<rect
x="382"
y="42"
width="12"
height="12"
rx="2"
fill="#0e4429"/>

<rect
x="382"
y="59"
width="12"
height="12"
rx="2"
fill="#0e4429"/>

<rect
x="382"
y="76"
width="12"
height="12"
rx="2"
fill="#0e4429"/>

<rect
x="382"
y="93"
width="12"
height="12"
rx="2"
fill="#0e4429"/>

<rect
x="382"
y="110"
width="12"
height="12"
rx="2"
fill="#0e4429"/>

<rect
x="382"
y="127"
width="12"
height="12"
rx="2"
fill="#0e4429"/>

<rect
x="399"
y="25"
width="12"
height="12"
rx="2"
fill="#0e4429"/>

<rect
x="399"
y="42"
width="12"
height="12"
rx="2"
fill="#0e4429"/>

<rect
x="399"
y="59"
width="12"
height="12"
rx="2"
fill="#0e4429"/>

<rect
x="399"
y="76"
width="12"
height="12"
rx="2"
fill="#0e4429"/>

<rect
x="399"
y="93"
width="12"
height="12"
rx="2"
fill="#0e4429"/>

<rect
x="399"
y="110"
width="12"
height="12"
rx="2"
fill="#0e4429"/>

<rect
x="399"
y="127"
width="12"
height="12"
rx="2"
fill="#0e4429"/>

<rect
x="416"
y="25"
width="12"
height="12"
rx="2"
fill="#0e4429"/>

<rect
x="416"
y="42"
width="12"
height="12"
rx="2"
fill="#0e4429"/>

<rect
x="416"
y="59"
width="12"
height="12"
rx="2"
fill="#0e4429"/>

<rect
x="416"
y="76"
width="12"
height="12"
rx="2"
fill="#0e4429"/>

<rect
x="416"
y="93"
width="12"
height="12"
rx="2"
fill="#0e4429"/>

<rect
x="416"
y="110"
width="12"
height="12"
rx="2"
fill="#0e4429"/>

<rect
x="416"
y="127"
width="12"
height="12"
rx="2"
fill="#0e4429"/>

<rect
x="433"
y="25"
width="12"
height="12"
rx="2"
fill="#0e4429"/>

<rect
x="433"
y="42"
width="12"
height="12"
rx="2"
fill="#0e4429"/>

<rect
x="433"
y="59"
width="12"
height="12"
rx="2"
fill="#0e4429"/>

<rect
x="433"
y="76"
width="12"
height="12"
rx="2"
fill="#0e4429"/>

<rect
x="433"
y="93"
width="12"
height="12"
rx="2"
fill="#0e4429"/>

<rect
x="433"
y="110"
width="12"
height="12"
rx="2"
fill="#0e4429"/>

<rect
x="433"
y="127"
width="12"
height="12"
rx="2"
fill="#0e4429"/>

<rect
x="450"
y="25"
width="12"
height="12"
rx="2"
fill="#0e4429"/>

<rect
x="450"
y="42"
width="12"
height="12"
rx="2"
fill="#0e4429"/>

<rect
x="450"
y="59"
width="12"
height="12"
rx="2"
fill="#0e4429"/>

<rect
x="450"
y="76"
width="12"
height="12"
rx="2"
fill="#0e4429"/>

<rect
x="450"
y="93"
width="12"
height="12"
rx="2"
fill="#0e4429"/>

<rect
x="450"
y="110"
width="12"
height="12"
rx="2"
fill="#0e4429"/>

<rect
x="450"
y="127"
width="12"
height="12"
rx="2"
fill="#0e4429"/>

<rect
x="467"
y="25"
width="12"
height="12"
rx="2"
fill="#0e4429"/>

<rect
x="467"
y="42"
width="12"
height="12"
rx="2"
fill="#0e4429"/>

<rect
x="467"
y="59"
width="12"
height="12"
rx="2"
fill="#0e4429"/>

<rect
x="467"
y="76"
width="12"
height="12"
rx="2"
fill="#0e4429"/>

<rect
x="467"
y="93"
width="12"
height="12"
rx="2"
fill="#0e4429"/>

<rect
x="467"
y="110"
width="12"
height="12"
rx="2"
fill="#0e4429"/>

<rect
x="467"
y="127"
width="12"
height="12"
rx="2"
fill="#0e4429"/>

<rect
x="484"
y="25"
width="12"
height="12"
rx="2"
fill="#0e4429"/>

<rect
x="484"
y="42"
width="12"
height="12"
rx="2"
fill="#0e4429"/>

<rect
x="484"
y="59"
width="12"
height="12"
rx="2"
fill="#0e4429"/>

<rect
x="484"
y="76"
width="12"
height="12"
rx="2"
fill="#0e4429"/>

<rect
x="484"
y="93"
width="12"
height="12"
rx="2"
fill="#0e4429"/>

<rect
x="484"
y="110"
width="12"
height="12"
rx="2"
fill="#0e4429"/>

<rect
x="484"
y="127"
width="12"
height="12"
rx="2"
fill="#0e4429"/>

<rect
x="501"
y="25"
width="12"
height="12"
rx="2"
fill="#0e4429"/>

<rect
x="501"
y="42"
width="12"
height="12"
rx="2"
fill="#0e4429"/>

<rect
x="501"
y="59"
width="12"
height="12"
rx="2"
fill="#0e4429"/>

<rect
x="501"
y="76"
width="12"
height="12"
rx="2"
fill="#0e4429"/>

<rect
x="501"
y="93"
width="12"
height="12"
rx="2"
fill="#0e4429"/>

<rect
x="501"
y="110"
width="12"
height="12"
rx="2"
fill="#0e4429"/>

<rect
x="501"
y="127"
width="12"
height="12"
rx="2"
fill="#0e4429"/>

<rect
x="518"
y="25"
width="12"
height="12"
rx="2"
fill="#0e4429"/>

<rect
x="518"
y="42"
width="12"
height="12"
rx="2"
fill="#0e4429"/>

<rect
x="518"
y="59"
width="12"
height="12"
rx="2"
fill="#0e4429"/>

<rect
x="518"
y="76"
width="12"
height="12"
rx="2"
fill="#0e4429"/>

<rect
x="518"
y="93"
width="12"
height="12"
rx="2"
fill="#0e4429"/>

<rect
x="518"
y="110"
width="12"
height="12"
rx="2"
fill="#0e4429"/>

<rect
x="518"
y="127"
width="12"
height="12"
rx="2"
fill="#0e4429"/>

<rect
x="535"
y="25"
width="12"
height="12"
rx="2"
fill="#0e4429"/>

<rect
x="535"
y="42"
width="12"
height="12"
rx="2"
fill="#0e4429"/>

<rect
x="535"
y="59"
width="12"
height="12"
rx="2"
fill="#0e4429"/>

<rect
x="535"
y="76"
width="12"
height="12"
rx="2"
fill="#0e4429"/>

<rect
x="535"
y="93"
width="12"
height="12"
rx="2"
fill="#0e4429"/>

<rect
x="535"
y="110"
width="12"
height="12"
rx="2"
fill="#0e4429"/>

<rect
x="535"
y="127"
width="12"
height="12"
rx="2"
fill="#0e4429"/>

<rect
x="552"
y="25"
width="12"
height="12"
rx="2"
fill="#0e4429"/>

<rect
x="552"
y="42"
width="12"
height="12"
rx="2"
fill="#0e4429"/>

<rect
x="552"
y="59"
width="12"
height="12"
rx="2"
fill="#0e4429"/>

<rect
x="552"
y="76"
width="12"
height="12"
rx="2"
fill="#0e4429"/>

<rect
x="552"
y="93"
width="12"
height="12"
rx="2"
fill="#0e4429"/>

<rect
x="552"
y="110"
width="12"
height="12"
rx="2"
fill="#0e4429"/>

<rect
x="552"
y="127"
width="12"
height="12"
rx="2"
fill="#0e4429"/>

<rect
x="569"
y="25"
width="12"
height="12"
rx="2"
fill="#0e4429"/>

<rect
x="569"
y="42"
width="12"
height="12"
rx="2"
fill="#0e4429"/>

<rect
x="569"
y="59"
width="12"
height="12"
rx="2"
fill="#0e4429"/>

<rect
x="569"
y="76"
width="12"
height="12"
rx="2"
fill="#0e4429"/>

<rect
x="569"
y="93"
width="12"
height="12"
rx="2"
fill="#0e4429"/>

<rect
x="569"
y="110"
width="12"
height="12"
rx="2"
fill="#0e4429"/>

<rect
x="569"
y="127"
width="12"
height="12"
rx="2"
fill="#0e4429"/>

<rect
x="586"
y="25"
width="12"
height="12"
rx="2"
fill="#0e4429"/>

<rect
x="586"
y="42"
width="12"
height="12"
rx="2"
fill="#0e4429"/>

<rect
x="586"
y="59"
width="12"
height="12"
rx="2"
fill="#0e4429"/>

<rect
x="586"
y="76"
width="12"
height="12"
rx="2"
fill="#0e4429"/>

<rect
x="586"
y="93"
width="12"
height="12"
rx="2"
fill="#0e4429"/>

<rect
x="586"
y="110"
width="12"
height="12"
rx="2"
fill="#0e4429"/>

<rect
x="586"
y="127"
width="12"
height="12"
rx="2"
fill="#0e4429"/>

<rect
x="603"
y="25"
width="12"
height="12"
rx="2"
fill="#0e4429"/>

<rect
x="603"
y="42"
width="12"
height="12"
rx="2"
fill="#0e4429"/>

<rect
x="603"
y="59"
width="12"
height="12"
rx="2"
fill="#0e4429"/>

<rect
x="603"
y="76"
width="12"
height="12"
rx="2"
fill="#0e4429"/>

<rect
x="603"
y="93"
width="12"
height="12"
rx="2"
fill="#0e4429"/>

<rect
x="603"
y="110"
width="12"
height="12"
rx="2"
fill="#0e4429"/>

<rect
x="603"
y="127"
width="12"
height="12"
rx="2"
fill="#0e4429"/>

<rect
x="620"
y="25"
width="12"
height="12"
rx="2"
fill="#0e4429"/>

<rect
x="620"
y="42"
width="12"
height="12"
rx="2"
fill="#0e4429"/>

<rect
x="620"
y="59"
width="12"
height="12"
rx="2"
fill="#0e4429"/>

<rect
x="620"
y="76"
width="12"
height="12"
rx="2"
fill="#0e4429"/>

<rect
x="620"
y="93"
width="12"
height="12"
rx="2"
fill="#0e4429"/>

<rect
x="620"
y="110"
width="12"
height="12"
rx="2"
fill="#0e4429"/>

<rect
x="620"
y="127"
width="12"
height="12"
rx="2"
fill="#0e4429"/>

<rect
x="637"
y="25"
width="12"
height="12"
rx="2"
fill="#0e4429"/>

<rect
x="637"
y="42"
width="12"
height="12"
rx="2"
fill="#0e4429"/>

<rect
x="637"
y="59"
width="12"
height="12"
rx="2"
fill="#0e4429"/>

<rect
x="637"
y="76"
width="12"
height="12"
rx="2"
fill="#0e4429"/>

<rect
x="637"
y="93"
width="12"
height="12"
rx="2"
fill="#0e4429"/>

<rect
x="637"
y="110"
width="12"
height="12"
rx="2"
fill="#0e4429"/>

<rect
x="637"
y="127"
width="12"
height="12"
rx="2"
fill="#0e4429"/>

<rect
x="654"
y="25"
width="12"
height="12"
rx="2"
fill="#0e4429"/>

<rect
x="654"
y="42"
width="12"
height="12"
rx="2"
fill="#0e4429"/>

<rect
x="654"
y="59"
width="12"
height="12"
rx="2"
fill="#0e4429"/>

<rect
x="654"
y="76"
width="12"
height="12"
rx="2"
fill="#0e4429"/>

<rect
x="654"
y="93"
width="12"
height="12"
rx="2"
fill="#0e4429"/>

<rect
x="654"
y="110"
width="12"
height="12"
rx="2"
fill="#0e4429"/>

<rect
x="654"
y="127"
width="12"
height="12"
rx="2"
fill="#0e4429"/>

<rect
x="671"
y="25"
width="12"
height="12"
rx="2"
fill="#0e4429"/>

<rect
x="671"
y="42"
width="12"
height="12"
rx="2"
fill="#0e4429"/>

<rect
x="671"
y="59"
width="12"
height="12"
rx="2"
fill="#0e4429"/>

<rect
x="671"
y="76"
width="12"
height="12"
rx="2"
fill="#0e4429"/>

<rect
x="671"
y="93"
width="12"
height="12"
rx="2"
fill="#0e4429"/>

<rect
x="671"
y="110"
width="12"
height="12"
rx="2"
fill="#0e4429"/>

<rect
x="671"
y="127"
width="12"
height="12"
rx="2"
fill="#0e4429"/>

<rect
x="688"
y="25"
width="12"
height="12"
rx="2"
fill="#0e4429"/>

<rect
x="688"
y="42"
width="12"
height="12"
rx="2"
fill="#0e4429"/>

<rect
x="688"
y="59"
width="12"
height="12"
rx="2"
fill="#0e4429"/>

<rect
x="688"
y="76"
width="12"
height="12"
rx="2"
fill="#0e4429"/>

<rect
x="688"
y="93"
width="12"
height="12"
rx="2"
fill="#0e4429"/>

<rect
x="688"
y="110"
width="12"
height="12"
rx="2"
fill="#0e4429"/>

<rect
x="688"
y="127"
width="12"
height="12"
rx="2"
fill="#0e4429"/>

<rect
x="705"
y="25"
width="12"
height="12"
rx="2"
fill="#0e4429"/>

<rect
x="705"
y="42"
width="12"
height="12"
rx="2"
fill="#0e4429"/>

<rect
x="705"
y="59"
width="12"
height="12"
rx="2"
fill="#0e4429"/>

<rect
x="705"
y="76"
width="12"
height="12"
rx="2"
fill="#0e4429"/>

<rect
x="705"
y="93"
width="12"
height="12"
rx="2"
fill="#0e4429"/>

<rect
x="705"
y="110"
width="12"
height="12"
rx="2"
fill="#0e4429"/>

<rect
x="705"
y="127"
width="12"
height="12"
rx="2"
fill="#0e4429"/>

<rect
x="722"
y="25"
width="12"
height="12"
rx="2"
fill="#0e4429"/>

<rect
x="722"
y="42"
width="12"
height="12"
rx="2"
fill="#0e4429"/>

<rect
x="722"
y="59"
width="12"
height="12"
rx="2"
fill="#0e4429"/>

<rect
x="722"
y="76"
width="12"
height="12"
rx="2"
fill="#0e4429"/>

<rect
x="722"
y="93"
width="12"
height="12"
rx="2"
fill="#0e4429"/>

<rect
x="722"
y="110"
width="12"
height="12"
rx="2"
fill="#0e4429"/>

<rect
x="722"
y="127"
width="12"
height="12"
rx="2"
fill="#0e4429"/>

<rect
x="739"
y="25"
width="12"
height="12"
rx="2"
fill="#0e4429"/>

<rect
x="739"
y="42"
width="12"
height="12"
rx="2"
fill="#0e4429"/>

<rect
x="739"
y="59"
width="12"
height="12"
rx="2"
fill="#0e4429"/>

<rect
x="739"
y="76"
width="12"
height="12"
rx="2"
fill="#0e4429"/>

<rect
x="739"
y="93"
width="12"
height="12"
rx="2"
fill="#0e4429"/>

<rect
x="739"
y="110"
width="12"
height="12"
rx="2"
fill="#0e4429"/>

<rect
x="739"
y="127"
width="12"
height="12"
rx="2"
fill="#0e4429"/>

<rect
x="756"
y="25"
width="12"
height="12"
rx="2"
fill="#0e4429"/>

<rect
x="756"
y="42"
width="12"
height="12"
rx="2"
fill="#0e4429"/>

<rect
x="756"
y="59"
width="12"
height="12"
rx="2"
fill="#0e4429"/>

<rect
x="756"
y="76"
width="12"
height="12"
rx="2"
fill="#0e4429"/>

<rect
x="756"
y="93"
width="12"
height="12"
rx="2"
fill="#0e4429"/>

<rect
x="756"
y="110"
width="12"
height="12"
rx="2"
fill="#0e4429"/>

<rect
x="756"
y="127"
width="12"
height="12"
rx="2"
fill="#0e4429"/>

<rect
x="773"
y="25"
width="12"
height="12"
rx="2"
fill="#0e4429"/>

<rect
x="773"
y="42"
width="12"
height="12"
rx="2"
fill="#0e4429"/>

<rect
x="773"
y="59"
width="12"
height="12"
rx="2"
fill="#0e4429"/>

<rect
x="773"
y="76"
width="12"
height="12"
rx="2"
fill="#0e4429"/>

<rect
x="773"
y="93"
width="12"
height="12"
rx="2"
fill="#0e4429"/>

<rect
x="773"
y="110"
width="12"
height="12"
rx="2"
fill="#0e4429"/>

<rect
x="773"
y="127"
width="12"
height="12"
rx="2"
fill="#0e4429"/>

<rect
x="790"
y="25"
width="12"
height="12"
rx="2"
fill="#0e4429"/>

<rect
x="790"
y="42"
width="12"
height="12"
rx="2"
fill="#0e4429"/>

<rect
x="790"
y="59"
width="12"
height="12"
rx="2"
fill="#0e4429"/>

<rect
x="790"
y="76"
width="12"
height="12"
rx="2"
fill="#0e4429"/>

<rect
x="790"
y="93"
width="12"
height="12"
rx="2"
fill="#0e4429"/>

<rect
x="790"
y="110"
width="12"
height="12"
rx="2"
fill="#0e4429"/>

<rect
x="790"
y="127"
width="12"
height="12"
rx="2"
fill="#0e4429"/>

<rect
x="807"
y="25"
width="12"
height="12"
rx="2"
fill="#0e4429"/>

<rect
x="807"
y="42"
width="12"
height="12"
rx="2"
fill="#0e4429"/>

<rect
x="807"
y="59"
width="12"
height="12"
rx="2"
fill="#0e4429"/>

<rect
x="807"
y="76"
width="12"
height="12"
rx="2"
fill="#0e4429"/>

<rect
x="807"
y="93"
width="12"
height="12"
rx="2"
fill="#0e4429"/>

<rect
x="807"
y="110"
width="12"
height="12"
rx="2"
fill="#0e4429"/>

<rect
x="807"
y="127"
width="12"
height="12"
rx="2"
fill="#0e4429"/>

<rect
x="824"
y="25"
width="12"
height="12"
rx="2"
fill="#0e4429"/>

<rect
x="824"
y="42"
width="12"
height="12"
rx="2"
fill="#0e4429"/>

<rect
x="824"
y="59"
width="12"
height="12"
rx="2"
fill="#0e4429"/>

<rect
x="824"
y="76"
width="12"
height="12"
rx="2"
fill="#0e4429"/>

<rect
x="824"
y="93"
width="12"
height="12"
rx="2"
fill="#0e4429"/>

<rect
x="824"
y="110"
width="12"
height="12"
rx="2"
fill="#0e4429"/>

<rect
x="824"
y="127"
width="12"
height="12"
rx="2"
fill="#0e4429"/>

<rect
x="841"
y="25"
width="12"
height="12"
rx="2"
fill="#0e4429"/>

<rect
x="841"
y="42"
width="12"
height="12"
rx="2"
fill="#0e4429"/>

<rect
x="841"
y="59"
width="12"
height="12"
rx="2"
fill="#0e4429"/>

<rect
x="841"
y="76"
width="12"
height="12"
rx="2"
fill="#0e4429"/>

<rect
x="841"
y="93"
width="12"
height="12"
rx="2"
fill="#0e4429"/>

<rect
x="841"
y="110"
width="12"
height="12"
rx="2"
fill="#0e4429"/>

<rect
x="841"
y="127"
width="12"
height="12"
rx="2"
fill="#0e4429"/>

<rect
x="858"
y="25"
width="12"
height="12"
rx="2"
fill="#0e4429"/>

<rect
x="858"
y="42"
width="12"
height="12"
rx="2"
fill="#0e4429"/>

<rect
x="858"
y="59"
width="12"
height="12"
rx="2"
fill="#0e4429"/>

<rect
x="858"
y="76"
width="12"
height="12"
rx="2"
fill="#0e4429"/>

<rect
x="858"
y="93"
width="12"
height="12"
rx="2"
fill="#0e4429"/>

<rect
x="858"
y="110"
width="12"
height="12"
rx="2"
fill="#0e4429"/>

<rect
x="858"
y="127"
width="12"
height="12"
rx="2"
fill="#0e4429"/>

<rect
x="875"
y="25"
width="12"
height="12"
rx="2"
fill="#0e4429"/>

<rect
x="875"
y="42"
width="12"
height="12"
rx="2"
fill="#0e4429"/>

<rect
x="875"
y="59"
width="12"
height="12"
rx="2"
fill="#0e4429"/>

<rect
x="875"
y="76"
width="12"
height="12"
rx="2"
fill="#0e4429"/>

<rect
x="875"
y="93"
width="12"
height="12"
rx="2"
fill="#0e4429"/>

<rect
x="875"
y="110"
width="12"
height="12"
rx="2"
fill="#0e4429"/>

<rect
x="875"
y="127"
width="12"
height="12"
rx="2"
fill="#0e4429"/>

<rect
x="892"
y="25"
width="12"
height="12"
rx="2"
fill="#0e4429"/>

<rect
x="892"
y="42"
width="12"
height="12"
rx="2"
fill="#0e4429"/>

<rect
x="892"
y="59"
width="12"
height="12"
rx="2"
fill="#0e4429"/>

<rect
x="892"
y="76"
width="12"
height="12"
rx="2"
fill="#0e4429"/>

<rect
x="892"
y="93"
width="12"
height="12"
rx="2"
fill="#0e4429"/>

<rect
x="892"
y="110"
width="12"
height="12"
rx="2"
fill="#0e4429"/>

<rect
x="892"
y="127"
width="12"
height="12"
rx="2"
fill="#0e4429"/>

<rect
x="909"
y="25"
width="12"
height="12"
rx="2"
fill="#0e4429"/>

<rect
x="909"
y="42"
width="12"
height="12"
rx="2"
fill="#0e4429"/>

<rect
x="909"
y="59"
width="12"
height="12"
rx="2"
fill="#0e4429"/>

<rect
x="909"
y="76"
width="12"
height="12"
rx="2"
fill="#0e4429"/>

<rect
x="909"
y="93"
width="12"
height="12"
rx="2"
fill="#0e4429"/>

<rect
x="909"
y="110"
width="12"
height="12"
rx="2"
fill="#0e4429"/>

<rect
x="909"
y="127"
width="12"
height="12"
rx="2"
fill="#0e4429"/>

</svg>