
<svg
xmlns="http://www.w3.org/2000/svg"
width="951"
height="169"
viewBox="0 0 951 169">

<rect
width="100%"
height="100%"
fill="#000000"/>

<circle
cx="766.5284430415285"
cy="96.19221710151797"
r="1.5487171040467873"
fill="white"
opacity="0.9835967590454597"/>

<circle
cx="438.4366358749633"
cy="61.033000920161975"
r="1.293070191084601"
fill="white"
opacity="0.9873928178224669"/>

<circle
cx="334.84270472436873"
cy="24.52851805275974"
r="1.5937247229162845"
fill="white"
opacity="0.7280383467726474"/>

<circle
cx="635.6825627068537"
cy="16.048318417131643"
r="0.6971856900114581"
fill="white"
opacity="0.31014017450436016"/>

<circle
cx="754.1228878146173"
cy="107.67804188731587"
r="1.1375854340296678"
fill="white"
opacity="0.5949442377289094"/>

<circle
cx="213.7252622282681"
cy="3.10095470730759"
r="1.2818199256488672"
fill="white"
opacity="0.6877038121267214"/>

<circle
cx="574.6728534545522"
cy="147.32997722875027"
r="0.45360115163883535"
fill="white"
opacity="0.28205994894746333"/>

<circle
cx="88.51675812279427"
cy="84.30001596808907"
r="1.5562660620778315"
fill="white"
opacity="0.3946224833102685"/>

<circle
cx="896.0291049219989"
cy="41.807302417915324"
r="1.397535516247227"
fill="white"
opacity="0.6692797083850479"/>

<circle
cx="146.9215138242688"
cy="46.890695430287444"
r="0.3043648318864672"
fill="white"
opacity="0.6387251714887261"/>

<circle
cx="532.6547295796618"
cy="38.85761775882054"
r="0.6324564908916899"
fill="white"
opacity="0.29640545166842447"/>

<circle
cx="659.8807395758074"
cy="6.122112124623619"
r="1.0329922343626627"
fill="white"
opacity="0.2220398427484593"/>

<circle
cx="129.06935637994835"
cy="68.29577625796833"
r="0.4469693012012251"
fill="white"
opacity="0.9867595399046398"/>

<circle
cx="937.5969709207884"
cy="105.86886488076993"
r="1.2464938757674064"
fill="white"
opacity="0.9961375162108084"/>

<circle
cx="603.3742600572846"
cy="82.59268537149512"
r="1.4575633595255926"
fill="white"
opacity="0.5465614100533239"/>

<circle
cx="316.6488153241773"
cy="127.97179627967797"
r="1.0706092837559298"
fill="white"
opacity="0.2268869749604493"/>

<circle
cx="930.019158328147"
cy="107.37961874267428"
r="0.32205021931935823"
fill="white"
opacity="0.8621942898646948"/>

<circle
cx="882.2449133598966"
cy="70.7211589333189"
r="1.0004806144760843"
fill="white"
opacity="0.8096773269200812"/>

<circle
cx="361.72261264191843"
cy="0.17822753815987835"
r="0.39550536592481395"
fill="white"
opacity="0.21759644922757976"/>

<circle
cx="618.0883629595312"
cy="48.24664593100506"
r="1.2704319508609407"
fill="white"
opacity="0.2370687441527336"/>

<circle
cx="630.5003001968997"
cy="48.37556257567208"
r="0.9599487388273755"
fill="white"
opacity="0.30089730349740534"/>

<circle
cx="362.59776671599127"
cy="156.50384486226014"
r="1.2938527962320647"
fill="white"
opacity="0.6656127703432233"/>

<circle
cx="490.06446830907515"
cy="160.00093679064463"
r="0.6098405011097352"
fill="white"
opacity="0.38952403479765646"/>

<circle
cx="571.9486349184174"
cy="120.11936759888009"
r="1.4485992264246754"
fill="white"
opacity="0.6787949539172267"/>

<circle
cx="424.5401892439181"
cy="165.44444916362292"
r="1.0426894594582776"
fill="white"
opacity="0.6304200161025012"/>

<circle
cx="625.5062794174481"
cy="39.379688320510674"
r="0.908311662412832"
fill="white"
opacity="0.6237069863160731"/>

<circle
cx="867.6250764564757"
cy="163.73483861707987"
r="0.8195326094991924"
fill="white"
opacity="0.9665576357188559"/>

<circle
cx="261.57359565901857"
cy="133.75977782764255"
r="1.336202210411805"
fill="white"
opacity="0.6344866277621058"/>

<circle
cx="727.3566719980965"
cy="167.30054711416662"
r="1.1229212350723121"
fill="white"
opacity="0.9157673380867632"/>

<circle
cx="427.9942640820721"
cy="151.79750733922887"
r="1.5182391158125303"
fill="white"
opacity="0.7460606261024503"/>

<circle
cx="695.315512383055"
cy="43.52045688367066"
r="1.4820961103262835"
fill="white"
opacity="0.7213256113023545"/>

<circle
cx="630.6002629362205"
cy="0.7302667220941192"
r="1.5452871981521132"
fill="white"
opacity="0.3263137627053048"/>

<circle
cx="342.23989560286526"
cy="127.00371149174387"
r="0.7433189428753202"
fill="white"
opacity="0.3542468717325189"/>

<circle
cx="59.54423507280221"
cy="9.796659635006604"
r="1.046161047967216"
fill="white"
opacity="0.2943278791634567"/>

<circle
cx="505.261265788723"
cy="46.25481253500673"
r="0.8493977835245978"
fill="white"
opacity="0.7695355052213111"/>

<circle
cx="24.83415991817675"
cy="19.196542722587083"
r="1.1006570889970315"
fill="white"
opacity="0.77535278675896"/>

<circle
cx="441.7044607781343"
cy="116.44784135710576"
r="1.5677867985719278"
fill="white"
opacity="0.7175299631771048"/>

<circle
cx="840.5504763175372"
cy="124.71698913946183"
r="0.44825014891693676"
fill="white"
opacity="0.9932373446934581"/>

<circle
cx="381.5963152923268"
cy="120.99988700646462"
r="0.8058632218591864"
fill="white"
opacity="0.5037933055695722"/>

<circle
cx="871.3973791032646"
cy="132.3120151456522"
r="1.424850050141469"
fill="white"
opacity="0.315981219888281"/>

<circle
cx="351.7453752994117"
cy="81.8517395502759"
r="0.44490822243004086"
fill="white"
opacity="0.553499139542244"/>

<circle
cx="229.98331416222032"
cy="87.61101820430358"
r="1.1046122081870702"
fill="white"
opacity="0.7532287299124036"/>

<circle
cx="662.2064504583325"
cy="77.96736746387765"
r="1.5373955714536087"
fill="white"
opacity="0.5913968023298273"/>

<circle
cx="258.9366561041938"
cy="61.574627662833734"
r="0.8789167079975277"
fill="white"
opacity="0.711092429269242"/>

<circle
cx="308.4845694210537"
cy="129.84740775477937"
r="1.3542867407671777"
fill="white"
opacity="0.6636615351097813"/>

<circle
cx="276.06591344863597"
cy="105.25638702339958"
r="1.0790770642110157"
fill="white"
opacity="0.5372421632005873"/>

<circle
cx="141.0646210560915"
cy="39.66815093411383"
r="0.5534611727148147"
fill="white"
opacity="0.9551055855670789"/>

<circle
cx="325.16351161205455"
cy="106.49218093452198"
r="1.3178254988518459"
fill="white"
opacity="0.8621719168321924"/>

<circle
cx="107.71174632757238"
cy="147.61479524527527"
r="0.4590818884711311"
fill="white"
opacity="0.29396962439337404"/>

<circle
cx="351.6256311045197"
cy="144.83041225386293"
r="0.35854226713423715"
fill="white"
opacity="0.752843612626173"/>

<circle
cx="570.6893790374107"
cy="61.140414219203066"
r="1.512576558212317"
fill="white"
opacity="0.89630359497279"/>

<circle
cx="922.575207300346"
cy="139.55019680811594"
r="0.3623271446842941"
fill="white"
opacity="0.2924446900417268"/>

<circle
cx="56.67143748188409"
cy="31.58782056610631"
r="0.7924140104403572"
fill="white"
opacity="0.859106883467045"/>

<circle
cx="854.7028471470061"
cy="62.12105805336649"
r="0.5564865921138684"
fill="white"
opacity="0.7885900372987011"/>

<circle
cx="913.5027810541367"
cy="144.83452140641572"
r="0.5112355067488139"
fill="white"
opacity="0.8120172670618813"/>

<circle
cx="622.1852353342838"
cy="2.6298749737040303"
r="1.4108827975018274"
fill="white"
opacity="0.7429358843462652"/>

<circle
cx="501.47113133350666"
cy="140.90610859479042"
r="0.8932707693416042"
fill="white"
opacity="0.9180060650740682"/>

<circle
cx="708.5859457035001"
cy="114.21982344521471"
r="1.0776762828497193"
fill="white"
opacity="0.9395921544721719"/>

<circle
cx="500.2756768727864"
cy="146.2979969039066"
r="1.6902608357701698"
fill="white"
opacity="0.8597160282806164"/>

<circle
cx="800.548825555266"
cy="59.39315793229222"
r="1.4873325347215003"
fill="white"
opacity="0.5445619508642997"/>

<circle
cx="132.8562927254878"
cy="41.92760661433932"
r="1.112649428133025"
fill="white"
opacity="0.8343132431533105"/>

<circle
cx="590.2653874361139"
cy="168.08544880927852"
r="1.365566739569174"
fill="white"
opacity="0.9790698771310506"/>

<circle
cx="881.2088040487839"
cy="47.096578467777405"
r="1.6146552125849953"
fill="white"
opacity="0.6447780819321067"/>

<circle
cx="683.0041775974574"
cy="140.29617589524474"
r="1.4958618540784527"
fill="white"
opacity="0.9645434368568642"/>

<circle
cx="117.40392245231418"
cy="123.54835419638613"
r="0.48646968236178084"
fill="white"
opacity="0.49918878842101383"/>

<circle
cx="822.7515830708447"
cy="129.05714731076728"
r="1.0042987449470115"
fill="white"
opacity="0.7781083057699303"/>

<circle
cx="464.9538591472821"
cy="21.13295575676355"
r="0.8011095464261557"
fill="white"
opacity="0.37603135062623816"/>

<circle
cx="1.796245084626576"
cy="144.17924682913124"
r="1.6718300335852205"
fill="white"
opacity="0.8867666224309851"/>

<circle
cx="48.337996206010395"
cy="10.363994783409497"
r="0.4936740261615556"
fill="white"
opacity="0.45639356957695904"/>

<circle
cx="591.388772231628"
cy="60.39832522862231"
r="1.4172361695760927"
fill="white"
opacity="0.860263183539768"/>

<circle
cx="12.666511112710138"
cy="41.08366479746897"
r="1.2104418814634965"
fill="white"
opacity="0.8296924932997471"/>

<circle
cx="48.13316633101881"
cy="100.6452678912636"
r="0.8251816140941592"
fill="white"
opacity="0.40397994052621783"/>

<circle
cx="470.4228503726134"
cy="87.76239699168049"
r="0.9576424147371496"
fill="white"
opacity="0.727558486695387"/>

<circle
cx="858.2660596872879"
cy="135.8782498656345"
r="0.7315259288219542"
fill="white"
opacity="0.7984432372808106"/>

<circle
cx="285.82038911382455"
cy="119.1977561153449"
r="0.37314909069177987"
fill="white"
opacity="0.9678657877090557"/>

<circle
cx="683.9219517326857"
cy="86.86765791721545"
r="0.3854327573641388"
fill="white"
opacity="0.34959141758337553"/>

<circle
cx="867.6499903838454"
cy="164.20458466474173"
r="1.0326112547942552"
fill="white"
opacity="0.7870799830075934"/>

<circle
cx="476.7521169797985"
cy="162.74271480665251"
r="1.4622600135483517"
fill="white"
opacity="0.7386471322571369"/>

<circle
cx="586.9835056600867"
cy="78.50555376473355"
r="0.7658399819885839"
fill="white"
opacity="0.7608934063565127"/>

<circle
cx="814.1234070847327"
cy="86.34482155425442"
r="0.6511663464909065"
fill="white"
opacity="0.6321653621245586"/>

<circle
cx="755.7600424457642"
cy="117.16292024151969"
r="0.718589043902093"
fill="white"
opacity="0.5017210518814459"/>

<circle
cx="730.5746747884577"
cy="137.62912950807043"
r="1.6721034056948585"
fill="white"
opacity="0.7516810997597054"/>

<circle
cx="918.6550498129752"
cy="81.26796295249046"
r="1.0977646977167002"
fill="white"
opacity="0.4939291701237613"/>

<circle
cx="762.0146976139446"
cy="124.56126181613361"
r="1.25427403914585"
fill="white"
opacity="0.846237922286831"/>

<circle
cx="248.52429948173665"
cy="70.20475842225807"
r="1.175712994741836"
fill="white"
opacity="0.8202828446869064"/>

<circle
cx="238.08467702230524"
cy="130.71098286215542"
r="0.46762181594977353"
fill="white"
opacity="0.3070245540054293"/>

<circle
cx="517.4822825902717"
cy="101.22747430583337"
r="0.8426389513406938"
fill="white"
opacity="0.979970650905539"/>

<circle
cx="123.82880997678522"
cy="135.19719317289776"
r="1.390116372780792"
fill="white"
opacity="0.6583822807208126"/>

<circle
cx="685.7470145774818"
cy="9.972617214031857"
r="0.49450968309804094"
fill="white"
opacity="0.7994102010847364"/>

<circle
cx="225.27301932768532"
cy="125.34141104210545"
r="0.9615157965734717"
fill="white"
opacity="0.20060131404858447"/>

<circle
cx="430.7422939267313"
cy="21.60926486318906"
r="0.9729267743174896"
fill="white"
opacity="0.2504073811511939"/>

<circle
cx="341.15817432556764"
cy="21.674057451341803"
r="1.573141092265171"
fill="white"
opacity="0.7993074854060545"/>

<circle
cx="309.1591673748575"
cy="90.05545001009796"
r="0.9291856383425496"
fill="white"
opacity="0.34088476637545073"/>

<circle
cx="501.57814388417125"
cy="157.96166834548916"
r="1.5477520148330355"
fill="white"
opacity="0.5505050157808908"/>

<circle
cx="464.35341874760803"
cy="20.551253101817473"
r="0.5327769081224829"
fill="white"
opacity="0.8058108233710903"/>

<circle
cx="424.70812134242277"
cy="93.5514465663769"
r="1.1012509106268755"
fill="white"
opacity="0.5211365173188952"/>

<circle
cx="359.0168329084085"
cy="71.1892470695202"
r="0.2233023226261635"
fill="white"
opacity="0.6433105371769707"/>

<circle
cx="835.1610450892574"
cy="11.950393424402604"
r="1.624760640987535"
fill="white"
opacity="0.34113719914321194"/>

<circle
cx="512.8694290222816"
cy="93.43348803251104"
r="1.5658285615634477"
fill="white"
opacity="0.6569441760560043"/>

<circle
cx="479.68611201424545"
cy="135.18234119244713"
r="0.6077016770209376"
fill="white"
opacity="0.7867565343424612"/>

<circle
cx="150.3292826943835"
cy="159.64673315802125"
r="0.908034270530498"
fill="white"
opacity="0.9562971573338126"/>

<circle
cx="905.5082956313861"
cy="7.772691919124469"
r="0.8285713151498102"
fill="white"
opacity="0.5059872632538793"/>

<circle
cx="488.2392270251022"
cy="134.99607408198585"
r="1.242140483015029"
fill="white"
opacity="0.47640096166367735"/>

<circle
cx="515.8918276424673"
cy="82.91683145401538"
r="1.4697592116490787"
fill="white"
opacity="0.21336561493814588"/>

<circle
cx="60.12142670577466"
cy="4.87848527061287"
r="0.2050656364082633"
fill="white"
opacity="0.5849077688837789"/>

<circle
cx="317.0857646950656"
cy="2.5867169032388113"
r="1.6065154763400051"
fill="white"
opacity="0.7410337801113449"/>

<circle
cx="774.6632274576621"
cy="82.46175155970411"
r="1.6923673850665248"
fill="white"
opacity="0.9926414966560475"/>

<circle
cx="275.6118949346473"
cy="82.30867518931814"
r="1.0948535347509474"
fill="white"
opacity="0.2824932092613443"/>

<circle
cx="16.694409627870392"
cy="160.08114004873778"
r="0.9239283119984805"
fill="white"
opacity="0.8853524515898159"/>

<circle
cx="578.9719380456047"
cy="7.413809653070225"
r="1.4891857565118987"
fill="white"
opacity="0.9535880230747233"/>

<circle
cx="216.60347092626094"
cy="5.1585747188338775"
r="0.8820421735542927"
fill="white"
opacity="0.4543265472469701"/>

<circle
cx="331.5709461754659"
cy="61.84239178672497"
r="1.4282709182121989"
fill="white"
opacity="0.8709590295430052"/>

<circle
cx="435.497197138812"
cy="43.848907978410104"
r="0.6446323789009141"
fill="white"
opacity="0.9264878161129946"/>

<circle
cx="9.671951784070787"
cy="168.3737316700891"
r="1.5457526137800748"
fill="white"
opacity="0.6876284147314009"/>

<circle
cx="22.691575591518085"
cy="157.6666687827736"
r="0.6934947618524019"
fill="white"
opacity="0.9377431239929044"/>

<circle
cx="64.41976006469773"
cy="80.49712819848789"
r="1.6978868824713116"
fill="white"
opacity="0.7379747548762192"/>

<circle
cx="99.71470098349917"
cy="18.900733284203618"
r="0.314888683376593"
fill="white"
opacity="0.7935915659325901"/>

<circle
cx="778.2585748578568"
cy="96.69502071303044"
r="1.4632032478457042"
fill="white"
opacity="0.4165452005870979"/>

<circle
cx="604.4588813637396"
cy="55.196816930682424"
r="1.3811084547481622"
fill="white"
opacity="0.37969175709862046"/>

<circle
cx="477.0967252111712"
cy="135.78837583339936"
r="1.542381535641815"
fill="white"
opacity="0.9036654269398028"/>

<rect
x="25"
y="25"
width="12"
height="12"
rx="2"
fill="#0e4429"/>

<rect
x="25"
y="42"
width="12"
height="12"
rx="2"
fill="#0e4429"/>

<rect
x="25"
y="59"
width="12"
height="12"
rx="2"
fill="#0e4429"/>

<rect
x="25"
y="76"
width="12"
height="12"
rx="2"
fill="#0e4429"/>

<rect
x="25"
y="93"
width="12"
height="12"
rx="2"
fill="#0e4429"/>

<rect
x="25"
y="110"
width="12"
height="12"
rx="2"
fill="#0e4429"/>

<rect
x="25"
y="127"
width="12"
height="12"
rx="2"
fill="#0e4429"/>

<rect
x="42"
y="25"
width="12"
height="12"
rx="2"
fill="#0e4429"/>

<rect
x="42"
y="42"
width="12"
height="12"
rx="2"
fill="#0e4429"/>

<rect
x="42"
y="59"
width="12"
height="12"
rx="2"
fill="#0e4429"/>

<rect
x="42"
y="76"
width="12"
height="12"
rx="2"
fill="#0e4429"/>

<rect
x="42"
y="93"
width="12"
height="12"
rx="2"
fill="#0e4429"/>

<rect
x="42"
y="110"
width="12"
height="12"
rx="2"
fill="#0e4429"/>

<rect
x="42"
y="127"
width="12"
height="12"
rx="2"
fill="#0e4429"/>

<rect
x="59"
y="25"
width="12"
height="12"
rx="2"
fill="#0e4429"/>

<rect
x="59"
y="42"
width="12"
height="12"
rx="2"
fill="#0e4429"/>

<rect
x="59"
y="59"
width="12"
height="12"
rx="2"
fill="#0e4429"/>

<rect
x="59"
y="76"
width="12"
height="12"
rx="2"
fill="#0e4429"/>

<rect
x="59"
y="93"
width="12"
height="12"
rx="2"
fill="#0e4429"/>

<rect
x="59"
y="110"
width="12"
height="12"
rx="2"
fill="#0e4429"/>

<rect
x="59"
y="127"
width="12"
height="12"
rx="2"
fill="#0e4429"/>

<rect
x="76"
y="25"
width="12"
height="12"
rx="2"
fill="#0e4429"/>

<rect
x="76"
y="42"
width="12"
height="12"
rx="2"
fill="#0e4429"/>

<rect
x="76"
y="59"
width="12"
height="12"
rx="2"
fill="#0e4429"/>

<rect
x="76"
y="76"
width="12"
height="12"
rx="2"
fill="#0e4429"/>

<rect
x="76"
y="93"
width="12"
height="12"
rx="2"
fill="#0e4429"/>

<rect
x="76"
y="110"
width="12"
height="12"
rx="2"
fill="#0e4429"/>

<rect
x="76"
y="127"
width="12"
height="12"
rx="2"
fill="#0e4429"/>

<rect
x="93"
y="25"
width="12"
height="12"
rx="2"
fill="#0e4429"/>

<rect
x="93"
y="42"
width="12"
height="12"
rx="2"
fill="#0e4429"/>

<rect
x="93"
y="59"
width="12"
height="12"
rx="2"
fill="#0e4429"/>

<rect
x="93"
y="76"
width="12"
height="12"
rx="2"
fill="#0e4429"/>

<rect
x="93"
y="93"
width="12"
height="12"
rx="2"
fill="#0e4429"/>

<rect
x="93"
y="110"
width="12"
height="12"
rx="2"
fill="#0e4429"/>

<rect
x="93"
y="127"
width="12"
height="12"
rx="2"
fill="#0e4429"/>

<rect
x="110"
y="25"
width="12"
height="12"
rx="2"
fill="#0e4429"/>

<rect
x="110"
y="42"
width="12"
height="12"
rx="2"
fill="#0e4429"/>

<rect
x="110"
y="59"
width="12"
height="12"
rx="2"
fill="#0e4429"/>

<rect
x="110"
y="76"
width="12"
height="12"
rx="2"
fill="#0e4429"/>

<rect
x="110"
y="93"
width="12"
height="12"
rx="2"
fill="#0e4429"/>

<rect
x="110"
y="110"
width="12"
height="12"
rx="2"
fill="#0e4429"/>

<rect
x="110"
y="127"
width="12"
height="12"
rx="2"
fill="#0e4429"/>

<rect
x="127"
y="25"
width="12"
height="12"
rx="2"
fill="#0e4429"/>

<rect
x="127"
y="42"
width="12"
height="12"
rx="2"
fill="#0e4429"/>

<rect
x="127"
y="59"
width="12"
height="12"
rx="2"
fill="#0e4429"/>

<rect
x="127"
y="76"
width="12"
height="12"
rx="2"
fill="#0e4429"/>

<rect
x="127"
y="93"
width="12"
height="12"
rx="2"
fill="#0e4429"/>

<rect
x="127"
y="110"
width="12"
height="12"
rx="2"
fill="#0e4429"/>

<rect
x="127"
y="127"
width="12"
height="12"
rx="2"
fill="#0e4429"/>

<rect
x="144"
y="25"
width="12"
height="12"
rx="2"
fill="#0e4429"/>

<rect
x="144"
y="42"
width="12"
height="12"
rx="2"
fill="#0e4429"/>

<rect
x="144"
y="59"
width="12"
height="12"
rx="2"
fill="#0e4429"/>

<rect
x="144"
y="76"
width="12"
height="12"
rx="2"
fill="#0e4429"/>

<rect
x="144"
y="93"
width="12"
height="12"
rx="2"
fill="#0e4429"/>

<rect
x="144"
y="110"
width="12"
height="12"
rx="2"
fill="#0e4429"/>

<rect
x="144"
y="127"
width="12"
height="12"
rx="2"
fill="#0e4429"/>

<rect
x="161"
y="25"
width="12"
height="12"
rx="2"
fill="#0e4429"/>

<rect
x="161"
y="42"
width="12"
height="12"
rx="2"
fill="#0e4429"/>

<rect
x="161"
y="59"
width="12"
height="12"
rx="2"
fill="#0e4429"/>

<rect
x="161"
y="76"
width="12"
height="12"
rx="2"
fill="#0e4429"/>

<rect
x="161"
y="93"
width="12"
height="12"
rx="2"
fill="#0e4429"/>

<rect
x="161"
y="110"
width="12"
height="12"
rx="2"
fill="#0e4429"/>

<rect
x="161"
y="127"
width="12"
height="12"
rx="2"
fill="#0e4429"/>

<rect
x="178"
y="25"
width="12"
height="12"
rx="2"
fill="#0e4429"/>

<rect
x="178"
y="42"
width="12"
height="12"
rx="2"
fill="#0e4429"/>

<rect
x="178"
y="59"
width="12"
height="12"
rx="2"
fill="#0e4429"/>

<rect
x="178"
y="76"
width="12"
height="12"
rx="2"
fill="#0e4429"/>

<rect
x="178"
y="93"
width="12"
height="12"
rx="2"
fill="#0e4429"/>

<rect
x="178"
y="110"
width="12"
height="12"
rx="2"
fill="#0e4429"/>

<rect
x="178"
y="127"
width="12"
height="12"
rx="2"
fill="#0e4429"/>

<rect
x="195"
y="25"
width="12"
height="12"
rx="2"
fill="#0e4429"/>

<rect
x="195"
y="42"
width="12"
height="12"
rx="2"
fill="#0e4429"/>

<rect
x="195"
y="59"
width="12"
height="12"
rx="2"
fill="#0e4429"/>

<rect
x="195"
y="76"
width="12"
height="12"
rx="2"
fill="#0e4429"/>

<rect
x="195"
y="93"
width="12"
height="12"
rx="2"
fill="#0e4429"/>

<rect
x="195"
y="110"
width="12"
height="12"
rx="2"
fill="#0e4429"/>

<rect
x="195"
y="127"
width="12"
height="12"
rx="2"
fill="#0e4429"/>

<rect
x="212"
y="25"
width="12"
height="12"
rx="2"
fill="#0e4429"/>

<rect
x="212"
y="42"
width="12"
height="12"
rx="2"
fill="#0e4429"/>

<rect
x="212"
y="59"
width="12"
height="12"
rx="2"
fill="#0e4429"/>

<rect
x="212"
y="76"
width="12"
height="12"
rx="2"
fill="#0e4429"/>

<rect
x="212"
y="93"
width="12"
height="12"
rx="2"
fill="#0e4429"/>

<rect
x="212"
y="110"
width="12"
height="12"
rx="2"
fill="#0e4429"/>

<rect
x="212"
y="127"
width="12"
height="12"
rx="2"
fill="#0e4429"/>

<rect
x="229"
y="25"
width="12"
height="12"
rx="2"
fill="#0e4429"/>

<rect
x="229"
y="42"
width="12"
height="12"
rx="2"
fill="#0e4429"/>

<rect
x="229"
y="59"
width="12"
height="12"
rx="2"
fill="#0e4429"/>

<rect
x="229"
y="76"
width="12"
height="12"
rx="2"
fill="#0e4429"/>

<rect
x="229"
y="93"
width="12"
height="12"
rx="2"
fill="#0e4429"/>

<rect
x="229"
y="110"
width="12"
height="12"
rx="2"
fill="#0e4429"/>

<rect
x="229"
y="127"
width="12"
height="12"
rx="2"
fill="#0e4429"/>

<rect
x="246"
y="25"
width="12"
height="12"
rx="2"
fill="#0e4429"/>

<rect
x="246"
y="42"
width="12"
height="12"
rx="2"
fill="#0e4429"/>

<rect
x="246"
y="59"
width="12"
height="12"
rx="2"
fill="#0e4429"/>

<rect
x="246"
y="76"
width="12"
height="12"
rx="2"
fill="#0e4429"/>

<rect
x="246"
y="93"
width="12"
height="12"
rx="2"
fill="#0e4429"/>

<rect
x="246"
y="110"
width="12"
height="12"
rx="2"
fill="#0e4429"/>

<rect
x="246"
y="127"
width="12"
height="12"
rx="2"
fill="#0e4429"/>

<rect
x="263"
y="25"
width="12"
height="12"
rx="2"
fill="#0e4429"/>

<rect
x="263"
y="42"
width="12"
height="12"
rx="2"
fill="#0e4429"/>

<rect
x="263"
y="59"
width="12"
height="12"
rx="2"
fill="#0e4429"/>

<rect
x="263"
y="76"
width="12"
height="12"
rx="2"
fill="#0e4429"/>

<rect
x="263"
y="93"
width="12"
height="12"
rx="2"
fill="#0e4429"/>

<rect
x="263"
y="110"
width="12"
height="12"
rx="2"
fill="#0e4429"/>

<rect
x="263"
y="127"
width="12"
height="12"
rx="2"
fill="#0e4429"/>

<rect
x="280"
y="25"
width="12"
height="12"
rx="2"
fill="#0e4429"/>

<rect
x="280"
y="42"
width="12"
height="12"
rx="2"
fill="#0e4429"/>

<rect
x="280"
y="59"
width="12"
height="12"
rx="2"
fill="#0e4429"/>

<rect
x="280"
y="76"
width="12"
height="12"
rx="2"
fill="#0e4429"/>

<rect
x="280"
y="93"
width="12"
height="12"
rx="2"
fill="#0e4429"/>

<rect
x="280"
y="110"
width="12"
height="12"
rx="2"
fill="#0e4429"/>

<rect
x="280"
y="127"
width="12"
height="12"
rx="2"
fill="#0e4429"/>

<rect
x="297"
y="25"
width="12"
height="12"
rx="2"
fill="#0e4429"/>

<rect
x="297"
y="42"
width="12"
height="12"
rx="2"
fill="#0e4429"/>

<rect
x="297"
y="59"
width="12"
height="12"
rx="2"
fill="#0e4429"/>

<rect
x="297"
y="76"
width="12"
height="12"
rx="2"
fill="#0e4429"/>

<rect
x="297"
y="93"
width="12"
height="12"
rx="2"
fill="#0e4429"/>

<rect
x="297"
y="110"
width="12"
height="12"
rx="2"
fill="#0e4429"/>

<rect
x="297"
y="127"
width="12"
height="12"
rx="2"
fill="#0e4429"/>

<rect
x="314"
y="25"
width="12"
height="12"
rx="2"
fill="#0e4429"/>

<rect
x="314"
y="42"
width="12"
height="12"
rx="2"
fill="#0e4429"/>

<rect
x="314"
y="59"
width="12"
height="12"
rx="2"
fill="#0e4429"/>

<rect
x="314"
y="76"
width="12"
height="12"
rx="2"
fill="#0e4429"/>

<rect
x="314"
y="93"
width="12"
height="12"
rx="2"
fill="#0e4429"/>

<rect
x="314"
y="110"
width="12"
height="12"
rx="2"
fill="#0e4429"/>

<rect
x="314"
y="127"
width="12"
height="12"
rx="2"
fill="#0e4429"/>

<rect
x="331"
y="25"
width="12"
height="12"
rx="2"
fill="#0e4429"/>

<rect
x="331"
y="42"
width="12"
height="12"
rx="2"
fill="#0e4429"/>

<rect
x="331"
y="59"
width="12"
height="12"
rx="2"
fill="#0e4429"/>

<rect
x="331"
y="76"
width="12"
height="12"
rx="2"
fill="#0e4429"/>

<rect
x="331"
y="93"
width="12"
height="12"
rx="2"
fill="#0e4429"/>

<rect
x="331"
y="110"
width="12"
height="12"
rx="2"
fill="#0e4429"/>

<rect
x="331"
y="127"
width="12"
height="12"
rx="2"
fill="#0e4429"/>

<rect
x="348"
y="25"
width="12"
height="12"
rx="2"
fill="#0e4429"/>

<rect
x="348"
y="42"
width="12"
height="12"
rx="2"
fill="#0e4429"/>

<rect
x="348"
y="59"
width="12"
height="12"
rx="2"
fill="#0e4429"/>

<rect
x="348"
y="76"
width="12"
height="12"
rx="2"
fill="#0e4429"/>

<rect
x="348"
y="93"
width="12"
height="12"
rx="2"
fill="#0e4429"/>

<rect
x="348"
y="110"
width="12"
height="12"
rx="2"
fill="#0e4429"/>

<rect
x="348"
y="127"
width="12"
height="12"
rx="2"
fill="#0e4429"/>

<rect
x="365"
y="25"
width="12"
height="12"
rx="2"
fill="#0e4429"/>

<rect
x="365"
y="42"
width="12"
height="12"
rx="2"
fill="#0e4429"/>

<rect
x="365"
y="59"
width="12"
height="12"
rx="2"
fill="#0e4429"/>

<rect
x="365"
y="76"
width="12"
height="12"
rx="2"
fill="#0e4429"/>

<rect
x="365"
y="93"
width="12"
height="12"
rx="2"
fill="#0e4429"/>

<rect
x="365"
y="110"
width="12"
height="12"
rx="2"
fill="#0e4429"/>

<rect
x="365"
y="127"
width="12"
height="12"
rx="2"
fill="#0e4429"/>

<rect
x="382"
y="25"
width="12"
height="12"
rx="2"
fill="#0e4429"/>

<rect
x="382"
y="42"
width="12"
height="12"
rx="2"
fill="#0e4429"/>

<rect
x="382"
y="59"
width="12"
height="12"
rx="2"
fill="#0e4429"/>

<rect
x="382"
y="76"
width="12"
height="12"
rx="2"
fill="#0e4429"/>

<rect
x="382"
y="93"
width="12"
height="12"
rx="2"
fill="#0e4429"/>

<rect
x="382"
y="110"
width="12"
height="12"
rx="2"
fill="#0e4429"/>

<rect
x="382"
y="127"
width="12"
height="12"
rx="2"
fill="#0e4429"/>

<rect
x="399"
y="25"
width="12"
height="12"
rx="2"
fill="#0e4429"/>

<rect
x="399"
y="42"
width="12"
height="12"
rx="2"
fill="#0e4429"/>

<rect
x="399"
y="59"
width="12"
height="12"
rx="2"
fill="#0e4429"/>

<rect
x="399"
y="76"
width="12"
height="12"
rx="2"
fill="#0e4429"/>

<rect
x="399"
y="93"
width="12"
height="12"
rx="2"
fill="#0e4429"/>

<rect
x="399"
y="110"
width="12"
height="12"
rx="2"
fill="#0e4429"/>

<rect
x="399"
y="127"
width="12"
height="12"
rx="2"
fill="#0e4429"/>

<rect
x="416"
y="25"
width="12"
height="12"
rx="2"
fill="#0e4429"/>

<rect
x="416"
y="42"
width="12"
height="12"
rx="2"
fill="#0e4429"/>

<rect
x="416"
y="59"
width="12"
height="12"
rx="2"
fill="#0e4429"/>

<rect
x="416"
y="76"
width="12"
height="12"
rx="2"
fill="#0e4429"/>

<rect
x="416"
y="93"
width="12"
height="12"
rx="2"
fill="#0e4429"/>

<rect
x="416"
y="110"
width="12"
height="12"
rx="2"
fill="#0e4429"/>

<rect
x="416"
y="127"
width="12"
height="12"
rx="2"
fill="#0e4429"/>

<rect
x="433"
y="25"
width="12"
height="12"
rx="2"
fill="#0e4429"/>

<rect
x="433"
y="42"
width="12"
height="12"
rx="2"
fill="#0e4429"/>

<rect
x="433"
y="59"
width="12"
height="12"
rx="2"
fill="#0e4429"/>

<rect
x="433"
y="76"
width="12"
height="12"
rx="2"
fill="#0e4429"/>

<rect
x="433"
y="93"
width="12"
height="12"
rx="2"
fill="#0e4429"/>

<rect
x="433"
y="110"
width="12"
height="12"
rx="2"
fill="#0e4429"/>

<rect
x="433"
y="127"
width="12"
height="12"
rx="2"
fill="#0e4429"/>

<rect
x="450"
y="25"
width="12"
height="12"
rx="2"
fill="#0e4429"/>

<rect
x="450"
y="42"
width="12"
height="12"
rx="2"
fill="#0e4429"/>

<rect
x="450"
y="59"
width="12"
height="12"
rx="2"
fill="#0e4429"/>

<rect
x="450"
y="76"
width="12"
height="12"
rx="2"
fill="#0e4429"/>

<rect
x="450"
y="93"
width="12"
height="12"
rx="2"
fill="#0e4429"/>

<rect
x="450"
y="110"
width="12"
height="12"
rx="2"
fill="#0e4429"/>

<rect
x="450"
y="127"
width="12"
height="12"
rx="2"
fill="#0e4429"/>

<rect
x="467"
y="25"
width="12"
height="12"
rx="2"
fill="#0e4429"/>

<rect
x="467"
y="42"
width="12"
height="12"
rx="2"
fill="#0e4429"/>

<rect
x="467"
y="59"
width="12"
height="12"
rx="2"
fill="#0e4429"/>

<rect
x="467"
y="76"
width="12"
height="12"
rx="2"
fill="#0e4429"/>

<rect
x="467"
y="93"
width="12"
height="12"
rx="2"
fill="#0e4429"/>

<rect
x="467"
y="110"
width="12"
height="12"
rx="2"
fill="#0e4429"/>

<rect
x="467"
y="127"
width="12"
height="12"
rx="2"
fill="#0e4429"/>

<rect
x="484"
y="25"
width="12"
height="12"
rx="2"
fill="#0e4429"/>

<rect
x="484"
y="42"
width="12"
height="12"
rx="2"
fill="#0e4429"/>

<rect
x="484"
y="59"
width="12"
height="12"
rx="2"
fill="#0e4429"/>

<rect
x="484"
y="76"
width="12"
height="12"
rx="2"
fill="#0e4429"/>

<rect
x="484"
y="93"
width="12"
height="12"
rx="2"
fill="#0e4429"/>

<rect
x="484"
y="110"
width="12"
height="12"
rx="2"
fill="#0e4429"/>

<rect
x="484"
y="127"
width="12"
height="12"
rx="2"
fill="#0e4429"/>

<rect
x="501"
y="25"
width="12"
height="12"
rx="2"
fill="#0e4429"/>

<rect
x="501"
y="42"
width="12"
height="12"
rx="2"
fill="#0e4429"/>

<rect
x="501"
y="59"
width="12"
height="12"
rx="2"
fill="#0e4429"/>

<rect
x="501"
y="76"
width="12"
height="12"
rx="2"
fill="#0e4429"/>

<rect
x="501"
y="93"
width="12"
height="12"
rx="2"
fill="#0e4429"/>

<rect
x="501"
y="110"
width="12"
height="12"
rx="2"
fill="#0e4429"/>

<rect
x="501"
y="127"
width="12"
height="12"
rx="2"
fill="#0e4429"/>

<rect
x="518"
y="25"
width="12"
height="12"
rx="2"
fill="#0e4429"/>

<rect
x="518"
y="42"
width="12"
height="12"
rx="2"
fill="#0e4429"/>

<rect
x="518"
y="59"
width="12"
height="12"
rx="2"
fill="#0e4429"/>

<rect
x="518"
y="76"
width="12"
height="12"
rx="2"
fill="#0e4429"/>

<rect
x="518"
y="93"
width="12"
height="12"
rx="2"
fill="#0e4429"/>

<rect
x="518"
y="110"
width="12"
height="12"
rx="2"
fill="#0e4429"/>

<rect
x="518"
y="127"
width="12"
height="12"
rx="2"
fill="#0e4429"/>

<rect
x="535"
y="25"
width="12"
height="12"
rx="2"
fill="#0e4429"/>

<rect
x="535"
y="42"
width="12"
height="12"
rx="2"
fill="#0e4429"/>

<rect
x="535"
y="59"
width="12"
height="12"
rx="2"
fill="#0e4429"/>

<rect
x="535"
y="76"
width="12"
height="12"
rx="2"
fill="#0e4429"/>

<rect
x="535"
y="93"
width="12"
height="12"
rx="2"
fill="#0e4429"/>

<rect
x="535"
y="110"
width="12"
height="12"
rx="2"
fill="#0e4429"/>

<rect
x="535"
y="127"
width="12"
height="12"
rx="2"
fill="#0e4429"/>

<rect
x="552"
y="25"
width="12"
height="12"
rx="2"
fill="#0e4429"/>

<rect
x="552"
y="42"
width="12"
height="12"
rx="2"
fill="#0e4429"/>

<rect
x="552"
y="59"
width="12"
height="12"
rx="2"
fill="#0e4429"/>

<rect
x="552"
y="76"
width="12"
height="12"
rx="2"
fill="#0e4429"/>

<rect
x="552"
y="93"
width="12"
height="12"
rx="2"
fill="#0e4429"/>

<rect
x="552"
y="110"
width="12"
height="12"
rx="2"
fill="#0e4429"/>

<rect
x="552"
y="127"
width="12"
height="12"
rx="2"
fill="#0e4429"/>

<rect
x="569"
y="25"
width="12"
height="12"
rx="2"
fill="#0e4429"/>

<rect
x="569"
y="42"
width="12"
height="12"
rx="2"
fill="#0e4429"/>

<rect
x="569"
y="59"
width="12"
height="12"
rx="2"
fill="#0e4429"/>

<rect
x="569"
y="76"
width="12"
height="12"
rx="2"
fill="#0e4429"/>

<rect
x="569"
y="93"
width="12"
height="12"
rx="2"
fill="#0e4429"/>

<rect
x="569"
y="110"
width="12"
height="12"
rx="2"
fill="#0e4429"/>

<rect
x="569"
y="127"
width="12"
height="12"
rx="2"
fill="#0e4429"/>

<rect
x="586"
y="25"
width="12"
height="12"
rx="2"
fill="#0e4429"/>

<rect
x="586"
y="42"
width="12"
height="12"
rx="2"
fill="#0e4429"/>

<rect
x="586"
y="59"
width="12"
height="12"
rx="2"
fill="#0e4429"/>

<rect
x="586"
y="76"
width="12"
height="12"
rx="2"
fill="#0e4429"/>

<rect
x="586"
y="93"
width="12"
height="12"
rx="2"
fill="#0e4429"/>

<rect
x="586"
y="110"
width="12"
height="12"
rx="2"
fill="#0e4429"/>

<rect
x="586"
y="127"
width="12"
height="12"
rx="2"
fill="#0e4429"/>

<rect
x="603"
y="25"
width="12"
height="12"
rx="2"
fill="#0e4429"/>

<rect
x="603"
y="42"
width="12"
height="12"
rx="2"
fill="#0e4429"/>

<rect
x="603"
y="59"
width="12"
height="12"
rx="2"
fill="#0e4429"/>

<rect
x="603"
y="76"
width="12"
height="12"
rx="2"
fill="#0e4429"/>

<rect
x="603"
y="93"
width="12"
height="12"
rx="2"
fill="#0e4429"/>

<rect
x="603"
y="110"
width="12"
height="12"
rx="2"
fill="#0e4429"/>

<rect
x="603"
y="127"
width="12"
height="12"
rx="2"
fill="#0e4429"/>

<rect
x="620"
y="25"
width="12"
height="12"
rx="2"
fill="#0e4429"/>

<rect
x="620"
y="42"
width="12"
height="12"
rx="2"
fill="#0e4429"/>

<rect
x="620"
y="59"
width="12"
height="12"
rx="2"
fill="#0e4429"/>

<rect
x="620"
y="76"
width="12"
height="12"
rx="2"
fill="#0e4429"/>

<rect
x="620"
y="93"
width="12"
height="12"
rx="2"
fill="#0e4429"/>

<rect
x="620"
y="110"
width="12"
height="12"
rx="2"
fill="#0e4429"/>

<rect
x="620"
y="127"
width="12"
height="12"
rx="2"
fill="#0e4429"/>

<rect
x="637"
y="25"
width="12"
height="12"
rx="2"
fill="#0e4429"/>

<rect
x="637"
y="42"
width="12"
height="12"
rx="2"
fill="#0e4429"/>

<rect
x="637"
y="59"
width="12"
height="12"
rx="2"
fill="#0e4429"/>

<rect
x="637"
y="76"
width="12"
height="12"
rx="2"
fill="#0e4429"/>

<rect
x="637"
y="93"
width="12"
height="12"
rx="2"
fill="#0e4429"/>

<rect
x="637"
y="110"
width="12"
height="12"
rx="2"
fill="#0e4429"/>

<rect
x="637"
y="127"
width="12"
height="12"
rx="2"
fill="#0e4429"/>

<rect
x="654"
y="25"
width="12"
height="12"
rx="2"
fill="#0e4429"/>

<rect
x="654"
y="42"
width="12"
height="12"
rx="2"
fill="#0e4429"/>

<rect
x="654"
y="59"
width="12"
height="12"
rx="2"
fill="#0e4429"/>

<rect
x="654"
y="76"
width="12"
height="12"
rx="2"
fill="#0e4429"/>

<rect
x="654"
y="93"
width="12"
height="12"
rx="2"
fill="#0e4429"/>

<rect
x="654"
y="110"
width="12"
height="12"
rx="2"
fill="#0e4429"/>

<rect
x="654"
y="127"
width="12"
height="12"
rx="2"
fill="#0e4429"/>

<rect
x="671"
y="25"
width="12"
height="12"
rx="2"
fill="#0e4429"/>

<rect
x="671"
y="42"
width="12"
height="12"
rx="2"
fill="#0e4429"/>

<rect
x="671"
y="59"
width="12"
height="12"
rx="2"
fill="#0e4429"/>

<rect
x="671"
y="76"
width="12"
height="12"
rx="2"
fill="#0e4429"/>

<rect
x="671"
y="93"
width="12"
height="12"
rx="2"
fill="#0e4429"/>

<rect
x="671"
y="110"
width="12"
height="12"
rx="2"
fill="#0e4429"/>

<rect
x="671"
y="127"
width="12"
height="12"
rx="2"
fill="#0e4429"/>

<rect
x="688"
y="25"
width="12"
height="12"
rx="2"
fill="#0e4429"/>

<rect
x="688"
y="42"
width="12"
height="12"
rx="2"
fill="#0e4429"/>

<rect
x="688"
y="59"
width="12"
height="12"
rx="2"
fill="#0e4429"/>

<rect
x="688"
y="76"
width="12"
height="12"
rx="2"
fill="#0e4429"/>

<rect
x="688"
y="93"
width="12"
height="12"
rx="2"
fill="#0e4429"/>

<rect
x="688"
y="110"
width="12"
height="12"
rx="2"
fill="#0e4429"/>

<rect
x="688"
y="127"
width="12"
height="12"
rx="2"
fill="#0e4429"/>

<rect
x="705"
y="25"
width="12"
height="12"
rx="2"
fill="#0e4429"/>

<rect
x="705"
y="42"
width="12"
height="12"
rx="2"
fill="#0e4429"/>

<rect
x="705"
y="59"
width="12"
height="12"
rx="2"
fill="#0e4429"/>

<rect
x="705"
y="76"
width="12"
height="12"
rx="2"
fill="#0e4429"/>

<rect
x="705"
y="93"
width="12"
height="12"
rx="2"
fill="#0e4429"/>

<rect
x="705"
y="110"
width="12"
height="12"
rx="2"
fill="#0e4429"/>

<rect
x="705"
y="127"
width="12"
height="12"
rx="2"
fill="#0e4429"/>

<rect
x="722"
y="25"
width="12"
height="12"
rx="2"
fill="#0e4429"/>

<rect
x="722"
y="42"
width="12"
height="12"
rx="2"
fill="#0e4429"/>

<rect
x="722"
y="59"
width="12"
height="12"
rx="2"
fill="#0e4429"/>

<rect
x="722"
y="76"
width="12"
height="12"
rx="2"
fill="#0e4429"/>

<rect
x="722"
y="93"
width="12"
height="12"
rx="2"
fill="#0e4429"/>

<rect
x="722"
y="110"
width="12"
height="12"
rx="2"
fill="#0e4429"/>

<rect
x="722"
y="127"
width="12"
height="12"
rx="2"
fill="#0e4429"/>

<rect
x="739"
y="25"
width="12"
height="12"
rx="2"
fill="#0e4429"/>

<rect
x="739"
y="42"
width="12"
height="12"
rx="2"
fill="#0e4429"/>

<rect
x="739"
y="59"
width="12"
height="12"
rx="2"
fill="#0e4429"/>

<rect
x="739"
y="76"
width="12"
height="12"
rx="2"
fill="#0e4429"/>

<rect
x="739"
y="93"
width="12"
height="12"
rx="2"
fill="#0e4429"/>

<rect
x="739"
y="110"
width="12"
height="12"
rx="2"
fill="#0e4429"/>

<rect
x="739"
y="127"
width="12"
height="12"
rx="2"
fill="#0e4429"/>

<rect
x="756"
y="25"
width="12"
height="12"
rx="2"
fill="#0e4429"/>

<rect
x="756"
y="42"
width="12"
height="12"
rx="2"
fill="#0e4429"/>

<rect
x="756"
y="59"
width="12"
height="12"
rx="2"
fill="#0e4429"/>

<rect
x="756"
y="76"
width="12"
height="12"
rx="2"
fill="#0e4429"/>

<rect
x="756"
y="93"
width="12"
height="12"
rx="2"
fill="#0e4429"/>

<rect
x="756"
y="110"
width="12"
height="12"
rx="2"
fill="#0e4429"/>

<rect
x="756"
y="127"
width="12"
height="12"
rx="2"
fill="#0e4429"/>

<rect
x="773"
y="25"
width="12"
height="12"
rx="2"
fill="#0e4429"/>

<rect
x="773"
y="42"
width="12"
height="12"
rx="2"
fill="#0e4429"/>

<rect
x="773"
y="59"
width="12"
height="12"
rx="2"
fill="#0e4429"/>

<rect
x="773"
y="76"
width="12"
height="12"
rx="2"
fill="#0e4429"/>

<rect
x="773"
y="93"
width="12"
height="12"
rx="2"
fill="#0e4429"/>

<rect
x="773"
y="110"
width="12"
height="12"
rx="2"
fill="#0e4429"/>

<rect
x="773"
y="127"
width="12"
height="12"
rx="2"
fill="#0e4429"/>

<rect
x="790"
y="25"
width="12"
height="12"
rx="2"
fill="#0e4429"/>

<rect
x="790"
y="42"
width="12"
height="12"
rx="2"
fill="#0e4429"/>

<rect
x="790"
y="59"
width="12"
height="12"
rx="2"
fill="#0e4429"/>

<rect
x="790"
y="76"
width="12"
height="12"
rx="2"
fill="#0e4429"/>

<rect
x="790"
y="93"
width="12"
height="12"
rx="2"
fill="#0e4429"/>

<rect
x="790"
y="110"
width="12"
height="12"
rx="2"
fill="#0e4429"/>

<rect
x="790"
y="127"
width="12"
height="12"
rx="2"
fill="#0e4429"/>

<rect
x="807"
y="25"
width="12"
height="12"
rx="2"
fill="#0e4429"/>

<rect
x="807"
y="42"
width="12"
height="12"
rx="2"
fill="#0e4429"/>

<rect
x="807"
y="59"
width="12"
height="12"
rx="2"
fill="#0e4429"/>

<rect
x="807"
y="76"
width="12"
height="12"
rx="2"
fill="#0e4429"/>

<rect
x="807"
y="93"
width="12"
height="12"
rx="2"
fill="#0e4429"/>

<rect
x="807"
y="110"
width="12"
height="12"
rx="2"
fill="#0e4429"/>

<rect
x="807"
y="127"
width="12"
height="12"
rx="2"
fill="#0e4429"/>

<rect
x="824"
y="25"
width="12"
height="12"
rx="2"
fill="#0e4429"/>

<rect
x="824"
y="42"
width="12"
height="12"
rx="2"
fill="#0e4429"/>

<rect
x="824"
y="59"
width="12"
height="12"
rx="2"
fill="#0e4429"/>

<rect
x="824"
y="76"
width="12"
height="12"
rx="2"
fill="#0e4429"/>

<rect
x="824"
y="93"
width="12"
height="12"
rx="2"
fill="#0e4429"/>

<rect
x="824"
y="110"
width="12"
height="12"
rx="2"
fill="#0e4429"/>

<rect
x="824"
y="127"
width="12"
height="12"
rx="2"
fill="#0e4429"/>

<rect
x="841"
y="25"
width="12"
height="12"
rx="2"
fill="#0e4429"/>

<rect
x="841"
y="42"
width="12"
height="12"
rx="2"
fill="#0e4429"/>

<rect
x="841"
y="59"
width="12"
height="12"
rx="2"
fill="#0e4429"/>

<rect
x="841"
y="76"
width="12"
height="12"
rx="2"
fill="#0e4429"/>

<rect
x="841"
y="93"
width="12"
height="12"
rx="2"
fill="#0e4429"/>

<rect
x="841"
y="110"
width="12"
height="12"
rx="2"
fill="#0e4429"/>

<rect
x="841"
y="127"
width="12"
height="12"
rx="2"
fill="#0e4429"/>

<rect
x="858"
y="25"
width="12"
height="12"
rx="2"
fill="#0e4429"/>

<rect
x="858"
y="42"
width="12"
height="12"
rx="2"
fill="#0e4429"/>

<rect
x="858"
y="59"
width="12"
height="12"
rx="2"
fill="#0e4429"/>

<rect
x="858"
y="76"
width="12"
height="12"
rx="2"
fill="#0e4429"/>

<rect
x="858"
y="93"
width="12"
height="12"
rx="2"
fill="#0e4429"/>

<rect
x="858"
y="110"
width="12"
height="12"
rx="2"
fill="#0e4429"/>

<rect
x="858"
y="127"
width="12"
height="12"
rx="2"
fill="#0e4429"/>

<rect
x="875"
y="25"
width="12"
height="12"
rx="2"
fill="#0e4429"/>

<rect
x="875"
y="42"
width="12"
height="12"
rx="2"
fill="#0e4429"/>

<rect
x="875"
y="59"
width="12"
height="12"
rx="2"
fill="#0e4429"/>

<rect
x="875"
y="76"
width="12"
height="12"
rx="2"
fill="#0e4429"/>

<rect
x="875"
y="93"
width="12"
height="12"
rx="2"
fill="#0e4429"/>

<rect
x="875"
y="110"
width="12"
height="12"
rx="2"
fill="#0e4429"/>

<rect
x="875"
y="127"
width="12"
height="12"
rx="2"
fill="#0e4429"/>

<rect
x="892"
y="25"
width="12"
height="12"
rx="2"
fill="#0e4429"/>

<rect
x="892"
y="42"
width="12"
height="12"
rx="2"
fill="#0e4429"/>

<rect
x="892"
y="59"
width="12"
height="12"
rx="2"
fill="#0e4429"/>

<rect
x="892"
y="76"
width="12"
height="12"
rx="2"
fill="#0e4429"/>

<rect
x="892"
y="93"
width="12"
height="12"
rx="2"
fill="#0e4429"/>

<rect
x="892"
y="110"
width="12"
height="12"
rx="2"
fill="#0e4429"/>

<rect
x="892"
y="127"
width="12"
height="12"
rx="2"
fill="#0e4429"/>

<rect
x="909"
y="25"
width="12"
height="12"
rx="2"
fill="#0e4429"/>

<rect
x="909"
y="42"
width="12"
height="12"
rx="2"
fill="#0e4429"/>

<rect
x="909"
y="59"
width="12"
height="12"
rx="2"
fill="#0e4429"/>

<rect
x="909"
y="76"
width="12"
height="12"
rx="2"
fill="#0e4429"/>

<rect
x="909"
y="93"
width="12"
height="12"
rx="2"
fill="#0e4429"/>

<rect
x="909"
y="110"
width="12"
height="12"
rx="2"
fill="#0e4429"/>

<rect
x="909"
y="127"
width="12"
height="12"
rx="2"
fill="#0e4429"/>

</svg>