
<svg
xmlns="http://www.w3.org/2000/svg"
width="951"
height="169"
viewBox="0 0 951 169">

<rect
width="100%"
height="100%"
fill="#000000"/>

<circle
cx="434.1004075223154"
cy="67.28615320014879"
r="0.3366392418743163"
fill="white"
opacity="0.6863254461940598"/>

<circle
cx="572.0568113042192"
cy="38.01068467904537"
r="0.42078916834237184"
fill="white"
opacity="0.6169007872506673"/>

<circle
cx="299.1222319064393"
cy="5.844358448826545"
r="0.722348226149764"
fill="white"
opacity="0.8000985689342568"/>

<circle
cx="558.6090925200489"
cy="126.43190722021272"
r="0.41393836476886886"
fill="white"
opacity="0.5763240707740096"/>

<circle
cx="37.00778545440737"
cy="76.91892139656102"
r="0.4145365508751669"
fill="white"
opacity="0.9043545430490203"/>

<circle
cx="818.7107386722959"
cy="80.13112403824672"
r="1.599285429020175"
fill="white"
opacity="0.6746731759209634"/>

<circle
cx="591.9650110111296"
cy="144.5847719632877"
r="1.021321865854172"
fill="white"
opacity="0.9247285547693929"/>

<circle
cx="16.58239185212881"
cy="97.47797800078989"
r="0.6289418823896755"
fill="white"
opacity="0.6565336497662462"/>

<circle
cx="14.184137693767678"
cy="121.38391663440025"
r="0.6659433333747258"
fill="white"
opacity="0.7293641393068988"/>

<circle
cx="610.2945090104538"
cy="74.54180026439914"
r="1.2893581676918442"
fill="white"
opacity="0.7159930631967446"/>

<circle
cx="200.18200560287158"
cy="101.41729035160324"
r="1.6410077363798266"
fill="white"
opacity="0.32694990814390046"/>

<circle
cx="228.08354704669128"
cy="119.82340859695975"
r="1.1136537446456036"
fill="white"
opacity="0.7307438402339328"/>

<circle
cx="493.45950490737243"
cy="42.01630357644774"
r="1.5726564616941097"
fill="white"
opacity="0.5187753393829505"/>

<circle
cx="98.92456013941315"
cy="121.88396196315988"
r="0.9937454246909938"
fill="white"
opacity="0.4688756383432681"/>

<circle
cx="612.1084201760577"
cy="60.02098512743108"
r="0.26481664614000927"
fill="white"
opacity="0.6040810408693"/>

<circle
cx="118.63041806798734"
cy="49.50071539717972"
r="1.0030624734971243"
fill="white"
opacity="0.6736766175921354"/>

<circle
cx="489.03858868884083"
cy="35.45066256042824"
r="0.2870959261373945"
fill="white"
opacity="0.7833043581898889"/>

<circle
cx="707.858221145139"
cy="28.40287984803728"
r="1.0932124473961657"
fill="white"
opacity="0.547076879592489"/>

<circle
cx="85.81187902369929"
cy="127.18449114378959"
r="1.5505457391575448"
fill="white"
opacity="0.965254575840617"/>

<circle
cx="940.4985983915458"
cy="56.16202262754862"
r="0.674390680517643"
fill="white"
opacity="0.41842911243604225"/>

<circle
cx="422.000308692605"
cy="72.39862660288509"
r="0.4647167191307257"
fill="white"
opacity="0.3866782647471519"/>

<circle
cx="411.8662354873993"
cy="2.7054221380984362"
r="0.9448909435672039"
fill="white"
opacity="0.766030483729097"/>

<circle
cx="442.3017286493794"
cy="97.59240699550494"
r="0.996097943866741"
fill="white"
opacity="0.8136894048809715"/>

<circle
cx="633.8187899641719"
cy="92.99870351314983"
r="0.5022002134169372"
fill="white"
opacity="0.6869018690713575"/>

<circle
cx="277.74418887638376"
cy="57.19450730739906"
r="1.2076908559657145"
fill="white"
opacity="0.575668193934177"/>

<circle
cx="240.99851278867632"
cy="70.68594294056052"
r="1.6661411917453133"
fill="white"
opacity="0.8295297951799803"/>

<circle
cx="713.6412274703245"
cy="145.40196928015422"
r="1.3051791241152926"
fill="white"
opacity="0.8178921362028171"/>

<circle
cx="947.6720274301696"
cy="1.9335119929193716"
r="0.3737597363408581"
fill="white"
opacity="0.23081580049769299"/>

<circle
cx="358.17082454837015"
cy="48.82904139687436"
r="0.8504925982561962"
fill="white"
opacity="0.28194868445007054"/>

<circle
cx="480.43671929231334"
cy="80.17896393061164"
r="0.38857714724192466"
fill="white"
opacity="0.8545676738683583"/>

<circle
cx="130.30791928752606"
cy="37.158302958620595"
r="0.8938217449019883"
fill="white"
opacity="0.39219803349252874"/>

<circle
cx="295.38733093798425"
cy="110.16848654011963"
r="1.613451211769154"
fill="white"
opacity="0.8484632105937151"/>

<circle
cx="819.5245780525996"
cy="116.23318253535545"
r="1.2581600387457403"
fill="white"
opacity="0.47696527099322134"/>

<circle
cx="671.276658157418"
cy="114.24942432869766"
r="1.4097499090011258"
fill="white"
opacity="0.21742815038478724"/>

<circle
cx="332.3813107771879"
cy="146.23999124130532"
r="0.9620025325612513"
fill="white"
opacity="0.46120548699442987"/>

<circle
cx="25.719334530580024"
cy="55.916975162267434"
r="1.4943431539855248"
fill="white"
opacity="0.46122463783625955"/>

<circle
cx="108.6636657812031"
cy="147.90456848574482"
r="0.5158842534534411"
fill="white"
opacity="0.3419454546849451"/>

<circle
cx="802.7351025812623"
cy="50.20325749341581"
r="1.611150466278252"
fill="white"
opacity="0.5921306377760198"/>

<circle
cx="425.3702419911758"
cy="148.28415132006293"
r="0.8894244382025667"
fill="white"
opacity="0.9437829476624324"/>

<circle
cx="395.08940741750746"
cy="25.906008347204956"
r="0.2614126225399605"
fill="white"
opacity="0.5659696908100265"/>

<circle
cx="787.0632100874161"
cy="52.37927069678739"
r="0.9276305337355542"
fill="white"
opacity="0.5726256624856503"/>

<circle
cx="132.95850226256755"
cy="17.624493798128125"
r="0.7922287752039934"
fill="white"
opacity="0.7871930853561389"/>

<circle
cx="549.0509475313858"
cy="16.654202030805443"
r="1.2971637119908508"
fill="white"
opacity="0.8567796171390671"/>

<circle
cx="879.7329449561562"
cy="1.4399262858378088"
r="0.9880352273434871"
fill="white"
opacity="0.41831643639536154"/>

<circle
cx="702.863503485439"
cy="116.01932497713781"
r="0.7082083820772249"
fill="white"
opacity="0.9444294062252687"/>

<circle
cx="667.4982940403391"
cy="7.188836068039478"
r="1.2156352660370393"
fill="white"
opacity="0.5474861892001563"/>

<circle
cx="829.750632834304"
cy="36.96521490738486"
r="0.8869869737030105"
fill="white"
opacity="0.20819637789260118"/>

<circle
cx="809.2238273707187"
cy="83.72715799028171"
r="1.3171225488527167"
fill="white"
opacity="0.7468994555790782"/>

<circle
cx="635.4782508327337"
cy="124.78046748462943"
r="0.6077213989834407"
fill="white"
opacity="0.3833789595398731"/>

<circle
cx="589.3976763458529"
cy="132.71796774737038"
r="0.6008078713223801"
fill="white"
opacity="0.8776146254439194"/>

<circle
cx="678.596698212904"
cy="18.995678751687937"
r="1.392695268808925"
fill="white"
opacity="0.5641528739782015"/>

<circle
cx="569.2688721377634"
cy="122.62890550741507"
r="0.4551417430863121"
fill="white"
opacity="0.6700791374403684"/>

<circle
cx="464.760391462736"
cy="45.49617826150078"
r="1.5573744061989097"
fill="white"
opacity="0.5656100123143052"/>

<circle
cx="43.38125304073407"
cy="30.291242193186534"
r="0.5652503658770158"
fill="white"
opacity="0.7402312038163485"/>

<circle
cx="160.7668383421367"
cy="106.67869843123447"
r="0.22550129116227896"
fill="white"
opacity="0.6506666384469659"/>

<circle
cx="168.4429876928409"
cy="14.377953688588097"
r="1.5378164522062385"
fill="white"
opacity="0.555959654037435"/>

<circle
cx="689.9123026912101"
cy="13.094392172178937"
r="1.1835478163273672"
fill="white"
opacity="0.9626199007143499"/>

<circle
cx="773.9381210280021"
cy="23.51359452253793"
r="1.138776074908186"
fill="white"
opacity="0.4799416401381045"/>

<circle
cx="786.5639927954238"
cy="4.732191931219146"
r="1.1815759270492763"
fill="white"
opacity="0.5146689191916951"/>

<circle
cx="208.5267795026663"
cy="115.50201869245451"
r="1.5902744917930607"
fill="white"
opacity="0.49840966344009296"/>

<circle
cx="917.9158371503096"
cy="148.91572699867066"
r="1.4894799932374951"
fill="white"
opacity="0.46038927392019763"/>

<circle
cx="879.4551783129922"
cy="76.44795522251145"
r="1.598313780664048"
fill="white"
opacity="0.9070263383314401"/>

<circle
cx="128.2896688157642"
cy="119.28731019393946"
r="1.3566663966725818"
fill="white"
opacity="0.5355078796061243"/>

<circle
cx="804.2467190461591"
cy="80.8515485438333"
r="1.5960977133352048"
fill="white"
opacity="0.914610523197847"/>

<circle
cx="353.7780626591702"
cy="44.114546307619165"
r="0.9400235037625779"
fill="white"
opacity="0.9508026886248158"/>

<circle
cx="64.65646805786184"
cy="59.863683796012985"
r="0.7619290612053429"
fill="white"
opacity="0.9760967243702912"/>

<circle
cx="380.81748400440057"
cy="152.80607537007702"
r="1.1068028520966056"
fill="white"
opacity="0.7080325957982467"/>

<circle
cx="573.4133222072518"
cy="59.879008176102936"
r="1.097794249819803"
fill="white"
opacity="0.8201181434051454"/>

<circle
cx="263.9482298074646"
cy="51.201753413325235"
r="1.5389617675151064"
fill="white"
opacity="0.9707016347278696"/>

<circle
cx="877.1959350604358"
cy="48.413425849823994"
r="0.22382635423217062"
fill="white"
opacity="0.8421882155450262"/>

<circle
cx="73.35681051338761"
cy="3.6546292358060546"
r="0.583884431581823"
fill="white"
opacity="0.5020107405864522"/>

<circle
cx="125.29117754034638"
cy="143.14281112262455"
r="0.4052039837610664"
fill="white"
opacity="0.7002046926895549"/>

<circle
cx="263.1865868330775"
cy="163.1319077932807"
r="1.2986358595099337"
fill="white"
opacity="0.3879481735535404"/>

<circle
cx="491.91047813138"
cy="59.7770776388208"
r="0.43426126952823246"
fill="white"
opacity="0.847097749411136"/>

<circle
cx="113.24411892660657"
cy="111.01110125143917"
r="0.6273374071862208"
fill="white"
opacity="0.5358932061966721"/>

<circle
cx="708.7359812899465"
cy="61.14591569341368"
r="0.8907016502543281"
fill="white"
opacity="0.2489565993953125"/>

<circle
cx="792.0817874392616"
cy="144.04974835283187"
r="1.3704741330872408"
fill="white"
opacity="0.8004510752196943"/>

<circle
cx="129.12201296964858"
cy="23.660456006287976"
r="1.3444760129888336"
fill="white"
opacity="0.2880190836951984"/>

<circle
cx="93.92244329954072"
cy="167.64698935679561"
r="1.2915641851765367"
fill="white"
opacity="0.7636298134527655"/>

<circle
cx="528.287841319907"
cy="141.05265215405015"
r="1.4233184357248652"
fill="white"
opacity="0.8025756618925115"/>

<circle
cx="96.16421508143202"
cy="36.076307088515776"
r="0.8864342128732705"
fill="white"
opacity="0.9644803729391362"/>

<circle
cx="572.4566632010841"
cy="83.0803271291474"
r="1.328423956687921"
fill="white"
opacity="0.46987103636990446"/>

<circle
cx="685.9248098653388"
cy="4.448719540553755"
r="0.9174198807288871"
fill="white"
opacity="0.766619757418685"/>

<circle
cx="322.4113889683198"
cy="25.910281993756076"
r="1.6018779313483034"
fill="white"
opacity="0.9377262251185867"/>

<circle
cx="727.0492425639605"
cy="97.86177228047084"
r="0.7496141386275574"
fill="white"
opacity="0.6696940778721295"/>

<circle
cx="773.7014759983233"
cy="111.77435576973203"
r="0.7033653692729671"
fill="white"
opacity="0.6351156679974288"/>

<circle
cx="214.72414761793505"
cy="79.6086787721049"
r="1.2122454633988253"
fill="white"
opacity="0.7016500908210141"/>

<circle
cx="633.6123173937077"
cy="51.10453666715857"
r="0.792696936863367"
fill="white"
opacity="0.9889971569941627"/>

<circle
cx="732.525327606276"
cy="29.712573098049845"
r="0.3800502472556368"
fill="white"
opacity="0.7432573908694005"/>

<circle
cx="835.2521809393886"
cy="127.82369170611163"
r="0.5138465431327024"
fill="white"
opacity="0.9334346884904625"/>

<circle
cx="379.49991707850216"
cy="64.68173238104629"
r="0.4556007813920296"
fill="white"
opacity="0.4796801638245972"/>

<circle
cx="283.3106001253014"
cy="3.1880435731867354"
r="0.9577806928425037"
fill="white"
opacity="0.9572254627129253"/>

<circle
cx="312.1387204245089"
cy="125.89940208236676"
r="1.053700366111482"
fill="white"
opacity="0.41705860288637775"/>

<circle
cx="806.2858236154956"
cy="64.00807925678413"
r="1.413547312807683"
fill="white"
opacity="0.87634472531454"/>

<circle
cx="22.634389236377224"
cy="40.55740045459579"
r="0.48420008065016856"
fill="white"
opacity="0.7290395396378266"/>

<circle
cx="762.1636963254111"
cy="28.693775798295775"
r="0.3439389578084044"
fill="white"
opacity="0.9030775856632272"/>

<circle
cx="657.949278050987"
cy="18.681619729115617"
r="0.7345129303678029"
fill="white"
opacity="0.2151571525912681"/>

<circle
cx="518.2553744293779"
cy="104.28661767296076"
r="1.060504421860017"
fill="white"
opacity="0.7230865151734507"/>

<circle
cx="282.5455054136574"
cy="49.43942614222221"
r="0.3642540285101384"
fill="white"
opacity="0.9227828687549697"/>

<circle
cx="377.39817548395627"
cy="152.6108957883664"
r="1.3907032645917397"
fill="white"
opacity="0.9038791467083456"/>

<circle
cx="120.66531262113843"
cy="4.046736435654117"
r="1.2767142597553724"
fill="white"
opacity="0.9550902606042595"/>

<circle
cx="566.7332511119336"
cy="140.46681193947592"
r="0.2366352717628571"
fill="white"
opacity="0.6045996978864994"/>

<circle
cx="450.24035402954354"
cy="148.16214811065308"
r="0.6439357798242615"
fill="white"
opacity="0.9596907946121569"/>

<circle
cx="271.6951041098015"
cy="163.96728084142487"
r="0.7701744817532665"
fill="white"
opacity="0.7990656042880226"/>

<circle
cx="504.7947930175525"
cy="164.7329939567536"
r="0.7668814993682715"
fill="white"
opacity="0.9915187256401392"/>

<circle
cx="182.10632449211906"
cy="23.606044309631866"
r="0.25082376656689126"
fill="white"
opacity="0.5409587168918325"/>

<circle
cx="616.1841474502768"
cy="138.72568938094238"
r="1.430127688995145"
fill="white"
opacity="0.20317106352719422"/>

<circle
cx="913.4934493025493"
cy="29.768877611250566"
r="1.132067682885897"
fill="white"
opacity="0.4031540822345731"/>

<circle
cx="707.8074701828482"
cy="94.92388166244457"
r="1.16691696272295"
fill="white"
opacity="0.6528859831909355"/>

<circle
cx="426.219740623742"
cy="107.75864674926432"
r="0.8846970878673026"
fill="white"
opacity="0.5726614596813271"/>

<circle
cx="180.8165958216972"
cy="157.53082594445456"
r="1.072882060907606"
fill="white"
opacity="0.6908242133573765"/>

<circle
cx="63.876209653875044"
cy="77.17010536496782"
r="0.5115284412599261"
fill="white"
opacity="0.3118099577844389"/>

<circle
cx="658.98074598503"
cy="39.548802648214476"
r="1.3828481429206836"
fill="white"
opacity="0.8865677034543706"/>

<circle
cx="441.0316274842462"
cy="153.0623133647538"
r="1.1288779608145474"
fill="white"
opacity="0.9003597830445595"/>

<circle
cx="200.30853954126727"
cy="24.40112091296389"
r="0.6256786138745019"
fill="white"
opacity="0.7198622502552723"/>

<circle
cx="812.4637183214817"
cy="11.287133287729805"
r="1.5694669246304918"
fill="white"
opacity="0.8360699844245265"/>

<circle
cx="870.3896345864233"
cy="158.05570226197372"
r="1.5452776452151131"
fill="white"
opacity="0.818035584395139"/>

<circle
cx="420.1156699631925"
cy="17.704945788023384"
r="0.9562897653517928"
fill="white"
opacity="0.20478435541272388"/>

<circle
cx="479.4280897350184"
cy="8.908554639851001"
r="1.5734943983814593"
fill="white"
opacity="0.9096771255350997"/>

<circle
cx="432.08508644350275"
cy="120.2076301608603"
r="0.5869611324957988"
fill="white"
opacity="0.5017990665735421"/>

<rect
x="25"
y="25"
width="12"
height="12"
rx="2"
fill="#0e4429"/>

<rect
x="25"
y="42"
width="12"
height="12"
rx="2"
fill="#0e4429"/>

<rect
x="25"
y="59"
width="12"
height="12"
rx="2"
fill="#0e4429"/>

<rect
x="25"
y="76"
width="12"
height="12"
rx="2"
fill="#0e4429"/>

<rect
x="25"
y="93"
width="12"
height="12"
rx="2"
fill="#0e4429"/>

<rect
x="25"
y="110"
width="12"
height="12"
rx="2"
fill="#0e4429"/>

<rect
x="25"
y="127"
width="12"
height="12"
rx="2"
fill="#0e4429"/>

<rect
x="42"
y="25"
width="12"
height="12"
rx="2"
fill="#0e4429"/>

<rect
x="42"
y="42"
width="12"
height="12"
rx="2"
fill="#0e4429"/>

<rect
x="42"
y="59"
width="12"
height="12"
rx="2"
fill="#0e4429"/>

<rect
x="42"
y="76"
width="12"
height="12"
rx="2"
fill="#0e4429"/>

<rect
x="42"
y="93"
width="12"
height="12"
rx="2"
fill="#0e4429"/>

<rect
x="42"
y="110"
width="12"
height="12"
rx="2"
fill="#0e4429"/>

<rect
x="42"
y="127"
width="12"
height="12"
rx="2"
fill="#0e4429"/>

<rect
x="59"
y="25"
width="12"
height="12"
rx="2"
fill="#0e4429"/>

<rect
x="59"
y="42"
width="12"
height="12"
rx="2"
fill="#0e4429"/>

<rect
x="59"
y="59"
width="12"
height="12"
rx="2"
fill="#0e4429"/>

<rect
x="59"
y="76"
width="12"
height="12"
rx="2"
fill="#0e4429"/>

<rect
x="59"
y="93"
width="12"
height="12"
rx="2"
fill="#0e4429"/>

<rect
x="59"
y="110"
width="12"
height="12"
rx="2"
fill="#0e4429"/>

<rect
x="59"
y="127"
width="12"
height="12"
rx="2"
fill="#0e4429"/>

<rect
x="76"
y="25"
width="12"
height="12"
rx="2"
fill="#0e4429"/>

<rect
x="76"
y="42"
width="12"
height="12"
rx="2"
fill="#0e4429"/>

<rect
x="76"
y="59"
width="12"
height="12"
rx="2"
fill="#0e4429"/>

<rect
x="76"
y="76"
width="12"
height="12"
rx="2"
fill="#0e4429"/>

<rect
x="76"
y="93"
width="12"
height="12"
rx="2"
fill="#0e4429"/>

<rect
x="76"
y="110"
width="12"
height="12"
rx="2"
fill="#0e4429"/>

<rect
x="76"
y="127"
width="12"
height="12"
rx="2"
fill="#0e4429"/>

<rect
x="93"
y="25"
width="12"
height="12"
rx="2"
fill="#0e4429"/>

<rect
x="93"
y="42"
width="12"
height="12"
rx="2"
fill="#0e4429"/>

<rect
x="93"
y="59"
width="12"
height="12"
rx="2"
fill="#0e4429"/>

<rect
x="93"
y="76"
width="12"
height="12"
rx="2"
fill="#0e4429"/>

<rect
x="93"
y="93"
width="12"
height="12"
rx="2"
fill="#0e4429"/>

<rect
x="93"
y="110"
width="12"
height="12"
rx="2"
fill="#0e4429"/>

<rect
x="93"
y="127"
width="12"
height="12"
rx="2"
fill="#0e4429"/>

<rect
x="110"
y="25"
width="12"
height="12"
rx="2"
fill="#0e4429"/>

<rect
x="110"
y="42"
width="12"
height="12"
rx="2"
fill="#0e4429"/>

<rect
x="110"
y="59"
width="12"
height="12"
rx="2"
fill="#0e4429"/>

<rect
x="110"
y="76"
width="12"
height="12"
rx="2"
fill="#0e4429"/>

<rect
x="110"
y="93"
width="12"
height="12"
rx="2"
fill="#0e4429"/>

<rect
x="110"
y="110"
width="12"
height="12"
rx="2"
fill="#0e4429"/>

<rect
x="110"
y="127"
width="12"
height="12"
rx="2"
fill="#0e4429"/>

<rect
x="127"
y="25"
width="12"
height="12"
rx="2"
fill="#0e4429"/>

<rect
x="127"
y="42"
width="12"
height="12"
rx="2"
fill="#0e4429"/>

<rect
x="127"
y="59"
width="12"
height="12"
rx="2"
fill="#0e4429"/>

<rect
x="127"
y="76"
width="12"
height="12"
rx="2"
fill="#0e4429"/>

<rect
x="127"
y="93"
width="12"
height="12"
rx="2"
fill="#0e4429"/>

<rect
x="127"
y="110"
width="12"
height="12"
rx="2"
fill="#0e4429"/>

<rect
x="127"
y="127"
width="12"
height="12"
rx="2"
fill="#0e4429"/>

<rect
x="144"
y="25"
width="12"
height="12"
rx="2"
fill="#0e4429"/>

<rect
x="144"
y="42"
width="12"
height="12"
rx="2"
fill="#0e4429"/>

<rect
x="144"
y="59"
width="12"
height="12"
rx="2"
fill="#0e4429"/>

<rect
x="144"
y="76"
width="12"
height="12"
rx="2"
fill="#0e4429"/>

<rect
x="144"
y="93"
width="12"
height="12"
rx="2"
fill="#0e4429"/>

<rect
x="144"
y="110"
width="12"
height="12"
rx="2"
fill="#0e4429"/>

<rect
x="144"
y="127"
width="12"
height="12"
rx="2"
fill="#0e4429"/>

<rect
x="161"
y="25"
width="12"
height="12"
rx="2"
fill="#0e4429"/>

<rect
x="161"
y="42"
width="12"
height="12"
rx="2"
fill="#0e4429"/>

<rect
x="161"
y="59"
width="12"
height="12"
rx="2"
fill="#0e4429"/>

<rect
x="161"
y="76"
width="12"
height="12"
rx="2"
fill="#0e4429"/>

<rect
x="161"
y="93"
width="12"
height="12"
rx="2"
fill="#0e4429"/>

<rect
x="161"
y="110"
width="12"
height="12"
rx="2"
fill="#0e4429"/>

<rect
x="161"
y="127"
width="12"
height="12"
rx="2"
fill="#0e4429"/>

<rect
x="178"
y="25"
width="12"
height="12"
rx="2"
fill="#0e4429"/>

<rect
x="178"
y="42"
width="12"
height="12"
rx="2"
fill="#0e4429"/>

<rect
x="178"
y="59"
width="12"
height="12"
rx="2"
fill="#0e4429"/>

<rect
x="178"
y="76"
width="12"
height="12"
rx="2"
fill="#0e4429"/>

<rect
x="178"
y="93"
width="12"
height="12"
rx="2"
fill="#0e4429"/>

<rect
x="178"
y="110"
width="12"
height="12"
rx="2"
fill="#0e4429"/>

<rect
x="178"
y="127"
width="12"
height="12"
rx="2"
fill="#0e4429"/>

<rect
x="195"
y="25"
width="12"
height="12"
rx="2"
fill="#0e4429"/>

<rect
x="195"
y="42"
width="12"
height="12"
rx="2"
fill="#0e4429"/>

<rect
x="195"
y="59"
width="12"
height="12"
rx="2"
fill="#0e4429"/>

<rect
x="195"
y="76"
width="12"
height="12"
rx="2"
fill="#0e4429"/>

<rect
x="195"
y="93"
width="12"
height="12"
rx="2"
fill="#0e4429"/>

<rect
x="195"
y="110"
width="12"
height="12"
rx="2"
fill="#0e4429"/>

<rect
x="195"
y="127"
width="12"
height="12"
rx="2"
fill="#0e4429"/>

<rect
x="212"
y="25"
width="12"
height="12"
rx="2"
fill="#0e4429"/>

<rect
x="212"
y="42"
width="12"
height="12"
rx="2"
fill="#0e4429"/>

<rect
x="212"
y="59"
width="12"
height="12"
rx="2"
fill="#0e4429"/>

<rect
x="212"
y="76"
width="12"
height="12"
rx="2"
fill="#0e4429"/>

<rect
x="212"
y="93"
width="12"
height="12"
rx="2"
fill="#0e4429"/>

<rect
x="212"
y="110"
width="12"
height="12"
rx="2"
fill="#0e4429"/>

<rect
x="212"
y="127"
width="12"
height="12"
rx="2"
fill="#0e4429"/>

<rect
x="229"
y="25"
width="12"
height="12"
rx="2"
fill="#0e4429"/>

<rect
x="229"
y="42"
width="12"
height="12"
rx="2"
fill="#0e4429"/>

<rect
x="229"
y="59"
width="12"
height="12"
rx="2"
fill="#0e4429"/>

<rect
x="229"
y="76"
width="12"
height="12"
rx="2"
fill="#0e4429"/>

<rect
x="229"
y="93"
width="12"
height="12"
rx="2"
fill="#0e4429"/>

<rect
x="229"
y="110"
width="12"
height="12"
rx="2"
fill="#0e4429"/>

<rect
x="229"
y="127"
width="12"
height="12"
rx="2"
fill="#0e4429"/>

<rect
x="246"
y="25"
width="12"
height="12"
rx="2"
fill="#0e4429"/>

<rect
x="246"
y="42"
width="12"
height="12"
rx="2"
fill="#0e4429"/>

<rect
x="246"
y="59"
width="12"
height="12"
rx="2"
fill="#0e4429"/>

<rect
x="246"
y="76"
width="12"
height="12"
rx="2"
fill="#0e4429"/>

<rect
x="246"
y="93"
width="12"
height="12"
rx="2"
fill="#0e4429"/>

<rect
x="246"
y="110"
width="12"
height="12"
rx="2"
fill="#0e4429"/>

<rect
x="246"
y="127"
width="12"
height="12"
rx="2"
fill="#0e4429"/>

<rect
x="263"
y="25"
width="12"
height="12"
rx="2"
fill="#0e4429"/>

<rect
x="263"
y="42"
width="12"
height="12"
rx="2"
fill="#0e4429"/>

<rect
x="263"
y="59"
width="12"
height="12"
rx="2"
fill="#0e4429"/>

<rect
x="263"
y="76"
width="12"
height="12"
rx="2"
fill="#0e4429"/>

<rect
x="263"
y="93"
width="12"
height="12"
rx="2"
fill="#0e4429"/>

<rect
x="263"
y="110"
width="12"
height="12"
rx="2"
fill="#0e4429"/>

<rect
x="263"
y="127"
width="12"
height="12"
rx="2"
fill="#0e4429"/>

<rect
x="280"
y="25"
width="12"
height="12"
rx="2"
fill="#0e4429"/>

<rect
x="280"
y="42"
width="12"
height="12"
rx="2"
fill="#0e4429"/>

<rect
x="280"
y="59"
width="12"
height="12"
rx="2"
fill="#0e4429"/>

<rect
x="280"
y="76"
width="12"
height="12"
rx="2"
fill="#0e4429"/>

<rect
x="280"
y="93"
width="12"
height="12"
rx="2"
fill="#0e4429"/>

<rect
x="280"
y="110"
width="12"
height="12"
rx="2"
fill="#0e4429"/>

<rect
x="280"
y="127"
width="12"
height="12"
rx="2"
fill="#0e4429"/>

<rect
x="297"
y="25"
width="12"
height="12"
rx="2"
fill="#0e4429"/>

<rect
x="297"
y="42"
width="12"
height="12"
rx="2"
fill="#0e4429"/>

<rect
x="297"
y="59"
width="12"
height="12"
rx="2"
fill="#0e4429"/>

<rect
x="297"
y="76"
width="12"
height="12"
rx="2"
fill="#0e4429"/>

<rect
x="297"
y="93"
width="12"
height="12"
rx="2"
fill="#0e4429"/>

<rect
x="297"
y="110"
width="12"
height="12"
rx="2"
fill="#0e4429"/>

<rect
x="297"
y="127"
width="12"
height="12"
rx="2"
fill="#0e4429"/>

<rect
x="314"
y="25"
width="12"
height="12"
rx="2"
fill="#0e4429"/>

<rect
x="314"
y="42"
width="12"
height="12"
rx="2"
fill="#0e4429"/>

<rect
x="314"
y="59"
width="12"
height="12"
rx="2"
fill="#0e4429"/>

<rect
x="314"
y="76"
width="12"
height="12"
rx="2"
fill="#0e4429"/>

<rect
x="314"
y="93"
width="12"
height="12"
rx="2"
fill="#0e4429"/>

<rect
x="314"
y="110"
width="12"
height="12"
rx="2"
fill="#0e4429"/>

<rect
x="314"
y="127"
width="12"
height="12"
rx="2"
fill="#0e4429"/>

<rect
x="331"
y="25"
width="12"
height="12"
rx="2"
fill="#0e4429"/>

<rect
x="331"
y="42"
width="12"
height="12"
rx="2"
fill="#0e4429"/>

<rect
x="331"
y="59"
width="12"
height="12"
rx="2"
fill="#0e4429"/>

<rect
x="331"
y="76"
width="12"
height="12"
rx="2"
fill="#0e4429"/>

<rect
x="331"
y="93"
width="12"
height="12"
rx="2"
fill="#0e4429"/>

<rect
x="331"
y="110"
width="12"
height="12"
rx="2"
fill="#0e4429"/>

<rect
x="331"
y="127"
width="12"
height="12"
rx="2"
fill="#0e4429"/>

<rect
x="348"
y="25"
width="12"
height="12"
rx="2"
fill="#0e4429"/>

<rect
x="348"
y="42"
width="12"
height="12"
rx="2"
fill="#0e4429"/>

<rect
x="348"
y="59"
width="12"
height="12"
rx="2"
fill="#0e4429"/>

<rect
x="348"
y="76"
width="12"
height="12"
rx="2"
fill="#0e4429"/>

<rect
x="348"
y="93"
width="12"
height="12"
rx="2"
fill="#0e4429"/>

<rect
x="348"
y="110"
width="12"
height="12"
rx="2"
fill="#0e4429"/>

<rect
x="348"
y="127"
width="12"
height="12"
rx="2"
fill="#0e4429"/>

<rect
x="365"
y="25"
width="12"
height="12"
rx="2"
fill="#0e4429"/>

<rect
x="365"
y="42"
width="12"
height="12"
rx="2"
fill="#0e4429"/>

<rect
x="365"
y="59"
width="12"
height="12"
rx="2"
fill="#0e4429"/>

<rect
x="365"
y="76"
width="12"
height="12"
rx="2"
fill="#0e4429"/>

<rect
x="365"
y="93"
width="12"
height="12"
rx="2"
fill="#0e4429"/>

<rect
x="365"
y="110"
width="12"
height="12"
rx="2"
fill="#0e4429"/>

<rect
x="365"
y="127"
width="12"
height="12"
rx="2"
fill="#0e4429"/>

<rect
x="382"
y="25"
width="12"
height="12"
rx="2"
fill="#0e4429"/>

<rect
x="382"
y="42"
width="12"
height="12"
rx="2"
fill="#0e4429"/>

<rect
x="382"
y="59"
width="12"
height="12"
rx="2"
fill="#0e4429"/>

<rect
x="382"
y="76"
width="12"
height="12"
rx="2"
fill="#0e4429"/>

<rect
x="382"
y="93"
width="12"
height="12"
rx="2"
fill="#0e4429"/>

<rect
x="382"
y="110"
width="12"
height="12"
rx="2"
fill="#0e4429"/>

<rect
x="382"
y="127"
width="12"
height="12"
rx="2"
fill="#0e4429"/>

<rect
x="399"
y="25"
width="12"
height="12"
rx="2"
fill="#0e4429"/>

<rect
x="399"
y="42"
width="12"
height="12"
rx="2"
fill="#0e4429"/>

<rect
x="399"
y="59"
width="12"
height="12"
rx="2"
fill="#0e4429"/>

<rect
x="399"
y="76"
width="12"
height="12"
rx="2"
fill="#0e4429"/>

<rect
x="399"
y="93"
width="12"
height="12"
rx="2"
fill="#0e4429"/>

<rect
x="399"
y="110"
width="12"
height="12"
rx="2"
fill="#0e4429"/>

<rect
x="399"
y="127"
width="12"
height="12"
rx="2"
fill="#0e4429"/>

<rect
x="416"
y="25"
width="12"
height="12"
rx="2"
fill="#0e4429"/>

<rect
x="416"
y="42"
width="12"
height="12"
rx="2"
fill="#0e4429"/>

<rect
x="416"
y="59"
width="12"
height="12"
rx="2"
fill="#0e4429"/>

<rect
x="416"
y="76"
width="12"
height="12"
rx="2"
fill="#0e4429"/>

<rect
x="416"
y="93"
width="12"
height="12"
rx="2"
fill="#0e4429"/>

<rect
x="416"
y="110"
width="12"
height="12"
rx="2"
fill="#0e4429"/>

<rect
x="416"
y="127"
width="12"
height="12"
rx="2"
fill="#0e4429"/>

<rect
x="433"
y="25"
width="12"
height="12"
rx="2"
fill="#0e4429"/>

<rect
x="433"
y="42"
width="12"
height="12"
rx="2"
fill="#0e4429"/>

<rect
x="433"
y="59"
width="12"
height="12"
rx="2"
fill="#0e4429"/>

<rect
x="433"
y="76"
width="12"
height="12"
rx="2"
fill="#0e4429"/>

<rect
x="433"
y="93"
width="12"
height="12"
rx="2"
fill="#0e4429"/>

<rect
x="433"
y="110"
width="12"
height="12"
rx="2"
fill="#0e4429"/>

<rect
x="433"
y="127"
width="12"
height="12"
rx="2"
fill="#0e4429"/>

<rect
x="450"
y="25"
width="12"
height="12"
rx="2"
fill="#0e4429"/>

<rect
x="450"
y="42"
width="12"
height="12"
rx="2"
fill="#0e4429"/>

<rect
x="450"
y="59"
width="12"
height="12"
rx="2"
fill="#0e4429"/>

<rect
x="450"
y="76"
width="12"
height="12"
rx="2"
fill="#0e4429"/>

<rect
x="450"
y="93"
width="12"
height="12"
rx="2"
fill="#0e4429"/>

<rect
x="450"
y="110"
width="12"
height="12"
rx="2"
fill="#0e4429"/>

<rect
x="450"
y="127"
width="12"
height="12"
rx="2"
fill="#0e4429"/>

<rect
x="467"
y="25"
width="12"
height="12"
rx="2"
fill="#0e4429"/>

<rect
x="467"
y="42"
width="12"
height="12"
rx="2"
fill="#0e4429"/>

<rect
x="467"
y="59"
width="12"
height="12"
rx="2"
fill="#0e4429"/>

<rect
x="467"
y="76"
width="12"
height="12"
rx="2"
fill="#0e4429"/>

<rect
x="467"
y="93"
width="12"
height="12"
rx="2"
fill="#0e4429"/>

<rect
x="467"
y="110"
width="12"
height="12"
rx="2"
fill="#0e4429"/>

<rect
x="467"
y="127"
width="12"
height="12"
rx="2"
fill="#0e4429"/>

<rect
x="484"
y="25"
width="12"
height="12"
rx="2"
fill="#0e4429"/>

<rect
x="484"
y="42"
width="12"
height="12"
rx="2"
fill="#0e4429"/>

<rect
x="484"
y="59"
width="12"
height="12"
rx="2"
fill="#0e4429"/>

<rect
x="484"
y="76"
width="12"
height="12"
rx="2"
fill="#0e4429"/>

<rect
x="484"
y="93"
width="12"
height="12"
rx="2"
fill="#0e4429"/>

<rect
x="484"
y="110"
width="12"
height="12"
rx="2"
fill="#0e4429"/>

<rect
x="484"
y="127"
width="12"
height="12"
rx="2"
fill="#0e4429"/>

<rect
x="501"
y="25"
width="12"
height="12"
rx="2"
fill="#0e4429"/>

<rect
x="501"
y="42"
width="12"
height="12"
rx="2"
fill="#0e4429"/>

<rect
x="501"
y="59"
width="12"
height="12"
rx="2"
fill="#0e4429"/>

<rect
x="501"
y="76"
width="12"
height="12"
rx="2"
fill="#0e4429"/>

<rect
x="501"
y="93"
width="12"
height="12"
rx="2"
fill="#0e4429"/>

<rect
x="501"
y="110"
width="12"
height="12"
rx="2"
fill="#0e4429"/>

<rect
x="501"
y="127"
width="12"
height="12"
rx="2"
fill="#0e4429"/>

<rect
x="518"
y="25"
width="12"
height="12"
rx="2"
fill="#0e4429"/>

<rect
x="518"
y="42"
width="12"
height="12"
rx="2"
fill="#0e4429"/>

<rect
x="518"
y="59"
width="12"
height="12"
rx="2"
fill="#0e4429"/>

<rect
x="518"
y="76"
width="12"
height="12"
rx="2"
fill="#0e4429"/>

<rect
x="518"
y="93"
width="12"
height="12"
rx="2"
fill="#0e4429"/>

<rect
x="518"
y="110"
width="12"
height="12"
rx="2"
fill="#0e4429"/>

<rect
x="518"
y="127"
width="12"
height="12"
rx="2"
fill="#0e4429"/>

<rect
x="535"
y="25"
width="12"
height="12"
rx="2"
fill="#0e4429"/>

<rect
x="535"
y="42"
width="12"
height="12"
rx="2"
fill="#0e4429"/>

<rect
x="535"
y="59"
width="12"
height="12"
rx="2"
fill="#0e4429"/>

<rect
x="535"
y="76"
width="12"
height="12"
rx="2"
fill="#0e4429"/>

<rect
x="535"
y="93"
width="12"
height="12"
rx="2"
fill="#0e4429"/>

<rect
x="535"
y="110"
width="12"
height="12"
rx="2"
fill="#0e4429"/>

<rect
x="535"
y="127"
width="12"
height="12"
rx="2"
fill="#0e4429"/>

<rect
x="552"
y="25"
width="12"
height="12"
rx="2"
fill="#0e4429"/>

<rect
x="552"
y="42"
width="12"
height="12"
rx="2"
fill="#0e4429"/>

<rect
x="552"
y="59"
width="12"
height="12"
rx="2"
fill="#0e4429"/>

<rect
x="552"
y="76"
width="12"
height="12"
rx="2"
fill="#0e4429"/>

<rect
x="552"
y="93"
width="12"
height="12"
rx="2"
fill="#0e4429"/>

<rect
x="552"
y="110"
width="12"
height="12"
rx="2"
fill="#0e4429"/>

<rect
x="552"
y="127"
width="12"
height="12"
rx="2"
fill="#0e4429"/>

<rect
x="569"
y="25"
width="12"
height="12"
rx="2"
fill="#0e4429"/>

<rect
x="569"
y="42"
width="12"
height="12"
rx="2"
fill="#0e4429"/>

<rect
x="569"
y="59"
width="12"
height="12"
rx="2"
fill="#0e4429"/>

<rect
x="569"
y="76"
width="12"
height="12"
rx="2"
fill="#0e4429"/>

<rect
x="569"
y="93"
width="12"
height="12"
rx="2"
fill="#0e4429"/>

<rect
x="569"
y="110"
width="12"
height="12"
rx="2"
fill="#0e4429"/>

<rect
x="569"
y="127"
width="12"
height="12"
rx="2"
fill="#0e4429"/>

<rect
x="586"
y="25"
width="12"
height="12"
rx="2"
fill="#0e4429"/>

<rect
x="586"
y="42"
width="12"
height="12"
rx="2"
fill="#0e4429"/>

<rect
x="586"
y="59"
width="12"
height="12"
rx="2"
fill="#0e4429"/>

<rect
x="586"
y="76"
width="12"
height="12"
rx="2"
fill="#0e4429"/>

<rect
x="586"
y="93"
width="12"
height="12"
rx="2"
fill="#0e4429"/>

<rect
x="586"
y="110"
width="12"
height="12"
rx="2"
fill="#0e4429"/>

<rect
x="586"
y="127"
width="12"
height="12"
rx="2"
fill="#0e4429"/>

<rect
x="603"
y="25"
width="12"
height="12"
rx="2"
fill="#0e4429"/>

<rect
x="603"
y="42"
width="12"
height="12"
rx="2"
fill="#0e4429"/>

<rect
x="603"
y="59"
width="12"
height="12"
rx="2"
fill="#0e4429"/>

<rect
x="603"
y="76"
width="12"
height="12"
rx="2"
fill="#0e4429"/>

<rect
x="603"
y="93"
width="12"
height="12"
rx="2"
fill="#0e4429"/>

<rect
x="603"
y="110"
width="12"
height="12"
rx="2"
fill="#0e4429"/>

<rect
x="603"
y="127"
width="12"
height="12"
rx="2"
fill="#0e4429"/>

<rect
x="620"
y="25"
width="12"
height="12"
rx="2"
fill="#0e4429"/>

<rect
x="620"
y="42"
width="12"
height="12"
rx="2"
fill="#0e4429"/>

<rect
x="620"
y="59"
width="12"
height="12"
rx="2"
fill="#0e4429"/>

<rect
x="620"
y="76"
width="12"
height="12"
rx="2"
fill="#0e4429"/>

<rect
x="620"
y="93"
width="12"
height="12"
rx="2"
fill="#0e4429"/>

<rect
x="620"
y="110"
width="12"
height="12"
rx="2"
fill="#0e4429"/>

<rect
x="620"
y="127"
width="12"
height="12"
rx="2"
fill="#0e4429"/>

<rect
x="637"
y="25"
width="12"
height="12"
rx="2"
fill="#0e4429"/>

<rect
x="637"
y="42"
width="12"
height="12"
rx="2"
fill="#0e4429"/>

<rect
x="637"
y="59"
width="12"
height="12"
rx="2"
fill="#0e4429"/>

<rect
x="637"
y="76"
width="12"
height="12"
rx="2"
fill="#0e4429"/>

<rect
x="637"
y="93"
width="12"
height="12"
rx="2"
fill="#0e4429"/>

<rect
x="637"
y="110"
width="12"
height="12"
rx="2"
fill="#0e4429"/>

<rect
x="637"
y="127"
width="12"
height="12"
rx="2"
fill="#0e4429"/>

<rect
x="654"
y="25"
width="12"
height="12"
rx="2"
fill="#0e4429"/>

<rect
x="654"
y="42"
width="12"
height="12"
rx="2"
fill="#0e4429"/>

<rect
x="654"
y="59"
width="12"
height="12"
rx="2"
fill="#0e4429"/>

<rect
x="654"
y="76"
width="12"
height="12"
rx="2"
fill="#0e4429"/>

<rect
x="654"
y="93"
width="12"
height="12"
rx="2"
fill="#0e4429"/>

<rect
x="654"
y="110"
width="12"
height="12"
rx="2"
fill="#0e4429"/>

<rect
x="654"
y="127"
width="12"
height="12"
rx="2"
fill="#0e4429"/>

<rect
x="671"
y="25"
width="12"
height="12"
rx="2"
fill="#0e4429"/>

<rect
x="671"
y="42"
width="12"
height="12"
rx="2"
fill="#0e4429"/>

<rect
x="671"
y="59"
width="12"
height="12"
rx="2"
fill="#0e4429"/>

<rect
x="671"
y="76"
width="12"
height="12"
rx="2"
fill="#0e4429"/>

<rect
x="671"
y="93"
width="12"
height="12"
rx="2"
fill="#0e4429"/>

<rect
x="671"
y="110"
width="12"
height="12"
rx="2"
fill="#0e4429"/>

<rect
x="671"
y="127"
width="12"
height="12"
rx="2"
fill="#0e4429"/>

<rect
x="688"
y="25"
width="12"
height="12"
rx="2"
fill="#0e4429"/>

<rect
x="688"
y="42"
width="12"
height="12"
rx="2"
fill="#0e4429"/>

<rect
x="688"
y="59"
width="12"
height="12"
rx="2"
fill="#0e4429"/>

<rect
x="688"
y="76"
width="12"
height="12"
rx="2"
fill="#0e4429"/>

<rect
x="688"
y="93"
width="12"
height="12"
rx="2"
fill="#0e4429"/>

<rect
x="688"
y="110"
width="12"
height="12"
rx="2"
fill="#0e4429"/>

<rect
x="688"
y="127"
width="12"
height="12"
rx="2"
fill="#0e4429"/>

<rect
x="705"
y="25"
width="12"
height="12"
rx="2"
fill="#0e4429"/>

<rect
x="705"
y="42"
width="12"
height="12"
rx="2"
fill="#0e4429"/>

<rect
x="705"
y="59"
width="12"
height="12"
rx="2"
fill="#0e4429"/>

<rect
x="705"
y="76"
width="12"
height="12"
rx="2"
fill="#0e4429"/>

<rect
x="705"
y="93"
width="12"
height="12"
rx="2"
fill="#0e4429"/>

<rect
x="705"
y="110"
width="12"
height="12"
rx="2"
fill="#0e4429"/>

<rect
x="705"
y="127"
width="12"
height="12"
rx="2"
fill="#0e4429"/>

<rect
x="722"
y="25"
width="12"
height="12"
rx="2"
fill="#0e4429"/>

<rect
x="722"
y="42"
width="12"
height="12"
rx="2"
fill="#0e4429"/>

<rect
x="722"
y="59"
width="12"
height="12"
rx="2"
fill="#0e4429"/>

<rect
x="722"
y="76"
width="12"
height="12"
rx="2"
fill="#0e4429"/>

<rect
x="722"
y="93"
width="12"
height="12"
rx="2"
fill="#0e4429"/>

<rect
x="722"
y="110"
width="12"
height="12"
rx="2"
fill="#0e4429"/>

<rect
x="722"
y="127"
width="12"
height="12"
rx="2"
fill="#0e4429"/>

<rect
x="739"
y="25"
width="12"
height="12"
rx="2"
fill="#0e4429"/>

<rect
x="739"
y="42"
width="12"
height="12"
rx="2"
fill="#0e4429"/>

<rect
x="739"
y="59"
width="12"
height="12"
rx="2"
fill="#0e4429"/>

<rect
x="739"
y="76"
width="12"
height="12"
rx="2"
fill="#0e4429"/>

<rect
x="739"
y="93"
width="12"
height="12"
rx="2"
fill="#0e4429"/>

<rect
x="739"
y="110"
width="12"
height="12"
rx="2"
fill="#0e4429"/>

<rect
x="739"
y="127"
width="12"
height="12"
rx="2"
fill="#0e4429"/>

<rect
x="756"
y="25"
width="12"
height="12"
rx="2"
fill="#0e4429"/>

<rect
x="756"
y="42"
width="12"
height="12"
rx="2"
fill="#0e4429"/>

<rect
x="756"
y="59"
width="12"
height="12"
rx="2"
fill="#0e4429"/>

<rect
x="756"
y="76"
width="12"
height="12"
rx="2"
fill="#0e4429"/>

<rect
x="756"
y="93"
width="12"
height="12"
rx="2"
fill="#0e4429"/>

<rect
x="756"
y="110"
width="12"
height="12"
rx="2"
fill="#0e4429"/>

<rect
x="756"
y="127"
width="12"
height="12"
rx="2"
fill="#0e4429"/>

<rect
x="773"
y="25"
width="12"
height="12"
rx="2"
fill="#0e4429"/>

<rect
x="773"
y="42"
width="12"
height="12"
rx="2"
fill="#0e4429"/>

<rect
x="773"
y="59"
width="12"
height="12"
rx="2"
fill="#0e4429"/>

<rect
x="773"
y="76"
width="12"
height="12"
rx="2"
fill="#0e4429"/>

<rect
x="773"
y="93"
width="12"
height="12"
rx="2"
fill="#0e4429"/>

<rect
x="773"
y="110"
width="12"
height="12"
rx="2"
fill="#0e4429"/>

<rect
x="773"
y="127"
width="12"
height="12"
rx="2"
fill="#0e4429"/>

<rect
x="790"
y="25"
width="12"
height="12"
rx="2"
fill="#0e4429"/>

<rect
x="790"
y="42"
width="12"
height="12"
rx="2"
fill="#0e4429"/>

<rect
x="790"
y="59"
width="12"
height="12"
rx="2"
fill="#0e4429"/>

<rect
x="790"
y="76"
width="12"
height="12"
rx="2"
fill="#0e4429"/>

<rect
x="790"
y="93"
width="12"
height="12"
rx="2"
fill="#0e4429"/>

<rect
x="790"
y="110"
width="12"
height="12"
rx="2"
fill="#0e4429"/>

<rect
x="790"
y="127"
width="12"
height="12"
rx="2"
fill="#0e4429"/>

<rect
x="807"
y="25"
width="12"
height="12"
rx="2"
fill="#0e4429"/>

<rect
x="807"
y="42"
width="12"
height="12"
rx="2"
fill="#0e4429"/>

<rect
x="807"
y="59"
width="12"
height="12"
rx="2"
fill="#0e4429"/>

<rect
x="807"
y="76"
width="12"
height="12"
rx="2"
fill="#0e4429"/>

<rect
x="807"
y="93"
width="12"
height="12"
rx="2"
fill="#0e4429"/>

<rect
x="807"
y="110"
width="12"
height="12"
rx="2"
fill="#0e4429"/>

<rect
x="807"
y="127"
width="12"
height="12"
rx="2"
fill="#0e4429"/>

<rect
x="824"
y="25"
width="12"
height="12"
rx="2"
fill="#0e4429"/>

<rect
x="824"
y="42"
width="12"
height="12"
rx="2"
fill="#0e4429"/>

<rect
x="824"
y="59"
width="12"
height="12"
rx="2"
fill="#0e4429"/>

<rect
x="824"
y="76"
width="12"
height="12"
rx="2"
fill="#0e4429"/>

<rect
x="824"
y="93"
width="12"
height="12"
rx="2"
fill="#0e4429"/>

<rect
x="824"
y="110"
width="12"
height="12"
rx="2"
fill="#0e4429"/>

<rect
x="824"
y="127"
width="12"
height="12"
rx="2"
fill="#0e4429"/>

<rect
x="841"
y="25"
width="12"
height="12"
rx="2"
fill="#0e4429"/>

<rect
x="841"
y="42"
width="12"
height="12"
rx="2"
fill="#0e4429"/>

<rect
x="841"
y="59"
width="12"
height="12"
rx="2"
fill="#0e4429"/>

<rect
x="841"
y="76"
width="12"
height="12"
rx="2"
fill="#0e4429"/>

<rect
x="841"
y="93"
width="12"
height="12"
rx="2"
fill="#0e4429"/>

<rect
x="841"
y="110"
width="12"
height="12"
rx="2"
fill="#0e4429"/>

<rect
x="841"
y="127"
width="12"
height="12"
rx="2"
fill="#0e4429"/>

<rect
x="858"
y="25"
width="12"
height="12"
rx="2"
fill="#0e4429"/>

<rect
x="858"
y="42"
width="12"
height="12"
rx="2"
fill="#0e4429"/>

<rect
x="858"
y="59"
width="12"
height="12"
rx="2"
fill="#0e4429"/>

<rect
x="858"
y="76"
width="12"
height="12"
rx="2"
fill="#0e4429"/>

<rect
x="858"
y="93"
width="12"
height="12"
rx="2"
fill="#0e4429"/>

<rect
x="858"
y="110"
width="12"
height="12"
rx="2"
fill="#0e4429"/>

<rect
x="858"
y="127"
width="12"
height="12"
rx="2"
fill="#0e4429"/>

<rect
x="875"
y="25"
width="12"
height="12"
rx="2"
fill="#0e4429"/>

<rect
x="875"
y="42"
width="12"
height="12"
rx="2"
fill="#0e4429"/>

<rect
x="875"
y="59"
width="12"
height="12"
rx="2"
fill="#0e4429"/>

<rect
x="875"
y="76"
width="12"
height="12"
rx="2"
fill="#0e4429"/>

<rect
x="875"
y="93"
width="12"
height="12"
rx="2"
fill="#0e4429"/>

<rect
x="875"
y="110"
width="12"
height="12"
rx="2"
fill="#0e4429"/>

<rect
x="875"
y="127"
width="12"
height="12"
rx="2"
fill="#0e4429"/>

<rect
x="892"
y="25"
width="12"
height="12"
rx="2"
fill="#0e4429"/>

<rect
x="892"
y="42"
width="12"
height="12"
rx="2"
fill="#0e4429"/>

<rect
x="892"
y="59"
width="12"
height="12"
rx="2"
fill="#0e4429"/>

<rect
x="892"
y="76"
width="12"
height="12"
rx="2"
fill="#0e4429"/>

<rect
x="892"
y="93"
width="12"
height="12"
rx="2"
fill="#0e4429"/>

<rect
x="892"
y="110"
width="12"
height="12"
rx="2"
fill="#0e4429"/>

<rect
x="892"
y="127"
width="12"
height="12"
rx="2"
fill="#0e4429"/>

<rect
x="909"
y="25"
width="12"
height="12"
rx="2"
fill="#0e4429"/>

<rect
x="909"
y="42"
width="12"
height="12"
rx="2"
fill="#0e4429"/>

<rect
x="909"
y="59"
width="12"
height="12"
rx="2"
fill="#0e4429"/>

<rect
x="909"
y="76"
width="12"
height="12"
rx="2"
fill="#0e4429"/>

<rect
x="909"
y="93"
width="12"
height="12"
rx="2"
fill="#0e4429"/>

<rect
x="909"
y="110"
width="12"
height="12"
rx="2"
fill="#0e4429"/>

<rect
x="909"
y="127"
width="12"
height="12"
rx="2"
fill="#0e4429"/>

</svg>