
<svg
xmlns="http://www.w3.org/2000/svg"
width="951"
height="169"
viewBox="0 0 951 169">

<rect
width="100%"
height="100%"
fill="#000000"/>

<circle
cx="164.5606382591761"
cy="55.461308498270526"
r="1.2674199115393416"
fill="white"
opacity="0.8272044340548892"/>

<circle
cx="193.6338827443725"
cy="99.36986268683148"
r="0.8520743019510606"
fill="white"
opacity="0.8795050743016641"/>

<circle
cx="562.3082994321783"
cy="73.91576473039954"
r="1.4566553681292596"
fill="white"
opacity="0.368956142523086"/>

<circle
cx="920.1673062598113"
cy="27.458835519536304"
r="1.4895576373526531"
fill="white"
opacity="0.6430728406724701"/>

<circle
cx="574.7268225712936"
cy="45.967112505454764"
r="0.7000630987114191"
fill="white"
opacity="0.5203024352060379"/>

<circle
cx="905.8875435480717"
cy="113.2522593780548"
r="0.4028067373594563"
fill="white"
opacity="0.9036264807805472"/>

<circle
cx="400.03074723225114"
cy="110.70740888624428"
r="1.2792553640262712"
fill="white"
opacity="0.6111621484421357"/>

<circle
cx="633.4266109609927"
cy="122.38564280971144"
r="1.4652476607303488"
fill="white"
opacity="0.3941805186441313"/>

<circle
cx="738.683799253487"
cy="141.33418249795176"
r="0.7181727916652869"
fill="white"
opacity="0.7837758260640131"/>

<circle
cx="890.7337856042756"
cy="160.50845917431616"
r="1.6994511998174093"
fill="white"
opacity="0.6511098491289881"/>

<circle
cx="529.6339029442481"
cy="162.8077897286679"
r="1.412750383857922"
fill="white"
opacity="0.739092119371455"/>

<circle
cx="154.22522739436815"
cy="99.1644635996996"
r="1.4930481530116133"
fill="white"
opacity="0.6103122509382048"/>

<circle
cx="125.4355506460132"
cy="62.45414941392882"
r="0.35581799702622346"
fill="white"
opacity="0.8673687523286735"/>

<circle
cx="415.54946747369036"
cy="134.10687898444635"
r="1.4764655033580083"
fill="white"
opacity="0.9256115894056542"/>

<circle
cx="562.8744049392585"
cy="79.95278351351348"
r="0.2201206677346212"
fill="white"
opacity="0.9173623681037373"/>

<circle
cx="662.373637980748"
cy="151.1486380469478"
r="1.3420541249581948"
fill="white"
opacity="0.5829623567176428"/>

<circle
cx="794.5817657535218"
cy="69.75052170933144"
r="0.5427349074261931"
fill="white"
opacity="0.3367204159818483"/>

<circle
cx="590.5102337983596"
cy="140.86955065710308"
r="0.9917460439740267"
fill="white"
opacity="0.37750820319902556"/>

<circle
cx="559.1794585624556"
cy="155.27543197594173"
r="0.7144459306005346"
fill="white"
opacity="0.5618335542044358"/>

<circle
cx="512.5978390323028"
cy="46.29333081468995"
r="0.8210931507728632"
fill="white"
opacity="0.6589485873425283"/>

<circle
cx="294.98483893332696"
cy="118.38868095839504"
r="1.377756048673074"
fill="white"
opacity="0.6628250056175968"/>

<circle
cx="209.93939237867858"
cy="97.24336971480218"
r="1.5638849130682324"
fill="white"
opacity="0.8129420994500292"/>

<circle
cx="334.04769442390096"
cy="78.85830962209211"
r="1.1608569536771025"
fill="white"
opacity="0.7903760345240838"/>

<circle
cx="827.5868500462785"
cy="163.88962351673226"
r="1.4721180913178662"
fill="white"
opacity="0.5133855123327"/>

<circle
cx="204.12510284295703"
cy="103.9476094470755"
r="0.4122127225321624"
fill="white"
opacity="0.46548852239319527"/>

<circle
cx="856.5309370073478"
cy="159.82655699008086"
r="1.193252528622051"
fill="white"
opacity="0.9492734627290897"/>

<circle
cx="755.5964243747968"
cy="157.4177470094588"
r="1.0216075886727987"
fill="white"
opacity="0.9986712090191587"/>

<circle
cx="310.87863158548925"
cy="46.57330857894375"
r="1.4625776098680023"
fill="white"
opacity="0.688141255736437"/>

<circle
cx="177.838439415748"
cy="138.73492199915881"
r="1.3323197908554552"
fill="white"
opacity="0.25969877243456385"/>

<circle
cx="121.36818385914395"
cy="107.04027379849053"
r="0.9978477552402167"
fill="white"
opacity="0.2958166318582384"/>

<circle
cx="369.6809114384038"
cy="5.514735523212457"
r="1.548643044437501"
fill="white"
opacity="0.40288874455330675"/>

<circle
cx="861.718733926914"
cy="143.9964105523921"
r="0.6275844318814312"
fill="white"
opacity="0.43731983642779115"/>

<circle
cx="545.0777845243952"
cy="7.564126571099711"
r="0.2128278629846611"
fill="white"
opacity="0.7962303845415926"/>

<circle
cx="798.224150217535"
cy="71.72561026824062"
r="1.0655503087839058"
fill="white"
opacity="0.7676005641923631"/>

<circle
cx="190.0487084066605"
cy="108.87902423198382"
r="0.5366386322631418"
fill="white"
opacity="0.7772067208463429"/>

<circle
cx="865.2553808335244"
cy="52.183270893283506"
r="1.6253311152309353"
fill="white"
opacity="0.28914238244252477"/>

<circle
cx="843.3180584219813"
cy="86.36217912975489"
r="0.5496345913587426"
fill="white"
opacity="0.5066955429935165"/>

<circle
cx="27.457099749516328"
cy="126.0826284959921"
r="1.6899405146603617"
fill="white"
opacity="0.21498844791017185"/>

<circle
cx="328.48349824890346"
cy="76.79004788865167"
r="0.780199237377466"
fill="white"
opacity="0.7656731256583853"/>

<circle
cx="946.7091513662585"
cy="72.69231628635283"
r="1.6391516558908392"
fill="white"
opacity="0.4562166014647284"/>

<circle
cx="241.2264186231971"
cy="140.27278284097014"
r="1.2571893087873198"
fill="white"
opacity="0.4151652473212245"/>

<circle
cx="14.99405123963755"
cy="138.73677933586254"
r="0.9785825711372562"
fill="white"
opacity="0.9406226851853698"/>

<circle
cx="693.0175268940368"
cy="9.915687687625699"
r="0.20643510318125408"
fill="white"
opacity="0.41671774807259826"/>

<circle
cx="240.00840676299742"
cy="11.50019426825803"
r="0.8108411357421843"
fill="white"
opacity="0.3934268254060291"/>

<circle
cx="705.0428240854657"
cy="66.58655084868671"
r="0.3409952796729396"
fill="white"
opacity="0.2347411602044801"/>

<circle
cx="353.46660029405314"
cy="4.554879153365822"
r="1.3350828878147671"
fill="white"
opacity="0.5154248847410445"/>

<circle
cx="484.79075479502893"
cy="164.78187645600497"
r="1.018913806837878"
fill="white"
opacity="0.48095704753449414"/>

<circle
cx="367.1076536684642"
cy="104.30574811406008"
r="1.580955533697484"
fill="white"
opacity="0.7453465324539379"/>

<circle
cx="660.1438059452605"
cy="96.20618680032314"
r="1.1815670006498"
fill="white"
opacity="0.45242942831509475"/>

<circle
cx="748.034174653716"
cy="137.7724070900183"
r="0.6777672796519574"
fill="white"
opacity="0.289810239347035"/>

<circle
cx="562.3039600094017"
cy="113.31366316128634"
r="0.8878981508456958"
fill="white"
opacity="0.48892026048722903"/>

<circle
cx="914.5800509316517"
cy="165.56198801708354"
r="0.5970814304673"
fill="white"
opacity="0.6509542618885062"/>

<circle
cx="630.356140941205"
cy="162.85652182804864"
r="0.38558512676735374"
fill="white"
opacity="0.4325580252198439"/>

<circle
cx="154.87348727897134"
cy="168.3879253272847"
r="0.8680339532636296"
fill="white"
opacity="0.7032102749083078"/>

<circle
cx="502.2755263761716"
cy="55.1164682437428"
r="0.3666166392305244"
fill="white"
opacity="0.7783279381726806"/>

<circle
cx="848.247550493501"
cy="47.13906267255139"
r="1.2922130523300421"
fill="white"
opacity="0.6095115177496968"/>

<circle
cx="305.1981328112884"
cy="95.53864447024094"
r="0.9122233624904015"
fill="white"
opacity="0.5496533896174269"/>

<circle
cx="921.6977563853477"
cy="46.51032904771999"
r="1.4650237224660778"
fill="white"
opacity="0.822794088294365"/>

<circle
cx="841.5423631124164"
cy="8.438209545176177"
r="1.2839511761975324"
fill="white"
opacity="0.7087118234474523"/>

<circle
cx="97.42826201803135"
cy="111.58002660975966"
r="1.4914719167193164"
fill="white"
opacity="0.2571127322191085"/>

<circle
cx="43.30622312967525"
cy="61.99298452239833"
r="0.5155095676866921"
fill="white"
opacity="0.833039916542959"/>

<circle
cx="643.117509466422"
cy="94.61661872060249"
r="1.4589026609849964"
fill="white"
opacity="0.6566591067835552"/>

<circle
cx="882.715673719043"
cy="115.2157160185725"
r="1.1363857858134094"
fill="white"
opacity="0.4603202231301131"/>

<circle
cx="857.4576728631234"
cy="16.24671115983226"
r="0.5052239043325115"
fill="white"
opacity="0.2518594011946844"/>

<circle
cx="712.9936694758305"
cy="141.69849211322042"
r="0.6635771184747554"
fill="white"
opacity="0.2944795159661519"/>

<circle
cx="193.97309165571892"
cy="158.87060372295647"
r="0.4373372177147759"
fill="white"
opacity="0.24482859018998993"/>

<circle
cx="888.5195646612767"
cy="33.43654392120117"
r="1.5793474819130853"
fill="white"
opacity="0.738070627255456"/>

<circle
cx="331.4974421526675"
cy="159.0037343287031"
r="0.5631719193270777"
fill="white"
opacity="0.8951466632346727"/>

<circle
cx="625.2426552161332"
cy="35.01171676702986"
r="1.5918788028815676"
fill="white"
opacity="0.5592972436872929"/>

<circle
cx="403.15384343174657"
cy="115.68903231816431"
r="1.0590302438037207"
fill="white"
opacity="0.4037184225710677"/>

<circle
cx="52.422610956451855"
cy="74.57920719850304"
r="1.2463347075041993"
fill="white"
opacity="0.44615645881070737"/>

<circle
cx="826.7259761715984"
cy="41.459631348283814"
r="1.0939098963424543"
fill="white"
opacity="0.31696257709958026"/>

<circle
cx="743.4000542581989"
cy="3.946833195009036"
r="1.6677749067103493"
fill="white"
opacity="0.9445735041890548"/>

<circle
cx="425.40135048116514"
cy="166.333233134024"
r="1.1808525764821942"
fill="white"
opacity="0.6474053217921739"/>

<circle
cx="767.9989271068549"
cy="123.93482639223102"
r="1.002840051252276"
fill="white"
opacity="0.2991967368972448"/>

<circle
cx="950.5887474244117"
cy="99.58057454153663"
r="0.5025784529244168"
fill="white"
opacity="0.586674963973822"/>

<circle
cx="829.4184052062981"
cy="128.42513842903762"
r="1.011944650045569"
fill="white"
opacity="0.5798121636994304"/>

<circle
cx="824.2090977145332"
cy="124.7293008885279"
r="1.3115585318327498"
fill="white"
opacity="0.3250597153793553"/>

<circle
cx="380.93008060011636"
cy="69.8792989210774"
r="1.5360050772234521"
fill="white"
opacity="0.2378695971430391"/>

<circle
cx="225.07940239317693"
cy="122.80138283531315"
r="0.4600418927264755"
fill="white"
opacity="0.801579412405464"/>

<circle
cx="927.9254534532671"
cy="147.12079751733646"
r="1.309953630590581"
fill="white"
opacity="0.9020020019512824"/>

<circle
cx="31.767801618530427"
cy="22.111100067629867"
r="1.0987411301837582"
fill="white"
opacity="0.5604124826500838"/>

<circle
cx="194.1869575234552"
cy="141.24191999053588"
r="0.4142600006102736"
fill="white"
opacity="0.31638420386684474"/>

<circle
cx="722.6230154058693"
cy="115.96686262813539"
r="1.5866265128846606"
fill="white"
opacity="0.4667752349091188"/>

<circle
cx="467.63075810414756"
cy="21.31691502517911"
r="0.7923272767600507"
fill="white"
opacity="0.5168807149802692"/>

<circle
cx="151.43125655454915"
cy="140.16576190482786"
r="0.3289741843305746"
fill="white"
opacity="0.717764225601951"/>

<circle
cx="378.64411472310746"
cy="75.61989713190319"
r="0.47917758615271705"
fill="white"
opacity="0.3187514763924666"/>

<circle
cx="363.21150228317606"
cy="104.03832938134394"
r="1.4353443232355003"
fill="white"
opacity="0.9062461550147027"/>

<circle
cx="182.3174535347421"
cy="9.955809695206357"
r="1.3235277366748985"
fill="white"
opacity="0.4278198213515747"/>

<circle
cx="242.9361014338053"
cy="40.002273685918176"
r="1.3172117167190311"
fill="white"
opacity="0.20124325839350288"/>

<circle
cx="636.6853204405113"
cy="108.29487871372237"
r="1.6513466904318157"
fill="white"
opacity="0.35228198879020045"/>

<circle
cx="127.62938116934596"
cy="163.18333801235576"
r="0.4267458950058917"
fill="white"
opacity="0.6357609133979298"/>

<circle
cx="326.58552924739456"
cy="19.061986557919358"
r="0.24644733075318298"
fill="white"
opacity="0.6653286516042135"/>

<circle
cx="627.2087899886143"
cy="88.30779943014961"
r="1.07997658218106"
fill="white"
opacity="0.25551490864254345"/>

<circle
cx="823.000046947211"
cy="139.94913851459714"
r="0.7926640187264806"
fill="white"
opacity="0.2957594545548135"/>

<circle
cx="400.16082647691843"
cy="100.10789414284483"
r="0.902806451310993"
fill="white"
opacity="0.38695505690661386"/>

<circle
cx="528.527973786533"
cy="81.3086999498332"
r="0.9000403716814718"
fill="white"
opacity="0.9675912834505329"/>

<circle
cx="600.7453922791798"
cy="90.9598905408543"
r="1.3658180234042654"
fill="white"
opacity="0.5874586301898127"/>

<circle
cx="798.4034992278547"
cy="82.7515532375605"
r="0.36577870584887767"
fill="white"
opacity="0.9653210244900687"/>

<circle
cx="753.9161494609773"
cy="144.5578174741623"
r="1.4099532250697109"
fill="white"
opacity="0.9699380766241334"/>

<circle
cx="688.5868413662932"
cy="12.406464341749917"
r="0.29913707954316565"
fill="white"
opacity="0.9957785593438595"/>

<circle
cx="182.58215248182472"
cy="42.746498414264515"
r="1.672890295127456"
fill="white"
opacity="0.22203872076089795"/>

<circle
cx="209.65760131009532"
cy="37.950744982390596"
r="1.1939400539803353"
fill="white"
opacity="0.8539342171034809"/>

<circle
cx="27.515612103097038"
cy="133.49988228496957"
r="0.33639334176376295"
fill="white"
opacity="0.267605761014719"/>

<circle
cx="474.09814645400115"
cy="139.38301744596436"
r="1.6021757719605934"
fill="white"
opacity="0.32338353212198734"/>

<circle
cx="882.5608680072768"
cy="43.37458133693321"
r="0.5395420167358598"
fill="white"
opacity="0.4276197614387027"/>

<circle
cx="2.5910767278965183"
cy="56.35657111349241"
r="0.6955960522422084"
fill="white"
opacity="0.9110766300026685"/>

<circle
cx="381.17618767269056"
cy="65.30298556617923"
r="0.9944305268323641"
fill="white"
opacity="0.2568848577486604"/>

<circle
cx="244.9677832972335"
cy="58.214830621432235"
r="0.5210345239504068"
fill="white"
opacity="0.23528655979076785"/>

<circle
cx="315.1045708955964"
cy="76.65992268756318"
r="1.0883513300580954"
fill="white"
opacity="0.723028208637108"/>

<circle
cx="448.3099560789873"
cy="53.21721156627035"
r="0.9123995993667455"
fill="white"
opacity="0.8598454453740192"/>

<circle
cx="553.4318218693766"
cy="121.4688104282949"
r="0.7964857851250391"
fill="white"
opacity="0.9913501862318288"/>

<circle
cx="172.53178287810815"
cy="142.9596619216921"
r="0.44944362540119037"
fill="white"
opacity="0.8674342302779319"/>

<circle
cx="735.6634525008816"
cy="44.05703503553521"
r="1.4350532420572568"
fill="white"
opacity="0.9849488658302608"/>

<circle
cx="751.378718335815"
cy="53.11208416210803"
r="0.30907427081770494"
fill="white"
opacity="0.31529249178315927"/>

<circle
cx="771.6662779799905"
cy="107.65569934048882"
r="0.24925329573570792"
fill="white"
opacity="0.23246971409414885"/>

<circle
cx="164.35702880961705"
cy="141.15435132741896"
r="1.5359067622113154"
fill="white"
opacity="0.24189932170415052"/>

<circle
cx="573.3046955805585"
cy="158.64352492043855"
r="0.2258898314542554"
fill="white"
opacity="0.6029312569016549"/>

<circle
cx="170.37533877230376"
cy="68.24884588199113"
r="0.789215012864072"
fill="white"
opacity="0.5314147389964031"/>

<circle
cx="108.24267422184582"
cy="19.15469337643632"
r="1.5029847505412561"
fill="white"
opacity="0.44681277781667145"/>

<rect
x="25"
y="25"
width="12"
height="12"
rx="2"
fill="#0e4429"/>

<rect
x="25"
y="42"
width="12"
height="12"
rx="2"
fill="#0e4429"/>

<rect
x="25"
y="59"
width="12"
height="12"
rx="2"
fill="#0e4429"/>

<rect
x="25"
y="76"
width="12"
height="12"
rx="2"
fill="#0e4429"/>

<rect
x="25"
y="93"
width="12"
height="12"
rx="2"
fill="#0e4429"/>

<rect
x="25"
y="110"
width="12"
height="12"
rx="2"
fill="#0e4429"/>

<rect
x="25"
y="127"
width="12"
height="12"
rx="2"
fill="#0e4429"/>

<rect
x="42"
y="25"
width="12"
height="12"
rx="2"
fill="#0e4429"/>

<rect
x="42"
y="42"
width="12"
height="12"
rx="2"
fill="#0e4429"/>

<rect
x="42"
y="59"
width="12"
height="12"
rx="2"
fill="#0e4429"/>

<rect
x="42"
y="76"
width="12"
height="12"
rx="2"
fill="#0e4429"/>

<rect
x="42"
y="93"
width="12"
height="12"
rx="2"
fill="#0e4429"/>

<rect
x="42"
y="110"
width="12"
height="12"
rx="2"
fill="#0e4429"/>

<rect
x="42"
y="127"
width="12"
height="12"
rx="2"
fill="#0e4429"/>

<rect
x="59"
y="25"
width="12"
height="12"
rx="2"
fill="#0e4429"/>

<rect
x="59"
y="42"
width="12"
height="12"
rx="2"
fill="#0e4429"/>

<rect
x="59"
y="59"
width="12"
height="12"
rx="2"
fill="#0e4429"/>

<rect
x="59"
y="76"
width="12"
height="12"
rx="2"
fill="#0e4429"/>

<rect
x="59"
y="93"
width="12"
height="12"
rx="2"
fill="#0e4429"/>

<rect
x="59"
y="110"
width="12"
height="12"
rx="2"
fill="#0e4429"/>

<rect
x="59"
y="127"
width="12"
height="12"
rx="2"
fill="#0e4429"/>

<rect
x="76"
y="25"
width="12"
height="12"
rx="2"
fill="#0e4429"/>

<rect
x="76"
y="42"
width="12"
height="12"
rx="2"
fill="#0e4429"/>

<rect
x="76"
y="59"
width="12"
height="12"
rx="2"
fill="#0e4429"/>

<rect
x="76"
y="76"
width="12"
height="12"
rx="2"
fill="#0e4429"/>

<rect
x="76"
y="93"
width="12"
height="12"
rx="2"
fill="#0e4429"/>

<rect
x="76"
y="110"
width="12"
height="12"
rx="2"
fill="#0e4429"/>

<rect
x="76"
y="127"
width="12"
height="12"
rx="2"
fill="#0e4429"/>

<rect
x="93"
y="25"
width="12"
height="12"
rx="2"
fill="#0e4429"/>

<rect
x="93"
y="42"
width="12"
height="12"
rx="2"
fill="#0e4429"/>

<rect
x="93"
y="59"
width="12"
height="12"
rx="2"
fill="#0e4429"/>

<rect
x="93"
y="76"
width="12"
height="12"
rx="2"
fill="#0e4429"/>

<rect
x="93"
y="93"
width="12"
height="12"
rx="2"
fill="#0e4429"/>

<rect
x="93"
y="110"
width="12"
height="12"
rx="2"
fill="#0e4429"/>

<rect
x="93"
y="127"
width="12"
height="12"
rx="2"
fill="#0e4429"/>

<rect
x="110"
y="25"
width="12"
height="12"
rx="2"
fill="#0e4429"/>

<rect
x="110"
y="42"
width="12"
height="12"
rx="2"
fill="#0e4429"/>

<rect
x="110"
y="59"
width="12"
height="12"
rx="2"
fill="#0e4429"/>

<rect
x="110"
y="76"
width="12"
height="12"
rx="2"
fill="#0e4429"/>

<rect
x="110"
y="93"
width="12"
height="12"
rx="2"
fill="#0e4429"/>

<rect
x="110"
y="110"
width="12"
height="12"
rx="2"
fill="#0e4429"/>

<rect
x="110"
y="127"
width="12"
height="12"
rx="2"
fill="#0e4429"/>

<rect
x="127"
y="25"
width="12"
height="12"
rx="2"
fill="#0e4429"/>

<rect
x="127"
y="42"
width="12"
height="12"
rx="2"
fill="#0e4429"/>

<rect
x="127"
y="59"
width="12"
height="12"
rx="2"
fill="#0e4429"/>

<rect
x="127"
y="76"
width="12"
height="12"
rx="2"
fill="#0e4429"/>

<rect
x="127"
y="93"
width="12"
height="12"
rx="2"
fill="#0e4429"/>

<rect
x="127"
y="110"
width="12"
height="12"
rx="2"
fill="#0e4429"/>

<rect
x="127"
y="127"
width="12"
height="12"
rx="2"
fill="#0e4429"/>

<rect
x="144"
y="25"
width="12"
height="12"
rx="2"
fill="#0e4429"/>

<rect
x="144"
y="42"
width="12"
height="12"
rx="2"
fill="#0e4429"/>

<rect
x="144"
y="59"
width="12"
height="12"
rx="2"
fill="#0e4429"/>

<rect
x="144"
y="76"
width="12"
height="12"
rx="2"
fill="#0e4429"/>

<rect
x="144"
y="93"
width="12"
height="12"
rx="2"
fill="#0e4429"/>

<rect
x="144"
y="110"
width="12"
height="12"
rx="2"
fill="#0e4429"/>

<rect
x="144"
y="127"
width="12"
height="12"
rx="2"
fill="#0e4429"/>

<rect
x="161"
y="25"
width="12"
height="12"
rx="2"
fill="#0e4429"/>

<rect
x="161"
y="42"
width="12"
height="12"
rx="2"
fill="#0e4429"/>

<rect
x="161"
y="59"
width="12"
height="12"
rx="2"
fill="#0e4429"/>

<rect
x="161"
y="76"
width="12"
height="12"
rx="2"
fill="#0e4429"/>

<rect
x="161"
y="93"
width="12"
height="12"
rx="2"
fill="#0e4429"/>

<rect
x="161"
y="110"
width="12"
height="12"
rx="2"
fill="#0e4429"/>

<rect
x="161"
y="127"
width="12"
height="12"
rx="2"
fill="#0e4429"/>

<rect
x="178"
y="25"
width="12"
height="12"
rx="2"
fill="#0e4429"/>

<rect
x="178"
y="42"
width="12"
height="12"
rx="2"
fill="#0e4429"/>

<rect
x="178"
y="59"
width="12"
height="12"
rx="2"
fill="#0e4429"/>

<rect
x="178"
y="76"
width="12"
height="12"
rx="2"
fill="#0e4429"/>

<rect
x="178"
y="93"
width="12"
height="12"
rx="2"
fill="#0e4429"/>

<rect
x="178"
y="110"
width="12"
height="12"
rx="2"
fill="#0e4429"/>

<rect
x="178"
y="127"
width="12"
height="12"
rx="2"
fill="#0e4429"/>

<rect
x="195"
y="25"
width="12"
height="12"
rx="2"
fill="#0e4429"/>

<rect
x="195"
y="42"
width="12"
height="12"
rx="2"
fill="#0e4429"/>

<rect
x="195"
y="59"
width="12"
height="12"
rx="2"
fill="#0e4429"/>

<rect
x="195"
y="76"
width="12"
height="12"
rx="2"
fill="#0e4429"/>

<rect
x="195"
y="93"
width="12"
height="12"
rx="2"
fill="#0e4429"/>

<rect
x="195"
y="110"
width="12"
height="12"
rx="2"
fill="#0e4429"/>

<rect
x="195"
y="127"
width="12"
height="12"
rx="2"
fill="#0e4429"/>

<rect
x="212"
y="25"
width="12"
height="12"
rx="2"
fill="#0e4429"/>

<rect
x="212"
y="42"
width="12"
height="12"
rx="2"
fill="#0e4429"/>

<rect
x="212"
y="59"
width="12"
height="12"
rx="2"
fill="#0e4429"/>

<rect
x="212"
y="76"
width="12"
height="12"
rx="2"
fill="#0e4429"/>

<rect
x="212"
y="93"
width="12"
height="12"
rx="2"
fill="#0e4429"/>

<rect
x="212"
y="110"
width="12"
height="12"
rx="2"
fill="#0e4429"/>

<rect
x="212"
y="127"
width="12"
height="12"
rx="2"
fill="#0e4429"/>

<rect
x="229"
y="25"
width="12"
height="12"
rx="2"
fill="#0e4429"/>

<rect
x="229"
y="42"
width="12"
height="12"
rx="2"
fill="#0e4429"/>

<rect
x="229"
y="59"
width="12"
height="12"
rx="2"
fill="#0e4429"/>

<rect
x="229"
y="76"
width="12"
height="12"
rx="2"
fill="#0e4429"/>

<rect
x="229"
y="93"
width="12"
height="12"
rx="2"
fill="#0e4429"/>

<rect
x="229"
y="110"
width="12"
height="12"
rx="2"
fill="#0e4429"/>

<rect
x="229"
y="127"
width="12"
height="12"
rx="2"
fill="#0e4429"/>

<rect
x="246"
y="25"
width="12"
height="12"
rx="2"
fill="#0e4429"/>

<rect
x="246"
y="42"
width="12"
height="12"
rx="2"
fill="#0e4429"/>

<rect
x="246"
y="59"
width="12"
height="12"
rx="2"
fill="#0e4429"/>

<rect
x="246"
y="76"
width="12"
height="12"
rx="2"
fill="#0e4429"/>

<rect
x="246"
y="93"
width="12"
height="12"
rx="2"
fill="#0e4429"/>

<rect
x="246"
y="110"
width="12"
height="12"
rx="2"
fill="#0e4429"/>

<rect
x="246"
y="127"
width="12"
height="12"
rx="2"
fill="#0e4429"/>

<rect
x="263"
y="25"
width="12"
height="12"
rx="2"
fill="#0e4429"/>

<rect
x="263"
y="42"
width="12"
height="12"
rx="2"
fill="#0e4429"/>

<rect
x="263"
y="59"
width="12"
height="12"
rx="2"
fill="#0e4429"/>

<rect
x="263"
y="76"
width="12"
height="12"
rx="2"
fill="#0e4429"/>

<rect
x="263"
y="93"
width="12"
height="12"
rx="2"
fill="#0e4429"/>

<rect
x="263"
y="110"
width="12"
height="12"
rx="2"
fill="#0e4429"/>

<rect
x="263"
y="127"
width="12"
height="12"
rx="2"
fill="#0e4429"/>

<rect
x="280"
y="25"
width="12"
height="12"
rx="2"
fill="#0e4429"/>

<rect
x="280"
y="42"
width="12"
height="12"
rx="2"
fill="#0e4429"/>

<rect
x="280"
y="59"
width="12"
height="12"
rx="2"
fill="#0e4429"/>

<rect
x="280"
y="76"
width="12"
height="12"
rx="2"
fill="#0e4429"/>

<rect
x="280"
y="93"
width="12"
height="12"
rx="2"
fill="#0e4429"/>

<rect
x="280"
y="110"
width="12"
height="12"
rx="2"
fill="#0e4429"/>

<rect
x="280"
y="127"
width="12"
height="12"
rx="2"
fill="#0e4429"/>

<rect
x="297"
y="25"
width="12"
height="12"
rx="2"
fill="#0e4429"/>

<rect
x="297"
y="42"
width="12"
height="12"
rx="2"
fill="#0e4429"/>

<rect
x="297"
y="59"
width="12"
height="12"
rx="2"
fill="#0e4429"/>

<rect
x="297"
y="76"
width="12"
height="12"
rx="2"
fill="#0e4429"/>

<rect
x="297"
y="93"
width="12"
height="12"
rx="2"
fill="#0e4429"/>

<rect
x="297"
y="110"
width="12"
height="12"
rx="2"
fill="#0e4429"/>

<rect
x="297"
y="127"
width="12"
height="12"
rx="2"
fill="#0e4429"/>

<rect
x="314"
y="25"
width="12"
height="12"
rx="2"
fill="#0e4429"/>

<rect
x="314"
y="42"
width="12"
height="12"
rx="2"
fill="#0e4429"/>

<rect
x="314"
y="59"
width="12"
height="12"
rx="2"
fill="#0e4429"/>

<rect
x="314"
y="76"
width="12"
height="12"
rx="2"
fill="#0e4429"/>

<rect
x="314"
y="93"
width="12"
height="12"
rx="2"
fill="#0e4429"/>

<rect
x="314"
y="110"
width="12"
height="12"
rx="2"
fill="#0e4429"/>

<rect
x="314"
y="127"
width="12"
height="12"
rx="2"
fill="#0e4429"/>

<rect
x="331"
y="25"
width="12"
height="12"
rx="2"
fill="#0e4429"/>

<rect
x="331"
y="42"
width="12"
height="12"
rx="2"
fill="#0e4429"/>

<rect
x="331"
y="59"
width="12"
height="12"
rx="2"
fill="#0e4429"/>

<rect
x="331"
y="76"
width="12"
height="12"
rx="2"
fill="#0e4429"/>

<rect
x="331"
y="93"
width="12"
height="12"
rx="2"
fill="#0e4429"/>

<rect
x="331"
y="110"
width="12"
height="12"
rx="2"
fill="#0e4429"/>

<rect
x="331"
y="127"
width="12"
height="12"
rx="2"
fill="#0e4429"/>

<rect
x="348"
y="25"
width="12"
height="12"
rx="2"
fill="#0e4429"/>

<rect
x="348"
y="42"
width="12"
height="12"
rx="2"
fill="#0e4429"/>

<rect
x="348"
y="59"
width="12"
height="12"
rx="2"
fill="#0e4429"/>

<rect
x="348"
y="76"
width="12"
height="12"
rx="2"
fill="#0e4429"/>

<rect
x="348"
y="93"
width="12"
height="12"
rx="2"
fill="#0e4429"/>

<rect
x="348"
y="110"
width="12"
height="12"
rx="2"
fill="#0e4429"/>

<rect
x="348"
y="127"
width="12"
height="12"
rx="2"
fill="#0e4429"/>

<rect
x="365"
y="25"
width="12"
height="12"
rx="2"
fill="#0e4429"/>

<rect
x="365"
y="42"
width="12"
height="12"
rx="2"
fill="#0e4429"/>

<rect
x="365"
y="59"
width="12"
height="12"
rx="2"
fill="#0e4429"/>

<rect
x="365"
y="76"
width="12"
height="12"
rx="2"
fill="#0e4429"/>

<rect
x="365"
y="93"
width="12"
height="12"
rx="2"
fill="#0e4429"/>

<rect
x="365"
y="110"
width="12"
height="12"
rx="2"
fill="#0e4429"/>

<rect
x="365"
y="127"
width="12"
height="12"
rx="2"
fill="#0e4429"/>

<rect
x="382"
y="25"
width="12"
height="12"
rx="2"
fill="#0e4429"/>

<rect
x="382"
y="42"
width="12"
height="12"
rx="2"
fill="#0e4429"/>

<rect
x="382"
y="59"
width="12"
height="12"
rx="2"
fill="#0e4429"/>

<rect
x="382"
y="76"
width="12"
height="12"
rx="2"
fill="#0e4429"/>

<rect
x="382"
y="93"
width="12"
height="12"
rx="2"
fill="#0e4429"/>

<rect
x="382"
y="110"
width="12"
height="12"
rx="2"
fill="#0e4429"/>

<rect
x="382"
y="127"
width="12"
height="12"
rx="2"
fill="#0e4429"/>

<rect
x="399"
y="25"
width="12"
height="12"
rx="2"
fill="#0e4429"/>

<rect
x="399"
y="42"
width="12"
height="12"
rx="2"
fill="#0e4429"/>

<rect
x="399"
y="59"
width="12"
height="12"
rx="2"
fill="#0e4429"/>

<rect
x="399"
y="76"
width="12"
height="12"
rx="2"
fill="#0e4429"/>

<rect
x="399"
y="93"
width="12"
height="12"
rx="2"
fill="#0e4429"/>

<rect
x="399"
y="110"
width="12"
height="12"
rx="2"
fill="#0e4429"/>

<rect
x="399"
y="127"
width="12"
height="12"
rx="2"
fill="#0e4429"/>

<rect
x="416"
y="25"
width="12"
height="12"
rx="2"
fill="#0e4429"/>

<rect
x="416"
y="42"
width="12"
height="12"
rx="2"
fill="#0e4429"/>

<rect
x="416"
y="59"
width="12"
height="12"
rx="2"
fill="#0e4429"/>

<rect
x="416"
y="76"
width="12"
height="12"
rx="2"
fill="#0e4429"/>

<rect
x="416"
y="93"
width="12"
height="12"
rx="2"
fill="#0e4429"/>

<rect
x="416"
y="110"
width="12"
height="12"
rx="2"
fill="#0e4429"/>

<rect
x="416"
y="127"
width="12"
height="12"
rx="2"
fill="#0e4429"/>

<rect
x="433"
y="25"
width="12"
height="12"
rx="2"
fill="#0e4429"/>

<rect
x="433"
y="42"
width="12"
height="12"
rx="2"
fill="#0e4429"/>

<rect
x="433"
y="59"
width="12"
height="12"
rx="2"
fill="#0e4429"/>

<rect
x="433"
y="76"
width="12"
height="12"
rx="2"
fill="#0e4429"/>

<rect
x="433"
y="93"
width="12"
height="12"
rx="2"
fill="#0e4429"/>

<rect
x="433"
y="110"
width="12"
height="12"
rx="2"
fill="#0e4429"/>

<rect
x="433"
y="127"
width="12"
height="12"
rx="2"
fill="#0e4429"/>

<rect
x="450"
y="25"
width="12"
height="12"
rx="2"
fill="#0e4429"/>

<rect
x="450"
y="42"
width="12"
height="12"
rx="2"
fill="#0e4429"/>

<rect
x="450"
y="59"
width="12"
height="12"
rx="2"
fill="#0e4429"/>

<rect
x="450"
y="76"
width="12"
height="12"
rx="2"
fill="#0e4429"/>

<rect
x="450"
y="93"
width="12"
height="12"
rx="2"
fill="#0e4429"/>

<rect
x="450"
y="110"
width="12"
height="12"
rx="2"
fill="#0e4429"/>

<rect
x="450"
y="127"
width="12"
height="12"
rx="2"
fill="#0e4429"/>

<rect
x="467"
y="25"
width="12"
height="12"
rx="2"
fill="#0e4429"/>

<rect
x="467"
y="42"
width="12"
height="12"
rx="2"
fill="#0e4429"/>

<rect
x="467"
y="59"
width="12"
height="12"
rx="2"
fill="#0e4429"/>

<rect
x="467"
y="76"
width="12"
height="12"
rx="2"
fill="#0e4429"/>

<rect
x="467"
y="93"
width="12"
height="12"
rx="2"
fill="#0e4429"/>

<rect
x="467"
y="110"
width="12"
height="12"
rx="2"
fill="#0e4429"/>

<rect
x="467"
y="127"
width="12"
height="12"
rx="2"
fill="#0e4429"/>

<rect
x="484"
y="25"
width="12"
height="12"
rx="2"
fill="#0e4429"/>

<rect
x="484"
y="42"
width="12"
height="12"
rx="2"
fill="#0e4429"/>

<rect
x="484"
y="59"
width="12"
height="12"
rx="2"
fill="#0e4429"/>

<rect
x="484"
y="76"
width="12"
height="12"
rx="2"
fill="#0e4429"/>

<rect
x="484"
y="93"
width="12"
height="12"
rx="2"
fill="#0e4429"/>

<rect
x="484"
y="110"
width="12"
height="12"
rx="2"
fill="#0e4429"/>

<rect
x="484"
y="127"
width="12"
height="12"
rx="2"
fill="#0e4429"/>

<rect
x="501"
y="25"
width="12"
height="12"
rx="2"
fill="#0e4429"/>

<rect
x="501"
y="42"
width="12"
height="12"
rx="2"
fill="#0e4429"/>

<rect
x="501"
y="59"
width="12"
height="12"
rx="2"
fill="#0e4429"/>

<rect
x="501"
y="76"
width="12"
height="12"
rx="2"
fill="#0e4429"/>

<rect
x="501"
y="93"
width="12"
height="12"
rx="2"
fill="#0e4429"/>

<rect
x="501"
y="110"
width="12"
height="12"
rx="2"
fill="#0e4429"/>

<rect
x="501"
y="127"
width="12"
height="12"
rx="2"
fill="#0e4429"/>

<rect
x="518"
y="25"
width="12"
height="12"
rx="2"
fill="#0e4429"/>

<rect
x="518"
y="42"
width="12"
height="12"
rx="2"
fill="#0e4429"/>

<rect
x="518"
y="59"
width="12"
height="12"
rx="2"
fill="#0e4429"/>

<rect
x="518"
y="76"
width="12"
height="12"
rx="2"
fill="#0e4429"/>

<rect
x="518"
y="93"
width="12"
height="12"
rx="2"
fill="#0e4429"/>

<rect
x="518"
y="110"
width="12"
height="12"
rx="2"
fill="#0e4429"/>

<rect
x="518"
y="127"
width="12"
height="12"
rx="2"
fill="#0e4429"/>

<rect
x="535"
y="25"
width="12"
height="12"
rx="2"
fill="#0e4429"/>

<rect
x="535"
y="42"
width="12"
height="12"
rx="2"
fill="#0e4429"/>

<rect
x="535"
y="59"
width="12"
height="12"
rx="2"
fill="#0e4429"/>

<rect
x="535"
y="76"
width="12"
height="12"
rx="2"
fill="#0e4429"/>

<rect
x="535"
y="93"
width="12"
height="12"
rx="2"
fill="#0e4429"/>

<rect
x="535"
y="110"
width="12"
height="12"
rx="2"
fill="#0e4429"/>

<rect
x="535"
y="127"
width="12"
height="12"
rx="2"
fill="#0e4429"/>

<rect
x="552"
y="25"
width="12"
height="12"
rx="2"
fill="#0e4429"/>

<rect
x="552"
y="42"
width="12"
height="12"
rx="2"
fill="#0e4429"/>

<rect
x="552"
y="59"
width="12"
height="12"
rx="2"
fill="#0e4429"/>

<rect
x="552"
y="76"
width="12"
height="12"
rx="2"
fill="#0e4429"/>

<rect
x="552"
y="93"
width="12"
height="12"
rx="2"
fill="#0e4429"/>

<rect
x="552"
y="110"
width="12"
height="12"
rx="2"
fill="#0e4429"/>

<rect
x="552"
y="127"
width="12"
height="12"
rx="2"
fill="#0e4429"/>

<rect
x="569"
y="25"
width="12"
height="12"
rx="2"
fill="#0e4429"/>

<rect
x="569"
y="42"
width="12"
height="12"
rx="2"
fill="#0e4429"/>

<rect
x="569"
y="59"
width="12"
height="12"
rx="2"
fill="#0e4429"/>

<rect
x="569"
y="76"
width="12"
height="12"
rx="2"
fill="#0e4429"/>

<rect
x="569"
y="93"
width="12"
height="12"
rx="2"
fill="#0e4429"/>

<rect
x="569"
y="110"
width="12"
height="12"
rx="2"
fill="#0e4429"/>

<rect
x="569"
y="127"
width="12"
height="12"
rx="2"
fill="#0e4429"/>

<rect
x="586"
y="25"
width="12"
height="12"
rx="2"
fill="#0e4429"/>

<rect
x="586"
y="42"
width="12"
height="12"
rx="2"
fill="#0e4429"/>

<rect
x="586"
y="59"
width="12"
height="12"
rx="2"
fill="#0e4429"/>

<rect
x="586"
y="76"
width="12"
height="12"
rx="2"
fill="#0e4429"/>

<rect
x="586"
y="93"
width="12"
height="12"
rx="2"
fill="#0e4429"/>

<rect
x="586"
y="110"
width="12"
height="12"
rx="2"
fill="#0e4429"/>

<rect
x="586"
y="127"
width="12"
height="12"
rx="2"
fill="#0e4429"/>

<rect
x="603"
y="25"
width="12"
height="12"
rx="2"
fill="#0e4429"/>

<rect
x="603"
y="42"
width="12"
height="12"
rx="2"
fill="#0e4429"/>

<rect
x="603"
y="59"
width="12"
height="12"
rx="2"
fill="#0e4429"/>

<rect
x="603"
y="76"
width="12"
height="12"
rx="2"
fill="#0e4429"/>

<rect
x="603"
y="93"
width="12"
height="12"
rx="2"
fill="#0e4429"/>

<rect
x="603"
y="110"
width="12"
height="12"
rx="2"
fill="#0e4429"/>

<rect
x="603"
y="127"
width="12"
height="12"
rx="2"
fill="#0e4429"/>

<rect
x="620"
y="25"
width="12"
height="12"
rx="2"
fill="#0e4429"/>

<rect
x="620"
y="42"
width="12"
height="12"
rx="2"
fill="#0e4429"/>

<rect
x="620"
y="59"
width="12"
height="12"
rx="2"
fill="#0e4429"/>

<rect
x="620"
y="76"
width="12"
height="12"
rx="2"
fill="#0e4429"/>

<rect
x="620"
y="93"
width="12"
height="12"
rx="2"
fill="#0e4429"/>

<rect
x="620"
y="110"
width="12"
height="12"
rx="2"
fill="#0e4429"/>

<rect
x="620"
y="127"
width="12"
height="12"
rx="2"
fill="#0e4429"/>

<rect
x="637"
y="25"
width="12"
height="12"
rx="2"
fill="#0e4429"/>

<rect
x="637"
y="42"
width="12"
height="12"
rx="2"
fill="#0e4429"/>

<rect
x="637"
y="59"
width="12"
height="12"
rx="2"
fill="#0e4429"/>

<rect
x="637"
y="76"
width="12"
height="12"
rx="2"
fill="#0e4429"/>

<rect
x="637"
y="93"
width="12"
height="12"
rx="2"
fill="#0e4429"/>

<rect
x="637"
y="110"
width="12"
height="12"
rx="2"
fill="#0e4429"/>

<rect
x="637"
y="127"
width="12"
height="12"
rx="2"
fill="#0e4429"/>

<rect
x="654"
y="25"
width="12"
height="12"
rx="2"
fill="#0e4429"/>

<rect
x="654"
y="42"
width="12"
height="12"
rx="2"
fill="#0e4429"/>

<rect
x="654"
y="59"
width="12"
height="12"
rx="2"
fill="#0e4429"/>

<rect
x="654"
y="76"
width="12"
height="12"
rx="2"
fill="#0e4429"/>

<rect
x="654"
y="93"
width="12"
height="12"
rx="2"
fill="#0e4429"/>

<rect
x="654"
y="110"
width="12"
height="12"
rx="2"
fill="#0e4429"/>

<rect
x="654"
y="127"
width="12"
height="12"
rx="2"
fill="#0e4429"/>

<rect
x="671"
y="25"
width="12"
height="12"
rx="2"
fill="#0e4429"/>

<rect
x="671"
y="42"
width="12"
height="12"
rx="2"
fill="#0e4429"/>

<rect
x="671"
y="59"
width="12"
height="12"
rx="2"
fill="#0e4429"/>

<rect
x="671"
y="76"
width="12"
height="12"
rx="2"
fill="#0e4429"/>

<rect
x="671"
y="93"
width="12"
height="12"
rx="2"
fill="#0e4429"/>

<rect
x="671"
y="110"
width="12"
height="12"
rx="2"
fill="#0e4429"/>

<rect
x="671"
y="127"
width="12"
height="12"
rx="2"
fill="#0e4429"/>

<rect
x="688"
y="25"
width="12"
height="12"
rx="2"
fill="#0e4429"/>

<rect
x="688"
y="42"
width="12"
height="12"
rx="2"
fill="#0e4429"/>

<rect
x="688"
y="59"
width="12"
height="12"
rx="2"
fill="#0e4429"/>

<rect
x="688"
y="76"
width="12"
height="12"
rx="2"
fill="#0e4429"/>

<rect
x="688"
y="93"
width="12"
height="12"
rx="2"
fill="#0e4429"/>

<rect
x="688"
y="110"
width="12"
height="12"
rx="2"
fill="#0e4429"/>

<rect
x="688"
y="127"
width="12"
height="12"
rx="2"
fill="#0e4429"/>

<rect
x="705"
y="25"
width="12"
height="12"
rx="2"
fill="#0e4429"/>

<rect
x="705"
y="42"
width="12"
height="12"
rx="2"
fill="#0e4429"/>

<rect
x="705"
y="59"
width="12"
height="12"
rx="2"
fill="#0e4429"/>

<rect
x="705"
y="76"
width="12"
height="12"
rx="2"
fill="#0e4429"/>

<rect
x="705"
y="93"
width="12"
height="12"
rx="2"
fill="#0e4429"/>

<rect
x="705"
y="110"
width="12"
height="12"
rx="2"
fill="#0e4429"/>

<rect
x="705"
y="127"
width="12"
height="12"
rx="2"
fill="#0e4429"/>

<rect
x="722"
y="25"
width="12"
height="12"
rx="2"
fill="#0e4429"/>

<rect
x="722"
y="42"
width="12"
height="12"
rx="2"
fill="#0e4429"/>

<rect
x="722"
y="59"
width="12"
height="12"
rx="2"
fill="#0e4429"/>

<rect
x="722"
y="76"
width="12"
height="12"
rx="2"
fill="#0e4429"/>

<rect
x="722"
y="93"
width="12"
height="12"
rx="2"
fill="#0e4429"/>

<rect
x="722"
y="110"
width="12"
height="12"
rx="2"
fill="#0e4429"/>

<rect
x="722"
y="127"
width="12"
height="12"
rx="2"
fill="#0e4429"/>

<rect
x="739"
y="25"
width="12"
height="12"
rx="2"
fill="#0e4429"/>

<rect
x="739"
y="42"
width="12"
height="12"
rx="2"
fill="#0e4429"/>

<rect
x="739"
y="59"
width="12"
height="12"
rx="2"
fill="#0e4429"/>

<rect
x="739"
y="76"
width="12"
height="12"
rx="2"
fill="#0e4429"/>

<rect
x="739"
y="93"
width="12"
height="12"
rx="2"
fill="#0e4429"/>

<rect
x="739"
y="110"
width="12"
height="12"
rx="2"
fill="#0e4429"/>

<rect
x="739"
y="127"
width="12"
height="12"
rx="2"
fill="#0e4429"/>

<rect
x="756"
y="25"
width="12"
height="12"
rx="2"
fill="#0e4429"/>

<rect
x="756"
y="42"
width="12"
height="12"
rx="2"
fill="#0e4429"/>

<rect
x="756"
y="59"
width="12"
height="12"
rx="2"
fill="#0e4429"/>

<rect
x="756"
y="76"
width="12"
height="12"
rx="2"
fill="#0e4429"/>

<rect
x="756"
y="93"
width="12"
height="12"
rx="2"
fill="#0e4429"/>

<rect
x="756"
y="110"
width="12"
height="12"
rx="2"
fill="#0e4429"/>

<rect
x="756"
y="127"
width="12"
height="12"
rx="2"
fill="#0e4429"/>

<rect
x="773"
y="25"
width="12"
height="12"
rx="2"
fill="#0e4429"/>

<rect
x="773"
y="42"
width="12"
height="12"
rx="2"
fill="#0e4429"/>

<rect
x="773"
y="59"
width="12"
height="12"
rx="2"
fill="#0e4429"/>

<rect
x="773"
y="76"
width="12"
height="12"
rx="2"
fill="#0e4429"/>

<rect
x="773"
y="93"
width="12"
height="12"
rx="2"
fill="#0e4429"/>

<rect
x="773"
y="110"
width="12"
height="12"
rx="2"
fill="#0e4429"/>

<rect
x="773"
y="127"
width="12"
height="12"
rx="2"
fill="#0e4429"/>

<rect
x="790"
y="25"
width="12"
height="12"
rx="2"
fill="#0e4429"/>

<rect
x="790"
y="42"
width="12"
height="12"
rx="2"
fill="#0e4429"/>

<rect
x="790"
y="59"
width="12"
height="12"
rx="2"
fill="#0e4429"/>

<rect
x="790"
y="76"
width="12"
height="12"
rx="2"
fill="#0e4429"/>

<rect
x="790"
y="93"
width="12"
height="12"
rx="2"
fill="#0e4429"/>

<rect
x="790"
y="110"
width="12"
height="12"
rx="2"
fill="#0e4429"/>

<rect
x="790"
y="127"
width="12"
height="12"
rx="2"
fill="#0e4429"/>

<rect
x="807"
y="25"
width="12"
height="12"
rx="2"
fill="#0e4429"/>

<rect
x="807"
y="42"
width="12"
height="12"
rx="2"
fill="#0e4429"/>

<rect
x="807"
y="59"
width="12"
height="12"
rx="2"
fill="#0e4429"/>

<rect
x="807"
y="76"
width="12"
height="12"
rx="2"
fill="#0e4429"/>

<rect
x="807"
y="93"
width="12"
height="12"
rx="2"
fill="#0e4429"/>

<rect
x="807"
y="110"
width="12"
height="12"
rx="2"
fill="#0e4429"/>

<rect
x="807"
y="127"
width="12"
height="12"
rx="2"
fill="#0e4429"/>

<rect
x="824"
y="25"
width="12"
height="12"
rx="2"
fill="#0e4429"/>

<rect
x="824"
y="42"
width="12"
height="12"
rx="2"
fill="#0e4429"/>

<rect
x="824"
y="59"
width="12"
height="12"
rx="2"
fill="#0e4429"/>

<rect
x="824"
y="76"
width="12"
height="12"
rx="2"
fill="#0e4429"/>

<rect
x="824"
y="93"
width="12"
height="12"
rx="2"
fill="#0e4429"/>

<rect
x="824"
y="110"
width="12"
height="12"
rx="2"
fill="#0e4429"/>

<rect
x="824"
y="127"
width="12"
height="12"
rx="2"
fill="#0e4429"/>

<rect
x="841"
y="25"
width="12"
height="12"
rx="2"
fill="#0e4429"/>

<rect
x="841"
y="42"
width="12"
height="12"
rx="2"
fill="#0e4429"/>

<rect
x="841"
y="59"
width="12"
height="12"
rx="2"
fill="#0e4429"/>

<rect
x="841"
y="76"
width="12"
height="12"
rx="2"
fill="#0e4429"/>

<rect
x="841"
y="93"
width="12"
height="12"
rx="2"
fill="#0e4429"/>

<rect
x="841"
y="110"
width="12"
height="12"
rx="2"
fill="#0e4429"/>

<rect
x="841"
y="127"
width="12"
height="12"
rx="2"
fill="#0e4429"/>

<rect
x="858"
y="25"
width="12"
height="12"
rx="2"
fill="#0e4429"/>

<rect
x="858"
y="42"
width="12"
height="12"
rx="2"
fill="#0e4429"/>

<rect
x="858"
y="59"
width="12"
height="12"
rx="2"
fill="#0e4429"/>

<rect
x="858"
y="76"
width="12"
height="12"
rx="2"
fill="#0e4429"/>

<rect
x="858"
y="93"
width="12"
height="12"
rx="2"
fill="#0e4429"/>

<rect
x="858"
y="110"
width="12"
height="12"
rx="2"
fill="#0e4429"/>

<rect
x="858"
y="127"
width="12"
height="12"
rx="2"
fill="#0e4429"/>

<rect
x="875"
y="25"
width="12"
height="12"
rx="2"
fill="#0e4429"/>

<rect
x="875"
y="42"
width="12"
height="12"
rx="2"
fill="#0e4429"/>

<rect
x="875"
y="59"
width="12"
height="12"
rx="2"
fill="#0e4429"/>

<rect
x="875"
y="76"
width="12"
height="12"
rx="2"
fill="#0e4429"/>

<rect
x="875"
y="93"
width="12"
height="12"
rx="2"
fill="#0e4429"/>

<rect
x="875"
y="110"
width="12"
height="12"
rx="2"
fill="#0e4429"/>

<rect
x="875"
y="127"
width="12"
height="12"
rx="2"
fill="#0e4429"/>

<rect
x="892"
y="25"
width="12"
height="12"
rx="2"
fill="#0e4429"/>

<rect
x="892"
y="42"
width="12"
height="12"
rx="2"
fill="#0e4429"/>

<rect
x="892"
y="59"
width="12"
height="12"
rx="2"
fill="#0e4429"/>

<rect
x="892"
y="76"
width="12"
height="12"
rx="2"
fill="#0e4429"/>

<rect
x="892"
y="93"
width="12"
height="12"
rx="2"
fill="#0e4429"/>

<rect
x="892"
y="110"
width="12"
height="12"
rx="2"
fill="#0e4429"/>

<rect
x="892"
y="127"
width="12"
height="12"
rx="2"
fill="#0e4429"/>

<rect
x="909"
y="25"
width="12"
height="12"
rx="2"
fill="#0e4429"/>

<rect
x="909"
y="42"
width="12"
height="12"
rx="2"
fill="#0e4429"/>

<rect
x="909"
y="59"
width="12"
height="12"
rx="2"
fill="#0e4429"/>

<rect
x="909"
y="76"
width="12"
height="12"
rx="2"
fill="#0e4429"/>

<rect
x="909"
y="93"
width="12"
height="12"
rx="2"
fill="#0e4429"/>

<rect
x="909"
y="110"
width="12"
height="12"
rx="2"
fill="#0e4429"/>

<rect
x="909"
y="127"
width="12"
height="12"
rx="2"
fill="#0e4429"/>

<g transform="translate(760 80)">

<rect
x="-3"
y="-10"
width="6"
height="20"
fill="#666"/>

<circle
cx="0"
cy="0"
r="6"
fill="#999"/>

<rect
x="-12"
y="-10"
width="4"
height="20"
fill="#444"/>

<rect
x="8"
y="-10"
width="4"
height="20"
fill="#444"/>

</g>

</svg>