
<svg
xmlns="http://www.w3.org/2000/svg"
width="951"
height="169"
viewBox="0 0 951 169">

<rect
width="100%"
height="100%"
fill="#000000"/>

<circle
cx="335.02645950983214"
cy="65.8211408920183"
r="1.0063994684941557"
fill="white"
opacity="0.8360552913005843"/>

<circle
cx="645.8283223315075"
cy="146.2034502686643"
r="0.993797427678418"
fill="white"
opacity="0.6922892360107322"/>

<circle
cx="666.8741597554659"
cy="134.32011729419023"
r="0.4259396974607427"
fill="white"
opacity="0.356974112899867"/>

<circle
cx="180.40699044032561"
cy="71.94440815732155"
r="0.7144128284602871"
fill="white"
opacity="0.6629948314636073"/>

<circle
cx="902.9714271810161"
cy="15.03657451257366"
r="1.5346691770315186"
fill="white"
opacity="0.7647190338871543"/>

<circle
cx="547.5614575702273"
cy="114.99283111339948"
r="0.7365464809199964"
fill="white"
opacity="0.9387452221545753"/>

<circle
cx="69.63253379290374"
cy="77.79257926918666"
r="1.2269004908595431"
fill="white"
opacity="0.31512565547672067"/>

<circle
cx="750.4993640850835"
cy="97.02214717371275"
r="1.0774165157079536"
fill="white"
opacity="0.37722809314655364"/>

<circle
cx="29.267961013574293"
cy="129.9866147228166"
r="0.5438958481745566"
fill="white"
opacity="0.22887210526292157"/>

<circle
cx="754.1161121504109"
cy="42.78028290762245"
r="0.8678587753892373"
fill="white"
opacity="0.7119853566915328"/>

<circle
cx="263.26716986820156"
cy="41.586939836282916"
r="0.24960664013144057"
fill="white"
opacity="0.31839533575611195"/>

<circle
cx="586.492031874361"
cy="101.23917818254004"
r="0.8655342801342352"
fill="white"
opacity="0.6777574957101831"/>

<circle
cx="862.1408882274656"
cy="102.49965174135936"
r="1.2866790633754113"
fill="white"
opacity="0.8275616567122861"/>

<circle
cx="214.6919942002871"
cy="118.95479067129773"
r="1.580001437732389"
fill="white"
opacity="0.24266484457041884"/>

<circle
cx="124.00895967890494"
cy="166.69372039992405"
r="1.6583522935983026"
fill="white"
opacity="0.391948816566887"/>

<circle
cx="399.7459693755692"
cy="147.65773221013686"
r="0.41923546215197743"
fill="white"
opacity="0.8665286241263801"/>

<circle
cx="407.76239373753447"
cy="150.26229709381926"
r="0.9230048104458419"
fill="white"
opacity="0.29421439426812274"/>

<circle
cx="732.8927833480611"
cy="7.202706375168167"
r="0.20194510441761498"
fill="white"
opacity="0.304548565964053"/>

<circle
cx="602.4239617349987"
cy="52.466220113567466"
r="1.0247026293010173"
fill="white"
opacity="0.8008682264032847"/>

<circle
cx="121.29228121905349"
cy="77.99605852713432"
r="0.928741735355445"
fill="white"
opacity="0.760187790252514"/>

<circle
cx="534.3983503150102"
cy="69.01870995842549"
r="0.6419325004995622"
fill="white"
opacity="0.7794392207803249"/>

<circle
cx="169.22796492808257"
cy="15.460878592197954"
r="1.6352217564073048"
fill="white"
opacity="0.49639184372839545"/>

<circle
cx="424.3694116733785"
cy="149.9579092451385"
r="1.1733860280949884"
fill="white"
opacity="0.702664365576098"/>

<circle
cx="554.0964232128161"
cy="36.773451268874666"
r="0.5641439578912513"
fill="white"
opacity="0.2000793492762677"/>

<circle
cx="13.574148836681486"
cy="155.59152116797992"
r="1.142182830203468"
fill="white"
opacity="0.9081411040941674"/>

<circle
cx="858.0699144310407"
cy="85.92419775128148"
r="0.39143502726493545"
fill="white"
opacity="0.5724036059003617"/>

<circle
cx="738.0076023662588"
cy="5.038158086867423"
r="0.5112885869367239"
fill="white"
opacity="0.6134785379543963"/>

<circle
cx="444.03410996573496"
cy="118.55313210746087"
r="0.9503287075878222"
fill="white"
opacity="0.7652651337813774"/>

<circle
cx="583.8219849649431"
cy="86.2218028423656"
r="1.4270376338967676"
fill="white"
opacity="0.6389071343507267"/>

<circle
cx="528.8623139645139"
cy="87.89638640278115"
r="1.1133190927016563"
fill="white"
opacity="0.553466075614288"/>

<circle
cx="363.7818722678613"
cy="123.97944438931229"
r="1.4417821356608422"
fill="white"
opacity="0.7427817127017018"/>

<circle
cx="701.0922715666429"
cy="160.40668457474465"
r="1.58233357318638"
fill="white"
opacity="0.4255216901106712"/>

<circle
cx="475.5142975043157"
cy="126.79704487570162"
r="0.8822238335049291"
fill="white"
opacity="0.21128117735581445"/>

<circle
cx="52.146969097076095"
cy="141.37426722466887"
r="0.637900764802559"
fill="white"
opacity="0.8580984406349121"/>

<circle
cx="561.6868077606745"
cy="132.40165212091495"
r="0.8294762265104463"
fill="white"
opacity="0.9227837818379843"/>

<circle
cx="880.8845211744901"
cy="73.93321681708215"
r="0.4577621926138408"
fill="white"
opacity="0.8039535065187386"/>

<circle
cx="174.26818232230858"
cy="77.972809848042"
r="1.315501922495352"
fill="white"
opacity="0.7904806571221001"/>

<circle
cx="317.4388110088772"
cy="160.7918471364884"
r="0.9082372667984602"
fill="white"
opacity="0.5909403764966092"/>

<circle
cx="282.6843600756016"
cy="69.72091203930336"
r="0.9187800476232579"
fill="white"
opacity="0.782343641457151"/>

<circle
cx="252.79172969509102"
cy="79.41238731615682"
r="0.5532567620648972"
fill="white"
opacity="0.9815583937225738"/>

<circle
cx="475.79716874058437"
cy="33.61335767854405"
r="1.2129904361296053"
fill="white"
opacity="0.3173475964078247"/>

<circle
cx="755.7718848709105"
cy="76.89036560179377"
r="1.2354430189369046"
fill="white"
opacity="0.7132200602277956"/>

<circle
cx="374.07794523046726"
cy="40.312503267877645"
r="0.8405811083568586"
fill="white"
opacity="0.37817644226577996"/>

<circle
cx="772.1596139485337"
cy="1.26160528662153"
r="1.5250273773926677"
fill="white"
opacity="0.6417396957306589"/>

<circle
cx="182.07851457482266"
cy="45.841089902202434"
r="0.5714590001065467"
fill="white"
opacity="0.9275350164073601"/>

<circle
cx="520.1508345124704"
cy="152.25120474072887"
r="1.025930458249698"
fill="white"
opacity="0.5804602697186163"/>

<circle
cx="717.5084666949984"
cy="152.09758588224074"
r="1.1808456600745603"
fill="white"
opacity="0.9953572986693895"/>

<circle
cx="821.2415008490125"
cy="136.06791625333494"
r="0.8423389008322104"
fill="white"
opacity="0.347006278007734"/>

<circle
cx="717.6967874472042"
cy="35.488899373354"
r="1.6673922164059343"
fill="white"
opacity="0.7514681338643248"/>

<circle
cx="643.794949465164"
cy="144.49169480500223"
r="1.034902461106441"
fill="white"
opacity="0.7663578873946664"/>

<circle
cx="97.63403960774941"
cy="124.82914580575671"
r="0.952455500329912"
fill="white"
opacity="0.6291393951270129"/>

<circle
cx="240.61586330620568"
cy="154.38080934562848"
r="1.0808117354984557"
fill="white"
opacity="0.8105724084827137"/>

<circle
cx="294.40262594602007"
cy="30.946871810793606"
r="1.121706614731409"
fill="white"
opacity="0.2540176044748707"/>

<circle
cx="277.83044964530086"
cy="167.71934858414582"
r="0.46885740725917974"
fill="white"
opacity="0.612351256653114"/>

<circle
cx="947.1828207472282"
cy="157.51561372500333"
r="1.0130554444812723"
fill="white"
opacity="0.6626655520257598"/>

<circle
cx="364.30120490610096"
cy="98.85989712797982"
r="1.6914500182632282"
fill="white"
opacity="0.6051843564526314"/>

<circle
cx="29.866861421863366"
cy="29.632462393708348"
r="1.5987937790744555"
fill="white"
opacity="0.8400377327906188"/>

<circle
cx="852.98389990703"
cy="88.77936466164513"
r="1.1271103724790952"
fill="white"
opacity="0.4946241639656032"/>

<circle
cx="84.40168974942054"
cy="70.01446057172116"
r="0.6368852159635254"
fill="white"
opacity="0.92122819658025"/>

<circle
cx="71.65865871286111"
cy="105.59928146412689"
r="0.7461894545307519"
fill="white"
opacity="0.6726496063150231"/>

<circle
cx="811.4279720681127"
cy="158.43398718709628"
r="1.1109324842398307"
fill="white"
opacity="0.3063892686780424"/>

<circle
cx="323.27540420290075"
cy="53.304618344357124"
r="0.31181719555568504"
fill="white"
opacity="0.9582108203482267"/>

<circle
cx="796.8626909348558"
cy="116.1971819153037"
r="1.544916017987023"
fill="white"
opacity="0.6192333056303791"/>

<circle
cx="448.39972349416433"
cy="66.70943793454045"
r="1.6699511952230612"
fill="white"
opacity="0.5233495684961602"/>

<circle
cx="682.6347299872449"
cy="60.99253131279376"
r="0.3767380760709171"
fill="white"
opacity="0.8362369097150337"/>

<circle
cx="942.6026206939514"
cy="5.022675256586661"
r="1.4309707087937777"
fill="white"
opacity="0.9960569542640005"/>

<circle
cx="509.6697657357781"
cy="65.57828924183148"
r="1.272421794793054"
fill="white"
opacity="0.5956947009306518"/>

<circle
cx="691.203369522031"
cy="12.93666589181575"
r="0.5694041230586218"
fill="white"
opacity="0.7843538844688505"/>

<circle
cx="651.270013978746"
cy="67.35730175353379"
r="0.6410421565049809"
fill="white"
opacity="0.6050421404888655"/>

<circle
cx="173.6810633354759"
cy="104.82936331474518"
r="1.6998997412196188"
fill="white"
opacity="0.9441818770308217"/>

<circle
cx="253.945455156591"
cy="150.77896434750795"
r="1.4929770028459328"
fill="white"
opacity="0.7401830271218335"/>

<circle
cx="538.3209550807082"
cy="136.48408020967392"
r="0.4589796984537697"
fill="white"
opacity="0.8206295147855145"/>

<circle
cx="459.6240047122197"
cy="118.24946193775207"
r="0.8782258269836509"
fill="white"
opacity="0.7296567356718002"/>

<circle
cx="744.6538607818015"
cy="139.6979248393135"
r="0.5568055306428887"
fill="white"
opacity="0.5678038220067814"/>

<circle
cx="377.81577286108836"
cy="79.01173406046495"
r="1.1057126998909044"
fill="white"
opacity="0.23492497431863432"/>

<circle
cx="282.09547710642835"
cy="139.7406125462038"
r="0.3240697894935209"
fill="white"
opacity="0.2463515074288404"/>

<circle
cx="358.4005114842644"
cy="64.22552055085738"
r="1.542322032069592"
fill="white"
opacity="0.6916818712051619"/>

<circle
cx="270.2943563713707"
cy="42.984689361508025"
r="0.6695892366442642"
fill="white"
opacity="0.3806551132220264"/>

<circle
cx="190.46219240067765"
cy="135.01252540914095"
r="0.2616344734607459"
fill="white"
opacity="0.9717013541396511"/>

<circle
cx="780.4566319352663"
cy="69.73386526298002"
r="0.763809071361675"
fill="white"
opacity="0.9768794957564757"/>

<circle
cx="284.2005415781903"
cy="125.50615079018866"
r="0.9551590407902799"
fill="white"
opacity="0.29519082328019536"/>

<circle
cx="629.0128137096941"
cy="34.669475304542736"
r="1.6210623088195573"
fill="white"
opacity="0.4008665585045146"/>

<circle
cx="181.07091543452975"
cy="19.652510417965058"
r="0.5845342561975087"
fill="white"
opacity="0.299418283888398"/>

<circle
cx="719.8977455344398"
cy="103.27682493292117"
r="0.9085953019532707"
fill="white"
opacity="0.8110841896648642"/>

<circle
cx="387.78021643827503"
cy="110.46536784240621"
r="1.6704099077042909"
fill="white"
opacity="0.8029823889290562"/>

<circle
cx="641.2973025619297"
cy="67.65739377832122"
r="0.28294566323468634"
fill="white"
opacity="0.27785400774248115"/>

<circle
cx="596.6728240571798"
cy="38.66083376625572"
r="0.9485564168132157"
fill="white"
opacity="0.6228252180345633"/>

<circle
cx="137.46144724306893"
cy="84.30512148585883"
r="0.3299053369708273"
fill="white"
opacity="0.47760602879936603"/>

<circle
cx="202.79664770548632"
cy="57.26261599400511"
r="0.8406363343096181"
fill="white"
opacity="0.697812618554899"/>

<circle
cx="42.028021461642425"
cy="125.91503705282051"
r="0.33391655162954187"
fill="white"
opacity="0.6779621305237769"/>

<circle
cx="71.77541291759456"
cy="130.7842361114893"
r="1.6547831730622968"
fill="white"
opacity="0.9035835144831164"/>

<circle
cx="591.2458749771238"
cy="7.4805981478600945"
r="1.2017525394536153"
fill="white"
opacity="0.7152369518818567"/>

<circle
cx="479.39527566671694"
cy="79.99542000688231"
r="0.8745023507872722"
fill="white"
opacity="0.6459346311205629"/>

<circle
cx="73.57822722768064"
cy="99.91495546080938"
r="1.1561167040816789"
fill="white"
opacity="0.9487567767252016"/>

<circle
cx="890.3583769682093"
cy="104.78359933762287"
r="0.43938685968036256"
fill="white"
opacity="0.21417242993205612"/>

<circle
cx="758.6058157219825"
cy="27.895145040687982"
r="1.1754436463484632"
fill="white"
opacity="0.9090779717538433"/>

<circle
cx="948.8075733718146"
cy="97.63216596211808"
r="0.4403159627407311"
fill="white"
opacity="0.5815574411282445"/>

<circle
cx="431.828383137565"
cy="48.26385820197669"
r="1.2344267284909847"
fill="white"
opacity="0.3528941905063725"/>

<circle
cx="669.9505761973252"
cy="18.88940959546724"
r="1.1381449880423797"
fill="white"
opacity="0.28497129965358003"/>

<circle
cx="77.8819902282922"
cy="7.243184502513577"
r="0.31603111989824856"
fill="white"
opacity="0.8991577888120845"/>

<circle
cx="900.720283905923"
cy="146.43612486301782"
r="1.5283577205633805"
fill="white"
opacity="0.3520536481620406"/>

<circle
cx="640.3392185023797"
cy="41.35160555398625"
r="1.4285631769216638"
fill="white"
opacity="0.8833356103475019"/>

<circle
cx="138.71964145560818"
cy="52.94477475399451"
r="0.8924006366013446"
fill="white"
opacity="0.7485379731516408"/>

<circle
cx="99.27454683511235"
cy="34.87351760194865"
r="0.26065549994009635"
fill="white"
opacity="0.7607005647934959"/>

<circle
cx="745.0790329230839"
cy="31.10267770685974"
r="0.812091284230295"
fill="white"
opacity="0.7197585944918037"/>

<circle
cx="622.8474285749578"
cy="127.61097028466229"
r="0.32854244403547744"
fill="white"
opacity="0.30107831541387675"/>

<circle
cx="864.2958850849097"
cy="14.109608214689771"
r="1.3780131829305406"
fill="white"
opacity="0.5038949718420025"/>

<circle
cx="351.81410989908187"
cy="82.74884249162129"
r="0.2233400688208514"
fill="white"
opacity="0.4252851689993916"/>

<circle
cx="779.0122576315564"
cy="93.05481518197394"
r="1.376805541084626"
fill="white"
opacity="0.7086706067965731"/>

<circle
cx="723.4178269640803"
cy="28.097060142085567"
r="0.902808432109836"
fill="white"
opacity="0.36375478845350157"/>

<circle
cx="222.0301015315829"
cy="162.12968446941247"
r="1.4437642994990567"
fill="white"
opacity="0.5122943171243014"/>

<circle
cx="70.87232637579719"
cy="148.96837508227372"
r="1.0981955209563408"
fill="white"
opacity="0.6556467924784808"/>

<circle
cx="357.79092764983073"
cy="166.3413672964955"
r="1.599585686712559"
fill="white"
opacity="0.7288896307749009"/>

<circle
cx="46.48534882357052"
cy="71.50572816175938"
r="1.362993785918895"
fill="white"
opacity="0.87822765824854"/>

<circle
cx="486.9960414263946"
cy="84.40676557432697"
r="0.9570013687577124"
fill="white"
opacity="0.4177288753069352"/>

<circle
cx="317.6663659926279"
cy="139.78785957149543"
r="1.2870816556736635"
fill="white"
opacity="0.5693980321485977"/>

<circle
cx="544.6636116653182"
cy="19.536297027553978"
r="0.5749098225686502"
fill="white"
opacity="0.5246606132245184"/>

<circle
cx="163.29060657551113"
cy="65.05311569745021"
r="0.930818488016266"
fill="white"
opacity="0.610077535004075"/>

<circle
cx="358.3041647907208"
cy="100.26273048147672"
r="1.086205859956245"
fill="white"
opacity="0.5720622509036646"/>

<circle
cx="816.0458113448381"
cy="40.66896461042856"
r="0.24488424323168695"
fill="white"
opacity="0.6946787493302093"/>

<rect
x="25"
y="25"
width="12"
height="12"
rx="2"
fill="#0e4429"/>

<rect
x="25"
y="42"
width="12"
height="12"
rx="2"
fill="#0e4429"/>

<rect
x="25"
y="59"
width="12"
height="12"
rx="2"
fill="#0e4429"/>

<rect
x="25"
y="76"
width="12"
height="12"
rx="2"
fill="#0e4429"/>

<rect
x="25"
y="93"
width="12"
height="12"
rx="2"
fill="#0e4429"/>

<rect
x="25"
y="110"
width="12"
height="12"
rx="2"
fill="#0e4429"/>

<rect
x="25"
y="127"
width="12"
height="12"
rx="2"
fill="#0e4429"/>

<rect
x="42"
y="25"
width="12"
height="12"
rx="2"
fill="#0e4429"/>

<rect
x="42"
y="42"
width="12"
height="12"
rx="2"
fill="#0e4429"/>

<rect
x="42"
y="59"
width="12"
height="12"
rx="2"
fill="#0e4429"/>

<rect
x="42"
y="76"
width="12"
height="12"
rx="2"
fill="#0e4429"/>

<rect
x="42"
y="93"
width="12"
height="12"
rx="2"
fill="#0e4429"/>

<rect
x="42"
y="110"
width="12"
height="12"
rx="2"
fill="#0e4429"/>

<rect
x="42"
y="127"
width="12"
height="12"
rx="2"
fill="#0e4429"/>

<rect
x="59"
y="25"
width="12"
height="12"
rx="2"
fill="#0e4429"/>

<rect
x="59"
y="42"
width="12"
height="12"
rx="2"
fill="#0e4429"/>

<rect
x="59"
y="59"
width="12"
height="12"
rx="2"
fill="#0e4429"/>

<rect
x="59"
y="76"
width="12"
height="12"
rx="2"
fill="#0e4429"/>

<rect
x="59"
y="93"
width="12"
height="12"
rx="2"
fill="#0e4429"/>

<rect
x="59"
y="110"
width="12"
height="12"
rx="2"
fill="#0e4429"/>

<rect
x="59"
y="127"
width="12"
height="12"
rx="2"
fill="#0e4429"/>

<rect
x="76"
y="25"
width="12"
height="12"
rx="2"
fill="#0e4429"/>

<rect
x="76"
y="42"
width="12"
height="12"
rx="2"
fill="#0e4429"/>

<rect
x="76"
y="59"
width="12"
height="12"
rx="2"
fill="#0e4429"/>

<rect
x="76"
y="76"
width="12"
height="12"
rx="2"
fill="#0e4429"/>

<rect
x="76"
y="93"
width="12"
height="12"
rx="2"
fill="#0e4429"/>

<rect
x="76"
y="110"
width="12"
height="12"
rx="2"
fill="#0e4429"/>

<rect
x="76"
y="127"
width="12"
height="12"
rx="2"
fill="#0e4429"/>

<rect
x="93"
y="25"
width="12"
height="12"
rx="2"
fill="#0e4429"/>

<rect
x="93"
y="42"
width="12"
height="12"
rx="2"
fill="#0e4429"/>

<rect
x="93"
y="59"
width="12"
height="12"
rx="2"
fill="#0e4429"/>

<rect
x="93"
y="76"
width="12"
height="12"
rx="2"
fill="#0e4429"/>

<rect
x="93"
y="93"
width="12"
height="12"
rx="2"
fill="#0e4429"/>

<rect
x="93"
y="110"
width="12"
height="12"
rx="2"
fill="#0e4429"/>

<rect
x="93"
y="127"
width="12"
height="12"
rx="2"
fill="#0e4429"/>

<rect
x="110"
y="25"
width="12"
height="12"
rx="2"
fill="#0e4429"/>

<rect
x="110"
y="42"
width="12"
height="12"
rx="2"
fill="#0e4429"/>

<rect
x="110"
y="59"
width="12"
height="12"
rx="2"
fill="#0e4429"/>

<rect
x="110"
y="76"
width="12"
height="12"
rx="2"
fill="#0e4429"/>

<rect
x="110"
y="93"
width="12"
height="12"
rx="2"
fill="#0e4429"/>

<rect
x="110"
y="110"
width="12"
height="12"
rx="2"
fill="#0e4429"/>

<rect
x="110"
y="127"
width="12"
height="12"
rx="2"
fill="#0e4429"/>

<rect
x="127"
y="25"
width="12"
height="12"
rx="2"
fill="#0e4429"/>

<rect
x="127"
y="42"
width="12"
height="12"
rx="2"
fill="#0e4429"/>

<rect
x="127"
y="59"
width="12"
height="12"
rx="2"
fill="#0e4429"/>

<rect
x="127"
y="76"
width="12"
height="12"
rx="2"
fill="#0e4429"/>

<rect
x="127"
y="93"
width="12"
height="12"
rx="2"
fill="#0e4429"/>

<rect
x="127"
y="110"
width="12"
height="12"
rx="2"
fill="#0e4429"/>

<rect
x="127"
y="127"
width="12"
height="12"
rx="2"
fill="#0e4429"/>

<rect
x="144"
y="25"
width="12"
height="12"
rx="2"
fill="#0e4429"/>

<rect
x="144"
y="42"
width="12"
height="12"
rx="2"
fill="#0e4429"/>

<rect
x="144"
y="59"
width="12"
height="12"
rx="2"
fill="#0e4429"/>

<rect
x="144"
y="76"
width="12"
height="12"
rx="2"
fill="#0e4429"/>

<rect
x="144"
y="93"
width="12"
height="12"
rx="2"
fill="#0e4429"/>

<rect
x="144"
y="110"
width="12"
height="12"
rx="2"
fill="#0e4429"/>

<rect
x="144"
y="127"
width="12"
height="12"
rx="2"
fill="#0e4429"/>

<rect
x="161"
y="25"
width="12"
height="12"
rx="2"
fill="#0e4429"/>

<rect
x="161"
y="42"
width="12"
height="12"
rx="2"
fill="#0e4429"/>

<rect
x="161"
y="59"
width="12"
height="12"
rx="2"
fill="#0e4429"/>

<rect
x="161"
y="76"
width="12"
height="12"
rx="2"
fill="#0e4429"/>

<rect
x="161"
y="93"
width="12"
height="12"
rx="2"
fill="#0e4429"/>

<rect
x="161"
y="110"
width="12"
height="12"
rx="2"
fill="#0e4429"/>

<rect
x="161"
y="127"
width="12"
height="12"
rx="2"
fill="#0e4429"/>

<rect
x="178"
y="25"
width="12"
height="12"
rx="2"
fill="#0e4429"/>

<rect
x="178"
y="42"
width="12"
height="12"
rx="2"
fill="#0e4429"/>

<rect
x="178"
y="59"
width="12"
height="12"
rx="2"
fill="#0e4429"/>

<rect
x="178"
y="76"
width="12"
height="12"
rx="2"
fill="#0e4429"/>

<rect
x="178"
y="93"
width="12"
height="12"
rx="2"
fill="#0e4429"/>

<rect
x="178"
y="110"
width="12"
height="12"
rx="2"
fill="#0e4429"/>

<rect
x="178"
y="127"
width="12"
height="12"
rx="2"
fill="#0e4429"/>

<rect
x="195"
y="25"
width="12"
height="12"
rx="2"
fill="#0e4429"/>

<rect
x="195"
y="42"
width="12"
height="12"
rx="2"
fill="#0e4429"/>

<rect
x="195"
y="59"
width="12"
height="12"
rx="2"
fill="#0e4429"/>

<rect
x="195"
y="76"
width="12"
height="12"
rx="2"
fill="#0e4429"/>

<rect
x="195"
y="93"
width="12"
height="12"
rx="2"
fill="#0e4429"/>

<rect
x="195"
y="110"
width="12"
height="12"
rx="2"
fill="#0e4429"/>

<rect
x="195"
y="127"
width="12"
height="12"
rx="2"
fill="#0e4429"/>

<rect
x="212"
y="25"
width="12"
height="12"
rx="2"
fill="#0e4429"/>

<rect
x="212"
y="42"
width="12"
height="12"
rx="2"
fill="#0e4429"/>

<rect
x="212"
y="59"
width="12"
height="12"
rx="2"
fill="#0e4429"/>

<rect
x="212"
y="76"
width="12"
height="12"
rx="2"
fill="#0e4429"/>

<rect
x="212"
y="93"
width="12"
height="12"
rx="2"
fill="#0e4429"/>

<rect
x="212"
y="110"
width="12"
height="12"
rx="2"
fill="#0e4429"/>

<rect
x="212"
y="127"
width="12"
height="12"
rx="2"
fill="#0e4429"/>

<rect
x="229"
y="25"
width="12"
height="12"
rx="2"
fill="#0e4429"/>

<rect
x="229"
y="42"
width="12"
height="12"
rx="2"
fill="#0e4429"/>

<rect
x="229"
y="59"
width="12"
height="12"
rx="2"
fill="#0e4429"/>

<rect
x="229"
y="76"
width="12"
height="12"
rx="2"
fill="#0e4429"/>

<rect
x="229"
y="93"
width="12"
height="12"
rx="2"
fill="#0e4429"/>

<rect
x="229"
y="110"
width="12"
height="12"
rx="2"
fill="#0e4429"/>

<rect
x="229"
y="127"
width="12"
height="12"
rx="2"
fill="#0e4429"/>

<rect
x="246"
y="25"
width="12"
height="12"
rx="2"
fill="#0e4429"/>

<rect
x="246"
y="42"
width="12"
height="12"
rx="2"
fill="#0e4429"/>

<rect
x="246"
y="59"
width="12"
height="12"
rx="2"
fill="#0e4429"/>

<rect
x="246"
y="76"
width="12"
height="12"
rx="2"
fill="#0e4429"/>

<rect
x="246"
y="93"
width="12"
height="12"
rx="2"
fill="#0e4429"/>

<rect
x="246"
y="110"
width="12"
height="12"
rx="2"
fill="#0e4429"/>

<rect
x="246"
y="127"
width="12"
height="12"
rx="2"
fill="#0e4429"/>

<rect
x="263"
y="25"
width="12"
height="12"
rx="2"
fill="#0e4429"/>

<rect
x="263"
y="42"
width="12"
height="12"
rx="2"
fill="#0e4429"/>

<rect
x="263"
y="59"
width="12"
height="12"
rx="2"
fill="#0e4429"/>

<rect
x="263"
y="76"
width="12"
height="12"
rx="2"
fill="#0e4429"/>

<rect
x="263"
y="93"
width="12"
height="12"
rx="2"
fill="#0e4429"/>

<rect
x="263"
y="110"
width="12"
height="12"
rx="2"
fill="#0e4429"/>

<rect
x="263"
y="127"
width="12"
height="12"
rx="2"
fill="#0e4429"/>

<rect
x="280"
y="25"
width="12"
height="12"
rx="2"
fill="#0e4429"/>

<rect
x="280"
y="42"
width="12"
height="12"
rx="2"
fill="#0e4429"/>

<rect
x="280"
y="59"
width="12"
height="12"
rx="2"
fill="#0e4429"/>

<rect
x="280"
y="76"
width="12"
height="12"
rx="2"
fill="#0e4429"/>

<rect
x="280"
y="93"
width="12"
height="12"
rx="2"
fill="#0e4429"/>

<rect
x="280"
y="110"
width="12"
height="12"
rx="2"
fill="#0e4429"/>

<rect
x="280"
y="127"
width="12"
height="12"
rx="2"
fill="#0e4429"/>

<rect
x="297"
y="25"
width="12"
height="12"
rx="2"
fill="#0e4429"/>

<rect
x="297"
y="42"
width="12"
height="12"
rx="2"
fill="#0e4429"/>

<rect
x="297"
y="59"
width="12"
height="12"
rx="2"
fill="#0e4429"/>

<rect
x="297"
y="76"
width="12"
height="12"
rx="2"
fill="#0e4429"/>

<rect
x="297"
y="93"
width="12"
height="12"
rx="2"
fill="#0e4429"/>

<rect
x="297"
y="110"
width="12"
height="12"
rx="2"
fill="#0e4429"/>

<rect
x="297"
y="127"
width="12"
height="12"
rx="2"
fill="#0e4429"/>

<rect
x="314"
y="25"
width="12"
height="12"
rx="2"
fill="#0e4429"/>

<rect
x="314"
y="42"
width="12"
height="12"
rx="2"
fill="#0e4429"/>

<rect
x="314"
y="59"
width="12"
height="12"
rx="2"
fill="#0e4429"/>

<rect
x="314"
y="76"
width="12"
height="12"
rx="2"
fill="#0e4429"/>

<rect
x="314"
y="93"
width="12"
height="12"
rx="2"
fill="#0e4429"/>

<rect
x="314"
y="110"
width="12"
height="12"
rx="2"
fill="#0e4429"/>

<rect
x="314"
y="127"
width="12"
height="12"
rx="2"
fill="#0e4429"/>

<rect
x="331"
y="25"
width="12"
height="12"
rx="2"
fill="#0e4429"/>

<rect
x="331"
y="42"
width="12"
height="12"
rx="2"
fill="#0e4429"/>

<rect
x="331"
y="59"
width="12"
height="12"
rx="2"
fill="#0e4429"/>

<rect
x="331"
y="76"
width="12"
height="12"
rx="2"
fill="#0e4429"/>

<rect
x="331"
y="93"
width="12"
height="12"
rx="2"
fill="#0e4429"/>

<rect
x="331"
y="110"
width="12"
height="12"
rx="2"
fill="#0e4429"/>

<rect
x="331"
y="127"
width="12"
height="12"
rx="2"
fill="#0e4429"/>

<rect
x="348"
y="25"
width="12"
height="12"
rx="2"
fill="#0e4429"/>

<rect
x="348"
y="42"
width="12"
height="12"
rx="2"
fill="#0e4429"/>

<rect
x="348"
y="59"
width="12"
height="12"
rx="2"
fill="#0e4429"/>

<rect
x="348"
y="76"
width="12"
height="12"
rx="2"
fill="#0e4429"/>

<rect
x="348"
y="93"
width="12"
height="12"
rx="2"
fill="#0e4429"/>

<rect
x="348"
y="110"
width="12"
height="12"
rx="2"
fill="#0e4429"/>

<rect
x="348"
y="127"
width="12"
height="12"
rx="2"
fill="#0e4429"/>

<rect
x="365"
y="25"
width="12"
height="12"
rx="2"
fill="#0e4429"/>

<rect
x="365"
y="42"
width="12"
height="12"
rx="2"
fill="#0e4429"/>

<rect
x="365"
y="59"
width="12"
height="12"
rx="2"
fill="#0e4429"/>

<rect
x="365"
y="76"
width="12"
height="12"
rx="2"
fill="#0e4429"/>

<rect
x="365"
y="93"
width="12"
height="12"
rx="2"
fill="#0e4429"/>

<rect
x="365"
y="110"
width="12"
height="12"
rx="2"
fill="#0e4429"/>

<rect
x="365"
y="127"
width="12"
height="12"
rx="2"
fill="#0e4429"/>

<rect
x="382"
y="25"
width="12"
height="12"
rx="2"
fill="#0e4429"/>

<rect
x="382"
y="42"
width="12"
height="12"
rx="2"
fill="#0e4429"/>

<rect
x="382"
y="59"
width="12"
height="12"
rx="2"
fill="#0e4429"/>

<rect
x="382"
y="76"
width="12"
height="12"
rx="2"
fill="#0e4429"/>

<rect
x="382"
y="93"
width="12"
height="12"
rx="2"
fill="#0e4429"/>

<rect
x="382"
y="110"
width="12"
height="12"
rx="2"
fill="#0e4429"/>

<rect
x="382"
y="127"
width="12"
height="12"
rx="2"
fill="#0e4429"/>

<rect
x="399"
y="25"
width="12"
height="12"
rx="2"
fill="#0e4429"/>

<rect
x="399"
y="42"
width="12"
height="12"
rx="2"
fill="#0e4429"/>

<rect
x="399"
y="59"
width="12"
height="12"
rx="2"
fill="#0e4429"/>

<rect
x="399"
y="76"
width="12"
height="12"
rx="2"
fill="#0e4429"/>

<rect
x="399"
y="93"
width="12"
height="12"
rx="2"
fill="#0e4429"/>

<rect
x="399"
y="110"
width="12"
height="12"
rx="2"
fill="#0e4429"/>

<rect
x="399"
y="127"
width="12"
height="12"
rx="2"
fill="#0e4429"/>

<rect
x="416"
y="25"
width="12"
height="12"
rx="2"
fill="#0e4429"/>

<rect
x="416"
y="42"
width="12"
height="12"
rx="2"
fill="#0e4429"/>

<rect
x="416"
y="59"
width="12"
height="12"
rx="2"
fill="#0e4429"/>

<rect
x="416"
y="76"
width="12"
height="12"
rx="2"
fill="#0e4429"/>

<rect
x="416"
y="93"
width="12"
height="12"
rx="2"
fill="#0e4429"/>

<rect
x="416"
y="110"
width="12"
height="12"
rx="2"
fill="#0e4429"/>

<rect
x="416"
y="127"
width="12"
height="12"
rx="2"
fill="#0e4429"/>

<rect
x="433"
y="25"
width="12"
height="12"
rx="2"
fill="#0e4429"/>

<rect
x="433"
y="42"
width="12"
height="12"
rx="2"
fill="#0e4429"/>

<rect
x="433"
y="59"
width="12"
height="12"
rx="2"
fill="#0e4429"/>

<rect
x="433"
y="76"
width="12"
height="12"
rx="2"
fill="#0e4429"/>

<rect
x="433"
y="93"
width="12"
height="12"
rx="2"
fill="#0e4429"/>

<rect
x="433"
y="110"
width="12"
height="12"
rx="2"
fill="#0e4429"/>

<rect
x="433"
y="127"
width="12"
height="12"
rx="2"
fill="#0e4429"/>

<rect
x="450"
y="25"
width="12"
height="12"
rx="2"
fill="#0e4429"/>

<rect
x="450"
y="42"
width="12"
height="12"
rx="2"
fill="#0e4429"/>

<rect
x="450"
y="59"
width="12"
height="12"
rx="2"
fill="#0e4429"/>

<rect
x="450"
y="76"
width="12"
height="12"
rx="2"
fill="#0e4429"/>

<rect
x="450"
y="93"
width="12"
height="12"
rx="2"
fill="#0e4429"/>

<rect
x="450"
y="110"
width="12"
height="12"
rx="2"
fill="#0e4429"/>

<rect
x="450"
y="127"
width="12"
height="12"
rx="2"
fill="#0e4429"/>

<rect
x="467"
y="25"
width="12"
height="12"
rx="2"
fill="#0e4429"/>

<rect
x="467"
y="42"
width="12"
height="12"
rx="2"
fill="#0e4429"/>

<rect
x="467"
y="59"
width="12"
height="12"
rx="2"
fill="#0e4429"/>

<rect
x="467"
y="76"
width="12"
height="12"
rx="2"
fill="#0e4429"/>

<rect
x="467"
y="93"
width="12"
height="12"
rx="2"
fill="#0e4429"/>

<rect
x="467"
y="110"
width="12"
height="12"
rx="2"
fill="#0e4429"/>

<rect
x="467"
y="127"
width="12"
height="12"
rx="2"
fill="#0e4429"/>

<rect
x="484"
y="25"
width="12"
height="12"
rx="2"
fill="#0e4429"/>

<rect
x="484"
y="42"
width="12"
height="12"
rx="2"
fill="#0e4429"/>

<rect
x="484"
y="59"
width="12"
height="12"
rx="2"
fill="#0e4429"/>

<rect
x="484"
y="76"
width="12"
height="12"
rx="2"
fill="#0e4429"/>

<rect
x="484"
y="93"
width="12"
height="12"
rx="2"
fill="#0e4429"/>

<rect
x="484"
y="110"
width="12"
height="12"
rx="2"
fill="#0e4429"/>

<rect
x="484"
y="127"
width="12"
height="12"
rx="2"
fill="#0e4429"/>

<rect
x="501"
y="25"
width="12"
height="12"
rx="2"
fill="#0e4429"/>

<rect
x="501"
y="42"
width="12"
height="12"
rx="2"
fill="#0e4429"/>

<rect
x="501"
y="59"
width="12"
height="12"
rx="2"
fill="#0e4429"/>

<rect
x="501"
y="76"
width="12"
height="12"
rx="2"
fill="#0e4429"/>

<rect
x="501"
y="93"
width="12"
height="12"
rx="2"
fill="#0e4429"/>

<rect
x="501"
y="110"
width="12"
height="12"
rx="2"
fill="#0e4429"/>

<rect
x="501"
y="127"
width="12"
height="12"
rx="2"
fill="#0e4429"/>

<rect
x="518"
y="25"
width="12"
height="12"
rx="2"
fill="#0e4429"/>

<rect
x="518"
y="42"
width="12"
height="12"
rx="2"
fill="#0e4429"/>

<rect
x="518"
y="59"
width="12"
height="12"
rx="2"
fill="#0e4429"/>

<rect
x="518"
y="76"
width="12"
height="12"
rx="2"
fill="#0e4429"/>

<rect
x="518"
y="93"
width="12"
height="12"
rx="2"
fill="#0e4429"/>

<rect
x="518"
y="110"
width="12"
height="12"
rx="2"
fill="#0e4429"/>

<rect
x="518"
y="127"
width="12"
height="12"
rx="2"
fill="#0e4429"/>

<rect
x="535"
y="25"
width="12"
height="12"
rx="2"
fill="#0e4429"/>

<rect
x="535"
y="42"
width="12"
height="12"
rx="2"
fill="#0e4429"/>

<rect
x="535"
y="59"
width="12"
height="12"
rx="2"
fill="#0e4429"/>

<rect
x="535"
y="76"
width="12"
height="12"
rx="2"
fill="#0e4429"/>

<rect
x="535"
y="93"
width="12"
height="12"
rx="2"
fill="#0e4429"/>

<rect
x="535"
y="110"
width="12"
height="12"
rx="2"
fill="#0e4429"/>

<rect
x="535"
y="127"
width="12"
height="12"
rx="2"
fill="#0e4429"/>

<rect
x="552"
y="25"
width="12"
height="12"
rx="2"
fill="#0e4429"/>

<rect
x="552"
y="42"
width="12"
height="12"
rx="2"
fill="#0e4429"/>

<rect
x="552"
y="59"
width="12"
height="12"
rx="2"
fill="#0e4429"/>

<rect
x="552"
y="76"
width="12"
height="12"
rx="2"
fill="#0e4429"/>

<rect
x="552"
y="93"
width="12"
height="12"
rx="2"
fill="#0e4429"/>

<rect
x="552"
y="110"
width="12"
height="12"
rx="2"
fill="#0e4429"/>

<rect
x="552"
y="127"
width="12"
height="12"
rx="2"
fill="#0e4429"/>

<rect
x="569"
y="25"
width="12"
height="12"
rx="2"
fill="#0e4429"/>

<rect
x="569"
y="42"
width="12"
height="12"
rx="2"
fill="#0e4429"/>

<rect
x="569"
y="59"
width="12"
height="12"
rx="2"
fill="#0e4429"/>

<rect
x="569"
y="76"
width="12"
height="12"
rx="2"
fill="#0e4429"/>

<rect
x="569"
y="93"
width="12"
height="12"
rx="2"
fill="#0e4429"/>

<rect
x="569"
y="110"
width="12"
height="12"
rx="2"
fill="#0e4429"/>

<rect
x="569"
y="127"
width="12"
height="12"
rx="2"
fill="#0e4429"/>

<rect
x="586"
y="25"
width="12"
height="12"
rx="2"
fill="#0e4429"/>

<rect
x="586"
y="42"
width="12"
height="12"
rx="2"
fill="#0e4429"/>

<rect
x="586"
y="59"
width="12"
height="12"
rx="2"
fill="#0e4429"/>

<rect
x="586"
y="76"
width="12"
height="12"
rx="2"
fill="#0e4429"/>

<rect
x="586"
y="93"
width="12"
height="12"
rx="2"
fill="#0e4429"/>

<rect
x="586"
y="110"
width="12"
height="12"
rx="2"
fill="#0e4429"/>

<rect
x="586"
y="127"
width="12"
height="12"
rx="2"
fill="#0e4429"/>

<rect
x="603"
y="25"
width="12"
height="12"
rx="2"
fill="#0e4429"/>

<rect
x="603"
y="42"
width="12"
height="12"
rx="2"
fill="#0e4429"/>

<rect
x="603"
y="59"
width="12"
height="12"
rx="2"
fill="#0e4429"/>

<rect
x="603"
y="76"
width="12"
height="12"
rx="2"
fill="#0e4429"/>

<rect
x="603"
y="93"
width="12"
height="12"
rx="2"
fill="#0e4429"/>

<rect
x="603"
y="110"
width="12"
height="12"
rx="2"
fill="#0e4429"/>

<rect
x="603"
y="127"
width="12"
height="12"
rx="2"
fill="#0e4429"/>

<rect
x="620"
y="25"
width="12"
height="12"
rx="2"
fill="#0e4429"/>

<rect
x="620"
y="42"
width="12"
height="12"
rx="2"
fill="#0e4429"/>

<rect
x="620"
y="59"
width="12"
height="12"
rx="2"
fill="#0e4429"/>

<rect
x="620"
y="76"
width="12"
height="12"
rx="2"
fill="#0e4429"/>

<rect
x="620"
y="93"
width="12"
height="12"
rx="2"
fill="#0e4429"/>

<rect
x="620"
y="110"
width="12"
height="12"
rx="2"
fill="#0e4429"/>

<rect
x="620"
y="127"
width="12"
height="12"
rx="2"
fill="#0e4429"/>

<rect
x="637"
y="25"
width="12"
height="12"
rx="2"
fill="#0e4429"/>

<rect
x="637"
y="42"
width="12"
height="12"
rx="2"
fill="#0e4429"/>

<rect
x="637"
y="59"
width="12"
height="12"
rx="2"
fill="#0e4429"/>

<rect
x="637"
y="76"
width="12"
height="12"
rx="2"
fill="#0e4429"/>

<rect
x="637"
y="93"
width="12"
height="12"
rx="2"
fill="#0e4429"/>

<rect
x="637"
y="110"
width="12"
height="12"
rx="2"
fill="#0e4429"/>

<rect
x="637"
y="127"
width="12"
height="12"
rx="2"
fill="#0e4429"/>

<rect
x="654"
y="25"
width="12"
height="12"
rx="2"
fill="#0e4429"/>

<rect
x="654"
y="42"
width="12"
height="12"
rx="2"
fill="#0e4429"/>

<rect
x="654"
y="59"
width="12"
height="12"
rx="2"
fill="#0e4429"/>

<rect
x="654"
y="76"
width="12"
height="12"
rx="2"
fill="#0e4429"/>

<rect
x="654"
y="93"
width="12"
height="12"
rx="2"
fill="#0e4429"/>

<rect
x="654"
y="110"
width="12"
height="12"
rx="2"
fill="#0e4429"/>

<rect
x="654"
y="127"
width="12"
height="12"
rx="2"
fill="#0e4429"/>

<rect
x="671"
y="25"
width="12"
height="12"
rx="2"
fill="#0e4429"/>

<rect
x="671"
y="42"
width="12"
height="12"
rx="2"
fill="#0e4429"/>

<rect
x="671"
y="59"
width="12"
height="12"
rx="2"
fill="#0e4429"/>

<rect
x="671"
y="76"
width="12"
height="12"
rx="2"
fill="#0e4429"/>

<rect
x="671"
y="93"
width="12"
height="12"
rx="2"
fill="#0e4429"/>

<rect
x="671"
y="110"
width="12"
height="12"
rx="2"
fill="#0e4429"/>

<rect
x="671"
y="127"
width="12"
height="12"
rx="2"
fill="#0e4429"/>

<rect
x="688"
y="25"
width="12"
height="12"
rx="2"
fill="#0e4429"/>

<rect
x="688"
y="42"
width="12"
height="12"
rx="2"
fill="#0e4429"/>

<rect
x="688"
y="59"
width="12"
height="12"
rx="2"
fill="#0e4429"/>

<rect
x="688"
y="76"
width="12"
height="12"
rx="2"
fill="#0e4429"/>

<rect
x="688"
y="93"
width="12"
height="12"
rx="2"
fill="#0e4429"/>

<rect
x="688"
y="110"
width="12"
height="12"
rx="2"
fill="#0e4429"/>

<rect
x="688"
y="127"
width="12"
height="12"
rx="2"
fill="#0e4429"/>

<rect
x="705"
y="25"
width="12"
height="12"
rx="2"
fill="#0e4429"/>

<rect
x="705"
y="42"
width="12"
height="12"
rx="2"
fill="#0e4429"/>

<rect
x="705"
y="59"
width="12"
height="12"
rx="2"
fill="#0e4429"/>

<rect
x="705"
y="76"
width="12"
height="12"
rx="2"
fill="#0e4429"/>

<rect
x="705"
y="93"
width="12"
height="12"
rx="2"
fill="#0e4429"/>

<rect
x="705"
y="110"
width="12"
height="12"
rx="2"
fill="#0e4429"/>

<rect
x="705"
y="127"
width="12"
height="12"
rx="2"
fill="#0e4429"/>

<rect
x="722"
y="25"
width="12"
height="12"
rx="2"
fill="#0e4429"/>

<rect
x="722"
y="42"
width="12"
height="12"
rx="2"
fill="#0e4429"/>

<rect
x="722"
y="59"
width="12"
height="12"
rx="2"
fill="#0e4429"/>

<rect
x="722"
y="76"
width="12"
height="12"
rx="2"
fill="#0e4429"/>

<rect
x="722"
y="93"
width="12"
height="12"
rx="2"
fill="#0e4429"/>

<rect
x="722"
y="110"
width="12"
height="12"
rx="2"
fill="#0e4429"/>

<rect
x="722"
y="127"
width="12"
height="12"
rx="2"
fill="#0e4429"/>

<rect
x="739"
y="25"
width="12"
height="12"
rx="2"
fill="#0e4429"/>

<rect
x="739"
y="42"
width="12"
height="12"
rx="2"
fill="#0e4429"/>

<rect
x="739"
y="59"
width="12"
height="12"
rx="2"
fill="#0e4429"/>

<rect
x="739"
y="76"
width="12"
height="12"
rx="2"
fill="#0e4429"/>

<rect
x="739"
y="93"
width="12"
height="12"
rx="2"
fill="#0e4429"/>

<rect
x="739"
y="110"
width="12"
height="12"
rx="2"
fill="#0e4429"/>

<rect
x="739"
y="127"
width="12"
height="12"
rx="2"
fill="#0e4429"/>

<rect
x="756"
y="25"
width="12"
height="12"
rx="2"
fill="#0e4429"/>

<rect
x="756"
y="42"
width="12"
height="12"
rx="2"
fill="#0e4429"/>

<rect
x="756"
y="59"
width="12"
height="12"
rx="2"
fill="#0e4429"/>

<rect
x="756"
y="76"
width="12"
height="12"
rx="2"
fill="#0e4429"/>

<rect
x="756"
y="93"
width="12"
height="12"
rx="2"
fill="#0e4429"/>

<rect
x="756"
y="110"
width="12"
height="12"
rx="2"
fill="#0e4429"/>

<rect
x="756"
y="127"
width="12"
height="12"
rx="2"
fill="#0e4429"/>

<rect
x="773"
y="25"
width="12"
height="12"
rx="2"
fill="#0e4429"/>

<rect
x="773"
y="42"
width="12"
height="12"
rx="2"
fill="#0e4429"/>

<rect
x="773"
y="59"
width="12"
height="12"
rx="2"
fill="#0e4429"/>

<rect
x="773"
y="76"
width="12"
height="12"
rx="2"
fill="#0e4429"/>

<rect
x="773"
y="93"
width="12"
height="12"
rx="2"
fill="#0e4429"/>

<rect
x="773"
y="110"
width="12"
height="12"
rx="2"
fill="#0e4429"/>

<rect
x="773"
y="127"
width="12"
height="12"
rx="2"
fill="#0e4429"/>

<rect
x="790"
y="25"
width="12"
height="12"
rx="2"
fill="#0e4429"/>

<rect
x="790"
y="42"
width="12"
height="12"
rx="2"
fill="#0e4429"/>

<rect
x="790"
y="59"
width="12"
height="12"
rx="2"
fill="#0e4429"/>

<rect
x="790"
y="76"
width="12"
height="12"
rx="2"
fill="#0e4429"/>

<rect
x="790"
y="93"
width="12"
height="12"
rx="2"
fill="#0e4429"/>

<rect
x="790"
y="110"
width="12"
height="12"
rx="2"
fill="#0e4429"/>

<rect
x="790"
y="127"
width="12"
height="12"
rx="2"
fill="#0e4429"/>

<rect
x="807"
y="25"
width="12"
height="12"
rx="2"
fill="#0e4429"/>

<rect
x="807"
y="42"
width="12"
height="12"
rx="2"
fill="#0e4429"/>

<rect
x="807"
y="59"
width="12"
height="12"
rx="2"
fill="#0e4429"/>

<rect
x="807"
y="76"
width="12"
height="12"
rx="2"
fill="#0e4429"/>

<rect
x="807"
y="93"
width="12"
height="12"
rx="2"
fill="#0e4429"/>

<rect
x="807"
y="110"
width="12"
height="12"
rx="2"
fill="#0e4429"/>

<rect
x="807"
y="127"
width="12"
height="12"
rx="2"
fill="#0e4429"/>

<rect
x="824"
y="25"
width="12"
height="12"
rx="2"
fill="#0e4429"/>

<rect
x="824"
y="42"
width="12"
height="12"
rx="2"
fill="#0e4429"/>

<rect
x="824"
y="59"
width="12"
height="12"
rx="2"
fill="#0e4429"/>

<rect
x="824"
y="76"
width="12"
height="12"
rx="2"
fill="#0e4429"/>

<rect
x="824"
y="93"
width="12"
height="12"
rx="2"
fill="#0e4429"/>

<rect
x="824"
y="110"
width="12"
height="12"
rx="2"
fill="#0e4429"/>

<rect
x="824"
y="127"
width="12"
height="12"
rx="2"
fill="#0e4429"/>

<rect
x="841"
y="25"
width="12"
height="12"
rx="2"
fill="#0e4429"/>

<rect
x="841"
y="42"
width="12"
height="12"
rx="2"
fill="#0e4429"/>

<rect
x="841"
y="59"
width="12"
height="12"
rx="2"
fill="#0e4429"/>

<rect
x="841"
y="76"
width="12"
height="12"
rx="2"
fill="#0e4429"/>

<rect
x="841"
y="93"
width="12"
height="12"
rx="2"
fill="#0e4429"/>

<rect
x="841"
y="110"
width="12"
height="12"
rx="2"
fill="#0e4429"/>

<rect
x="841"
y="127"
width="12"
height="12"
rx="2"
fill="#0e4429"/>

<rect
x="858"
y="25"
width="12"
height="12"
rx="2"
fill="#0e4429"/>

<rect
x="858"
y="42"
width="12"
height="12"
rx="2"
fill="#0e4429"/>

<rect
x="858"
y="59"
width="12"
height="12"
rx="2"
fill="#0e4429"/>

<rect
x="858"
y="76"
width="12"
height="12"
rx="2"
fill="#0e4429"/>

<rect
x="858"
y="93"
width="12"
height="12"
rx="2"
fill="#0e4429"/>

<rect
x="858"
y="110"
width="12"
height="12"
rx="2"
fill="#0e4429"/>

<rect
x="858"
y="127"
width="12"
height="12"
rx="2"
fill="#0e4429"/>

<rect
x="875"
y="25"
width="12"
height="12"
rx="2"
fill="#0e4429"/>

<rect
x="875"
y="42"
width="12"
height="12"
rx="2"
fill="#0e4429"/>

<rect
x="875"
y="59"
width="12"
height="12"
rx="2"
fill="#0e4429"/>

<rect
x="875"
y="76"
width="12"
height="12"
rx="2"
fill="#0e4429"/>

<rect
x="875"
y="93"
width="12"
height="12"
rx="2"
fill="#0e4429"/>

<rect
x="875"
y="110"
width="12"
height="12"
rx="2"
fill="#0e4429"/>

<rect
x="875"
y="127"
width="12"
height="12"
rx="2"
fill="#0e4429"/>

<rect
x="892"
y="25"
width="12"
height="12"
rx="2"
fill="#0e4429"/>

<rect
x="892"
y="42"
width="12"
height="12"
rx="2"
fill="#0e4429"/>

<rect
x="892"
y="59"
width="12"
height="12"
rx="2"
fill="#0e4429"/>

<rect
x="892"
y="76"
width="12"
height="12"
rx="2"
fill="#0e4429"/>

<rect
x="892"
y="93"
width="12"
height="12"
rx="2"
fill="#0e4429"/>

<rect
x="892"
y="110"
width="12"
height="12"
rx="2"
fill="#0e4429"/>

<rect
x="892"
y="127"
width="12"
height="12"
rx="2"
fill="#0e4429"/>

<rect
x="909"
y="25"
width="12"
height="12"
rx="2"
fill="#0e4429"/>

<rect
x="909"
y="42"
width="12"
height="12"
rx="2"
fill="#0e4429"/>

<rect
x="909"
y="59"
width="12"
height="12"
rx="2"
fill="#0e4429"/>

<rect
x="909"
y="76"
width="12"
height="12"
rx="2"
fill="#0e4429"/>

<rect
x="909"
y="93"
width="12"
height="12"
rx="2"
fill="#0e4429"/>

<rect
x="909"
y="110"
width="12"
height="12"
rx="2"
fill="#0e4429"/>

<rect
x="909"
y="127"
width="12"
height="12"
rx="2"
fill="#0e4429"/>

</svg>